<svg id="a8250cf7-b89c-4c11-9640-62f66d108a72" data-name="Layer 1" xmlns="http://www.w3.org/2000/svg" width="1008" height="765.5" viewBox="0 0 1008 765.5"><defs><style>.ab68fc5a-40bc-4577-bb31-d74b66bf4b95{fill:#fff;}</style></defs><polygon class="ab68fc5a-40bc-4577-bb31-d74b66bf4b95" points="506.06 583.63 0.51 291.82 0 473.69 505.54 765.5 1007.49 473.69 1008 291.82 506.06 583.63"/><path d="M944.81,348.84c18-11.3,42.64-21.57,41.1,3.6-.52,5.65-3.08,10.28-6.17,14.39a29.07,29.07,0,0,1-12.84,8.22c-9.25,3.59-16.44,10.27-21.58,18.49-5.14,9.25-6.16,20-6.16,23.63,0,5.14,1.54,23.12,15.92,14.39a28.94,28.94,0,0,0,4.63-3.6c3.59-3.59,6.67-7.7,7.19-13.87l-6.17,3.6c-7.19,4.62-7.19-7.71-7.19-8.22,0-13.36,6.68-17.47,6.68-17.47l24.66-15.41c.51,0,7.71-4.63,7.19,8.22-1,44.69-12.33,76.55-42.13,95-22.6,13.36-46.23,0-46.23-41.1,0-41.61,17.46-75,41.1-89.91"/><path d="M301.58,485c31.34,19,56,59.6,56,102.24,0,41.61-25.18,53.43-56.52,34.42-29.28-17.47-55-57-54.45-100.7,0-42.64,24.66-53.94,55-36m2.57,89.91C313.91,579.52,318,572.33,317,561c-1-11.82-6.16-23.64-16.44-28.77-9.76-5.14-13.87,2.57-12.84,14.38,1,11.3,6.68,23.64,16.44,28.26"/><path d="M470.09,582.61c-6.68-3.6-13.36-3.6-18,0l-22.61,18-25.17-46.76c-2.57-5.13-8.22-14.38-16.44-19-4.11-2.57-7.71-3.6-10.79-3.6-12.33,0-12.84,16.95-12.84,19l-.52,81.17c-.51,6.17,0,26.72,19.53,38a13.34,13.34,0,0,0,5.65,1.54c10.79,0,13.36-18.49,13.36-29.28V628.33l20,32.88a17.68,17.68,0,0,0,5.14,5.65c2.57,1.54,5.65,1,8.73-1.54l15.42-10.79v22.61c0,14.38,1.54,34.93,15.92,43.15,4.11,2.06,7.71,3.6,10.79,3.6h0c9.25,0,12.85-10.28,12.85-19l.51-83.23c0-2-.51-26.71-21.58-39"/><path d="M106.86,440.81c16.44,14.9,18,29.8,18,39,0,21.58-11.81,29.8-41.1,12.85L44.18,469.58c-24.66-14.39-24.66-39.05-24.66-40.08L20,350.39c0-1,0-25.69,24.66-11.31L84.26,362.2c29.28,17,40.58,38.53,40.58,60.63.52,9.76-1,22.6-18,18M74,454.68c6.17,3.6,8.74,0,8.74-4.11,0-5.65-2.57-11.82-8.22-14.9L62.68,429v19.52L74,454.68m.52-46.24c5.65,3.08,8.22,0,8.22-5.65A17.87,17.87,0,0,0,74,388.4l-11.3-6.68v19.53l11.82,7.19"/><path d="M187,421.28c31.34,19,55,59.6,54.46,102.24,0,41.62-24.15,53.43-55.49,34.42-29.28-17.46-57-58.05-56.51-101.72.51-43.16,27.23-53.43,57.54-34.94m.51,88.37c9.76,4.11,13.87-3.08,12.33-14.9s-7.7-23.63-18-27.74-13.87,3.6-11.81,14.9c1,11.81,7.7,23.63,17.46,27.74"/><path d="M831.78,417.17c5.14-3.08,9.25-1.54,12.33,2.06l22.09,27.23V423.34c0-1-2.57-25.69,13.87-34.94s16.44,15.42,16.44,16.44V485.5c0,1,0,25.69-15.92,35.45-3.6,2.06-6.17,1-9.76-2.56l-22.61-28.78v24.67c0,1,0,25.68-16.44,35.44-15.93,9.25-16.44-15.41-16.44-16.44V452.62c0-1,0-26.2,16.44-35.45"/><path d="M586.2,561c1.54-.52,16.44-9.25,16.44,10.79,0,20.55-15.41,29.28-16.44,29.79l-27.74,15.93v11.3l28.77-16.44c5.14-3.08,10.79-3.08,10.79,7.2,0,10.79-5.65,16.95-10.79,20l-28.77,16.44v11.31l27.74-15.93c1.54-.51,16.44-9.25,16.44,10.79,0,20.55-15.41,29.28-16.44,29.8l-45.72,26.2c-22.09,12.84-22.09-12.33-22.09-13.36V625.76c0-1,0-25.69,23.11-39Z"/><path d="M808.66,525.58a29.9,29.9,0,0,1,3.08,13.36c0,13.87-9.24,27.23-18,32.36-5.65,3.09-10.79,1.54-13.36-4.11L777.32,559l-33.39,19-4.11,15.41c-2.57,8.74-7.71,16.44-13.36,19.53-8.22,4.62-20,2.05-20-12.33a45.28,45.28,0,0,1,2.57-14.9L742.9,479.85c1.54-4.62,5.14-14.9,15.41-20.55,10.28-6.16,15.93-.51,17.47,2.06Zm-56.51,20.55,20-11.3-9.24-30.32-10.79,41.62"/><polygon points="502.46 0 1008 291.82 506.06 583.63 0.51 291.82 502.46 0"/><path class="ab68fc5a-40bc-4577-bb31-d74b66bf4b95" d="M772.18,218.86l-229.65-130L521,76.55c-13.35-5.14-33.39-7.19-57,4.62L147.45,265.1s-29.28,15.41-7.71,32.88L399.19,447.49c76.55,45.72,160.3,50.86,231.2,12.84,46.75-25.17,46.75-67.82,23.11-95.05,38.54,10.28,88.89,9.25,133.07-14.38,74.49-39,66.27-86.83-14.39-132"/><path d="M606.24,239.41l-38-21.58c-.51,0-1-.51-1.54-1-7.19-4.63-12.85-3.6-16.44-2.06l-3.08,1.54a.51.51,0,0,0-.52.52h0L515.3,234.28h0s-7.19,5.65,0,10.78h0l39.56,22.61c19.53,11.3,39.56,12.84,56.52,3.08,17-9.25,14.38-20-5.14-31.34"/><path d="M472.66,321.61,428,295.41a4.44,4.44,0,0,1-3.08-1.54c-5.14-3.08-9.76-3.59-12.84-3.08l-42.13,23.12c-1.54,2-2.57,5.65,2,8.22h0l47.27,27.74c18.49,10.79,40.07,11.3,55.49,3.08,17.46-8.22,16.95-20-2.06-31.34"/><path d="M687.93,566.68c13.35-1.54,13.35,8.22,13.35,24.15v9.24c0,1,0,24.66-20,36-19.53,11.3-16.44-15.42-16.44-16.44V602.13c0-9.76-2.57-10.79-4.63-9.25l-10.27,7.19v30.32c0,1-.52,24.14-19.52,35.44-19,10.79-20-11.3-20-12.84V572.33c0-1,0-25.69,22.6-39.05l36.48-21.57c27.23-15.42,34.42-5.14,34.94,16.44,0,9.24-1,23.63-16.44,38.53m-25.69,1.54c5.14-3.08,7.7-9.25,7.7-14.39,0-4.11-2.05-10.78-8.22-7.19l-14.89,9.25V578l10.78-6.68"/></svg>