<svg id="bc54e01d-9b44-4f43-bdab-c7b32de0a58a" data-name="Layer 1" xmlns="http://www.w3.org/2000/svg" width="1008" height="603.06" viewBox="0 0 1008 603.06"><defs><style>.e5c35aa0-58c5-498b-a859-4824329db9d8{fill:#fff;}</style></defs><rect class="e5c35aa0-58c5-498b-a859-4824329db9d8" x="504" width="504" height="504"/><rect width="504" height="504"/><path class="e5c35aa0-58c5-498b-a859-4824329db9d8" d="M336.41,292.17a81,81,0,1,1,0-80.34l125.1-71.47C399.85,32.46,262.4-5,154.5,56.63s-145.39,199.1-83.74,307,199.11,145.39,307,83.73a225.05,225.05,0,0,0,83.74-83.73Z"/><polygon points="972 468 972 36 828.01 36 828.01 215.99 683.99 36 540 36 540 468 683.99 468 683.99 287.98 828.01 468 972 468"/><polygon points="758.88 585.09 766.17 601.71 783.28 601.71 795.05 540 774.31 540 769.17 567.1 758.88 542.14 748.6 567.1 743.46 540 722.72 540 734.49 601.71 751.6 601.71 758.88 585.09"/><polygon points="717.74 540 656.03 540 656.03 558 675.32 558 675.32 601.71 698.46 601.71 698.46 558 717.74 558 717.74 540"/><path d="M828.64,538.71a32.14,32.14,0,1,0,32.14,32.14h0a32.18,32.18,0,0,0-32.14-32.14m0,43.71a11.57,11.57,0,1,1,11.57-11.57h0a11.57,11.57,0,0,1-11.57,11.57"/><polygon points="586.61 601.71 586.61 540 566.04 540 566.04 565.71 545.47 540 524.9 540 524.9 601.71 545.47 601.71 545.47 576 566.04 601.71 586.61 601.71"/><polygon points="649.28 558 649.28 540 595.28 540 595.28 601.71 649.28 601.71 649.28 585 615.85 585 615.85 578.8 644.13 578.8 644.13 563.37 615.85 563.37 615.85 558 649.28 558"/><path d="M926,561.85A22.12,22.12,0,0,0,903.66,540l-.72,0H867v61.71h20.57v-18h6.59l9,18h23.08L914,581.2a22,22,0,0,0,12.23-19.35M887.68,558h12.85a5.14,5.14,0,1,1,0,10.28H887.68Z"/><polygon points="994.81 540 968.38 540 953.05 560.21 953.05 540 932.48 540 932.48 601.71 953.05 601.71 953.05 578.7 968.38 601.71 994.81 601.71 970.82 569.67 994.81 540"/><path d="M125.27,601.77h21.85l-19.28-61.71H97L77.73,601.77h22l2.93-10.28H122.4ZM107,576.06l5.44-18.95,5.48,19Z"/><polygon points="279.48 540.06 217.77 540.06 217.77 558.06 237.05 558.06 237.05 601.77 260.19 601.77 260.19 558.06 279.48 558.06 279.48 540.06"/><path d="M59.83,577.12a12.76,12.76,0,1,1,0-12.63l16.78-9.63a32.14,32.14,0,1,0,0,31.88Z"/><path d="M314.19,538.78a32.14,32.14,0,1,0,32.14,32.14h0a32.14,32.14,0,0,0-32.14-32.14m0,43.71a11.57,11.57,0,1,1,11.57-11.57h0a11.57,11.57,0,0,1-11.57,11.57"/><path d="M383.61,538.78a32.14,32.14,0,1,0,32.14,32.14h0a32.14,32.14,0,0,0-32.14-32.14m0,43.71a11.57,11.57,0,1,1,11.57-11.57h0a11.57,11.57,0,0,1-11.57,11.57"/><polygon points="483.6 601.77 483.6 540.06 463.02 540.06 463.02 565.78 442.45 540.06 421.88 540.06 421.88 601.77 442.45 601.77 442.45 576.06 463.02 601.77 483.6 601.77"/><path d="M212.29,561.92A22.12,22.12,0,0,0,189.93,540l-.71,0H153.15v61.71h20.57v-18h6.6l9.06,18h23.08l-12.23-20.53a22,22,0,0,0,12.23-19.32m-38.57-3.86h12.86a5.15,5.15,0,0,1,0,10.29h-13Z"/></svg>