<?xml version="1.0" encoding="UTF-8" standalone="no"?>
<svg
   version="1.1"
   width="1000"
   height="757.92981"
   xml:space="preserve"
   viewBox="0 0 1000 757.92981"
   id="svg6862"
   xmlns="http://www.w3.org/2000/svg"
   xmlns:svg="http://www.w3.org/2000/svg"><metadata
     id="metadata156" /><defs
     id="defs154" /><path
     d="M 208.88847,172.10017 V 285.18035 L 113.32526,403.18149 H 21.794906 Z"
     id="path45824" /><path
     d="m 138.01985,686.86226 h 70.774 v 70.9754 h -70.774 z"
     id="path45820" /><path
     d="m 346.53706,686.95688 h 158.73495 v 70.97296 H 346.53706 Z"
     id="path45816" /><path
     d="m 242.17048,540.6772 h 71.17679 v 217.16046 h -71.17679 z"
     id="path45812" /><path
     d="m 0,436.4659 h 313.34727 v 70.973 H 0 Z"
     id="path45808" /><path
     d="m 450.84057,436.40041 h 109.13469 v 70.97295 H 450.84057 Z"
     id="path45804" /><path
     d="M 417.51003,97.715529 V 653.67244 h -70.9754 V 185.37803 Z"
     id="path45800" /><path
     d="M 313.34727,43.082671 V 403.18149 H 242.17048 V 130.99268 Z"
     id="path45796" /><path
     d="m 354.11747,0 60.21384,48.753423 -67.79425,83.661187 V 9.3590459 Z"
     id="path45792" /><path
     d="m 685.2174,105.64442 v 88.63947 h -89.13318 v 50.12628 h 89.13318 v 88.61667 h 51.36903 v -88.61667 h 89.13305 v -12.04673 -38.07955 h -89.13305 v -88.63947 z"
     id="path249" /><path
     d="M 956.61498,31.199404 859.97963,79.75147 v 58.93325 L 943.58349,97.570617 V 354.56807 h 56.41648 V 31.199404 Z"
     id="path251" /></svg>
