<?xml version="1.0" encoding="UTF-8" standalone="no"?>
<svg
   version="1.1"
   width="1000"
   height="612.26227"
   xml:space="preserve"
   id="svg4129"
   xmlns="http://www.w3.org/2000/svg"
   xmlns:svg="http://www.w3.org/2000/svg"><metadata
     id="metadata156" /><defs
     id="defs154" /><path
     d="M 523.24802,25.203153 V 286.42316 h 45.30766 V 173.4396 h 118.95419 v 112.98356 h 45.30766 V 25.203153 h -7.17912 -38.12854 V 130.48366 H 568.55568 V 25.203153 Z"
     id="path924" /><path
     d="M 788.11037,25.203156 V 286.42319 h 84.07502 c 24.34394,0 46.59363,-5.4315 66.28522,-16.33828 19.25425,-10.69275 34.54415,-26.15568 45.48178,-45.93208 v -0.0145 l 0.0145,-0.0145 C 994.72364,204.47112 1000,181.57876 1000,155.82533 c 0,-25.75344 -5.27636,-48.66298 -16.03307,-68.315815 l -0.0145,-0.03608 -0.0145,-0.03608 C 973.0115,67.928259 957.88602,52.509852 938.9211,41.591013 l -0.0507,-0.03609 -0.0509,-0.01443 C 920.45992,31.371508 899.70059,25.891017 877.27014,25.205819 l -0.63785,-8e-5 z m 45.06851,42.006566 h 37.24991 c 15.64685,0 29.25715,3.35649 41.29705,9.984533 11.93133,6.56822 21.60617,16.33756 29.27637,29.833525 7.06479,13.01462 10.74613,28.92525 10.74613,48.08991 0,19.19395 -3.67749,35.11585 -10.7634,48.14144 -7.18473,13.20738 -16.71465,22.96134 -28.9319,29.78214 -11.79448,6.46444 -24.61606,9.60444 -38.61044,10.00163 l -0.0363,-0.0361 h -40.22925 z"
     id="path926" /><path
     d="m 168.74192,139.02401 v 91.34715 L 91.545129,325.6935 H 17.606114 Z"
     id="path45824" /><path
     d="m 111.49363,554.85329 h 57.17185 v 57.33454 h -57.17185 z"
     id="path45820" /><path
     d="m 279.93564,554.92972 h 128.22747 v 57.33257 H 279.93564 Z"
     id="path45816" /><path
     d="m 195.62741,436.76373 h 57.49723 v 175.4241 h -57.49723 z"
     id="path45812" /><path
     d="m 0,352.58094 h 253.12464 v 57.3326 H 0 Z"
     id="path45808" /><path
     d="m 364.19292,352.52803 h 88.15995 v 57.33257 h -88.15995 z"
     id="path45804" /><path
     d="M 337.26822,78.935451 V 528.04226 H 279.93368 V 149.74998 Z"
     id="path45800" /><path
     d="M 253.12464,34.802555 V 325.6935 H 195.62741 V 105.81702 Z"
     id="path45796" /><path
     d="m 286.05916,0 48.64126,39.383438 -54.76478,67.582232 V 7.5603184 Z"
     id="path45792" /></svg>
