<?xml version="1.0" encoding="UTF-8" standalone="no"?>
<!-- Created with Inkscape (http://www.inkscape.org/) -->
<svg
   xmlns:dc="http://purl.org/dc/elements/1.1/"
   xmlns:cc="http://web.resource.org/cc/"
   xmlns:rdf="http://www.w3.org/1999/02/22-rdf-syntax-ns#"
   xmlns:svg="http://www.w3.org/2000/svg"
   xmlns="http://www.w3.org/2000/svg"
   xmlns:xlink="http://www.w3.org/1999/xlink"
   xmlns:sodipodi="http://sodipodi.sourceforge.net/DTD/sodipodi-0.dtd"
   xmlns:inkscape="http://www.inkscape.org/namespaces/inkscape"
   width="698"
   height="146"
   id="svg2"
   sodipodi:version="0.32"
   inkscape:version="0.45.1"
   version="1.0">
  <g
     inkscape:label="Layer 1"
     inkscape:groupmode="layer"
     id="layer1"
     transform="translate(-370.52255,-338.28085)">
    <polygon
       style="fill:#e2001a"
       points="362.221,146.34 362.221,146.34 362.215,146.416 362.208,146.486 362.195,146.556 362.176,146.626 362.151,146.69 362.119,146.76 362.081,146.824 362.036,146.888 361.979,146.951 361.915,147.001 361.845,147.047 361.782,147.084 361.705,147.117 361.629,147.136 361.552,147.149 361.47,147.155 361.393,147.149 361.323,147.136 361.253,147.111 361.189,147.079 361.119,147.028 361.062,146.977 361.011,146.913 360.966,146.849 360.935,146.779 360.915,146.697 360.903,146.614 360.896,146.525 360.903,146.416 360.922,146.314 360.954,146.219 360.998,146.136 361.049,146.066 361.1,146.001 361.164,145.945 361.234,145.894 361.31,145.856 361.393,145.824 361.482,145.799 361.578,145.78 361.578,145.722 361.571,145.671 361.546,145.62 361.508,145.582 361.457,145.543 361.393,145.518 361.317,145.493 361.221,145.479 361.125,145.479 361.03,145.487 360.947,145.499 360.865,145.512 360.788,145.531 360.718,145.55 360.654,145.582 360.597,145.608 360.521,145.652 360.45,145.703 360.38,145.753 360.317,145.811 360.259,145.875 360.202,145.939 360.151,146.009 360.107,146.079 360.037,146.206 359.967,146.365 359.89,146.563 359.814,146.792 359.686,147.263 359.508,147.894 360.521,147.894 360.521,148.128 359.457,148.128 359.285,148.741 359.088,149.41 358.858,150.148 358.604,150.944 358.33,151.779 358.075,152.511 357.96,152.835 357.852,153.128 357.744,153.403 357.642,153.645 357.508,153.931 357.381,154.199 357.158,154.657 356.967,155.02 356.808,155.293 356.706,155.459 356.591,155.625 356.483,155.778 356.362,155.925 356.241,156.071 356.12,156.21 355.992,156.345 355.865,156.472 355.687,156.638 355.515,156.784 355.432,156.848 355.349,156.912 355.266,156.963 355.184,157.014 355.12,157.039 355.056,157.065 354.993,157.09 354.923,157.103 354.853,157.116 354.776,157.127 354.7,157.135 354.617,157.135 354.464,157.127 354.318,157.109 354.254,157.09 354.19,157.071 354.133,157.052 354.076,157.026 354.018,156.995 353.967,156.963 353.923,156.931 353.878,156.893 353.84,156.848 353.802,156.804 353.77,156.759 353.738,156.708 353.687,156.593 353.655,156.479 353.63,156.364 353.623,156.3 353.623,156.243 353.623,156.167 353.636,156.097 353.649,156.027 353.668,155.963 353.693,155.917 353.713,155.874 353.744,155.829 353.77,155.791 353.846,155.714 353.929,155.644 353.974,155.613 354.025,155.586 354.069,155.568 354.12,155.549 354.171,155.536 354.222,155.523 354.273,155.517 354.33,155.517 354.394,155.517 354.458,155.53 354.521,155.542 354.579,155.562 354.63,155.586 354.687,155.625 354.732,155.663 354.776,155.708 354.821,155.759 354.859,155.81 354.891,155.867 354.916,155.925 354.942,155.982 354.961,156.046 354.974,156.109 354.98,156.173 354.98,156.243 354.98,156.307 354.967,156.371 354.954,156.434 354.929,156.491 354.897,156.549 354.865,156.6 354.821,156.651 354.783,156.689 354.738,156.721 354.693,156.752 354.649,156.778 354.604,156.804 354.553,156.823 354.502,156.834 354.445,156.848 354.445,156.867 354.445,156.893 354.458,156.912 354.477,156.931 354.502,156.944 354.534,156.95 354.604,156.956 354.662,156.956 354.712,156.95 354.77,156.937 354.827,156.917 354.942,156.874 355.063,156.81 355.12,156.771 355.177,156.733 355.266,156.657 355.343,156.581 355.4,156.498 355.458,156.402 355.515,156.288 355.579,156.16 355.636,156.014 355.693,155.854 355.75,155.676 355.808,155.485 355.865,155.281 356.031,154.651 356.19,154.027 356.349,153.454 356.54,152.779 356.776,152.008 357.043,151.142 357.324,150.276 357.578,149.486 357.82,148.773 358.05,148.128 357.018,148.128 357.018,147.894 358.145,147.894 358.273,147.625 358.406,147.372 358.553,147.117 358.705,146.869 358.82,146.708 358.928,146.556 359.049,146.41 359.164,146.276 359.285,146.142 359.412,146.028 359.54,145.913 359.667,145.811 359.852,145.684 360.03,145.569 360.202,145.479 360.374,145.404 360.463,145.372 360.546,145.346 360.629,145.321 360.712,145.302 360.794,145.289 360.877,145.283 360.96,145.276 361.043,145.276 361.164,145.283 361.291,145.302 361.412,145.327 361.533,145.366 361.648,145.41 361.75,145.467 361.845,145.531 361.928,145.608 361.998,145.697 362.062,145.792 362.113,145.9 362.157,146.015 362.183,146.098 362.202,146.181 362.215,146.264 362.221,146.34 "
       id="polygon3841"
       transform="matrix(12.311325,0,0,12.311325,-3450.8388,-1450.2592)" />
    <path
       d="M 841.11065,439.34449 L 841.11065,439.34449 L 838.13131,439.65226 L 836.72776,439.73846 L 835.31203,439.81232 L 833.99467,439.81232 L 832.65272,439.73846 L 831.4093,439.5784 L 830.14121,439.33223 L 828.73773,439.01213 L 827.32192,438.70436 L 825.99231,438.31039 L 824.67503,437.84257 L 823.40694,437.37466 L 822.15118,436.82072 L 820.98162,436.27896 L 819.78739,435.72502 L 818.60549,435.0232 L 817.50979,434.39533 L 816.41408,433.68133 L 815.39224,432.90566 L 814.38273,432.11773 L 813.36089,431.25594 L 812.4129,430.39415 L 811.47725,429.4585 L 810.54161,428.35054 L 809.59362,427.25476 L 808.67031,426.08519 L 807.88238,424.98949 L 807.09444,423.8076 L 806.31885,422.71189 L 805.69097,421.53 L 805.06309,420.36043 L 804.49674,419.17854 L 803.95505,417.92278 L 803.47489,416.75322 L 803.1056,415.49746 L 802.78549,414.31557 L 802.47772,413.05981 L 802.24381,411.81639 L 802.08376,410.56063 L 801.91137,409.30488 L 801.75131,407.97526 L 801.75131,406.71951 L 801.75131,405.37756 L 801.83751,402.87838 L 802.14528,400.44073 L 802.37919,398.95106 L 802.6993,397.46139 L 803.16712,395.97172 L 803.63495,394.40819 L 804.33668,392.83233 L 805.06309,391.19495 L 805.91255,389.54522 L 806.8482,387.8955 L 807.79618,386.24578 L 808.89188,384.76845 L 809.98759,383.26644 L 811.08329,381.93683 L 812.17899,380.76727 L 813.37322,379.58537 L 814.54279,378.56353 L 815.72468,377.55394 L 817.75603,376.05201 L 819.87358,374.7224 L 822.08966,373.55276 L 824.35492,372.45706 L 826.64478,371.58301 L 829.07018,370.96739 L 831.49549,370.41337 L 834.007,370.1056 L 835.49667,369.94555 L 837.0602,369.85943 L 838.63606,369.85943 L 840.19959,369.94555 L 841.68926,370.01948 L 843.25279,370.17946 L 844.74245,370.41337 L 846.23212,370.72122 L 849.59309,371.66913 L 854.53,372.92488 L 855.6257,372.92488 L 856.57368,372.92488 L 857.27542,372.76491 L 857.52159,372.60485 L 857.7555,372.45706 L 857.92789,372.22315 L 858.08795,371.82918 L 858.55577,370.48731 L 859.02359,370.48731 L 859.02359,386.33198 L 858.55577,386.33198 L 858.30952,384.28829 L 858.00175,383.11873 L 857.69398,382.02302 L 857.22616,381.00118 L 856.59828,379.9054 L 855.89654,378.88363 L 854.8747,377.55394 L 853.6066,376.29818 L 852.28933,375.19022 L 850.87352,374.25458 L 849.22379,373.39278 L 847.48788,372.69097 L 845.61658,372.13703 L 843.58523,371.66913 L 841.14758,371.3491 L 838.79612,371.11519 L 837.70041,371.04125 L 836.60471,371.04125 L 835.50901,371.11519 L 834.48716,371.27516 L 833.30527,371.43521 L 832.12337,371.74306 L 830.94147,371.97698 L 829.84577,372.37094 L 828.75007,372.76491 L 827.72822,373.23273 L 826.63252,373.70056 L 825.69687,374.25458 L 824.67503,374.80852 L 823.72704,375.43639 L 822.79139,376.13821 L 821.9296,376.83995 L 821.08007,377.62788 L 820.29214,378.41573 L 819.51654,379.27752 L 818.72861,380.13939 L 817.70677,381.39515 L 816.84498,382.6509 L 815.99552,383.98052 L 815.13373,385.31013 L 814.432,386.72594 L 813.70559,388.12941 L 813.07771,389.70528 L 812.53603,391.19495 L 811.98201,392.75847 L 811.58804,394.40819 L 811.19408,396.13178 L 810.82478,397.85536 L 810.57854,399.57894 L 810.33229,401.46257 L 810.17223,403.26001 L 810.08612,405.22984 L 810.08612,406.55945 L 810.08612,407.88907 L 810.25843,409.21868 L 810.33229,410.56063 L 810.57854,411.81639 L 810.82478,413.05981 L 811.12022,414.31557 L 811.44033,415.57132 L 811.82196,416.75322 L 812.20366,418.00898 L 812.67149,419.17854 L 813.22551,420.36043 L 813.77945,421.45614 L 814.41966,422.63803 L 815.1214,423.73374 L 815.82314,424.82944 L 816.61107,425.92514 L 817.47286,427.02084 L 818.32239,427.96883 L 819.18418,428.97841 L 820.13217,429.84021 L 821.06781,430.702 L 822.00346,431.48985 L 823.01297,432.19166 L 824.12101,432.90566 L 825.14285,433.53354 L 826.32475,434.0753 L 827.42045,434.62924 L 828.59001,435.09714 L 829.85811,435.49103 L 831.11386,435.79888 L 832.38188,436.11891 L 833.47758,436.27896 L 834.73333,436.42676 L 836.00143,436.51287 L 837.25718,436.51287 L 838.67299,436.51287 L 840.00261,436.42676 L 841.47994,436.27896 L 842.96961,436.11891 L 844.70552,435.72502 L 846.50296,435.25712 L 848.47279,434.46926 L 850.50414,433.53354 L 852.69555,432.43783 L 854.98548,431.09596 L 857.4108,429.53236 L 859.90998,427.80878 L 859.90998,429.69241 L 857.64471,431.6499 L 855.29326,433.44742 L 854.11136,434.23535 L 853.01566,434.93709 L 851.83376,435.65108 L 850.65194,436.27896 L 849.47004,436.82072 L 848.3004,437.37466 L 847.10625,437.84257 L 845.93669,438.23653 L 844.75479,438.63042 L 843.4867,438.86441 L 842.31714,439.17218 L 841.11065,439.34449 z M 771.63784,370.97973 L 771.63784,370.97973 L 769.91426,371.21364 L 768.42459,371.52141 L 767.79671,371.75532 L 767.24269,371.98923 L 766.77487,372.30934 L 766.30705,372.61711 L 765.82688,373.09727 L 765.35906,373.5651 L 765.06355,374.10678 L 764.74344,374.6608 L 764.43567,375.20248 L 764.27562,375.83036 L 764.11556,376.54443 L 764.11556,377.24617 L 764.11556,432.36398 L 764.11556,433.15191 L 764.27562,433.93984 L 764.50953,434.71543 L 764.75578,435.34331 L 765.14974,435.97119 L 765.61757,436.52521 L 766.17159,436.99303 L 766.79946,437.46086 L 767.26729,437.69477 L 767.82131,437.92868 L 768.91701,438.32265 L 770.24662,438.55656 L 771.6501,438.64276 L 771.6501,439.18444 L 749.31741,439.18444 L 749.31741,438.64276 L 750.80708,438.4827 L 752.06283,438.24879 L 752.69071,438.08874 L 753.15854,437.85482 L 753.62636,437.62091 L 754.09419,437.387 L 754.72206,436.83298 L 755.27608,436.2913 L 755.74391,435.73728 L 756.13787,435.1094 L 756.44564,434.40766 L 756.67956,433.77978 L 756.83961,433.06571 L 756.83961,432.36398 L 756.83961,377.24617 L 756.83961,376.54443 L 756.67956,375.83036 L 756.53184,375.20248 L 756.27325,374.6608 L 755.97782,374.10678 L 755.58385,373.5651 L 755.11603,373.09727 L 754.6482,372.61711 L 754.25424,372.30934 L 753.79867,372.07543 L 753.2324,371.84152 L 752.60452,371.59527 L 751.90278,371.36136 L 751.11485,371.21364 L 749.31741,370.97973 L 749.31741,370.49956 L 771.6501,370.49956 L 771.6501,370.97973 L 771.63784,370.97973 z M 713.68842,430.56654 L 713.68842,430.56654 L 713.06054,431.58838 L 712.3588,432.59789 L 711.57087,433.54587 L 710.72142,434.40766 L 709.85962,435.18326 L 708.9239,435.89733 L 707.97599,436.59907 L 706.88029,437.22695 L 705.78451,437.69477 L 704.61495,438.16259 L 703.34693,438.55656 L 702.09118,438.95053 L 700.76156,439.18444 L 699.27182,439.41835 L 697.86834,439.50455 L 696.30481,439.5784 L 693.7933,439.5784 L 691.67576,439.41835 L 690.64158,439.34449 L 689.71826,439.18444 L 688.93033,438.95053 L 688.15474,438.71661 L 684.63372,437.3008 L 680.38629,435.66342 L 680.07852,435.57722 L 679.83227,435.57722 L 679.45064,435.66342 L 679.05667,435.81114 L 678.7489,436.13124 L 678.45339,436.52521 L 678.19488,436.99303 L 677.96097,437.62091 L 677.80092,438.32265 L 677.71472,439.18444 L 677.33309,439.18444 L 677.33309,422.72423 L 677.71472,422.72423 L 677.96097,424.2139 L 678.26874,425.61737 L 678.73657,426.95932 L 679.29058,428.21508 L 680.00466,429.47083 L 680.78025,430.56654 L 681.64204,431.66224 L 682.57769,432.68408 L 683.59954,433.69359 L 684.7691,434.55538 L 685.87714,435.34331 L 687.13289,435.97119 L 688.38865,436.59907 L 689.80446,437.06689 L 691.22027,437.46086 L 692.6114,437.69477 L 694.5689,437.92868 L 696.21862,438.01488 L 697.63443,437.85482 L 698.90252,437.69477 L 700.84768,437.3008 L 702.64512,436.67293 L 703.42079,436.36516 L 704.20872,435.97119 L 704.91046,435.57722 L 705.62453,435.1094 L 706.25241,434.64157 L 706.80635,434.17375 L 707.36037,433.61973 L 707.82819,433.06571 L 708.22216,432.45017 L 708.60387,431.82229 L 708.9855,431.10822 L 709.23175,430.40648 L 709.61338,429.31078 L 709.85962,428.04269 L 710.09354,426.71307 L 710.09354,425.13721 L 710.09354,424.36161 L 709.94574,423.49982 L 709.78569,422.71189 L 709.61338,421.8501 L 709.31786,421.06217 L 708.99783,420.27424 L 708.61613,419.49864 L 708.2345,418.78457 L 707.68048,418.00898 L 707.12646,417.2949 L 706.48632,416.59317 L 705.8707,415.89143 L 705.09511,415.17736 L 704.30717,414.47562 L 703.44538,413.84774 L 702.59593,413.21986 L 700.86001,412.12416 L 699.13643,411.10232 L 695.60308,408.98477 L 692.08206,406.95342 L 688.5487,404.74968 L 686.6774,403.42006 L 684.94149,402.09045 L 684.23975,401.30252 L 683.52568,400.60078 L 682.8116,399.89904 L 682.26992,399.11111 L 681.7159,398.32318 L 681.24808,397.54758 L 680.78025,396.75965 L 680.38629,395.97172 L 680.07852,395.18379 L 679.77075,394.322 L 679.53683,393.5464 L 679.37678,392.68461 L 679.05667,391.19495 L 678.90895,389.54522 L 678.98281,387.9817 L 679.05667,387.11991 L 679.14287,386.24578 L 679.53683,384.60839 L 680.00466,383.03253 L 680.63254,381.54286 L 681.33427,380.13939 L 682.19606,378.79744 L 683.14405,377.55394 L 684.15356,376.29818 L 685.33545,375.19022 L 686.66507,374.09452 L 688.06854,373.08494 L 689.6444,372.22315 L 691.29413,371.50915 L 692.94385,370.88127 L 694.74129,370.48731 L 696.62492,370.17946 L 698.50856,370.1056 L 699.67812,370.1056 L 700.69996,370.17946 L 701.79566,370.25339 L 702.9037,370.41337 L 704.86119,370.96739 L 706.81869,371.50915 L 708.30836,372.06309 L 709.56411,372.37094 L 710.58596,372.53092 L 711.05378,372.53092 L 711.44775,372.45706 L 711.68166,372.37094 L 711.92791,372.22315 L 712.16182,372.06309 L 712.33413,371.82918 L 712.56812,371.27516 L 712.7281,370.48731 L 713.1098,370.48731 L 713.1098,384.37448 L 712.7281,384.37448 L 712.34647,382.95867 L 711.9525,381.62906 L 711.39848,380.28711 L 710.8568,379.11755 L 710.30278,378.0957 L 709.5887,377.07386 L 708.88697,376.13821 L 708.09904,375.35028 L 707.07727,374.48849 L 706.05543,373.70056 L 705.13204,373.15879 L 704.11019,372.69097 L 703.00215,372.37094 L 701.7464,372.06309 L 700.25673,371.82918 L 698.45929,371.66913 L 696.96962,371.74306 L 695.55381,371.90304 L 694.138,372.22315 L 692.88225,372.69097 L 691.71269,373.23273 L 690.67858,373.94673 L 689.669,374.80852 L 688.73335,375.67031 L 687.94542,376.76609 L 687.16982,377.93565 L 686.52961,379.11755 L 686.06178,380.44716 L 685.68015,381.77678 L 685.37238,383.26644 L 685.21233,384.76845 L 685.21233,386.33198 L 685.21233,387.19377 L 685.29852,387.9817 L 685.37238,388.75729 L 685.61863,389.54522 L 685.85254,390.33316 L 686.08645,391.10875 L 686.40648,391.82282 L 686.80045,392.59842 L 687.18216,393.31249 L 687.66224,394.01423 L 688.75794,395.34384 L 690.0137,396.5996 L 691.50344,397.85536 L 697.92994,401.77034 L 704.28258,405.61147 L 706.16622,406.86722 L 707.8898,408.04912 L 709.37946,409.37874 L 710.78294,410.63449 L 711.96484,411.96411 L 712.98668,413.37992 L 713.92233,414.70953 L 714.62406,416.12534 L 715.01803,417.06099 L 715.3258,418.08283 L 715.57205,419.10468 L 715.7321,420.20038 L 715.80596,421.38228 L 715.89216,422.63803 L 715.80596,423.96765 L 715.7321,425.37112 L 715.64591,425.999 L 715.48586,426.62688 L 715.10423,427.88263 L 714.47635,429.21233 L 713.68842,430.56654 z M 638.81096,430.56654 L 638.81096,430.56654 L 638.10922,431.58838 L 637.40748,432.59789 L 636.68107,433.54587 L 635.83162,434.40766 L 634.96983,435.18326 L 634.03418,435.89733 L 633.01234,436.59907 L 631.99049,437.22695 L 630.89479,437.69477 L 629.72515,438.16259 L 628.45714,438.55656 L 627.12752,438.95053 L 625.79783,439.18444 L 624.39436,439.41835 L 622.90469,439.50455 L 621.42735,439.5784 L 618.91584,439.5784 L 616.69977,439.41835 L 615.77645,439.34449 L 614.8408,439.18444 L 613.97901,438.95053 L 613.20342,438.71661 L 609.67006,437.3008 L 605.42263,435.66342 L 605.18872,435.57722 L 604.94247,435.57722 L 604.48698,435.66342 L 604.16688,435.81114 L 603.78525,436.13124 L 603.55134,436.52521 L 603.29275,436.99303 L 603.05884,437.62091 L 602.89879,438.32265 L 602.81259,439.18444 L 602.34477,439.18444 L 602.34477,422.72423 L 602.81259,422.72423 L 603.05884,424.2139 L 603.36661,425.61737 L 603.83443,426.95932 L 604.38845,428.21508 L 605.02867,429.47083 L 605.80426,430.56654 L 606.66605,431.66224 L 607.6879,432.68408 L 608.70974,433.69359 L 609.80544,434.55538 L 610.98734,435.34331 L 612.25543,435.97119 L 613.49885,436.59907 L 614.8408,437.06689 L 616.23194,437.46086 L 617.72161,437.69477 L 619.60524,437.92868 L 621.32882,438.01488 L 622.74463,437.85482 L 623.9142,437.69477 L 625.95788,437.3008 L 627.6938,436.67293 L 628.54325,436.36516 L 629.33119,435.97119 L 630.033,435.57722 L 630.67314,435.1094 L 631.30101,434.64157 L 631.92889,434.17375 L 632.39672,433.61973 L 632.86454,433.06571 L 633.3447,432.45017 L 633.73867,431.82229 L 634.03418,431.10822 L 634.34195,430.40648 L 634.73592,429.31078 L 634.96983,428.04269 L 635.12988,426.71307 L 635.20374,425.13721 L 635.12988,424.36161 L 635.05595,423.49982 L 634.89597,422.71189 L 634.64972,421.8501 L 634.41581,421.06217 L 634.0957,420.27424 L 633.72633,419.49864 L 633.24625,418.78457 L 632.77842,418.00898 L 632.22441,417.2949 L 631.59653,416.59317 L 630.88245,415.89143 L 630.18072,415.17736 L 629.39279,414.47562 L 628.531,413.84774 L 627.6076,413.21986 L 625.87177,412.12416 L 624.13585,411.10232 L 620.61483,408.98477 L 617.08147,406.95342 L 613.63431,404.74968 L 611.68908,403.42006 L 610.0271,402.09045 L 609.25142,401.30252 L 608.53735,400.60078 L 607.90947,399.89904 L 607.2816,399.11111 L 606.73991,398.32318 L 606.25983,397.54758 L 605.79193,396.75965 L 605.49649,395.97172 L 605.10253,395.18379 L 604.85628,394.322 L 604.62237,393.5464 L 604.3762,392.68461 L 604.12995,391.19495 L 603.98223,389.54522 L 603.98223,387.9817 L 604.05609,387.11991 L 604.21614,386.24578 L 604.61011,384.60839 L 605.07793,383.03253 L 605.70581,381.54286 L 606.40755,380.13939 L 607.19548,378.79744 L 608.21732,377.55394 L 609.22683,376.29818 L 610.33487,375.19022 L 611.73834,374.09452 L 613.15415,373.08494 L 614.71768,372.22315 L 616.29354,371.50915 L 618.01712,370.88127 L 619.7407,370.48731 L 621.62434,370.17946 L 623.58183,370.1056 L 624.67753,370.1056 L 625.77324,370.17946 L 626.86894,370.25339 L 627.89078,370.41337 L 629.93447,370.96739 L 631.8181,371.50915 L 633.30777,372.06309 L 634.62505,372.37094 L 635.64689,372.53092 L 636.0286,372.53092 L 636.42257,372.45706 L 636.73034,372.37094 L 636.97659,372.22315 L 637.13656,372.06309 L 637.38281,371.82918 L 637.61672,371.27516 L 637.78911,370.48731 L 638.15841,370.48731 L 638.15841,384.37448 L 637.78911,384.37448 L 637.39515,382.95867 L 636.91499,381.62906 L 636.44716,380.28711 L 635.90548,379.11755 L 635.2776,378.0957 L 634.63739,377.07386 L 633.93565,376.13821 L 633.14772,375.35028 L 632.12587,374.48849 L 631.10403,373.70056 L 630.09452,373.15879 L 629.15887,372.69097 L 628.06317,372.37094 L 626.79508,372.06309 L 625.23155,371.82918 L 623.50797,371.66913 L 621.93211,371.74306 L 620.52864,371.90304 L 619.18668,372.22315 L 617.93093,372.69097 L 616.76137,373.23273 L 615.65333,373.94673 L 614.63148,374.80852 L 613.78203,375.67031 L 612.92024,376.76609 L 612.2185,377.93565 L 611.56595,379.11755 L 611.11047,380.44716 L 610.7165,381.77678 L 610.40873,383.26644 L 610.24867,384.76845 L 610.17482,386.33198 L 610.17482,387.19377 L 610.24867,387.9817 L 610.40873,388.75729 L 610.56878,389.54522 L 610.81495,390.33316 L 611.1228,391.10875 L 611.43057,391.82282 L 611.73834,392.59842 L 612.2185,393.31249 L 612.68633,394.01423 L 613.78203,395.34384 L 615.03779,396.5996 L 616.52745,397.85536 L 622.88009,401.77034 L 629.30659,405.61147 L 631.19023,406.86722 L 632.82761,408.04912 L 634.40347,409.37874 L 635.73309,410.63449 L 636.98885,411.96411 L 638.01069,413.37992 L 638.87248,414.70953 L 639.57422,416.12534 L 639.96818,417.06099 L 640.2637,418.08283 L 640.5222,419.10468 L 640.66992,420.20038 L 640.82997,421.38228 L 640.82997,422.63803 L 640.82997,423.96765 L 640.75611,425.37112 L 640.59606,425.999 L 640.5222,426.62688 L 640.04204,427.88263 L 639.50036,429.21233 L 638.81096,430.56654 z M 576.56492,439.27063 L 576.56492,438.79047 L 575.38302,438.71661 L 574.28732,438.39651 L 573.35159,438.01488 L 572.40368,437.53472 L 571.62801,436.90684 L 570.90168,436.13124 L 570.19994,435.26945 L 569.73212,434.24761 L 568.87033,432.13006 L 568.24245,430.40648 L 567.38066,427.98116 L 560.16623,406.64565 L 557.58078,399.2835 L 547.85484,370.42571 L 542.75796,370.42571 L 525.98997,423.19205 L 524.79574,426.95932 L 523.55232,430.71425 L 523.07216,432.0562 L 522.53048,433.22577 L 521.9026,434.32147 L 521.26239,435.26945 L 520.56065,436.04505 L 519.84658,436.75912 L 519.07098,437.3008 L 518.29538,437.85482 L 517.43359,438.24879 L 516.5718,438.4827 L 515.72235,438.64276 L 514.77436,438.71661 L 514.77436,439.02439 L 514.77436,439.27063 L 530.9268,439.27063 L 530.9268,438.71661 L 529.36328,438.39651 L 528.66154,438.24879 L 528.03366,438.01488 L 527.46731,437.69477 L 527.01182,437.46086 L 526.61785,437.15309 L 526.31008,436.75912 L 526.00223,436.2051 L 525.69446,435.42951 L 525.53441,434.40766 L 525.43596,433.31196 L 525.91612,431.03436 L 526.31008,429.07687 L 526.77791,427.42715 L 527.17187,426.01134 L 532.02251,411.43476 L 554.05976,411.43476 L 556.2635,417.86126 L 557.0391,419.90495 L 559.94457,428.21508 L 560.57245,430.24643 L 560.95408,431.89615 L 561.20033,433.15191 L 561.27419,433.93984 L 561.27419,434.64157 L 561.20033,435.26945 L 561.04028,435.81114 L 560.79411,436.36516 L 560.56019,436.75912 L 560.16623,437.15309 L 559.77226,437.53472 L 559.3167,437.78096 L 558.52877,438.08874 L 557.43306,438.39651 L 556.10345,438.64276 L 554.52758,438.79047 L 554.52758,439.27063 L 576.56492,439.27063 L 576.56492,439.27063 z M 553.50574,409.39107 L 532.73658,409.39107 L 542.69643,377.71399 L 553.50574,409.39107 z M 495.01463,439.18444 L 454.55968,439.18444 L 454.55968,438.64276 L 455.90155,438.39651 L 457.07119,438.16259 L 458.16689,437.78096 L 459.02868,437.3008 L 459.74275,436.75912 L 460.38289,436.2051 L 460.85071,435.66342 L 461.30628,435.03554 L 461.61405,434.48152 L 461.87256,433.85364 L 462.02028,433.22577 L 462.02028,432.59789 L 462.02028,377.01226 L 462.02028,376.45824 L 461.87256,375.99041 L 461.70025,375.44873 L 461.3924,374.96857 L 461.08463,374.42689 L 460.69066,373.95906 L 460.22284,373.4789 L 459.75501,373.01108 L 458.73317,372.23548 L 457.95757,371.75532 L 457.16964,371.52141 L 456.32019,371.2875 L 455.38454,371.05358 L 454.28883,370.97973 L 454.28883,370.49956 L 477.02783,370.49956 L 477.02783,370.97973 L 476.23989,371.05358 L 475.53816,371.21364 L 474.82408,371.44755 L 474.11001,371.68146 L 473.48213,371.98923 L 472.85426,372.30934 L 471.68469,373.09727 L 470.73671,373.95906 L 470.34274,374.42689 L 469.96111,374.96857 L 469.71487,375.44873 L 469.4687,375.91655 L 469.3209,376.45824 L 469.23478,377.01226 L 469.23478,432.20392 L 469.3209,432.68408 L 469.4687,433.22577 L 469.64101,433.69359 L 469.87492,434.08756 L 470.19503,434.55538 L 470.5644,434.94935 L 471.43845,435.73728 L 472.30024,436.2913 L 472.76814,436.52521 L 473.30982,436.75912 L 473.86384,436.90684 L 474.49172,436.99303 L 475.19346,437.06689 L 475.98139,437.15309 L 487.50477,437.15309 L 488.36656,437.06689 L 489.22835,436.99303 L 490.00394,436.75912 L 490.79188,436.52521 L 491.49361,436.2051 L 492.20769,435.73728 L 492.83556,435.26945 L 493.46344,434.71543 L 494.09132,434.08756 L 494.64534,433.45968 L 495.11316,432.68408 L 495.58099,431.89615 L 496.04881,431.03436 L 496.44278,430.08638 L 496.83674,429.07687 L 497.13218,427.98116 L 497.6862,427.98116 L 495.01463,439.18444 z M 409.95574,439.34449 L 409.95574,439.34449 L 406.98866,439.65226 L 405.57286,439.73846 L 404.15712,439.81232 L 402.82743,439.81232 L 401.51015,439.73846 L 400.18054,439.5784 L 398.92478,439.33223 L 397.50897,439.01213 L 396.17936,438.70436 L 394.84974,438.31039 L 393.52013,437.84257 L 392.26437,437.37466 L 390.99628,436.82072 L 389.74052,436.27896 L 388.57096,435.72502 L 387.46292,435.0232 L 386.28103,434.39533 L 385.27152,433.68133 L 384.16348,432.90566 L 383.15397,432.11773 L 382.20599,431.25594 L 381.27034,430.39415 L 380.33469,429.4585 L 379.31284,428.35054 L 378.3772,427.25476 L 377.51541,426.08519 L 376.65362,424.98949 L 375.87794,423.8076 L 375.16395,422.71189 L 374.53607,421.53 L 373.90819,420.36043 L 373.35417,419.17854 L 372.81249,417.92278 L 372.34459,416.75322 L 371.9507,415.49746 L 371.64285,414.31557 L 371.33508,413.05981 L 371.10117,411.81639 L 370.85492,410.56063 L 370.69494,409.30488 L 370.62101,407.97526 L 370.52255,406.71951 L 370.52255,405.37756 L 370.69494,402.87838 L 370.92885,400.44073 L 371.23663,398.95106 L 371.5444,397.46139 L 371.93836,395.97172 L 372.48005,394.40819 L 373.10792,392.83233 L 373.89586,391.19495 L 374.68379,389.54522 L 375.6071,387.8955 L 376.62894,386.24578 L 377.73698,384.76845 L 378.74649,383.26644 L 379.85453,381.93683 L 381.03643,380.76727 L 382.20599,379.58537 L 383.30169,378.56353 L 384.49592,377.55394 L 386.61347,376.05201 L 388.73102,374.7224 L 390.92242,373.55276 L 393.21236,372.45706 L 395.47762,371.58301 L 397.82908,370.96739 L 400.2544,370.41337 L 402.76591,370.1056 L 404.32944,369.94555 L 405.89296,369.85943 L 407.46883,369.85943 L 408.95849,369.94555 L 410.52202,370.01948 L 412.01169,370.17946 L 413.58755,370.41337 L 415.06488,370.72122 L 418.37666,371.66913 L 423.30124,372.92488 L 424.49539,372.92488 L 425.34484,372.92488 L 426.05892,372.76491 L 426.36669,372.60485 L 426.61294,372.45706 L 426.76065,372.22315 L 426.92071,371.82918 L 427.38853,370.48731 L 427.86869,370.48731 L 427.86869,386.33198 L 427.38853,386.33198 L 427.0931,384.28829 L 426.84685,383.11873 L 426.45288,382.02302 L 425.98506,381.00118 L 425.43104,379.9054 L 424.7293,378.88363 L 423.6336,377.55394 L 422.4517,376.29818 L 421.12209,375.19022 L 419.63242,374.25458 L 418.06889,373.39278 L 416.33298,372.69097 L 414.46168,372.13703 L 412.41799,371.66913 L 409.99267,371.3491 L 407.65347,371.11519 L 406.54551,371.04125 L 405.43747,371.04125 L 404.34177,371.11519 L 403.31993,371.27516 L 402.06417,371.43521 L 400.89461,371.74306 L 399.78657,371.97698 L 398.67853,372.37094 L 397.58283,372.76491 L 396.48713,373.23273 L 395.46528,373.70056 L 394.45578,374.25458 L 393.50779,374.80852 L 392.57214,375.43639 L 391.63649,376.13821 L 390.7747,376.83995 L 389.91291,377.62788 L 389.05112,378.41573 L 388.27545,379.27752 L 387.56145,380.13939 L 386.53961,381.39515 L 385.60388,382.6509 L 384.74209,383.98052 L 383.9665,385.31013 L 383.25242,386.72594 L 382.55069,388.12941 L 381.92281,389.70528 L 381.36879,391.19495 L 380.81485,392.75847 L 380.34702,394.40819 L 379.95306,396.13178 L 379.64521,397.85536 L 379.4113,399.57894 L 379.16513,401.46257 L 379.00507,403.26001 L 378.93122,405.22984 L 378.93122,406.55945 L 378.93122,407.88907 L 379.00507,409.21868 L 379.16513,410.56063 L 379.4113,411.81639 L 379.64521,413.05981 L 379.89146,414.31557 L 380.27309,415.57132 L 380.58094,416.75322 L 381.06102,418.00898 L 381.52884,419.17854 L 382.07061,420.36043 L 382.62455,421.45614 L 383.25242,422.63803 L 383.8803,423.73374 L 384.65598,424.82944 L 385.43157,425.92514 L 386.2195,427.02084 L 387.08129,427.96883 L 388.01694,428.97841 L 388.8664,429.84021 L 389.81438,430.702 L 390.83623,431.48985 L 391.84573,432.19166 L 392.86758,432.90566 L 393.96328,433.53354 L 395.07132,434.0753 L 396.25322,434.62924 L 397.43511,435.09714 L 398.60467,435.49103 L 399.87277,435.79888 L 401.19005,436.11891 L 402.28575,436.27896 L 403.55384,436.42676 L 404.73574,436.51287 L 406.06535,436.51287 L 407.38263,436.51287 L 408.79844,436.42676 L 410.28811,436.27896 L 411.70392,436.11891 L 413.4275,435.72502 L 415.31113,435.25712 L 417.26863,434.46926 L 419.30006,433.53354 L 421.50372,432.43783 L 423.78132,431.09596 L 426.20664,429.53236 L 428.71815,427.80878 L 428.71815,429.69241 L 426.36669,431.6499 L 424.08909,433.44742 L 421.73763,434.93709 L 420.55581,435.65108 L 419.38617,436.27896 L 418.29047,436.82072 L 417.09631,437.37466 L 415.84056,437.84257 L 414.671,438.23653 L 413.47676,438.63042 L 412.3072,438.86441 L 411.12531,439.17218 L 409.95574,439.34449 z M 1045.8972,439.34449 L 1045.8972,438.95053 L 1047.1653,438.79047 L 1047.7931,438.64276 L 1048.421,438.4827 L 1049.0489,438.24879 L 1049.5906,437.92868 L 1050.1446,437.62091 L 1050.7848,437.22695 L 1051.2403,436.75912 L 1051.8067,436.36516 L 1052.1883,435.81114 L 1052.4961,435.34331 L 1052.73,434.80163 L 1052.9762,434.24761 L 1053.0624,433.69359 L 1053.0624,433.15191 L 1050.9449,378.73584 L 1026.2483,439.34449 L 1003.1892,380.45942 L 1000.8993,432.52403 L 1000.8993,432.99185 L 1000.9855,433.45968 L 1001.0717,434.0137 L 1001.2317,434.48152 L 1001.3918,434.94935 L 1001.638,435.50337 L 1001.9335,435.97119 L 1002.3274,436.43901 L 1002.7952,436.99303 L 1003.4231,437.53472 L 1003.9771,437.92868 L 1004.605,438.32265 L 1005.3191,438.55656 L 1006.0208,438.79047 L 1006.7472,438.87667 L 1007.5228,438.95053 L 1007.5228,439.34449 L 990.43467,439.34449 L 990.43467,438.95053 L 991.29646,438.79047 L 992.07206,438.64276 L 992.84773,438.4827 L 993.47561,438.24879 L 994.1896,437.92868 L 994.81748,437.53472 L 995.35924,437.06689 L 995.82707,436.59907 L 996.30715,436.04505 L 996.77505,435.50337 L 997.08282,434.80163 L 997.39059,434.08756 L 997.69836,433.38582 L 997.85842,432.52403 L 998.03081,431.66224 L 998.10467,430.71425 L 1001.2441,378.73584 L 1001.1701,378.0341 L 1001.1701,377.32003 L 1000.9978,376.69215 L 1000.7639,376.06427 L 1000.53,375.52259 L 1000.136,374.89471 L 999.74205,374.34069 L 999.34809,373.87287 L 998.64635,373.17113 L 997.93228,372.61711 L 997.15668,372.14929 L 996.29489,371.75532 L 995.27305,371.36136 L 994.2512,371.12744 L 993.1555,370.97973 L 991.9736,370.81967 L 991.9736,370.65962 L 991.9736,370.42571 L 1007.3504,370.42571 L 1029.0676,427.03318 L 1052.1144,370.42571 L 1065.6938,370.42571 L 1065.6938,370.81967 L 1064.832,371.05358 L 1064.0441,371.2875 L 1063.2684,371.59527 L 1062.5544,371.91537 L 1061.8527,372.30934 L 1061.2248,372.70331 L 1060.6708,373.09727 L 1060.1291,373.5651 L 1059.6612,374.03292 L 1059.2673,374.58694 L 1058.9472,375.05476 L 1058.6517,375.52259 L 1058.4794,376.06427 L 1058.3194,376.54443 L 1058.2455,377.01226 L 1058.2455,377.48008 L 1060.597,431.7361 L 1060.597,432.59789 L 1060.757,433.38582 L 1060.9047,434.17375 L 1061.1509,434.87549 L 1061.4587,435.50337 L 1061.7665,436.04505 L 1062.2467,436.59907 L 1062.7145,437.06689 L 1063.1823,437.46086 L 1063.8102,437.85482 L 1064.4381,438.16259 L 1065.1398,438.39651 L 1065.8661,438.64276 L 1066.7279,438.79047 L 1067.5775,438.87667 L 1068.5131,438.95053 L 1068.5131,439.34449 L 1045.8972,439.34449 L 1045.8972,439.34449 z "
       id="path3843" />
  </g>
</svg>
