<?xml version="1.0" encoding="UTF-8"?>
<svg id="Layer_2" data-name="Layer 2" xmlns="http://www.w3.org/2000/svg" viewBox="0 0 487.48 146.66">
  <defs>
    <style>
      .cls-0 {
        fill: #e21f25;
        stroke-width: 0px;
      }
      .cls-1 {
        fill: #008de7;
        stroke-width: 0px;
      }
    </style>
  </defs>
  <g id="Layer_1-2" data-name="Layer 1">
    <g>
      <circle class="cls-1" cx="474.48" cy="91.74" r="13"/>
      <path id="path30" class="cls-0" d="M465.82,34.8c4.49-1.8,9.44-1.98,14.22-1.88v32.57c-2.72-1.27-5.68-2.09-8.7-2.09-3.91-.16-8.04.98-10.92,3.75-2.35,2.22-3.7,5.37-4.02,8.54-.21,2.01-.11,4.05-.13,6.05l-.03,22.98h-34.05c-.05-23.43-.03-46.85,0-70.25h33.26v8.14c0,.34-.05.74.19,1.03,2.41-3.83,5.87-7.17,10.18-8.86h0Z"/>
      <path class="cls-0" d="M381.53,15.45v56.59c0,7.21-10.69,11.12-19.72,2.81-.9,10.37-6.33,19.82-15.6,27.11,16.38,12.01,29.67,13.43,39.99,12.38,6.05-.63,12.03-2.67,17.03-6.19,4.1-2.86,7.51-6.66,9.81-11.08,2.62-5,3.86-10.66,3.89-16.29V15.45h-35.4Z"/>
      <path id="path46" class="cls-1" d="M351.32,60.03c-2.27-2.11-4.81-2.96-6.34-2.88-8.23.46-23.15,18.27-28.07,24.42-.08-.35-.15-.69-.15-1,0-2.92,4.46-10.88,7.15-15.65,1.04-1.85,1.85-3.31,2.27-4.15,1.31-2.77.62-6.19-.88-7.34-.85-.65-1.88-.62-2.73.08-4.15,3.38-16.15,17.57-16.11,30.88,0,3.23.85,6.84,2.38,10.04-.27.88-.58,1.88-.92,2.92-3.08,9.84-8.23,26.38-8.04,37.03.08,4.46,3,8.34,5.46,10.31,1.65,1.31,3.31,2,4.77,2,.31,0,.62-.04.92-.08,1.35-.31,1.73-2.23,2.5-6.54.46-2.54.96-5.42,1.77-7.81,2.58-7.73,6.46-21.11,8-27.42.42.04.88.04,1.35.04,7.5-.04,15.92-4,22.5-10.65,6-6.04,9.42-13.15,9.38-19.5,0-8.11-2.85-12.46-5.19-14.69h0ZM347.86,73.29c0,3.65-1.81,7.42-5.08,10.65-3.61,3.54-8.65,6.04-13.04,6.5,9.96-17.15,14.77-21.76,15.96-21.76h0c1.46,0,2.15,1.58,2.15,4.61h0Z"/>
      <path id="path44" class="cls-1" d="M295.02,88.67c-2.5,0-16.46,3.08-17.38,2.27-.92-.85.81-8.88,2.58-9.42,1.77-.58,12.65-.38,14.42-.5,5.08-.31,4.11-7.11,1-7.38-1.58-.12-11.46-.15-12-1.04-.54-.92.19-5.46,1.27-5.92,2.27-.92,17.27-1.35,18.38-1.62,1.85-.5,3.19-1.46,3.65-3.08.46-1.58-5.19-8.11-12.19-7.34-12,1.31-27.61,1.23-27.61,5.11s7.31,5.19,7.5,6.19-.96,4.81-1.35,6c-.46,1.31-5.65,1.69-6,5.27-.08.85,1.31,2.11,1.04,3.15-.81,3.04-3.31,9.27-3.27,11.81,0,4.04,2.96,12.92,11.11,12.65,12.88-.42,24.46-9.42,24.65-11,.23-2.38-3.31-5.15-5.81-5.15"/>
      <path id="path42" class="cls-1" d="M246.69,48.07c-1.5,0-1.77,1.58-1.77,3.23,0,5.04,6.92,22.34,6.96,28.99,0,1.38-.12,3.85-1.19,4.11-1.65.5-16.07-25.8-22.07-26.26-6.15-.46-9.42,25.8-9.42,32.26s1.15,10.81,5.92,10.81c7.11,0,3.42-26.26,6.31-26.26,2.11,0,13.73,24,20.19,23.96,7.04,0,11.15-10.27,11.11-16.96,0-15.23-10.11-33.88-16.04-33.88"/>
      <path id="path40" class="cls-1" d="M216.88,58.87c0-4.73-12.15-4.65-19.03-4.65-5.15.04-31.22.62-31.19,15.15.04,9.84,14.61,7.42,24.3,8.42,7.88.77,17.46,3.38,17.5,5.92,0,5.77-20.88,8.11-25.19,8.11-8.88.04-9.08-2.58-9.08-3.85s1.46-3.5,4.77-3.5,10.19,4.23,14.88,4.19c4.69,0,8.61-2.11,8.61-4.23,0-3.85-15.65-5.73-20.46-5.69-5.08.04-12.38,2.11-12.34,9.73,0,3.96,6.5,13.31,24.65,13.23,17.92-.08,22.46-10.23,22.42-15.5-.04-12.73-12.11-14.19-22.65-15.07-7.88-.65-16.38-1.04-16.34-2.81.08-5.85,39.18-1.54,39.15-9.46"/>
      <path id="path36" class="cls-1" d="M155.93,55.18c-5.11.04-5.23,20.53-5.38,28.03-.38,17.07,2.15,19.11,6.69,19.07,4.08,0,5.46-.5,5.11-14.77-.62-27.11-2.46-32.34-6.42-32.34"/>
      <path id="path38" class="cls-1" d="M158.55,47.34c11.27-.04,29.19-12.81,29.15-23.46,0-4.81-2.46-7.23-8.61-8.08-2.58-2.5-6.42-5.27-12.04-5.23-17.57.04-28.96,14-28.92,21.61,0,2.85.92,6.23,3.42,9.11.12,6.08,1.58,7.65,3.54,7.65,2.19,0,3.54-1.27,4.35-2.81,2.54.73,5.54,1.19,9.11,1.19M159.74,38.72c-2.61,0-4.77-.35-6.61-.92,4.96-5.61,17-16.23,22.92-16.23,3.88,0,4.54,3.08,4.54,4.27,0,7.08-14.57,12.88-20.84,12.88M160.55,19.84c-5.38,3.15-10.88,7.61-14.61,12-.19-.58-.27-1.12-.27-1.65,0-3.38,5-8.73,14.88-10.34"/>
      <path id="path34" class="cls-1" d="M127.79,38.53c-11.15-10.81-26.19-20.61-42.34-27.53C67.72,3.38,49.76-.42,33.5.04c-5.65.15-24.38,1-28.19,5.11-.42.46-.88.92-1.31,1.35C2.08,8.42.08,10.38,0,13.38c-.04,1.12.31,2.04,1.04,2.77,1.46,1.46,4,1.62,5.77,1.62,2.15,0,3.77-.19,4.61-1.04.38-.38.58-.88.58-1.42,0-1.5-1.19-2.11-2-2.5-.69-.35-.88-.46-.92-.69.92-.85,7.23-1.77,16.19-1.77h.27c22.73,0,49.03,7.58,70.45,20.34,21.27,12.65,33.95,28.11,33.99,41.38.04,5.77-2,10.73-6,14.73-8.61,8.65-25.38,11.77-38.22,11.77-5.08.04-10.31-.46-15.57-1.42-.23-7.23-.62-20.84-.81-29.8,1.38,0,2.77-.04,4.11-.04,5.23,0,11.81.85,17.54,2.27,6.42,1.62,8.84,3.19,9.04,3.73-.04.77-.92,1.65-1.81,2.5-1.15,1.12-2.35,2.23-2.35,3.81.04,2.27,3,2.35,5.92,2.46.69.04,1.46.04,2.11.12.92.12,3.15-1.46,4.35-2.54,1.85-1.69,4.04-4.42,4.04-8.08,0-4.23-3.11-18-42.18-18h-1.04c-.62-15.07-3.15-22.69-7.54-22.69h0c-2.42,0-4.08,3.04-5.23,9.54-.81,4.65-1.23,10.23-1.42,14.38-16.61,2.65-33.92,9.77-33.88,18,0,6.34,13.07,21.27,33.61,30.34.35,5.69,1.46,11.5,8.42,11.5,2.65,0,5.96-1.08,7-6.27,6.81,1.65,13.84,2.5,20.96,2.5,14.92-.04,28.73-4,38.95-11.07,10.5-7.27,16.23-17.27,16.19-28.11-.08-9.96-6.61-21.73-18.38-33.15h0ZM54.42,92.75c-17.19-6.34-27.99-15.8-27.99-18.23h0c0-1.58,2.77-5.38,28.15-6.84-.04,5.54-.15,16.77-.15,25.07h0Z"/>
    </g>
  </g>
</svg>