<?xml version="1.0" encoding="utf-8"?>
<!-- Generator: Adobe Illustrator 24.3.0, SVG Export Plug-In . SVG Version: 6.00 Build 0)  -->
<svg version="1.1"
	 id="LogoE4" focusable="false" xmlns:cc="http://creativecommons.org/ns#" xmlns:dc="http://purl.org/dc/elements/1.1/" xmlns:rdf="http://www.w3.org/1999/02/22-rdf-syntax-ns#"
	 xmlns="http://www.w3.org/2000/svg" xmlns:xlink="http://www.w3.org/1999/xlink" x="0px" y="0px" viewBox="0 0 512 452"
	 style="enable-background:new 0 0 512 452;" xml:space="preserve">
<style type="text/css">
	.st0{fill-rule:evenodd;clip-rule:evenodd;}
	.st1{fill-rule:evenodd;clip-rule:evenodd;fill:#8700FF;}
	.st2{opacity:0.5;enable-background:new    ;}
</style>
<link  href="" id="dark-mode" rel="stylesheet" type="text/css"></link>
<g>
	<path id="digitE4" class="st0" d="M83.9,452v-36.7h36.7V452H83.9z M204.4,391.7v-65.5h36.7v65.5H204.4z M209.9,0l28.5,23.1
		L204.4,65V6.7L209.9,0z M264.7,302.6v-36.7h62.9v36.7H264.7z M204.4,452v-36.7h91.7V452H204.4z M144.2,452V326.2h36.7V452H144.2z
		 M180.9,94.1l-5.7,7h-47.2l52.9-65.3L180.9,94.1z M241.1,101.2h-35.6l35.6-44V101.2z"/>
	<path id="signE4" class="st1" d="M243,217.8v-8.2c0-8.6-7-15.6-15.6-15.6H111.7c-3.3,0-5.1-3.8-3-6.4l16.7-20.6
		c1.5-1.8,3.7-2.9,6.1-2.9h96.1c8.6,0,15.6-7,15.6-15.6v-8.2c0-8.6-7-15.6-15.6-15.6H120c-7.1,0-13.7,3.2-18.2,8.7L5.2,252.7
		c-3.4,4.2-5.2,9.4-5.2,14.7v17.6c0,9.7,7.9,17.6,17.6,17.6h209.9c8.6,0,15.6-7,15.6-15.6v-8.2c0-8.6-7-15.6-15.6-15.6H55.6
		c-3.3,0-5.1-3.8-3-6.4l16.7-20.6c1.5-1.8,3.7-2.9,6.1-2.9h152.1C236,233.4,243,226.4,243,217.8"/>
	<g id="g818" transform="matrix(1.011 0 0 1.011 547 42)">
		<path id="path2" class="st2" d="M-248.5-19.1v115h24.4V47.6h44.3v48.3h24.4v-115h-24.4v44.7h-44.3v-44.7h0L-248.5-19.1z"/>
		<path id="path4" class="st2" d="M-131.8-19.1c14,0,28,0,42,0C-78-19-66.1-15.9-56.5-8.9c10.2,7.3,17.3,18.6,20.1,30.7
			c1.6,7.6,2.2,15.9,1.5,24.5C-36.3,60.2-42.3,73.9-53,83c-10,8.8-23.5,13-36.7,12.9c-14,0-28.1,0-42.1,0
			C-131.7,57.6-131.8,19.3-131.8-19.1 M-107.4,2.8c0,23.8,0.1,47.5,0,71.3c6.5,0,12.9,0.4,19.4,0c6.6-0.6,13.3-3.2,18.1-7.9
			c6.7-6.5,9.4-16,9.7-25.1c0.4-9.8-1.3-20.4-7.8-28.2c-5.5-6.7-14.3-10-22.8-10C-96.3,2.8-101.9,2.8-107.4,2.8z"/>
	</g>
</g>
</svg>
