<?xml version="1.0" encoding="UTF-8" standalone="no"?>
<!-- Created with Inkscape (http://www.inkscape.org/) -->

<svg
   xmlns:dc="http://purl.org/dc/elements/1.1/"
   xmlns:cc="http://creativecommons.org/ns#"
   xmlns:rdf="http://www.w3.org/1999/02/22-rdf-syntax-ns#"
   xmlns:svg="http://www.w3.org/2000/svg"
   xmlns="http://www.w3.org/2000/svg"
   xmlns:sodipodi="http://sodipodi.sourceforge.net/DTD/sodipodi-0.dtd"
   xmlns:inkscape="http://www.inkscape.org/namespaces/inkscape"
   width="1000"
   height="159.17767"
   id="svg5557"
   version="1.1"
   inkscape:version="0.48.5 r10040"
   sodipodi:docname="A.svg">
  <defs
     id="defs5559">
    <clipPath
       clipPathUnits="userSpaceOnUse"
       id="clipPath5305">
      <path
         inkscape:connector-curvature="0"
         d="m 319.947,231.533 40.378,0 0,23.377 -40.378,0 0,-23.377 z"
         id="path5307" />
    </clipPath>
    <clipPath
       clipPathUnits="userSpaceOnUse"
       id="clipPath5345">
      <path
         inkscape:connector-curvature="0"
         d="m 319.947,202.04 40.378,0 0,23.377 -40.378,0 0,-23.377 z"
         id="path5347" />
    </clipPath>
    <clipPath
       clipPathUnits="userSpaceOnUse"
       id="clipPath4985">
      <path
         inkscape:connector-curvature="0"
         d="m 147.434,153.742 50.709,0 0,5.549 -50.709,0 0,-5.549 z"
         id="path4987" />
    </clipPath>
    <clipPath
       clipPathUnits="userSpaceOnUse"
       id="clipPath4993">
      <path
         inkscape:connector-curvature="0"
         d="m 147.355,159.371 50.868,0 0,-5.709 -50.868,0 0,5.709 z"
         id="path4995" />
    </clipPath>
    <clipPath
       clipPathUnits="userSpaceOnUse"
       id="clipPath4997">
      <path
         inkscape:connector-curvature="0"
         d="m 147.439,159.292 50.704,0 0,-5.549 -50.704,0 0,5.549 z"
         id="path4999" />
    </clipPath>
    <clipPath
       clipPathUnits="userSpaceOnUse"
       id="clipPath4303">
      <path
         inkscape:connector-curvature="0"
         d="m 0,0 419.528,0 0,595.276 L 0,595.276 0,0 z"
         id="path4305" />
    </clipPath>
    <clipPath
       clipPathUnits="userSpaceOnUse"
       id="clipPath4311">
      <path
         inkscape:connector-curvature="0"
         d="m 167.024,454.265 19.987,0 0,-23.333 -19.987,0 0,23.333 z"
         id="path4313" />
    </clipPath>
    <clipPath
       clipPathUnits="userSpaceOnUse"
       id="clipPath4315">
      <path
         inkscape:connector-curvature="0"
         d="m 168.024,431.932 17.987,0 0,21.332 -17.987,0 0,-21.332 z"
         id="path4317" />
    </clipPath>
    <clipPath
       clipPathUnits="userSpaceOnUse"
       id="clipPath4319">
      <path
         inkscape:connector-curvature="0"
         d="m 168.024,431.932 17.987,0 0,21.332 -17.987,0 0,-21.332 z"
         id="path4321" />
    </clipPath>
    <clipPath
       clipPathUnits="userSpaceOnUse"
       id="clipPath4323">
      <path
         inkscape:connector-curvature="0"
         d="m 168.024,431.932 17.987,0 0,21.332 -17.987,0 0,-21.332 z"
         id="path4325" />
    </clipPath>
    <clipPath
       clipPathUnits="userSpaceOnUse"
       id="clipPath4327">
      <path
         inkscape:connector-curvature="0"
         d="m 168.024,431.932 17.987,0 0,21.332 -17.987,0 0,-21.332 z"
         id="path4329" />
    </clipPath>
    <clipPath
       clipPathUnits="userSpaceOnUse"
       id="clipPath4331">
      <path
         inkscape:connector-curvature="0"
         d="m 168.024,431.932 17.987,0 0,21.332 -17.987,0 0,-21.332 z"
         id="path4333" />
    </clipPath>
    <clipPath
       clipPathUnits="userSpaceOnUse"
       id="clipPath4335">
      <path
         inkscape:connector-curvature="0"
         d="m 168.024,431.932 17.987,0 0,21.332 -17.987,0 0,-21.332 z"
         id="path4337" />
    </clipPath>
    <clipPath
       clipPathUnits="userSpaceOnUse"
       id="clipPath4339">
      <path
         inkscape:connector-curvature="0"
         d="m 168.024,431.932 17.987,0 0,21.332 -17.987,0 0,-21.332 z"
         id="path4341" />
    </clipPath>
    <clipPath
       clipPathUnits="userSpaceOnUse"
       id="clipPath4343">
      <path
         inkscape:connector-curvature="0"
         d="m 168.024,431.932 17.987,0 0,21.332 -17.987,0 0,-21.332 z"
         id="path4345" />
    </clipPath>
    <clipPath
       clipPathUnits="userSpaceOnUse"
       id="clipPath4347">
      <path
         inkscape:connector-curvature="0"
         d="m 168.024,431.932 17.987,0 0,21.332 -17.987,0 0,-21.332 z"
         id="path4349" />
    </clipPath>
    <clipPath
       clipPathUnits="userSpaceOnUse"
       id="clipPath4351">
      <path
         inkscape:connector-curvature="0"
         d="m 168.024,431.932 17.987,0 0,21.332 -17.987,0 0,-21.332 z"
         id="path4353" />
    </clipPath>
    <clipPath
       clipPathUnits="userSpaceOnUse"
       id="clipPath4355">
      <path
         inkscape:connector-curvature="0"
         d="m 168.024,431.932 17.987,0 0,21.332 -17.987,0 0,-21.332 z"
         id="path4357" />
    </clipPath>
    <clipPath
       clipPathUnits="userSpaceOnUse"
       id="clipPath4359">
      <path
         inkscape:connector-curvature="0"
         d="m 168.024,431.932 17.987,0 0,21.332 -17.987,0 0,-21.332 z"
         id="path4361" />
    </clipPath>
    <clipPath
       clipPathUnits="userSpaceOnUse"
       id="clipPath4363">
      <path
         inkscape:connector-curvature="0"
         d="m 168.024,431.932 17.987,0 0,21.332 -17.987,0 0,-21.332 z"
         id="path4365" />
    </clipPath>
    <clipPath
       clipPathUnits="userSpaceOnUse"
       id="clipPath4367">
      <path
         inkscape:connector-curvature="0"
         d="m 168.024,431.932 17.987,0 0,21.332 -17.987,0 0,-21.332 z"
         id="path4369" />
    </clipPath>
    <clipPath
       clipPathUnits="userSpaceOnUse"
       id="clipPath4371">
      <path
         inkscape:connector-curvature="0"
         d="m 168.024,431.932 17.987,0 0,21.332 -17.987,0 0,-21.332 z"
         id="path4373" />
    </clipPath>
    <linearGradient
       x1="0"
       y1="0"
       x2="1"
       y2="0"
       gradientUnits="userSpaceOnUse"
       gradientTransform="matrix(47.141842,-17.158227,-17.158227,-47.141842,152.20667,421.1261)"
       spreadMethod="pad"
       id="linearGradient4617">
      <stop
         style="stop-opacity:1;stop-color:#f8b81d"
         offset="0"
         id="stop4619" />
      <stop
         style="stop-opacity:1;stop-color:#f89a22"
         offset="1"
         id="stop4621" />
    </linearGradient>
    <clipPath
       clipPathUnits="userSpaceOnUse"
       id="clipPath4641">
      <path
         inkscape:connector-curvature="0"
         d="m 162.707,363.098 26.607,0 0,20.275 -26.607,0 0,-20.275 z"
         id="path4643" />
    </clipPath>
    <clipPath
       clipPathUnits="userSpaceOnUse"
       id="clipPath5079">
      <path
         inkscape:connector-curvature="0"
         d="m 146.15,103.883 51.804,0 0,5.778 -51.804,0 0,-5.778 z"
         id="path5081" />
    </clipPath>
    <clipPath
       clipPathUnits="userSpaceOnUse"
       id="clipPath5063">
      <path
         inkscape:connector-curvature="0"
         d="m 146.155,103.883 51.799,0 0,5.778 -51.799,0 0,-5.778 z"
         id="path5065" />
    </clipPath>
    <clipPath
       clipPathUnits="userSpaceOnUse"
       id="clipPath5051">
      <path
         inkscape:connector-curvature="0"
         d="m 146.15,103.883 51.804,0 0,5.778 -51.804,0 0,-5.778 z"
         id="path5053" />
    </clipPath>
    <linearGradient
       x1="0"
       y1="0"
       x2="1"
       y2="0"
       gradientUnits="userSpaceOnUse"
       gradientTransform="matrix(27.798941,0,0,-27.798941,326.89319,406.27909)"
       spreadMethod="pad"
       id="linearGradient5167">
      <stop
         style="stop-opacity:1;stop-color:#ec008c"
         offset="0"
         id="stop5169" />
      <stop
         style="stop-opacity:1;stop-color:#8d188f"
         offset="1"
         id="stop5171" />
    </linearGradient>
    <clipPath
       clipPathUnits="userSpaceOnUse"
       id="clipPath4107">
      <path
         inkscape:connector-curvature="0"
         d="m 0,0 419.528,0 0,595.276 L 0,595.276 0,0 z"
         id="path4109" />
    </clipPath>
    <clipPath
       clipPathUnits="userSpaceOnUse"
       id="clipPath4209">
      <path
         inkscape:connector-curvature="0"
         d="m 0,0 419.528,0 0,595.276 L 0,595.276 0,0 z"
         id="path4211" />
    </clipPath>
    <clipPath
       clipPathUnits="userSpaceOnUse"
       id="clipPath4195">
      <path
         inkscape:connector-curvature="0"
         d="m 0,0 419.528,0 0,595.276 L 0,595.276 0,0 z"
         id="path4197" />
    </clipPath>
    <clipPath
       clipPathUnits="userSpaceOnUse"
       id="clipPath4031">
      <path
         inkscape:connector-curvature="0"
         d="m 314.316,163.261 48.044,0 0,7.607 -48.044,0 0,-7.607 z"
         id="path4033" />
    </clipPath>
  </defs>
  <sodipodi:namedview
     id="base"
     pagecolor="#ffffff"
     bordercolor="#666666"
     borderopacity="1.0"
     inkscape:pageopacity="0.0"
     inkscape:pageshadow="2"
     inkscape:zoom="0.79756673"
     inkscape:cx="565.98609"
     inkscape:cy="-96.469768"
     inkscape:document-units="px"
     inkscape:current-layer="layer1"
     showgrid="false"
     fit-margin-left="0.5"
     fit-margin-bottom="0.5"
     fit-margin-top="0.5"
     fit-margin-right="0.5"
     inkscape:window-width="1057"
     inkscape:window-height="1022"
     inkscape:window-x="854"
     inkscape:window-y="-4"
     inkscape:window-maximized="0" />
  <metadata
     id="metadata5562">
    <rdf:RDF>
      <cc:Work
         rdf:about="">
        <dc:format>image/svg+xml</dc:format>
        <dc:type
           rdf:resource="http://purl.org/dc/dcmitype/StillImage" />
        <dc:title></dc:title>
      </cc:Work>
    </rdf:RDF>
  </metadata>
  <g
     inkscape:label="Layer 1"
     inkscape:groupmode="layer"
     id="layer1"
     transform="translate(-2324.1308,1340.0201)">
    <g
       id="g4027"
       transform="matrix(20.793699,0,0,-20.793699,-4211.1657,2213.4577)">
      <g
         id="g4029"
         clip-path="url(#clipPath4031)">
        <g
           id="g4035"
           transform="translate(314.3162,167.8293)">
          <path
             d="m 0,0 0.847,0 0,-0.219 c 0,-0.555 0.305,-0.741 0.623,-0.741 0.317,0 0.602,0.192 0.602,0.702 l 0,2.562 -1.211,0 0,0.735 2.065,0 0,-3.31 c 0,-1.026 -0.741,-1.47 -1.47,-1.47 C 0.735,-1.741 0,-1.284 0,-0.271 L 0,0 z"
             style="fill:#231f20;fill-opacity:1;fill-rule:nonzero;stroke:none"
             id="path4037"
             inkscape:connector-curvature="0" />
        </g>
        <g
           id="g4039"
           transform="translate(320.3003,168.2729)">
          <path
             d="M 0,0 C -0.013,0.457 -0.298,0.702 -0.669,0.702 -1.099,0.702 -1.397,0.437 -1.476,0 L 0,0 z m -0.649,1.35 c 0.973,0 1.496,-0.708 1.496,-1.602 0,-0.099 -0.02,-0.324 -0.02,-0.324 l -2.33,0 c 0.053,-0.589 0.51,-0.894 1.013,-0.894 0.543,0 0.973,0.371 0.973,0.371 l 0.324,-0.603 c 0,0 -0.516,-0.483 -1.356,-0.483 -1.12,0 -1.814,0.808 -1.814,1.768 0,1.039 0.708,1.767 1.714,1.767"
             style="fill:#231f20;fill-opacity:1;fill-rule:nonzero;stroke:none"
             id="path4041"
             inkscape:connector-curvature="0" />
        </g>
        <g
           id="g4043"
           transform="translate(321.4051,169.5439)">
          <path
             d="m 0,0 0.887,0 0.589,-2.218 c 0.047,-0.179 0.067,-0.357 0.067,-0.357 l 0.013,0 c 0,0 0.033,0.178 0.079,0.357 l 0.622,2.211 0.749,0 0.622,-2.211 c 0.046,-0.179 0.073,-0.357 0.073,-0.357 l 0.013,0 c 0,0 0.026,0.178 0.072,0.357 L 4.376,0 5.25,0 4.224,-3.376 l -0.934,0 -0.569,1.926 c -0.053,0.179 -0.086,0.364 -0.086,0.364 l -0.014,0 c 0,0 -0.026,-0.185 -0.079,-0.364 l -0.569,-1.926 -0.94,0 L 0,0 z"
             style="fill:#231f20;fill-opacity:1;fill-rule:nonzero;stroke:none"
             id="path4045"
             inkscape:connector-curvature="0" />
        </g>
        <g
           id="g4047"
           transform="translate(329.2689,168.2729)">
          <path
             d="M 0,0 C -0.013,0.457 -0.298,0.702 -0.669,0.702 -1.099,0.702 -1.397,0.437 -1.476,0 L 0,0 z m -0.649,1.35 c 0.973,0 1.496,-0.708 1.496,-1.602 0,-0.099 -0.02,-0.324 -0.02,-0.324 l -2.33,0 c 0.053,-0.589 0.51,-0.894 1.013,-0.894 0.543,0 0.973,0.371 0.973,0.371 l 0.325,-0.603 c 0,0 -0.517,-0.483 -1.357,-0.483 -1.119,0 -1.814,0.808 -1.814,1.768 0,1.039 0.708,1.767 1.714,1.767"
             style="fill:#231f20;fill-opacity:1;fill-rule:nonzero;stroke:none"
             id="path4049"
             inkscape:connector-curvature="0" />
        </g>
        <g
           id="g4051"
           transform="translate(330.6983,170.8679)">
          <path
             d="m 0,0 0.834,0 0,-3.522 c 0,-0.37 0.126,-0.463 0.344,-0.463 0.067,0 0.126,0.006 0.126,0.006 l 0,-0.735 c 0,0 -0.126,-0.019 -0.265,-0.019 C 0.576,-4.733 0,-4.614 0,-3.648 L 0,0 z"
             style="fill:#231f20;fill-opacity:1;fill-rule:nonzero;stroke:none"
             id="path4053"
             inkscape:connector-curvature="0" />
        </g>
        <g
           id="g4055"
           transform="translate(332.5118,170.8679)">
          <path
             d="m 0,0 0.834,0 0,-3.522 c 0,-0.37 0.126,-0.463 0.344,-0.463 0.067,0 0.126,0.006 0.126,0.006 l 0,-0.735 c 0,0 -0.126,-0.019 -0.265,-0.019 C 0.576,-4.733 0,-4.614 0,-3.648 L 0,0 z"
             style="fill:#231f20;fill-opacity:1;fill-rule:nonzero;stroke:none"
             id="path4057"
             inkscape:connector-curvature="0" />
        </g>
        <g
           id="g4059"
           transform="translate(336.4968,168.2729)">
          <path
             d="M 0,0 C -0.013,0.457 -0.298,0.702 -0.669,0.702 -1.099,0.702 -1.397,0.437 -1.476,0 L 0,0 z m -0.649,1.35 c 0.973,0 1.496,-0.708 1.496,-1.602 0,-0.099 -0.02,-0.324 -0.02,-0.324 l -2.33,0 c 0.053,-0.589 0.51,-0.894 1.013,-0.894 0.543,0 0.973,0.371 0.973,0.371 l 0.324,-0.603 c 0,0 -0.516,-0.483 -1.357,-0.483 -1.119,0 -1.813,0.808 -1.813,1.768 0,1.039 0.708,1.767 1.714,1.767"
             style="fill:#231f20;fill-opacity:1;fill-rule:nonzero;stroke:none"
             id="path4061"
             inkscape:connector-curvature="0" />
        </g>
        <g
           id="g4063"
           transform="translate(337.9724,169.5439)">
          <path
             d="m 0,0 0.808,0 0,-0.582 c 0,-0.126 -0.014,-0.239 -0.014,-0.239 l 0.014,0 c 0.152,0.483 0.556,0.867 1.072,0.867 0.08,0 0.152,-0.013 0.152,-0.013 l 0,-0.827 c 0,0 -0.086,0.013 -0.198,0.013 -0.358,0 -0.762,-0.205 -0.92,-0.709 C 0.86,-1.655 0.841,-1.84 0.841,-2.039 l 0,-1.337 L 0,-3.376 0,0 z"
             style="fill:#231f20;fill-opacity:1;fill-rule:nonzero;stroke:none"
             id="path4065"
             inkscape:connector-curvature="0" />
        </g>
        <g
           id="g4067"
           transform="translate(340.4742,165.6248)">
          <path
             d="m 0,0 c 0,0 0.185,-0.139 0.377,-0.139 0.232,0 0.457,0.139 0.583,0.437 l 0.126,0.298 -1.424,3.323 0.947,0 0.708,-1.946 C 1.384,1.794 1.443,1.516 1.443,1.516 l 0.013,0 c 0,0 0.054,0.265 0.113,0.444 l 0.662,1.959 0.92,0 -1.509,-3.886 c -0.238,-0.615 -0.709,-0.88 -1.218,-0.88 -0.404,0 -0.702,0.218 -0.702,0.218 L 0,0 z"
             style="fill:#231f20;fill-opacity:1;fill-rule:nonzero;stroke:none"
             id="path4069"
             inkscape:connector-curvature="0" />
        </g>
        <g
           id="g4071"
           transform="translate(345.2821,170.8216)">
          <path
             d="M 0,0 0.477,0 1.695,-2.734 C 1.801,-2.972 1.92,-3.303 1.92,-3.303 l 0.013,0 c 0,0 0.126,0.331 0.232,0.569 L 3.383,0 l 0.47,0 0.371,-4.654 -0.457,0 -0.258,3.257 c -0.02,0.252 -0.013,0.649 -0.013,0.649 l -0.014,0 c 0,0 -0.139,-0.41 -0.244,-0.649 l -1.093,-2.39 -0.43,0 -1.093,2.39 c -0.106,0.232 -0.251,0.662 -0.251,0.662 l -0.013,0 c 0,0 0.006,-0.41 -0.014,-0.662 l -0.258,-3.257 -0.456,0 L 0,0 z"
             style="fill:#231f20;fill-opacity:1;fill-rule:nonzero;stroke:none"
             id="path4073"
             inkscape:connector-curvature="0" />
        </g>
        <g
           id="g4075"
           transform="translate(351.4448,166.4721)">
          <path
             d="m 0,0 c 0.635,0 1.019,0.662 1.019,1.238 l 0,0.146 -0.192,0 C 0.304,1.384 -0.741,1.364 -0.741,0.629 -0.741,0.318 -0.497,0 0,0 m 0.834,1.754 0.185,0 0,0.087 c 0,0.642 -0.351,0.86 -0.827,0.86 -0.55,0 -0.94,-0.318 -0.94,-0.318 L -0.96,2.728 c 0,0 0.437,0.377 1.185,0.377 0.801,0 1.244,-0.444 1.244,-1.278 l 0,-2.131 -0.43,0 0,0.364 c 0,0.165 0.014,0.278 0.014,0.278 l -0.014,0 c 0,0 -0.278,-0.722 -1.112,-0.722 -0.556,0 -1.132,0.325 -1.132,0.987 0,1.125 1.463,1.151 2.039,1.151"
             style="fill:#231f20;fill-opacity:1;fill-rule:nonzero;stroke:none"
             id="path4077"
             inkscape:connector-curvature="0" />
        </g>
        <g
           id="g4079"
           transform="translate(353.887,170.8216)">
          <path
             d="m 0,0 0.45,0 0,-2.595 0.53,0 0.999,1.271 0.543,0 -1.158,-1.45 0,-0.013 1.271,-1.867 -0.536,0 -1.113,1.668 -0.536,0 0,-1.668 -0.45,0 L 0,0 z"
             style="fill:#231f20;fill-opacity:1;fill-rule:nonzero;stroke:none"
             id="path4081"
             inkscape:connector-curvature="0" />
        </g>
        <g
           id="g4083"
           transform="translate(359.4341,168.1802)">
          <path
             d="M 0,0 C -0.027,0.695 -0.45,1.02 -0.947,1.02 -1.503,1.02 -1.986,0.669 -2.092,0 L 0,0 z m -0.933,1.397 c 0.92,0 1.39,-0.708 1.39,-1.536 0,-0.08 -0.013,-0.232 -0.013,-0.232 l -2.556,0 c 0.02,-0.854 0.602,-1.317 1.291,-1.317 0.609,0 1.013,0.404 1.013,0.404 l 0.205,-0.344 c 0,0 -0.483,-0.464 -1.231,-0.464 -0.993,0 -1.742,0.715 -1.742,1.741 0,1.092 0.742,1.748 1.643,1.748"
             style="fill:#231f20;fill-opacity:1;fill-rule:nonzero;stroke:none"
             id="path4085"
             inkscape:connector-curvature="0" />
        </g>
        <g
           id="g4087"
           transform="translate(360.6846,169.4976)">
          <path
             d="m 0,0 0.443,0 0,-0.589 c 0,-0.146 -0.013,-0.265 -0.013,-0.265 l 0.013,0 c 0.159,0.503 0.53,0.887 1.053,0.887 0.093,0 0.179,-0.02 0.179,-0.02 l 0,-0.443 c 0,0 -0.08,0.013 -0.165,0.013 -0.471,0 -0.822,-0.371 -0.967,-0.861 C 0.477,-1.489 0.45,-1.715 0.45,-1.926 L 0.45,-3.33 0,-3.33 0,0 z"
             style="fill:#231f20;fill-opacity:1;fill-rule:nonzero;stroke:none"
             id="path4089"
             inkscape:connector-curvature="0" />
        </g>
        <path
           d="m 314.604,164.054 7.828,0 0,-0.793 -7.828,0 0,0.793 z"
           style="fill:#ee2522;fill-opacity:1;fill-rule:nonzero;stroke:none"
           id="path4091"
           inkscape:connector-curvature="0" />
        <path
           d="m 322.432,164.054 7.828,0 0,-0.793 -7.828,0 0,0.793 z"
           style="fill:#f7d109;fill-opacity:1;fill-rule:nonzero;stroke:none"
           id="path4093"
           inkscape:connector-curvature="0" />
        <path
           d="m 330.259,164.054 7.828,0 0,-0.793 -7.828,0 0,0.793 z"
           style="fill:#87ce26;fill-opacity:1;fill-rule:nonzero;stroke:none"
           id="path4095"
           inkscape:connector-curvature="0" />
        <path
           d="m 338.087,164.054 7.828,0 0,-0.793 -7.828,0 0,0.793 z"
           style="fill:#a63ca4;fill-opacity:1;fill-rule:nonzero;stroke:none"
           id="path4097"
           inkscape:connector-curvature="0" />
        <path
           d="m 345.915,164.054 7.828,0 0,-0.793 -7.828,0 0,0.793 z"
           style="fill:#3da9ac;fill-opacity:1;fill-rule:nonzero;stroke:none"
           id="path4099"
           inkscape:connector-curvature="0" />
        <path
           d="m 353.742,164.054 7.828,0 0,-0.793 -7.828,0 0,0.793 z"
           style="fill:#c71266;fill-opacity:1;fill-rule:nonzero;stroke:none"
           id="path4101"
           inkscape:connector-curvature="0" />
      </g>
    </g>
  </g>
</svg>
