<?xml version="1.0" encoding="UTF-8" standalone="no"?><svg xmlns="http://www.w3.org/2000/svg" xml:space="preserve" id="Layer_1" width="158.899" height="286.272" x="0" y="0" version="1.1" viewBox="0 0 158.899 286.272"><path id="path257_1_" d="M144.95 5c-.297.082-.334.425-.414.688.164 2.316-.42 4.251-.629 6.244-.369 2.694-1.361 5.26-2.029 7.877-3.399 11.151-8.75 21.384-16.209 30.883-9.053 12.165-21.375 20.881-33.776 29.386-1.92 1.309-3.852 2.621-5.752 3.938-3.4 2.651-6.957 5.267-9.081 9.119-1.397 2.613-2.53 5.599-3.563 8.371-1.015 3.311-2.528 6.779-4.787 9.552-1.889 2.337-4.297 4.192-7.367 5.082-.616-.043-1.57.453-1.988-.256-.121-.409.072-.739.374-.986 1.977-.841 3.574-2.199 4.825-3.84 1.102-1.442 1.933-3.116 2.521-4.826 2.028-6.048 3.446-12.391 6.597-17.98 1.573-3.002 3.506-5.687 5.673-8.174C84.41 74.253 90.7 69.514 96.538 64.401c1.535-1.074 2.998-2.562 4.49-3.724 7.051-6.31 13.721-13.459 18.494-21.546 1.822-3.323 3.395-6.81 3.84-10.616.797-4.438.127-9.519-3.623-11.937-1.293-.835-2.572-2.119-4.195-1.909-.325.078-.488.373-.373.709 2.029 2.893 2.57 7.167 1.535 10.557-2.407 8.624-7.461 16.221-13.353 23.18-7.63 9.5-17.717 16.582-26.63 24.916-1.165 1.244-2.621 2.348-3.525 3.762-.7.732-1.353 1.497-1.95 2.285-2.444 3.209-4.155 6.86-5.515 10.519-1.661 5.015-2.723 10.242-4.097 15.342-.198 1.242-.901 2.241-1.319 3.368-.442.645-1.005 1.446-1.733 1.752a1.507 1.507 0 0 1-.965.098c-.083-.034-.173-.06-.256-.098-1.092-.559-1.712-1.793-1.95-2.915-2.239-9.995 2.529-18.906 8.667-26.195.514-.633 1.052-1.254 1.576-1.872 3.71-4.269 7.72-8.317 10.614-13.019 2.118-3.521 2.858-8.572.493-12.093-.704-1.618-2.23-2.777-3.722-3.485a.438.438 0 0 1 0-.534c1.323-.339 2.518.271 3.762.316 2.996.373 6.265-.079 8.921-1.162 1.743-.866 3.7-2.145 4.194-4.137.134-.698.492-1.745-.295-2.284-.627-.249-.456.579-.749.828-1.367 1.441-3.483 2.027-5.515 2.027-4.933-.5-9.402-2.014-13.925-3.505-3.273-.997-6.442-2.126-9.808-2.757-3.56-.365-8.403-1.239-10.774 2.128-.494.825-.279 1.732.139 2.56-1.991.208-4.078.125-6.146.335-.494-1.491-.95-2.945-1.615-4.313-1.165.245-2.282.662-3.564.491.996 1.283 1.782 2.69 2.029 4.275-2.866.863-6.06 1.876-7.761 4.489-.33.87-1.07 1.688-.866 2.639 2.778-1.199 5.688-2.153 8.921-2.324l.158.139c0 1.569-.41 3.231-.906 4.728-1.321.363-2.656.144-3.938.275.078.208-.215.422-.139.669.209 1.482 2.051 1.364 2.836 2.029-.785 1.575-1.789 3.247-3.033 4.53-1.199-1.116-2.809-2.065-4.471-1.99-3.196-.286-5.603 2.147-8.469 2.935-.666.253-1.411-.218-1.99-.333-.248.781.301 1.607.965 2.108.535.208.984.746 1.557.629.787.408 1.924.373 2.915.335 2.2-.214 3.809-1.777 5.85-2.482.864-.131 1.784-.716 2.659-.177-.165.588-.882.921-1.339 1.38-2.774 2.027-6.225 2.972-8.055 6.165-.456 1.243-.496 2.735.039 3.978.917 1.452 2.515 2.277 4.215 2.029 0-.21-.139-.377-.216-.532-.709-2.276 1.737-3.771 3.15-5.102.995-1.112 1.704-2.777.946-4.273a59.373 59.373 0 0 1 2.895-2.265c.588 1.49 1.378 2.901 2.659 4.096 1.491 1.282 3.798 1.819 5.653.944 2.238-.995 4.483-3.31 4.313-5.928a7.604 7.604 0 0 1-4.076 2.207c-.671-.787-1.243-1.241-2.029-1.95-1.376-1.036-3.186-1.371-4.924-1.044 1.49-1.739 2.601-3.593 3.723-5.535 2.617-.257 5.22-.802 7.838-1.418 3.273-.671 7.218-.494 9.336 2.324.418.456.737 1.123 1.064 1.832 1.413 4.016-1.067 7.701-3.763 10.557-3.074 3.122-6.473 5.917-9.926 8.666-7.309 5.816-14.878 11.414-20.149 19.361a26.064 26.064 0 0 0-3.387 5.969 31.453 31.453 0 0 0-2.325 5.651c-1.482 4.903-1.934 10.308-1.222 15.481.512 3.656 1.591 7.188 3.289 10.321a28.476 28.476 0 0 0 3.212 5.16c5.202 6.74 13.271 11.641 20.758 14.614a101.13 101.13 0 0 0 26.59 6.973l.158.158c1.146 2.875 1.908 6.047 2.108 9.235.189 2.981-.126 5.998-1.064 8.843-.131.326-.417.706-.295 1.123 1.408-.505 2.825-1.506 3.859-2.541.788-.539 1.167-1.363 1.832-2.027.161-.041.233.046.314.178 1.211 8.751 3.255 17.273 6.422 25.387a85.938 85.938 0 0 0 2.384 5.574c.455 1.452 1.854 2.559 1.477 4.138-.286.368-.74.869-1.28.827-.625-.039-1.332-.066-1.871-.236-1.699-.457-3.352-1.258-5.004-1.713-2.485-.408-6.055-1.826-8.133.452-.331.626-.327 1.411-.041 2.067-.743.17-1.576-.029-2.402.061-1.793-.05-3.311 1.023-4.098 2.559-.247.746-.258 1.886.198 2.541.287.496.82.789 1.359.828.166-.133.216-.342.256-.59 1.084-2.07 3.536-2.395 5.731-2.443.161.05.355.203.276.414-.626.537-1.395.826-1.89 1.496-.616.873-.972 1.901-.434 2.975.457.875 1.33 1.537 2.403 1.537.399.011.392.17.551 0-.12-.783.369-1.615.985-2.246 2.651-2.068 6.015-2.473 9.415-2.797 6.31-.54 13.582-.682 19.694.609 1.396.289 1.354.375 2.049.711.904.418 1.822 1.15 2.146 2.146.502.078.959-.205 1.34-.452 1.359-1.078 2.645-2.515 2.266-4.295-.131-.5-.361-.811-.867-1.338-2.12-1.65-5.15-1.613-7.723-1.398H104c-2.106.076-4.266.043-5.967-1.123-2.24-1.738-2.572-4.649-3.724-6.973a137.672 137.672 0 0 1-.944-3.329c-2.098-7.804-3.5-15.756-4.116-23.948 0-.172-.013-.412.197-.336a14.46 14.46 0 0 0 6.637 2.777c1.205.169 2.66.209 3.445-.75-1.125-1.034-2.56-1.926-3.644-3.013a25.083 25.083 0 0 1-4.019-5.691c-2.806-5.458-3.665-11.937-2.461-18.101-2.572-2.067-4.809-4.067-7.169-6.223-2.166-2.133-4.355-4.332-6.362-6.658-3.992-4.575-7.309-9.615-8.527-15.48a22.337 22.337 0 0 1-.277-1.616c.04-.875-.393-2.035.315-2.778.117-.039.395-.091.473.041a63.85 63.85 0 0 0 1.695 4.353 50.565 50.565 0 0 0 2.482 4.982c2.125 3.948 5.112 7.313 8.351 10.497 5.187 5.08 11.047 9.679 15.245 15.363 1.62 2.116 2.776 4.508 3.819 6.952.871 2.726 1.479 5.693 1.597 8.667a25.083 25.083 0 0 1-.179 4.234c.162.203.326.418.61.334.709-.458.782-1.245 1.084-1.949a25.72 25.72 0 0 0 .57-2.619c1.424-8.266-.946-16.529-5.711-23.202-2.278-2.905-4.89-5.425-7.583-7.78-5.678-4.992-11.773-9.347-16.091-15.48a38.16 38.16 0 0 1-1.714-2.738c-.248-.617-.86-1.443-.158-2.067.172-.045.402-.083.572.04l2.166 2.324a52.665 52.665 0 0 0 2.719 2.443c6.144 5.141 13.329 8.671 21.784 8.409 4.944-.656 9.379-3.195 12.938-6.716l.118-.493a.581.581 0 0 0-.413-.373 55.833 55.833 0 0 1-11.955-.827 62.711 62.711 0 0 1-8.567-2.188c-2.525-.991-5.06-1.878-7.347-3.408-.04-.208-.032-.486.098-.649 4.804-.172 10.063-1.825 12.763-6.263-.042-.288.2-.757-.216-.887-3.818.292-7.949.343-11.641-.452-.286 0-.375-.248-.375-.493.044-.162.258-.258.375-.375 1.872-.112 3.698-.343 5.456-.768 2.979-.729 5.765-1.983 8.19-3.958.75-.59.953-1.491 1.656-2.029.379-.752.987-1.489.569-2.403-4.229.705-8.379 1.78-12.564 1.99-1.036.038-2.314.092-3.35-.079-.209-.248-.013-.548.157-.708 2.404-.667 4.854-1.085 7.13-1.99 3.235-1.206 6.483-2.452 8.843-5.279.535-1.153 1.658-2.265 1.163-3.624-.214-.209-.42-.393-.749-.314-4.642 1.953-9.529 3.458-14.634 4.332-.666-.038-1.37.445-1.871-.138-.325-.33.29-.245.197-.532 5.353-1.821 10.711-3.564 15.067-7.504 1.528-1.66 2.849-3.848 2.441-6.124-.131-.327-.411-.68-.829-.632-3.729 1.782-7.461 3.522-11.442 4.768-.494 0-.956.535-1.458.119-.125-.161-.131-.441.04-.572 3.113-2.18 6.283-4.232 9.455-6.301 2.996-1.954 5.996-3.911 8.922-6.007 2.029-1.535 4.137-3.233 6.203-4.767 9.422-7.417 17.896-16.709 24.777-26.786.912-1.321 1.682-2.726 2.639-4.019 3.609-6.633 7.549-13.315 8.963-20.857.535-4.226-.865-8.584-3.684-11.856-.369-.335-.691-.753-1.23-.791zm7.662 16.405c-.142-.004-.289.034-.375.139-.742 1.821-1.357 3.698-2.106 5.476-3.491 7.172-7.304 14.345-12.448 20.64-3.729 5.23-8.574 9.573-12.723 14.338-.043.169-.133.465 0 .63.209.251.578.158.787.158l2.029-1.616c8.741-7.458 17.121-15.293 23.633-24.954 2.07-3.153 2.813-7.134 2.364-11.07-.252-1.203-.2-2.531-.827-3.564-.06-.123-.194-.172-.334-.177zm-25.33 2.167c-.248.007-.479.146-.551.335 0 .951.141 1.858.141 2.816-.957 7.46-4.5 14.26-8.883 20.229-9.463 13.436-23.668 21.921-35.119 33.324-.655.874-1.754 1.499-1.832 2.659.117.13.216.287.414.414.336.082.527.008.907-.079a123.536 123.536 0 0 1 10.417-7.956c2.857-2.07 5.725-4.056 8.627-6.048 10.117-7.547 19.564-16.425 25.703-27.692 2.817-4.608 4.645-11.314 1.575-16.327-.33-.589-.694-1.18-1.142-1.634a.699.699 0 0 0-.257-.041zm23.104 18.159a.757.757 0 0 0-.513.296c-11.907 15.652-28.037 28.285-44.434 38.052-.228.135-.439.275-.67.413.077.46.324.921.532 1.378.744 2.153.317 4.685-1.005 6.462-.086.168-.047.324.078.412 4.766-2.671 9.498-5.554 14.063-8.665 8.446-5.771 16.357-12.369 23.144-20.149 3.609-4.434 6.599-8.999 8.705-14.102.379-1.161.867-2.313.828-3.604-.082-.387-.405-.539-.728-.493zm-96.41 4.273c.296-.014.656.12.945.12 2.327.416 4.675.786 6.874 1.456.126.079.04.253 0 .376-2.108.255-3.982 1.04-6.105 1.2-.618 0-1.195-.084-1.694-.452-.656-.628-.692-1.656-.454-2.443a.507.507 0 0 1 .434-.257zm-10.674 4.413c4.167-.013 6.224.155 6.224 1.458 0 1.8-3.819 2.764-7.188 3.25.199-.568.51-1.571.709-2.601.15-.807.201-.975.255-2.107zm97.235 15.027a1.04 1.04 0 0 0-.295.079c-5.041 5.436-10.599 10.278-16.523 14.556-6.008 4.312-12.383 8.054-18.948 11.227.71 2.239.318 4.729-.925 6.756-.292.499-.825.881-.945 1.418.12.248.362.039.57.039 10.611-4.613 21.15-10.688 29.443-19.439a60.33 60.33 0 0 0 3.565-4.096c2.2-3.114 4.472-6.316 4.767-10.125-.065-.372-.398-.462-.709-.415zm-6.912 18.77c-1.948 1.287-3.145 2.951-5.141 4.195-2.449 1.907-4.935 3.566-7.505 5.18-5.638 3.229-11.452 6.105-17.588 8.134.204 3.065-.88 6.035-3.328 8.076.056.248-.354.164-.354.374 0 .087 0 .198.08.276 5.182-.943 10.031-3.054 14.81-5.495 6.425-3.862 12.712-8.379 17.117-14.674 1.155-1.701 2.2-3.373 2.58-5.476-.025-.457-.292-.631-.671-.59zm-84.71 5.929c.199 0 .404.007.491.217v.414a40.184 40.184 0 0 0-3.485 6.302c-1.947 4.387-3.326 9.189-3.505 13.983a29.41 29.41 0 0 0 .059 3.013 36.89 36.89 0 0 0 2.875 12.469c.987 2.297 2.201 4.504 3.605 6.635.496.577.821 1.327 1.398 1.773 2.007 2.704 4.464 5.021 7.071 7.07a68.975 68.975 0 0 0 4.412 3.171c.339.288.988.547.906 1.005-.743.494-1.557-.248-2.304-.413a39.483 39.483 0 0 1-8.313-3.763c-3.969-2.389-7.55-5.512-10.32-9.336a28.641 28.641 0 0 1-3.447-6.143c-1.991-4.834-2.746-10.281-2.048-15.482.314-2.327.914-4.615 1.851-6.774 1.282-2.943 2.948-5.847 4.846-8.371 1.792-2.039 3.538-4.187 5.908-5.77zm78.074 10.832c-1.244.539-2.231 1.605-3.35 2.305-5.161 3.33-10.646 5.986-16.466 7.779-2.515.768-5.082 1.405-7.722 1.851l-.039.455c.406 3.812-3.039 6.712-6.066 8.291v.237l.553.098c2.486-.209 4.883-.83 7.209-1.378 6.262-2.07 12.362-4.773 17.627-9.12.194-.145.383-.283.571-.433 2.704-2.098 5.298-4.741 7.347-7.564.209-.709 1.008-1.32.887-2.106-.13-.166-.299-.453-.551-.415zm-9.554 15.58c-6.006 3.399-12.31 6.04-19.36 6.914-.039.13-.119.302 0 .433 1.33.248 2.664.534 4.078.611 3.516.208 6.995.322 10.397-.255 1.622-1.661 3.026-3.507 4.354-5.377.248-.699 1.096-1.28.926-2.106-.039-.174-.263-.182-.395-.22zm-33.699 16.662c-.17.13-.195.332-.118.532 3.362 3.069 6.859 5.615 10.32 8.272 5.25 4.025 10.402 8.308 14.852 15.026 2.896 4.376 4.604 6.904 6.342 11.858a62.133 62.133 0 0 1 1.281 4.098c2.049 7.526 2.037 14.142-.041 21.152 0 .616-.543 1.036-.217 1.653.875.209 1.219-.824 1.674-1.317 2.277-3.774 4.471-7.709 5.752-11.976a34.507 34.507 0 0 0 1.713-9.514c.332-8.165-2.18-16.426-7.799-22.454-3.233-3.822-7.147-6.449-11.344-8.528-6.057-2.986-12.73-4.802-18.929-7.347-1.198-.406-2.241-1.248-3.486-1.455zM48.56 159.904a52.427 52.427 0 0 1-2.167 13.098 53.38 53.38 0 0 1-2.422 6.559c3.666 0 6.674-2.486 9.236-4.608-.989 4.108-2.399 7.3-4.313 11.817-2.914 6.91-5.849 11.991-9.021 17.192-1.072 1.772-2.187 3.576-3.328 5.455-.748 1.282-1.661 2.798-3.191 3.508-4.268 1.149-7.315-2.276-11.463-1.911-1.957.34-2.6.715-3.271 1.418-.374.577-.327 1.299-.079 1.911-2.326-.196-4.845-.198-6.677 1.162-.785.747-1.156 1.86-.827 2.974.249.709.71 1.309 1.537 1.615.995-1.91 3.032-2.779 5.061-3.271.875-.127 1.786-.302 2.62.04.199.115.027.381-.137.513-.826.418-1.738.892-2.404 1.635-.654.874-1.245 1.966-.906 3.091.597 1.435 2.078 1.983 3.485 1.813.121-.172-.04-.322-.04-.492-.17-1.569 1.396-2.407 2.6-3.073 3.979-1.375 8.506-1.375 12.862-1.496 3.599-.209 7.243.043 10.852.295 2.122.248 4.248.619 5.87 1.951.365.368.445 1.039.198 1.495.535.161 1.04-.182 1.497-.433.078-.078.125-.096.315-.276 1.243-.995 1.673-2.375 1.673-3.821-.039-1.405-1.384-2.357-2.501-2.775-.248-.098-.304-.129-.57-.219-2.739-.826-5.764-.473-8.706-.432-.84-.134-1.922.026-2.285-.887-.17-.541.087-1.148.334-1.596 1.9-2.754 3.874-5.482 5.85-8.194 3.244-4.433 6.522-8.836 9.533-13.332 2.358-3.532 3.897-7.868 4.018-12.015 1.66 1.66 3.648 3.023 5.81 3.898.535.121 1.199.283 1.694.118-1.928-2.903-3.23-6.179-4.038-9.63a40.078 40.078 0 0 1-.983-7.88c-1.118-.326-2.345-.362-3.468-.647-4.265-.995-8.387-2.703-12.248-4.57z" style="fill:#d1202a"/><g id="g4" transform="translate(1.764 5)"><path id="path6" d="M3.236 225.727h10.401c-1.329 3.64-1.502 5.32-1.502 11.69v31.224h3.756c7.107 0 8.667-.28 14.157-3.15l-2.601 9.171H3.352c1.329-3.501 1.618-4.761 1.618-10.222v-27.022c0-6.441-.289-8.121-1.734-11.691z" style="fill:#d1202a"/><path id="path8" d="M35.591 271.931c0-2.38 1.56-4.341 3.525-4.341 1.964 0 3.583 1.961 3.583 4.341s-1.618 4.341-3.583 4.341c-1.965-.001-3.525-1.961-3.525-4.341z" style="fill:#d1202a"/><path id="path10" d="M49.919 225.727h23.923l.289 8.051c-3.005-2.031-4.796-2.66-9.766-2.66h-5.258v14.771h3.12c4.334 0 5.258.069 7.917-1.681v9.312c-2.889-1.33-4.045-1.82-7.859-1.82h-3.178v11.83c0 4.48.289 8.682 1.618 11.132h-10.17c1.271-3.011 1.618-6.021 1.618-11.201v-25.553c0-6.231-.462-8.611-2.254-12.181z" style="fill:#d1202a"/><path id="path12" d="M73.955 271.931c0-2.38 1.56-4.341 3.525-4.341 1.965 0 3.583 1.961 3.583 4.341s-1.618 4.341-3.583 4.341-3.525-1.961-3.525-4.341z" style="fill:#d1202a"/><path id="path14" d="M122.665 226.146v9.591c-1.098-1.54-5.259-5.812-11.673-5.812-10.285 0-15.14 9.172-15.14 20.093 0 11.201 5.027 20.722 15.949 20.722 5.432 0 9.13-2.939 11.73-5.109l-1.85 9.1c-3.12.841-6.588 1.541-9.766 1.541-15.718 0-23.923-11.691-23.923-26.113 0-15.051 9.65-26.043 23.691-26.043 3.701-.001 7.573.56 10.982 2.03z" style="fill:#d1202a"/><path id="path16" d="M130.461 271.931c0-2.38 1.56-4.341 3.524-4.341s3.583 1.961 3.583 4.341-1.618 4.341-3.583 4.341-3.524-1.961-3.524-4.341z" style="fill:#d1202a"/></g></svg>