<?xml version="1.0" encoding="utf-8"?>
<!-- Generator: Adobe Illustrator 24.3.0, SVG Export Plug-In . SVG Version: 6.00 Build 0)  -->
<svg version="1.1"
	 id="LogoMore4" focusable="false" xmlns:cc="http://creativecommons.org/ns#" xmlns:dc="http://purl.org/dc/elements/1.1/" xmlns:rdf="http://www.w3.org/1999/02/22-rdf-syntax-ns#"
	 xmlns="http://www.w3.org/2000/svg" xmlns:xlink="http://www.w3.org/1999/xlink" x="0px" y="0px" viewBox="0 0 512 384.1"
	 style="enable-background:new 0 0 512 384.1;" xml:space="preserve">
<style type="text/css">
	.st0{fill-rule:evenodd;clip-rule:evenodd;}
	.st1{fill-rule:evenodd;clip-rule:evenodd;fill:#56BE3C;}
	.st2{opacity:0.5;enable-background:new    ;}
</style>
<link  href="" id="dark-mode" rel="stylesheet" type="text/css"></link>
<g>
	<path id="digitMore4" class="st0" d="M178.3,0l24.2,19.6l-28.8,35.6V5.7L178.3,0z M71.3,384.1v-31.2h31.2v31.2H71.3z M173.7,332.8
		V226h31.2v106.9H173.7z M173.7,384.1v-31.2h77.9v31.2H173.7z M122.5,384.1V277.2h31.2v106.9H122.5z M224.9,257.1v-31.2h53.4v31.2
		H224.9z M0,257.1v-31.2h153.7v31.2H0z M153.7,80l-15.6,19.2L118,74.5l35.6-44L153.7,80z M51.2,156.9v49H11.6L51.2,156.9z"/>
	<path id="signMore4" class="st1" d="M440.2,146.6c2.7-12.3,10-18.1,20.7-18.1c10,0,17.7,5.8,21.1,18.1L440.2,146.6z M272.7,180.5
		c-13.1,0-21.9-10-21.9-24.6c0-15,8.8-24.6,21.9-24.6s21.9,9.6,21.9,24.6C294.6,170.5,285.8,180.5,272.7,180.5 M272.7,102.8
		c-31.5,0-53.4,21.1-53.4,53c0,31.5,21.9,53,53.4,53c31.5,0,53.4-21.5,53.4-53C326.1,124,304.2,102.8,272.7,102.8 M512,155.5
		c0,3.8-0.4,8.1-0.8,10.8h-70.7c3.5,10.8,11.5,16.9,24.2,16.9c8.8,0,16.9-3.1,22.3-8.8l19.2,18.1c-8.5,10.8-23.4,16.5-41.5,16.5
		c-33.8,0-54.9-21.1-54.9-53c0-30.7,21.1-53,51.1-53C490.5,102.8,512,125.1,512,155.5L512,155.5z M368.7,125.9
		c3.5-12.7,13.8-21.1,28.4-21.1c2.3,0,4.6,0.4,6.1,0.8v30.7c-2.3-0.4-6.1-0.8-8.5-0.8c-15,0-24.2,8.5-24.2,26.1v44.3h-30.4V106h28.4
		L368.7,125.9z M102.4,205.9H71.3V68.4c0-5,2.7-7.7,6.2-7.7c1.9,0,3.8,0.4,7.3,4.6l53.4,65.7l53.2-65.7c2.9-3.6,5.1-4.6,7.6-4.6
		c3.5,0,6,2.7,6,7.7v137.5h-31.2V135l-29,36.6c-2,2.5-3.7,3.6-6.5,3.6c-1.7,0-4.2-0.7-6.5-3.6l-29.2-36.4L102.4,205.9z"/>
	<g id="g818" transform="matrix(1.011 0 0 1.011 632 621)">
		<path id="path2" class="st2" d="M-337.9-332v97.7h20.7v-41h37.7v41h20.7V-332h-20.7v38h-37.7v-38h0H-337.9z"/>
		<path id="path4" class="st2" d="M-238.7-332c11.9,0,23.8,0,35.7,0c10,0.1,20.1,2.7,28.2,8.6c8.6,6.2,14.7,15.8,17.1,26.1
			c1.4,6.4,1.9,13.5,1.3,20.8c-1.2,11.8-6.3,23.4-15.4,31.2c-8.5,7.5-19.9,11-31.1,10.9c-11.9,0-23.8,0-35.8,0
			C-238.7-266.9-238.7-299.5-238.7-332 M-218-313.5c0,20.2,0.1,40.4,0,60.6c5.5,0,11,0.3,16.4,0c5.6-0.5,11.3-2.7,15.4-6.8
			c5.7-5.5,8-13.6,8.3-21.4c0.3-8.4-1.1-17.4-6.6-24c-4.7-5.7-12.1-8.5-19.3-8.5C-208.6-313.5-213.3-313.5-218-313.5z"/>
	</g>
</g>
</svg>
