<?xml version="1.0" encoding="UTF-8" standalone="no"?>
<svg
   width="1024"
   height="973.153"
   version="1.1"
   viewBox="0 0 1024 973.153"
   id="svg265"
   xmlns="http://www.w3.org/2000/svg"
   xmlns:svg="http://www.w3.org/2000/svg">
  <defs
     id="defs241">
    <clipPath
       clipPathUnits="userSpaceOnUse"
       id="clipPath155170">
      <path
         d="M 917.33711,99.865851 H 611.45173 L 506.70884,204.60771 401.96596,99.865851 H 96.076551 V 636.96067 H 405.33054 V 451.81344 L 506.70065,553.18252 608.07385,451.81344 V 636.96067 H 917.3248"
         id="path155172"
         style="display:inline" />
    </clipPath>
  </defs>
  <path
     d="M 6.25e-8,973.1527 H 1023.9967 V 3.046e-4 H 6.25e-8 Z"
     style="fill:#62238a"
     id="path243" />
  <g
     id="g106738"
     clip-path="url(#clipPath155170)">
    <g
       id="stripes">
      <rect
         id="rect10378"
         width="821.26056"
         height="537.09479"
         x="96.076607"
         y="99.865852"
         style="fill:#54238a;fill-opacity:1" />
      <rect
         id="rect14362"
         width="821.26056"
         height="455.72495"
         x="96.076607"
         y="99.865852"
         style="fill:#051f8b;fill-opacity:1" />
      <rect
         id="rect19904"
         width="821.26056"
         height="363.34464"
         x="96.076607"
         y="99.865852"
         style="fill:#01f441;fill-opacity:1" />
      <rect
         id="rect22950"
         width="821.26056"
         height="271.32236"
         x="96.076607"
         y="99.865852"
         style="fill:#fbf943;fill-opacity:1" />
      <rect
         id="rect26425"
         width="821.26056"
         height="178.96938"
         x="96.076607"
         y="99.865852"
         style="fill:#fa9423;fill-opacity:1" />
      <rect
         id="rect32084"
         width="821.26056"
         height="86.616356"
         x="96.076607"
         y="99.865852"
         style="fill:#fe2904;fill-opacity:1" />
    </g>
    <g
       id="triangles">
      <path
         id="path79525"
         d="M 96.076551,99.865851 H 329.96733 L 601.74334,371.43768 337.48831,636.96067 H 96.076551 Z"
         style="fill:#000000" />
      <path
         id="path34882"
         d="M 96.076551,99.865851 H 270.85552 L 542.63153,371.43768 278.37651,636.96067 H 96.076551 Z"
         style="fill:#905211;fill-opacity:1" />
      <path
         id="rect34567"
         d="M 96.076551,99.865851 H 214.63624 L 486.41226,371.43768 222.15723,636.96067 H 96.076551 Z"
         style="fill:#78d4f8;fill-opacity:1" />
      <path
         id="path84892"
         d="M 96.076551,99.865851 H 155.70589 L 427.4819,371.43768 163.22687,636.96067 H 96.076551 Z"
         style="fill:#fab7e4;fill-opacity:1" />
      <path
         id="path86753"
         d="m 96.076551,99.865851 h 2.151422 L 370.00398,371.43768 105.74896,636.96067 h -9.672409 z"
         style="fill:#fcfcfb;fill-opacity:1" />
      <path
         id="path86827"
         d="M 15.140795,99.865851 H 39.116394 L 310.8924,371.43768 46.637377,636.96067 H 15.140795 Z"
         style="fill:#faf845;fill-opacity:1" />
    </g>
    <path
       id="path93302"
       d="m 170.43164,309.20919 a 62.706767,62.68181 0 0 0 -62.70738,62.68205 62.706767,62.68181 0 0 0 62.70738,62.68203 62.706767,62.68181 0 0 0 62.70654,-62.68203 62.706767,62.68181 0 0 0 -62.70654,-62.68205 z m 0,15.61632 a 47.084662,47.065922 0 0 1 47.0841,47.06573 47.084662,47.065922 0 0 1 -47.0841,47.06572 47.084662,47.065922 0 0 1 -47.08495,-47.06572 47.084662,47.065922 0 0 1 47.08495,-47.06573 z"
       style="fill:#8d44e3;fill-opacity:1" />
    <path
       id="path88798"
       d="m 784.35181,207.36399 c -2.23243,-0.14765 -4.58822,0.0149 -7.05725,0.54461 -17.80809,3.81624 -17.31526,17.75598 -45.88996,35.37973 -23.22832,14.32678 -35.63928,21.27585 -40.4132,23.92449 -1.9122,-0.86752 -9.82915,-5.58512 -22.58788,-5.58512 -13.30357,0 -28.81031,5.98188 -28.81031,23.28197 -0.0121,7.9377 2.52444,16.51814 -8.07826,22.08785 -5.93338,3.75684 -42.80489,25.34591 -73.63896,43.95803 -26.006,15.69515 -38.11641,14.43511 -49.08684,21.03621 -10.1387,6.11356 -12.78313,15.25188 -12.78313,21.85707 0,5.88107 3.70551,13.27075 5.01342,14.91872 6.977,8.93016 13.25058,13.77879 24.2497,13.77879 18.6234,0 34.12669,-16.29969 62.89707,-36.75131 17.94331,-12.7751 42.30145,-31.07877 51.92704,-31.07877 8.62189,0 14.60316,6.48958 14.60316,33.20739 0,89.3509 -5.42954,104.54253 -5.42954,166.53962 0,11.14659 0.41988,31.77072 0.79987,40.34853 0.26833,8.22144 -0.0273,27.59736 -0.44319,42.14847 h 72.89155 c -0.75283,-14.1025 -2.11338,-31.51807 -3.11296,-42.14847 -1.5364,-12.99121 -3.4084,-31.75475 -3.4084,-48.27032 0,-10.24218 1.38383,-51.41929 1.38383,-84.62655 0,-27.98169 -8.11412,-78.47234 -8.11412,-105.52199 -0.0152,-16.24822 -0.004,-35.04757 -0.69496,-43.14504 12.96252,-8.38222 25.82173,-17.04045 62.19684,-37.58528 12.99939,-7.3375 38.79167,-19.07206 38.79167,-39.26456 0,-11.77597 -9.57815,-28.00052 -25.20519,-29.03407 z m 132.98516,57.53663 c -63.38179,80.35006 -82.64962,149.48472 -90.17141,165.68378 -1.8242,3.92481 -4.82521,7.50919 -9.9709,7.50919 -3.94429,0 -7.62455,-2.25191 -8.94893,-8.49351 -3.9524,-18.64797 -6.43726,-50.6106 -9.46997,-91.5876 -1.60797,-21.79642 -17.78003,-31.7073 -37.66834,-26.55752 -19.19599,4.96849 -27.90154,17.24323 -26.28126,38.85632 1.26392,16.86378 5.14457,33.47994 15.18708,79.08948 2.4602,11.16195 23.47699,105.20983 41.79618,131.56811 22.25729,32.02634 62.4144,20.82447 63.07807,-7.38156 0.38411,-16.4838 2.07972,-29.14263 6.57292,-45.75444 h -0.0112 c 16.44799,-56.84012 37.99592,-94.12052 54.85555,-127.70776 0.34007,-0.67189 0.68009,-1.33507 1.02017,-2.00798 z"
       style="display:inline;fill:#ffffff" />
  </g>
  <g
     id="g199413">
    <path
       d="m 487.59187,740.33008 c 10.35425,0 18.86808,-8.51332 18.86808,-18.64388 0,-10.35384 -8.51383,-18.86818 -18.86808,-18.86818 -10.13015,0 -18.64398,8.51434 -18.64398,18.86818 0,10.13056 8.51383,18.64388 18.64398,18.64388 z m -15.65131,126.12347 h 31.30272 V 750.46064 h -31.30272 z"
       id="path251"
       style="fill:#ffffff" />
    <path
       d="m 718.77231,773.4751 c -13.80857,0 -23.93507,7.1347 -26.69638,23.47505 H 745.0088 C 742.01602,781.30011 733.04178,773.4751 718.77231,773.4751 m 0.45987,69.96425 c 14.26948,0 20.94331,-6.44437 23.24577,-12.88875 l 31.06878,6.90425 c -7.82506,22.55325 -26.92785,33.60046 -53.62423,33.60046 -38.20352,0 -59.6067,-24.85467 -59.6067,-63.74931 0,-37.51296 23.47519,-61.44788 58.4565,-61.44788 34.98131,0 58.22708,23.93492 58.22708,61.44788 0,3.91251 -0.23045,8.05547 -0.92179,12.42786 h -84.00166 c 2.99073,16.11093 12.4269,23.70549 27.15625,23.70549"
       id="path188852"
       style="fill:#ffffff" />
    <path
       id="path193542"
       d="m 236.41429,704.19531 v 162.25781 h 33.14649 v -50.7871 h 35.46829 c 4.98363,0 9.67299,-0.36774 14.07032,-1.10352 4.39731,-0.73578 8.42931,-1.76544 12.09374,-3.08984 3.81102,-1.32441 7.25587,-2.94439 10.33399,-4.85743 3.22471,-2.06019 6.00827,-4.34013 8.35351,-6.84179 2.49181,-2.50165 4.61803,-5.22484 6.37696,-8.16797 1.90551,-2.94313 3.64816,-6.10565 4.82077,-9.49024 1.3192,-3.3846 2.27111,-6.91679 2.85742,-10.5957 0.58632,-3.67892 0.88086,-7.50528 0.88086,-11.47851 0,-18.24886 -5.84814,-31.95165 -14.73243,-40.83594 -8.44251,-8.44251 -25.65566,-15.00977 -44.85156,-15.00977 z m 33.14649,29.21094 h 34.65039 c 9.05512,0 15.70668,2.2454 19.95703,6.73633 4.43515,4.3038 6.65234,10.85369 6.65234,19.64844 0,9.16899 -2.78126,15.90517 -7.21641,20.20898 -4.43516,4.3038 -10.6152,6.45508 -19.67031,6.45508 h -34.37304 z"
       style="fill:#ffffff" />
    <path
       d="m 525.14895,810.05271 c 0,-43.46868 21.62236,-64.22782 48.53859,-64.22782 18.16791,0 30.57838,9.21189 36.11196,18.1679 v -59.79748 h 31.26599 V 866.34717 H 609.7995 v -14.71344 c -5.29367,9.8836 -17.48029,19.31939 -34.96047,19.31939 -31.28165,0 -49.69008,-23.41311 -49.69008,-60.90041 z m 84.65055,-2.12748 c 0,-20.91867 -9.21189,-33.56906 -26.69218,-33.56906 -17.24027,0 -26.21224,12.65039 -26.21224,33.56906 0,21.1585 8.97197,34.49661 26.21224,34.49661 17.48029,0 26.69218,-13.33811 26.69218,-34.49661 z"
       id="path194422"
       style="fill:#ffffff" />
    <path
       d="m 415.54121,767.89444 v -17.4338 h -31.30272 v 115.99291 h 31.30272 v -51.39804 c 0,-9.88468 -0.18263,-19.53609 6.84574,-27.21076 5.54495,-7.39327 14.91425,-9.98136 27.09207,-9.98136 h 6.47475 v -32.05177 h -2.29064 c -9.45299,0.15497 -17.58877,2.55696 -24.40733,7.20597 -6.66359,4.64902 -11.23512,9.60797 -13.71459,14.87685 z"
       id="path197225"
       style="fill:#ffffff" />
  </g>
</svg>
