<?xml version="1.0" encoding="utf-8"?>
<!-- Generator: Adobe Illustrator 23.1.0, SVG Export Plug-In . SVG Version: 6.00 Build 0)  -->
<svg version="1.1" id="Layer_2" xmlns="http://www.w3.org/2000/svg" xmlns:xlink="http://www.w3.org/1999/xlink" x="0px" y="0px"
	 width="1000px" height="981.9492188px" viewBox="0 0 1000 981.9492188" enable-background="new 0 0 1000 981.9492188"
	 xml:space="preserve">
<polyline fill="#FE3C4C" points="0,652.0203247 999.9921875,652.0203247 999.9921875,981.9492188 0,981.9492188 0,652.0203247 "/>
<path fill="#FFFFFF" d="M184.1099548,825.5253296c4.2514648-26.7002563,8.7412109-53.366272,13.0268555-80.0674438
	c12.7212067-0.2373047,25.4419098-0.2714844,38.1289368-0.1015625
	c-2.9931793,31.4277344-11.5981598,62.2441406-12.687027,93.8428345
	c-0.6118164,22.5166016,36.0205231,20.4414063,41.0200348,1.6328125
	c9.1835938-31.0547485,10.7143555-63.7754517,17.1088867-95.475647c12.789093-0.1357422,25.5439758-0.1357422,38.2988586,0
	c-5.8842773,32.0068359-9.5234375,64.3867188-15.8500977,96.3252563
	c-4.4555664,21.9726563-20.4077148,43.7412109-43.945343,46.6328125
	c-22.2783203,2.7890625-48.6386871,2.8574219-65.6113586-14.1152344
	C181.4229431,861.2733765,181.8990173,841.9882202,184.1099548,825.5253296z"/>
<path fill="#FFFFFF" d="M70.4033585,836.1552124c4.7299805,6.3154297,10.2460938,11.0458984,15.7622147,14.203125
	c5.5161133,3.1445313,11.0185547,4.7304688,17.3344803,4.7304688c4.7163086,0,7.8740234-0.7998047,10.2324219-3.1582031
	c2.3720703-2.3720703,3.9438553-5.515625,3.9438553-8.6738281s-1.571785-5.5166016-3.9438553-7.8886719
	c-2.3583984-2.3720703-6.3022461-5.515625-12.6044998-7.8876953c-7.0883789-3.9443359-12.6044922-7.1025391-16.5483475-10.2460938
	c-3.9301758-3.1582031-7.0883789-6.3164673-9.4462891-9.4736938c-1.5859375-2.3583984-3.1582031-5.5166016-3.9443359-8.6748047
	c-0.7856445-3.1445313-1.571785-6.3017578-1.571785-9.4599609c0-13.4042969,3.9301834-24.4501953,11.818367-32.3388672
	c4.7299881-4.7294922,10.2461014-8.6738281,16.5483475-11.8320313c7.0883865-3.1435547,13.3906326-4.7294922,19.6923981-4.7294922
	c9.4604492,0,17.3344727,1.5859375,25.2089996,3.9443359c7.0883789,3.1572266,14.1904297,7.1015625,21.2788086,13.4042969
	l-17.3344727,27.6074219c-4.7299805-4.7294922-9.4604645-8.6738281-12.6045074-10.2460938
	c-3.9443359-1.5859375-7.8881836-2.3720703-12.6044922-2.3720703c-3.9443359,0-6.3022537,0.7861328-8.674324,3.1582031
	c-2.3583984,1.5722656-3.144043,4.7304688-3.144043,7.8886719c0,4.7294922,3.9301758,9.4599609,12.6044998,13.4042969
	c4.7299805,2.3574219,7.8740234,4.7294922,11.0322266,6.3017578c3.144043,1.5859375,5.5161133,2.3720703,6.3022461,3.1582031
	c5.5161285,3.1582031,9.4463043,7.8877563,13.390152,13.4043579c3.1582031,5.5302734,4.7299805,11.8320313,4.7299805,18.9345703
	c0,7.8876953-0.7856445,14.1894531-3.1577148,19.7197266c-1.5722656,5.515625-4.7299805,10.2460938-9.4462891,14.9765625
	c-4.7299957,4.7294922-10.246109,8.6738281-18.1206207,11.8320313c-7.1020508,3.1582031-14.9765701,3.9433594-22.0644608,3.9433594
	c-3.9443436,0-7.8881912,0-11.0322342-0.7851563c-3.1582031,0-6.3022461-0.7861328-9.4604568-1.5859375
	c-3.144043-0.7861328-5.5161133-1.5722656-8.6601563-3.1445313c-2.3720703-1.5859375-5.5161133-2.3720703-8.674324-4.7304688
	c-3.9301758-2.3710938-6.3022461-3.9433594-8.6601601-6.3154297c-2.3579102-2.3720703-4.7299805-4.7304688-7.8740273-7.8876953
	L70.4033585,836.1552124z"/>
<path fill="#FFFFFF" d="M357.3654175,745.211792h41.9169922l7.8066711,37.9316406
	c0.8398438,4.2265625,1.5556641,7.7236328,2.1201172,10.5185547c0.5507813,2.8232422,1.0327148,5.4941406,1.4731445,8.0136719
	c0.3994141,2.546875,0.7988281,5.1767578,1.1567383,7.8896484c0.3579102,2.7392578,0.7158203,6.085022,1.1567383,10.0371704
	l1.0322266,0.1923828c1.4321289-3.8134766,2.6298828-6.9257813,3.5800781-9.4727173
	c1.0048828-2.5605469,1.9960938-4.9423828,3.0703125-7.2558594c1.0463867-2.3544922,2.1889648-4.8193359,3.4697266-7.4902344
	c1.2802734-2.6708984,2.8637695-5.90625,4.8188477-9.6923828l20.253418-40.671875h41.5122375l6.3056641,140.2920532H458.900116
	l-0.8579102-45.7099609v-23.3916016c0-1.5419922,0.1655273-4.5020142,0.4404297-8.9639282
	c0.2758789-4.3779297,0.6337891-9.1972656,1.0327148-14.4150391l-1.0327148-0.2070313
	c-1.8310547,4.6269531-3.4282227,8.6054688-4.75,11.9101563c-1.3491211,3.3183594-2.6567383,6.4160156-3.9790039,9.3760376
	c-1.3491211,2.9462891-2.7949219,6.0439453-4.3364258,9.3623047c-1.5556641,3.3046875-3.5112305,7.3662109-5.9067383,12.1162109
	l-25.0581055,49.9228516h-19.4136047l-9.6791992-46.1513672c-1.1147461-4.9013672-1.9960938-9.0742188-2.6293945-12.5019531
	c-0.6333008-3.4697266-1.1977539-6.7324219-1.6660156-9.9267578c-0.5234375-3.1533203-0.9638672-6.4160767-1.3632813-9.8027954
	c-0.4404297-3.3457031-0.9086914-7.4902344-1.5141602-12.3916016h-1.2392578
	c-0.9912109,4.7773438-1.8310547,8.8388672-2.546875,12.1982422c-0.6748047,3.3867188-1.4321289,6.5674438-2.3129883,9.5967407
	c-0.8261719,3.0283203-1.7490234,6.2226563-2.7402344,9.5683594c-0.9633789,3.3867188-2.2304688,7.53125-3.7861328,12.4326172
	l-14.5498047,46.9765625h-38.5337219L357.3654175,745.211792z"/>
<path fill="#FFFFFF" d="M555.3522949,745.211792h41.9170532l7.8066406,37.9316406
	c0.8398438,4.2265625,1.5556641,7.7236328,2.1201172,10.5185547c0.5507813,2.8232422,1.0332031,5.4941406,1.4736328,8.0136719
	c0.3994141,2.546875,0.7988281,5.1767578,1.15625,7.8896484c0.3583984,2.7392578,0.7167969,6.085022,1.1572266,10.0371704
	l1.0322266,0.1923828c1.4316406-3.8134766,2.6298828-6.9257813,3.5800781-9.4727173
	c1.0048828-2.5605469,1.9960938-4.9423828,3.0703125-7.2558594c1.0458984-2.3544922,2.1884766-4.8193359,3.4697266-7.4902344
	c1.2802734-2.6708984,2.8632813-5.90625,4.8183594-9.6923828l20.2539063-40.671875h41.5117798l6.3056641,140.2920532h-38.1377563
	l-0.8583984-45.7050781V816.406189c0-1.5419922,0.1650391-4.5020142,0.4404297-8.9629517
	c0.2753906-4.3779297,0.6337891-9.1972656,1.0332031-14.4150391l-1.0332031-0.2070313
	c-1.8310547,4.6269531-3.4277344,8.6054688-4.75,11.9101563c-1.3486328,3.3183594-2.6572266,6.4160156-3.9785156,9.3760376
	c-1.3496094,2.9462891-2.7949219,6.0439453-4.3369141,9.3623047c-1.5556641,3.3046875-3.5107422,7.3662109-5.9072266,12.1162109
	L612.43927,885.508728h-19.4140625l-9.6787109-46.1523438c-1.1152344-4.9003906-1.9960938-9.0732422-2.6298828-12.5009766
	c-0.6328125-3.4697266-1.1972656-6.7333984-1.6660156-9.9267578c-0.5224609-3.1533203-0.9628906-6.4160767-1.3623047-9.8027954
	c-0.4414063-3.3457031-0.9091797-7.4902344-1.5146484-12.3916016h-1.2392578
	c-0.9912109,4.7773438-1.8310547,8.8388672-2.546875,12.1982422c-0.6748047,3.3876953-1.4326172,6.5674438-2.3134766,9.5967407
	c-0.8261719,3.0292969-1.7490234,6.2236328-2.7402344,9.5683594c-0.9628906,3.3876953-2.2304688,7.5322266-3.7861328,12.4335938
	l-14.5498657,46.9765625h-38.5332031L555.3522949,745.211792z"/>
<path fill="#FFFFFF" d="M741.0653076,745.1688232h81.5596313l-4.7402344,32.5058594h-42.7764282l-2.3701172,15.8574219
	c0,1.5800781-0.7900391,2.3701172-0.7900391,3.1601563c0,0.8037109-0.7900391,1.59375-0.7900391,3.1738281
	c1.5800781,0,2.3701172-0.7900391,3.1601563-0.7900391h39.6026001l-5.5449829,31.7012329h-41.9726563l-2.3701172,16.6484375
	c0,1.59375-0.8037109,2.3837891-0.8037109,3.1738281s-0.7900391,1.5947266-0.7900391,3.1748047
	c1.59375,0,2.3837891-0.7900391,3.1738281-0.7900391h39.6025391l-4.7548828,32.4912109h-81.5761719L741.0653076,745.1688232z"/>
<path fill="#FFFFFF" d="M879.9677124,798.2303467c-0.2802734,1.5566406-0.5595703,2.7128906-0.7177734,3.4707031
	c-0.2402344,0.7578125-0.5585938,1.8740234-0.9580078,3.2646484c1.515625-0.2753906,2.6708984-0.3994141,3.46875-0.3994141
	h10.2060547c11.4003906,0,17.0625-5.0283203,17.0625-14.9873047c0-8.1416016-4.6289063-12.2050781-13.9130859-12.2050781h-12
	L879.9677124,798.2303467z M901.0526733,885.4950562l-14.3476563-29.7412109
	c-1.5556641-3.2236328-2.8310547-5.9365234-3.9072266-8.2099609c-1.0371094-2.2314453-1.9941406-4.3525391-2.8310547-6.3359375
	c-0.8369141-1.9570313-1.6347656-4.0644531-2.4326172-6.3095703c-0.7578125-2.2724609-1.7138672-4.9726563-2.8310547-8.2099609
	l-1.0751953,0.2070313c-0.1201172,3.3466797-0.2802734,6.2539063-0.3984375,8.6503906
	c-0.1201172,2.3828125-0.359375,4.65625-0.6386719,6.8193359c-0.2783203,2.1894531-0.5976563,4.4628906-0.9560547,6.8457031
	c-0.359375,2.3974609-0.8378906,5.3447266-1.3554688,8.8574219l-4.4257813,27.4277344H827.899353l22.5654297-140.3731079h47.5976563
	c34.1757813,0,51.2276001,13.9130859,51.2276001,41.6982422c0,11.9570313-3.2226563,21.6962891-9.6835938,29.1904907
	c-6.4609985,7.5351563-15.663147,12.2734375-27.5918579,14.2294922c0.6748047,1.1572266,1.2802734,2.0664063,1.7626953,2.7548828
	c0.5097656,0.7167969,0.9921875,1.3916016,1.515625,2.1083984c0.4677734,0.7158203,0.9501953,1.4736328,1.4326172,2.3134766
	c0.5097656,0.8408203,1.1152344,1.9150391,1.7910156,3.1416016l26.3516235,44.9355469h-43.8174438H901.0526733z"/>
<path fill="#1E001E" d="M705.6063232,618.00177c-1.7851563-15.4541016-4.0078125-37.6816406-4.0078125-57.2490845
	c0-12.1455078,1.5927734-60.9765625,1.5927734-100.3559875c0-33.2182617-7.140625-92.2353821-7.140625-124.2974243
	c0-19.2866211,1.4355469-45.4501953-0.7177734-54.6381836c15.3662109-10.0107727,28.8427734-16.3462219,71.1777344-42.0566711
	c13.7382813-8.3130035,39.9912109-22.3320465,39.9912109-39.2036438c0-7.4907227-2.0478516-12.4086914-12.671875-21.159668
	c-7.5078125-5.9838867-15.4541016-7.6797028-24.4677734-7.6797028c-21.6142578,0-31.4326172,21.6108551-49.4765625,32.6719055
	c-27.6699219,16.8891602-42.3184204,25.2719727-47.937561,28.4047852
	c-2.3271484-1.0673828-11.7080078-6.6157227-26.7939453-6.6157227c-15.8046875,0-34.1982422,7.0532227-34.1982422,27.6001129
	c0,9.3637695,2.9570313,19.5493164-9.5566406,26.1655273c-7.0527344,4.4629211-41.4268188,24.0996399-78.0391235,46.151886
	c-30.8032227,18.6562805-45.1699219,17.1513672-58.2095032,25.0097961
	c-11.9711914,7.2280273-15.1738281,16.2412109-15.1738281,24.0996094c0,6.965332,4.4628906,15.7163086,5.9853516,17.6767578
	c8.2958984,10.6235352,15.698761,16.3462219,28.7378235,16.3462219c22.1572266,0,40.4462891-19.2866516,74.6464844-43.5791321
	c21.2647095-15.1738281,40.8135376-30.8906555,52.2442017-30.8906555c10.1865234,0,17.3271484,7.6831055,17.3271484,39.3784485
	c0,105.9898071-6.5283203,122.7754517-6.5283203,196.350708c0,13.2138672,0.5429688,37.6806641,0.9804688,47.8476563H567.204895
	v-173.667572l-108.2129822,91.2534485l-108.2134094-91.2534485v173.667572H0.0117188V0h341.455719L458.974823,123.6680298
	L576.4822388,0h343.1397705v264.2071533c-10.8857422,16.7836914-44.0175781,73.5747375-66.3300781,131.6099243
	c-7.3339844,18.9199524-10.7294922,32.5884094-20.2851563,32.5884094c-10.6230469,0-11.4277344-10.3608398-12.4960938-19.7416992
	c-2.1347656-20.3545227-6.6855469-58.2988586-8.8379517-72.2276001
	c-4.0078125-27.0576172-9.3808594-55.6201477-39.5537109-55.6201477c-22.4189453,0-45.8027344,12.2339172-45.8027344,45.6289368
	c0,18.9194641,9.5556641,51.8745422,25.9726563,95.1734009c6.4404297,17.0644531,40.8134766,107.1460266,45.8193359,120.1821594
	c9.0136719,23.9424438,21.6856079,30.453186,41.234436,30.453186c25.1845703,0,33.8486328-9.2060547,44.2089844-44.4727173
	c8.75-29.9980469,23.6621094-79.0215149,36.0712891-109.6460266v199.7984314H705.5770264L705.6063232,618.00177z"/>
<path fill="#1E001E" d="M1000,275.0196533V618.00177h-56.4404297V367.0983276
	C955.6181641,340.9327698,984.7236328,295.2193909,1000,275.0411377"/>
<path fill="#1E001E" d="M943.5595703,229.3272552V0.0219727L1000,33.9506989v125.5435181
	c-13.9306641,14.464859-42.8603516,49.7441711-56.4404297,69.8164368"/>
<polygon fill="#1E001E" points="490.0769043,56.2719994 459.0114441,88.9526825 374.8117065,0.4628909 481.6047363,47.3374252 
	490.0935059,56.2671165 "/>
<polygon fill="#1E001E" points="493.8220215,537.5183105 532.7634277,537.5183105 543.2995605,528.6794434 543.2995605,495.8288574 
	"/>
<polygon fill="#1E001E" points="374.7072144,617.9724731 421.1398621,617.9724731 421.1398621,534.9284668 374.7072144,495.829834 
	"/>
</svg>
