<?xml version="1.0" encoding="UTF-8" standalone="no"?>
<!-- Created with Inkscape (http://www.inkscape.org/) -->

<svg
   version="1.1"
   id="svg51837"
   viewBox="0 0 900.60358 1015.4898"
   xmlns="http://www.w3.org/2000/svg"
   xmlns:svg="http://www.w3.org/2000/svg">
  <defs
     id="defs51832" />
  <path
     id="path169518"
     d="m 769.22074,630.37773 c -8.31614,0 -14.72512,6.45345 -14.72512,14.46953 v 1.2839 c 0,8.01611 6.56758,14.46948 14.72512,14.46948 h 0.64915 c 8.3162,0 14.72515,-6.45337 14.72515,-14.46948 v -1.2839 c 0,-8.01608 -6.43163,-14.46953 -14.72515,-14.46953 z m 0.32424,3.37343 c 5.94226,0 10.72626,5.0107 10.72626,11.23336 v 0.99538 c 0,6.22263 -4.784,11.23263 -10.72626,11.23263 -5.94229,0 -10.72625,-5.01 -10.72625,-11.23263 v -0.99538 c 0,-6.22266 4.78396,-11.23336 10.72625,-11.23336 z m -5.915,3.47851 v 16.38247 h 3.4773 v -6.89256 h 1.60398 l 3.77729,6.89256 h 4.05524 l -4.0894,-7.07329 c -0.004,1.4e-4 -0.004,3.3e-4 -0.005,0 2.54307,-0.56892 3.78861,-1.38631 3.91626,-4.25534 -0.12816,-3.80608 -2.52882,-5.05417 -6.83421,-5.05384 z m 3.4773,2.84528 h 2.45692 c 1.18961,0 2.92858,0.11147 2.95858,1.82403 0.027,1.53278 -0.72236,2.03443 -2.13841,2.04744 h -3.27709 z" />
  <path
     id="path165204"
     d="m 152.11965,629.79004 c -10.80183,0 -21.16318,6.39042 -21.16318,21.24089 0,12.96039 9.47932,15.75018 17.78277,18.63024 9.03827,3.1501 11.31624,4.05071 11.31624,7.38081 0,4.77011 -4.04136,5.84957 -6.6867,5.84957 -3.01276,0 -6.53995,-0.80972 -7.71566,-4.6798 -0.36742,-1.17002 -0.58787,-2.61004 -0.58787,-4.2301 h -16.05646 c 0.14696,20.52062 17.01133,23.13073 22.96336,23.13073 11.68361,0 24.17637,-5.40048 24.17637,-22.14097 0,-11.79036 -7.27546,-16.02053 -14.69713,-18.54061 -7.42166,-2.52006 -14.91647,-3.50996 -15.2104,-8.10015 0,-3.60009 3.60081,-4.31975 5.80526,-4.31975 1.6166,0 3.45364,0.44945 4.77632,1.61948 1.32268,1.08003 2.20432,2.70009 1.91039,5.1302 h 15.2838 c -0.44089,-15.66052 -10.50743,-20.97054 -21.89711,-20.97054 z m 78.9928,0 c -16.17416,0 -26.61359,13.41023 -26.61359,33.66082 0,18.99058 9.63072,33.66152 26.61359,33.66152 15.36545,0 23.96712,-13.77076 23.96712,-26.73115 h -15.87951 c -0.95575,6.03024 -3.08829,10.71084 -8.52869,10.71084 -7.57245,0 -9.99871,-9.00094 -9.99871,-17.64121 0,-8.64023 2.42626,-17.64051 9.99871,-17.64051 6.69022,0 8.16051,7.11063 8.45458,9.45068 h 15.66055 c -1.39686,-16.11048 -9.26434,-25.38097 -23.67405,-25.47099 z m 352.6968,0 c -10.80185,0 -21.16319,6.39042 -21.16319,21.24089 0,12.96039 9.47932,15.75018 17.78278,18.63024 9.03828,3.1501 11.31625,4.05071 11.31625,7.38081 0,4.77011 -4.04136,5.84957 -6.68672,5.84957 -3.01276,0 -6.53997,-0.80972 -7.71565,-4.6798 -0.36743,-1.17002 -0.58788,-2.61004 -0.58788,-4.2301 h -16.09291 c 0.14695,20.52062 17.04851,23.13073 23.00052,23.13073 11.68361,0 24.21219,-5.40048 24.21219,-22.14097 0,-11.79036 -7.31128,-16.02053 -14.73294,-18.54061 -7.42165,-2.52006 -14.91718,-3.50996 -15.2111,-8.10015 0,-3.60009 3.60078,-4.31975 5.80525,-4.31975 1.61659,0 3.45366,0.44945 4.77632,1.61948 1.32267,1.08003 2.20432,2.70009 1.9104,5.1302 h 15.2845 c -0.4409,-15.66052 -10.50814,-20.97054 -21.89782,-20.97054 z m 82.334,0 c -15.98498,0 -26.59344,14.04024 -26.59344,33.66082 0,19.62062 10.60846,33.66152 26.59344,33.66152 15.98499,0 26.51969,-14.0409 26.51969,-33.66152 0,-19.62058 -10.5347,-33.66082 -26.51969,-33.66082 z M 6.02888,631.32055 v 64.26132 h 15.24815 v -41.22095 h 0.146833 l 9.162423,41.22095 h 11.876332 l 9.163292,-41.22095 h 0.14679 v 41.22095 H 67.020163 V 631.32055 H 44.075577 l -7.51419,37.80057 h -0.146833 l -7.476968,-37.80057 z m 69.16008,0 v 39.42077 c 0,17.82052 7.899364,26.37106 23.917947,26.37106 16.018583,0 23.880903,-8.55054 23.880903,-26.37106 v -39.42077 h -16.16596 v 35.01063 c 0,6.57018 3.5e-4,14.76089 -7.641543,14.76089 -7.86234,0 -7.89892,-8.19071 -7.89892,-14.76089 v -35.01063 z m 107.30401,0 v 64.26132 h 15.97058 v -64.26132 z m 96.40407,0 v 16.36286 h 14.57837 v 47.89846 h 16.33626 v -47.89846 h 14.50568 v -16.36286 z m 52.70985,0 v 64.26132 h 44.13312 v -16.47002 h -28.01518 v -8.01055 h 24.78328 V 655.76524 H 347.72483 V 647.683 h 27.2801 v -16.36245 z m 51.99089,0 v 64.26132 h 39.19367 v -16.47002 h -23.18622 v -47.7913 z m 46.66658,0 v 64.26132 h 44.13324 v -16.47002 h -27.97797 v -8.01052 h 24.67381 V 655.80112 H 446.41963 V 647.683 h 27.09752 v -16.36245 z m 50.87356,0 15.70067,64.26132 h 17.98818 l 16.43815,-64.26132 h -16.54951 l -8.47462,38.97103 h -0.14753 l -8.55354,-38.97103 z m 55.78955,0 v 64.26132 h 16.11749 v -64.26132 z m 78.83033,0 v 64.26132 h 16.1168 v -64.26132 z m 85.00327,0 v 64.26132 h 15.23821 v -35.10095 h 0.14607 l 16.18994,35.10095 h 15.53133 v -64.26132 h -15.27409 v 34.30902 h -0.14676 l -15.23792,-34.30902 z m -34.61782,14.4898 c 4.12517,0 10.42327,3.3301 10.42327,17.64051 0,14.31045 -6.2981,17.64121 -10.42327,17.64121 -4.12516,0 -10.46046,-3.33076 -10.46046,-17.64121 0,-14.31041 6.3353,-17.64051 10.46046,-17.64051 z" />
  <g
     id="g1437">
    <path
       d="M 0,3.3e-5 V 603.97317 h 285.89893 l 53.53108,-37.59371 V 397.67053 l 29.89484,30.65077 80.28459,-23.0376 14.97198,-14.46112 v 213.15059 h 283.44975 l 54.39831,-40.60636 V 32.304991 L 747.37771,0.002853 H 460.81042 L 400.89768,60.100385 380.10316,42.631686 283.36766,0 Z"
       id="path4138"
       style="fill:#000000" />
    <path
       id="path4146"
       d="M 750.94105,11.895228 V 239.25867 l 0.15911,2.7137 v 348.61139 l 43.54908,-30.59126 0.0256,-522.537983 z m -449.90265,4.665855 68.90567,73.95561 24.04227,-24.905661 -19.9578,-16.647539 z m 83.06019,398.983127 60.84453,-18.14104 18.7938,-17.82414 V 345.97562 Z M 288.67173,347.30513 V 591.59029 L 330.61799,561.6248 V 389.71945 Z"
       style="fill:#00aacd" />
    <path
       d="M 7.714407,7.807103 H 281.02379 L 369.94407,103.02982 464.26975,7.807103 H 742.0594 l 0.0362,588.594177 H 472.36101 V 326.46254 L 369.59896,417.16481 280.10968,326.27364 V 596.4171 H 7.714407 Z"
       id="path4142"
       style="fill:#f7f908" />
    <path
       d="m 634.18776,113.90975 c -1.6696,-0.039 -3.34793,-0.0232 -5.03708,0.0549 -3.98805,0.18446 -7.65978,1.57631 -10.74631,3.92748 -3.28812,2.50481 -6.55118,4.97894 -9.86151,7.31478 -4.37554,3.08744 -8.43571,6.8601 -11.16734,12.00436 -0.30495,0.57427 -0.85425,1.19711 -1.65476,1.85741 -6.05329,4.99314 -12.49146,8.82074 -19.87501,10.6657 -5.88344,1.47007 -11.84484,3.36761 -17.37254,6.88237 0.0427,-0.0272 -0.42943,0.16929 -1.29943,0.44669 -2.74196,0.87434 -6.32327,1.44974 -9.90429,3.59567 -4.49958,2.69638 -9.41382,2.64426 -15.22042,1.78535 -3.18247,-0.47078 -6.50665,-2.12909 -10.38882,-3.77335 -3.41753,-1.44746 -7.51581,-2.39116 -11.72537,-1.13457 -7.59501,2.26726 -14.27582,6.45682 -19.56388,12.27051 -5.46679,6.01028 -5.0648,13.62389 -4.46695,19.64596 0.43235,4.3547 0.73274,8.39441 0.19126,12.24982 -0.49928,3.55439 -1.42931,5.69095 -4.15297,7.41968 -5.10912,3.2427 -9.97287,6.37972 -15.16189,8.58493 -6.3615,2.70349 -12.99433,5.41955 -19.25491,9.3663 -3.08813,1.94672 -5.14789,4.16458 -7.14852,5.47163 -6.33947,4.14176 -13.33089,7.66244 -20.21753,11.82882 -11.01809,6.6659 -20.83207,14.50221 -31.3085,20.8212 -5.90412,3.56117 -11.54672,6.63668 -17.77427,8.26312 -4.00866,1.0469 -7.73203,2.42405 -11.32862,3.55285 -6.11741,1.91998 -10.73545,5.99294 -13.94098,11.0967 -4.93973,7.86484 -6.02033,16.62732 -4.43339,25.34308 0.79687,4.37676 1.82114,9.40557 5.44523,13.76472 5.51369,6.63196 12.9915,9.87108 20.84688,11.29222 6.21963,1.12523 12.93321,0.24346 18.1653,-4.57326 2.07214,-1.90768 3.96646,-4.18021 5.27185,-6.93445 2.71525,-5.72898 6.66125,-10.9054 10.77915,-16.44989 5.46146,-7.35344 11.4884,-13.19824 19.44617,-17.25193 5.69572,-2.90136 10.97871,-6.59291 15.61499,-11.16091 2.30176,-2.26787 4.528,-4.36242 6.89951,-5.92048 10.28232,-6.75534 20.47958,-13.49808 30.99953,-19.59743 4.36107,-2.52853 8.21511,-5.08916 12.22768,-6.46207 1.61629,-0.55299 3.10088,-0.57376 4.11731,-0.21479 1.01643,0.35898 1.82498,0.93924 2.55315,2.85856 0.40104,1.05709 0.77443,1.88804 0.98757,2.53388 3.20753,9.71903 4.00632,20.04854 4.55471,30.69912 0.38182,7.4143 0.4326,14.93304 0.66504,22.53162 0.32402,10.59265 0.33656,21.38053 1.57841,32.29109 0.67271,5.91034 0.39457,12.0276 0.0863,18.36082 -0.50327,10.33864 -0.85988,20.65764 -1.28442,30.94672 -0.40166,9.73481 -1.84189,19.81312 -1.10459,30.40442 0.35472,5.09534 -1.40512,10.55282 -3.16255,16.49983 -1.48579,5.02779 -2.23278,10.297 -1.64691,15.77414 0.84684,7.91736 3.04436,15.25929 4.84443,22.3932 1.76945,7.01279 3.63359,13.71764 4.19148,20.40805 0.29954,3.59176 0.50827,7.29375 0.91979,11.076 0.5801,5.33209 1.83773,9.74336 1.49708,15.25893 l 0.007,-0.0928 c -0.29699,3.44854 0.50965,7.07925 1.32935,10.71423 1.82662,8.10029 7.51587,14.18704 15.92543,16.02316 2.24403,0.48997 4.15194,0.65547 5.57724,1.03825 6.60769,1.77445 13.45002,2.60185 20.53362,1.68472 5.66956,-0.73402 12.15801,-2.12402 16.7917,-7.67444 2.0656,-2.47446 3.75314,-5.196 5.04204,-8.14036 3.44307,-7.86486 4.7429,-15.91608 6.4985,-23.42001 1.597,-6.82596 0.40455,-13.358 -2.24991,-19.33058 -1.52113,-3.42245 -3.1056,-6.99328 -5.20762,-10.46733 -1.50245,-2.48311 -2.10096,-5.32526 -2.4411,-8.7205 -0.46823,-4.67381 -0.71831,-9.66159 -1.90452,-14.81083 -1.13151,-4.91201 -2.46412,-9.12559 -2.30837,-13.17886 0.0882,-2.2965 0.11256,-4.91377 -0.52376,-7.67301 -1.13166,-4.90668 -0.94647,-9.97616 -0.0992,-15.24253 1.07298,-6.66922 1.9165,-13.54249 1.45353,-20.6578 -0.43213,-6.64197 0.27693,-13.52043 0.63578,-20.69989 0.36629,-7.32813 0.50326,-14.71522 0.0543,-22.142 -0.42873,-7.09144 -0.96291,-13.94799 -0.50378,-20.62497 0.53999,-7.85314 0.52833,-15.84649 -0.9355,-23.86029 -0.78488,-4.297 -1.50322,-8.24609 -1.37791,-12.07428 0.35917,-10.97363 0.004,-21.86992 -0.42742,-32.68712 -0.37839,-9.4767 -0.60048,-19.03872 -1.27656,-28.66902 -0.58682,-8.35906 0.0883,-16.98302 0.35107,-25.85828 0.0947,-3.19903 1.25693,-5.64444 3.55785,-8.53142 2.90604,-3.64614 6.53032,-5.49453 11.20157,-6.47135 6.8127,-1.42465 13.22472,-3.99357 18.93954,-8.25027 0.5599,-0.41706 1.14529,-0.74769 1.59197,-0.9148 8.32004,-3.11253 15.17431,-8.10005 21.74599,-12.73861 5.5457,-3.91437 11.06847,-7.17941 17.24977,-9.17934 4.43918,-1.43623 8.2381,-3.7512 11.75606,-6.03821 6.49638,-4.22337 10.17366,-11.35039 11.51127,-18.50639 1.33761,-7.15599 0.50506,-14.57237 -3.43514,-19.98204 -3.45756,-4.74705 -8.12173,-9.97485 -15.757,-10.62003 -1.65418,-0.13978 -3.31534,-0.23354 -4.98498,-0.27259 z"
       id="path53418"
       style="fill:#000000" />
    <path
       d="m 869.49751,80.56544 c -1.96838,-0.07942 -3.93292,-0.02996 -5.86623,0.101329 -10.34775,0.702624 -20.22457,3.895232 -27.78849,12.243404 -4.97734,5.49335 -11.21571,10.569937 -16.2351,17.419607 -8.85995,12.09071 -17.94375,23.76145 -28.82385,33.72822 -3.42721,3.1395 -6.21053,6.71145 -8.52073,10.55653 -2.59586,4.32074 -5.5273,8.35317 -8.88177,12.1014 -2.45633,2.74476 -5.05329,5.61816 -7.3355,8.89034 -6.18883,8.87333 -12.50425,17.56301 -19.36623,25.80975 -4.71893,5.67126 -9.75469,11.71783 -12.69792,19.44901 -2.3566,6.19006 -5.61761,11.98274 -9.46051,17.57946 -2.61059,3.80204 -4.70081,7.99674 -5.87335,12.59447 -1.9735,7.73833 -5.8933,14.86399 -10.26826,22.07209 -5.62897,9.27409 -10.87951,18.54006 -17.21485,26.89652 -1.68191,2.21855 -3.20033,4.89642 -3.76833,8.11612 -0.49439,2.802 -1.72981,5.37858 -3.52574,7.99553 -2.19892,3.20408 -3.74693,6.62426 -4.96072,10.09984 -1.74519,4.9972 -3.91812,9.75862 -6.7154,14.13578 -2.96274,4.63605 -10.1314,6.15713 -14.59031,3.17681 -3.84473,-2.56975 -6.5902,-5.79114 -8.14895,-9.91432 -2.17085,-5.74231 -3.577,-11.52602 -3.83757,-17.51738 -0.47611,-10.94394 -1.3821,-21.86657 -2.86925,-32.77346 -1.60734,-11.78831 -2.80301,-23.68999 -4.12085,-35.63202 -0.64904,-5.88105 -3.20629,-11.38192 -8.1518,-15.30746 -1.76561,-1.40139 -4.16678,-2.68864 -7.02153,-2.79932 -2.21119,-0.0857 -4.70632,-0.46701 -7.50744,-0.56301 -4.36213,-0.1495 -9.55882,-0.51392 -14.71021,1.85456 -4.77256,2.19436 -9.31035,4.88776 -13.52138,8.0569 -2.5278,1.90235 -5.26527,4.58474 -6.21235,8.58565 -0.86069,3.63605 -1.75195,7.60716 -1.64407,12.06215 -0.12403,3.21303 0.37825,6.23109 0.80991,9.00666 0.73902,4.75211 0.96466,10.02602 2.54672,15.52795 2.41487,8.39785 5.67077,16.3036 8.58353,24.13786 4.27825,11.50699 7.14666,23.68797 10.92117,35.86179 7.00753,22.60135 12.40407,45.74541 18.49495,68.84574 1.51337,5.73957 2.29171,12.14388 4.71027,18.62484 4.01574,10.76074 8.62324,21.18576 13.04686,31.58255 2.38597,5.60778 5.81749,10.84773 10.84053,14.98846 7.00323,5.77303 15.43086,7.07658 23.739,5.99399 5.45367,-0.71071 11.23353,-2.47055 15.47086,-7.38545 6.78617,-7.87133 10.81547,-17.02038 13.68052,-26.3449 1.89133,-6.15562 1.2496,-12.20814 0.89408,-17.51027 -0.5276,-7.8687 0.26334,-15.5214 2.17853,-23.2202 1.57248,-6.32123 4.57498,-12.5329 7.04936,-19.37409 1.76371,-4.87639 3.16182,-9.50347 5.41525,-13.32588 6.93895,-11.7707 13.87594,-23.51446 21.06666,-35.07115 6.31093,-10.14269 12.71589,-20.47763 17.12706,-32.11841 1.12051,-2.95689 2.81214,-5.58828 5.07492,-7.89777 1.90941,-1.94886 3.57989,-4.17974 4.81443,-6.72538 2.98865,-6.16256 6.31418,-12.30618 9.35701,-18.7069 6.5815,-13.84477 15.1579,-26.69854 23.94735,-39.63727 2.5922,-3.81608 6.56016,-7.53951 9.45119,-12.81069 4.75214,-8.66469 10.09859,-16.7813 16.64184,-24.0715 3.49819,-3.8976 5.61501,-7.42518 8.81757,-9.11012 3.79599,-1.99719 6.49682,-4.83459 8.9046,-7.43466 5.26501,-5.68523 10.94553,-10.10778 18.15105,-12.28051 4.28,-1.2906 8.30312,-3.10835 12.11782,-5.25115 v 7.3e-4 c 11.22188,-6.30332 19.64809,-15.60357 22.6465,-28.58553 1.53957,-6.66571 3.24354,-13.49888 4.02952,-20.70774 1.3691,-12.5606 -3.84291,-23.230897 -13.80186,-30.535711 -5.24283,-3.845622 -11.18337,-5.245514 -17.08851,-5.483771 z"
       id="path53427"
       style="fill:#000000" />
    <path
       d="m 634.00866,121.60131 c 1.50176,0.0351 3.00553,0.11924 4.51617,0.24689 4.5748,0.38657 7.00983,3.12292 10.18619,7.4839 2.12804,2.92168 3.12299,8.52017 2.09147,14.03874 -1.03156,5.51856 -3.92054,10.72527 -8.14252,13.47002 -3.36247,2.18595 -6.59517,4.0892 -9.93075,5.16837 -7.23551,2.34101 -13.45627,6.07679 -19.31771,10.21401 -6.61223,4.66722 -12.93481,9.17294 -20.00559,11.81812 -1.35887,0.50837 -2.50357,1.21502 -3.49147,1.95089 -4.70355,3.50345 -9.96089,5.64355 -15.919,6.8895 -5.90163,1.23411 -11.5112,4.02174 -15.64353,9.20645 -2.91773,3.66087 -5.07883,7.97733 -5.23045,13.09897 -0.25516,8.61807 -0.97657,17.50098 -0.33612,26.62465 0.65934,9.39169 0.88268,18.87578 1.26446,28.43711 0.43031,10.77801 0.77286,21.48745 0.42457,32.1284 -0.16126,4.92564 0.71981,9.44145 1.4992,13.70835 1.30206,7.12821 1.34316,14.46478 0.82846,21.95007 -0.51093,7.43081 0.0775,14.62489 0.5002,21.61754 0.42475,7.02494 0.29893,14.12831 -0.0592,21.29356 -0.34474,6.89658 -1.11771,14.07783 -0.62939,21.5833 0.40229,6.18254 -0.33107,12.47031 -1.37147,18.93669 -0.94172,5.85341 -1.23524,11.98013 0.19769,18.1931 0.37795,1.63895 0.4124,3.56915 0.3325,5.64932 -0.22297,5.80829 1.47498,10.75549 2.49894,15.20044 0.98888,4.29279 1.25482,8.94033 1.74679,13.85107 0.38552,3.84783 1.13703,8.00694 3.51431,11.93584 1.7735,2.93107 3.24223,6.19581 4.75952,9.60964 2.18258,4.91088 2.95876,9.45317 1.78892,14.4533 -1.83254,7.83286 -3.11378,15.36934 -6.05464,22.08708 -1.0005,2.28547 -2.28853,4.36495 -3.90037,6.2958 -2.80981,3.36573 -6.65702,4.29962 -11.87377,4.975 -5.87963,0.76124 -11.64302,0.10069 -17.5502,-1.48564 -2.3312,-0.62606 -4.36377,-0.78221 -5.93188,-1.12458 -6.02734,-1.31601 -8.72057,-4.25018 -10.06202,-10.19905 -0.77738,-3.44731 -1.29314,-6.91814 -1.16881,-8.36159 l 0.004,-0.0464 0.004,-0.0464 c 0.42501,-6.88123 -1.04153,-12.09605 -1.52777,-16.56548 -0.38273,-3.51789 -0.59036,-7.15532 -0.90123,-10.88331 -0.63867,-7.65862 -2.66316,-14.77383 -4.39841,-21.65111 v 0 c -1.85176,-7.33876 -3.90531,-14.33062 -4.6539,-21.32924 -0.45767,-4.27854 0.10299,-8.46816 1.37575,-12.77501 1.69736,-5.74384 3.95385,-12.1008 3.45866,-19.21425 -0.66365,-9.53343 0.69486,-19.31139 1.11745,-29.55312 v 0 c 0.42592,-10.32331 0.78181,-20.62317 1.28157,-30.88966 0.30842,-6.33673 0.63851,-12.87874 -0.12703,-19.60457 -1.17737,-10.34417 -1.20349,-20.91566 -1.53201,-31.65601 -0.22867,-7.47604 -0.27854,-15.04845 -0.6722,-22.69218 -0.55427,-10.76551 -1.33867,-21.82853 -4.93146,-32.71495 -0.3892,-1.17937 -0.81841,-2.1083 -1.10031,-2.85141 -1.38342,-3.64645 -4.09196,-6.29193 -7.18422,-7.384 -3.09222,-1.09208 -6.30764,-0.78953 -9.17005,0.18981 -5.2808,1.80681 -9.54407,4.73665 -13.59562,7.08573 -10.78116,6.25081 -21.09596,13.0764 -31.36488,19.82291 v 0 c -3.1434,2.06512 -5.71227,4.54245 -8.07485,6.87025 -4.03183,3.97242 -8.64751,7.20827 -13.70763,9.78587 -9.23776,4.70573 -16.20934,11.54784 -22.13059,19.52037 -4.06836,5.47776 -8.38175,11.04808 -11.5541,17.74144 -0.76704,1.61835 -1.98748,3.14825 -3.53144,4.56969 -3.31775,3.05409 -6.78431,3.53152 -11.58478,2.66303 -6.738,-1.21898 -12.15037,-3.64928 -16.30005,-8.64059 -2.20185,-2.64845 -3.029,-6.02996 -3.79261,-10.224 -1.32734,-7.29004 -0.4987,-13.69894 3.37946,-19.87358 2.46567,-3.92578 5.43821,-6.50076 9.73021,-7.84782 3.83739,-1.20438 7.44581,-2.53017 10.96827,-3.4501 7.41022,-1.9353 13.73342,-5.45689 19.80435,-9.11869 11.05028,-6.66509 20.86759,-14.50502 31.31709,-20.82691 6.54296,-3.95845 13.61962,-7.51219 20.44298,-11.9701 3.02956,-1.97926 5.06685,-4.15815 7.04294,-5.40385 5.5221,-3.48121 11.74926,-6.06915 18.16102,-8.79401 5.99709,-2.54865 11.21202,-5.95642 16.27646,-9.17078 4.8362,-3.06954 6.97596,-8.05457 7.64875,-12.84422 v -7.3e-4 c 0.69522,-4.94994 0.28643,-9.63473 -0.15483,-14.07941 -0.56826,-5.72372 -0.67436,-10.21633 2.50317,-13.70978 4.36487,-4.79875 9.7689,-8.19293 16.07314,-10.07487 1.85651,-0.55418 4.03416,-0.20761 6.52414,0.847 3.50733,1.48549 7.41932,3.5834 12.26338,4.29997 6.40658,0.94766 13.60972,1.21259 20.30101,-2.79719 2.00517,-1.2016 4.88984,-1.78253 8.28665,-2.86569 0.62956,-0.20073 1.7469,-0.42934 3.09047,-1.28371 4.4641,-2.83846 9.56185,-4.52513 15.1091,-5.91119 8.79506,-2.19768 16.27229,-6.72261 22.90552,-12.19417 1.2565,-1.03644 2.58728,-2.36327 3.55428,-4.18436 1.98434,-3.73692 5.00788,-6.64399 8.80829,-9.32562 3.45487,-2.4378 6.79198,-4.96989 10.08843,-7.48105 2.00539,-1.52759 3.90286,-2.24531 6.43924,-2.36262 1.50099,-0.0694 3.00085,-0.0837 4.50261,-0.0485 z"
       id="path53638"
       style="fill:#ff3c3c" />
    <path
       d="m 869.14572,88.219883 c 4.83244,0.17865 9.1656,1.27212 12.90346,4.01382 8.26736,6.06407 11.82522,13.326967 10.7142,23.519917 -0.71202,6.53088 -2.32039,13.06821 -3.87823,19.81292 -2.48648,10.76561 -9.02118,18.05858 -18.92953,23.6241 -3.42122,1.92177 -6.9295,3.49515 -10.5758,4.59466 -8.90723,2.68588 -15.76939,8.15553 -21.56401,14.41265 -2.31722,2.50224 -4.41011,4.57459 -6.84883,5.85768 -5.55035,2.9202 -8.18618,7.69175 -10.95398,10.77559 -7.046,7.85033 -12.71158,16.4856 -17.65867,25.50577 -2.12858,3.88103 -5.85041,7.44719 -9.0716,12.18917 -8.81085,12.97023 -17.63076,26.14182 -24.5296,40.65411 -2.92778,6.1587 -6.24261,12.28516 -9.33063,18.65266 -0.81666,1.68394 -1.96527,3.24878 -3.39228,4.70527 -2.97272,3.03408 -5.27086,6.596 -6.76819,10.54725 -4.06953,10.73919 -10.16582,20.65771 -16.46703,30.78475 -7.25304,11.65682 -14.22039,23.45295 -21.16158,35.22743 -2.88949,4.90142 -4.36414,10.03133 -6.02106,14.61245 -2.28922,6.32937 -5.45101,12.7795 -7.27982,20.13115 -2.0842,8.37814 -2.97265,16.87044 -2.38831,25.58498 0.36399,5.42887 0.73496,10.48747 -0.57301,14.74449 -2.68545,8.73997 -6.3113,16.80847 -12.15776,23.58982 -2.62644,3.04641 -6.04203,4.18647 -10.65285,4.78732 -6.97718,0.90917 -12.67816,-0.027 -17.86919,-4.30638 -3.90472,-3.21885 -6.63418,-7.30752 -8.66201,-12.07358 -4.45098,-10.46108 -9.007,-20.7814 -12.91771,-31.26068 -2.00707,-5.3783 -2.79278,-11.49739 -4.4805,-17.89841 v 0 c -6.05318,-22.95744 -11.46901,-46.21121 -18.58487,-69.16186 -3.66852,-11.83205 -6.5575,-24.15691 -11.05817,-36.2621 -2.9733,-7.99706 -6.14155,-15.72559 -8.40155,-23.58485 -1.25865,-4.37719 -1.51586,-9.2932 -2.33906,-14.58675 v -7.3e-4 c -0.44371,-2.85294 -0.82999,-5.47273 -0.72715,-7.668 l 0.007,-0.142 -0.004,-0.14129 c -0.0901,-3.32203 0.59763,-6.59838 1.44352,-10.17191 0.36556,-1.54434 1.44787,-2.78445 3.3602,-4.22361 3.76417,-2.83284 7.82905,-5.24708 12.11351,-7.21703 2.99862,-1.37868 6.80886,-1.31012 11.2437,-1.15812 2.1996,0.0754 4.68356,0.45418 7.4732,0.56229 0.92437,0.0358 1.48064,0.29342 2.55031,1.14242 3.33821,2.64974 4.81432,5.76952 5.29679,10.14124 1.31233,11.89187 2.51257,23.85876 4.14442,35.82682 1.45087,10.64076 2.33837,21.32731 2.80572,32.07059 0.30342,6.97567 1.93999,13.584 4.32637,19.89642 2.1627,5.72067 6.114,10.27269 11.06102,13.57919 8.29041,5.54131 19.92678,3.00791 25.31528,-5.42383 3.18495,-4.98384 5.59539,-10.30092 7.49388,-15.73702 1.06064,-3.03708 2.33548,-5.79963 4.04377,-8.28881 2.2022,-3.20896 4.01834,-6.8308 4.75451,-11.00321 0.28662,-1.62473 1.0993,-3.19509 2.32697,-4.81445 6.74679,-8.89922 12.11333,-18.41221 17.66006,-27.55086 4.47627,-7.37493 8.85118,-15.16943 11.14308,-24.15641 0.90916,-3.56493 2.56214,-6.94097 4.76452,-10.14837 4.09426,-5.96282 7.67802,-12.29023 10.30534,-19.19141 2.36975,-6.22475 6.72987,-11.62836 11.42637,-17.27263 7.07603,-8.50402 13.51589,-17.37404 19.76084,-26.3278 1.91774,-2.74962 4.29622,-5.40974 6.76034,-8.16322 v 0 c 3.69709,-4.13099 6.9174,-8.56508 9.74164,-13.26594 1.99169,-3.315 4.30817,-6.26943 7.12642,-8.8511 11.50842,-10.54235 20.88582,-22.64505 29.82998,-34.85065 4.26049,-5.81406 10.24005,-10.74174 15.73202,-16.803097 6.03611,-6.66196 13.44008,-9.11729 22.62439,-9.74092 1.71819,-0.11666 3.38417,-0.15874 4.99499,-0.0992 z"
       id="path56065"
       style="fill:#ff3c3c" />
  </g>
  <g
     id="g1428">
    <path
       d="m 187.8704,1015.2554 c -25.6461,-1.5209 -47.57973,-9.5265 -65.8511,-23.92942 -5.57753,-4.519 -10.5012,-9.34214 -14.62128,-14.53902 -11.711003,-14.50236 -19.320833,-32.11957 -22.165549,-51.58601 -0.654289,-4.18487 -1.149637,-9.70489 -1.460956,-16.77088 l 27.520065,-3.64109 c 0,0 -1.59444,-1.63164 -3.29856,-3.51032 -11.455563,-12.62924 -19.222103,-26.40299 -22.950292,-40.81048 -1.88018,-7.26591 -2.753067,-10.84145 -2.713606,-25.33227 0.02452,-9.00478 0.248557,-12.28694 0.875247,-16.91644 2.760999,-20.11763 11.657648,-37.494 26.303241,-52.09841 18.50208,-18.05632 43.5693,-29.37769 71.26833,-32.64524 7.01812,-1.14222 25.46664,-1.14233 32.37982,0.004 16.32048,2.14316 29.61631,6.06355 42.81686,12.66975 17.97806,8.99714 31.80604,22.29605 43.93166,42.22707 4.03632,6.74387 7.35828,13.2569 10.06095,19.6413 0,0 0.35203,-0.75762 0.7221,-1.66313 0.36369,-0.88991 1.67377,-3.66044 2.91128,-6.13242 15.83172,-31.62478 44.31307,-54.96675 77.46426,-63.47035 10.54913,-2.7059 18.03882,-3.73326 30.83187,-3.79814 12.58956,-0.20237 17.20963,0.21113 25.46899,1.51513 28.78695,4.54484 55.8579,20.53395 74.48109,43.91808 8.48935,10.65965 16.13894,24.72996 20.05944,36.86689 0.46311,1.43377 0.88407,3.03483 0.88407,3.03483 0,0 1.81639,-1.68283 3.6249,-3.17139 13.66524,-11.24735 31.267,-18.6606 53.29938,-21.75853 9.84179,-1.31941 19.8091,-1.52236 29.89344,-0.68444 36.60593,3.05902 66.63323,20.60991 78.88287,46.22083 5.49032,11.43094 8.30952,24.21665 9.53446,43.71893 l -13.79437,2.35426 c 0,0 1.65948,2.3072 3.36229,4.87808 18.42356,27.71184 19.12799,59.56639 1.73741,85.34168 -13.26264,20.29863 -38.30961,35.31105 -66.32174,39.06235 -6.15141,0.8522 -12.52715,1.2611 -19.15016,1.1811 -16.50374,-0.013 -30.79004,-1.5596 -41.15201,-4.2952 -24.44922,-6.1162 -43.67728,-18.47562 -56.90134,-38.01395 -1.01877,-1.49 -1.94656,-2.98003 -2.75752,-4.47002 -0.71437,1.0975 -2.49269,3.39129 -2.49269,3.39129 -5.16053,6.26241 -10.78679,11.78127 -16.84819,16.60546 -13.03155,10.0711 -27.29524,17.31192 -42.80586,21.68842 -16.49939,4.7576 -33.76816,6.1972 -51.79214,4.38 -23.0608,-2.5727 -44.36651,-10.6796 -60.17178,-23.25702 -6.78839,-5.33255 -13.01302,-11.50089 -18.58881,-18.63111 -4.35682,-5.54713 -8.46845,-11.53045 -12.21941,-18.15539 -2.67711,-4.57926 -5.2532,-9.67252 -7.28611,-14.56638 l -0.36382,-1.02001 -0.37926,1.10199 c -2.65781,6.38188 -5.85804,12.64458 -9.6073,18.78676 -14.12282,22.79764 -32.70165,39.12644 -54.9891,47.90876 -15.8752,6.274 -38.75339,9.5381 -57.63107,8.3704 z"
       id="path51946"
       style="fill:#000000" />
    <path
       d="m 205.51558,1007.5444 c 10.29554,-0.5435 25.37869,-3.4445 33.68931,-6.4312 14.07813,-5.05942 26.25804,-12.85122 37.31783,-23.96586 7.29004,-7.32622 12.26643,-13.74416 17.6862,-22.69472 5.3235,-8.79156 9.0927,-17.02344 13.39895,-29.263 1.18282,-3.36192 2.54596,-7.43846 2.54596,-7.43846 l 1.30829,3.48325 c 8.59827,23.95689 19.46989,42.39948 32.55179,55.50878 8.12964,8.28052 16.66516,14.51139 26.22448,19.12809 42.67858,20.61212 95.31493,14.57742 130.51566,-14.69467 5.22142,-4.25169 10.02069,-9.12911 14.38454,-14.65202 2.01189,-2.62911 3.88097,-5.23809 5.59273,-7.82481 l 3.08385,-4.65708 c 0.78725,1.6285 1.58141,3.21608 2.39876,4.66606 4.9126,9.5559 9.73244,15.96442 15.96493,22.12398 16.39954,16.26834 38.08451,24.70936 68.08234,26.58616 14.49075,0.6863 24.95282,0.5834 32.10422,-0.7539 19.14206,-2.9467 35.54701,-10.35742 48.65408,-21.97851 10.77619,-9.55455 18.8759,-22.63119 21.80251,-37.05245 4.39541,-21.65896 -1.72101,-42.41435 -18.80356,-63.24474 -2.02125,-2.46646 -3.80451,-4.60359 -3.80451,-4.60359 l 19.54116,-3.48179 c -0.29019,-3.99328 -0.72678,-8.00724 -1.44049,-12.06032 -4.51144,-25.97375 -17.18478,-42.62282 -41.08558,-53.95887 -10.2299,-4.85203 -19.85792,-7.59852 -33.49942,-9.57615 -11.45968,-1.43387 -22.10918,-1.26629 -32.1979,0.01 -19.4264,2.66276 -34.82917,8.60973 -47.24365,17.86769 -6.12727,4.56932 -7.65702,6.38856 -15.19872,15.07632 0,0 -0.71696,-2.66798 -1.56862,-5.98898 -2.68599,-10.4738 -5.76495,-18.61329 -10.19738,-26.95792 -15.70373,-29.56415 -43.83211,-50.93256 -76.08109,-57.79684 -16.67246,-3.48479 -36.39355,-3.27858 -51.62964,-0.35457 -17.35686,3.40186 -33.23144,10.74814 -47.52839,21.99472 -6.21783,4.96802 -12.05603,10.6328 -17.42516,17.15851 -9.28375,11.2977 -16.65898,24.70344 -21.81997,40.55496 -1.35712,3.91005 -2.48525,7.28995 -2.53475,7.2362 -0.0495,-0.0537 -1.30038,-3.39663 -2.75194,-7.15407 -8.881,-23.33711 -18.30442,-39.05305 -31.20564,-52.1317 -12.74915,-12.92451 -28.37205,-21.33768 -48.72641,-26.3875 -11.17413,-2.77225 -21.23277,-3.94118 -33.7303,-3.65541 -14.93868,0.3416 -27.60529,2.7975 -41.12812,7.72175 -11.23505,4.02638 -21.25369,9.78929 -30.3065,16.93098 -17.37842,13.86177 -28.242983,32.48791 -31.573163,54.1289 -1.01661,8.78996 -1.22987,17.92015 -0.54877,27.42922 2.04153,21.45967 12.823023,41.04507 32.049613,58.22057 3.10156,2.77068 6.19249,5.50431 6.19249,5.50431 l -36.709063,4.94307 c 0.29272,4.64407 0.82476,9.05162 1.63193,13.18723 1.79463,9.81208 4.39791,17.78267 8.705263,26.49535 9.05582,18.31765 23.51029,32.57351 42.37937,41.83521 10.9806,5.38972 21.34676,8.41402 34.73757,10.24632 8.98859,1.23 15.41169,1.2907 26.19491,0.7216 z"
       id="path52358"
       style="fill:#00aacd" />
    <path
       d="m 610.08144,995.61938 c -16.16071,-1.2737 -29.07674,-4.3577 -40.38382,-9.64274 -18.1094,-8.2442 -29.89615,-22.38345 -35.15071,-42.61303 l 63.70015,-14.62563 c 0,0 -1.48137,-0.29769 -3.08218,-0.64122 -4.19217,-0.89971 -11.51503,-2.89987 -16.0514,-4.38435 -24.81647,-8.12085 -37.01036,-23.59135 -38.2152,-48.48408 -0.63728,-13.16574 2.94813,-25.63419 10.33139,-35.92835 4.62097,-6.12467 9.80598,-11.07249 15.51839,-14.91999 9.64231,-6.45517 21.78132,-10.44282 36.39581,-11.984 9.66489,-0.98614 19.59454,-0.86032 29.74442,0.19068 16.72744,2.11766 29.77588,6.86727 40.37627,14.70605 4.075,3.01338 9.85607,8.767 12.42256,12.40779 3.7497,5.31927 7.49644,12.98589 8.93806,18.67244 0.77318,3.04981 1.52189,8.31226 1.52189,8.31226 l -61.18828,10.77996 c -0.18045,-1.22362 -0.48237,-2.37567 -0.82616,-3.45165 -1.63785,-5.12611 -5.25767,-8.52683 -12.07826,-9.7248 -5.3547,-1.00405 -10.51004,-0.12568 -12.4185,2.11587 -1.56168,1.83422 -0.89284,5.13791 1.41141,6.6815 4.17343,2.80685 7.5923,3.65854 31.57199,6.44015 9.00043,1.04401 18.5621,3.07264 23.57974,4.68261 7.40108,2.23359 14.59498,6.20772 21.51118,12.51437 6.5861,6.14557 10.97385,15.41628 13.00349,26.30903 1.26819,8.28438 1.25676,16.33885 -0.14296,24.14387 -2.11784,9.57881 -5.86535,17.11131 -11.959,24.03762 -11.20059,12.73106 -29.28697,21.15114 -51.45183,23.75824 -9.40209,0.9589 -18.40383,1.1265 -27.07845,0.6474 z"
       id="path52376"
       style="fill:#000000" />
    <path
       d="m 415.62061,995.63428 c -0.70037,-0.079 -3.07392,-0.321 -5.27539,-0.5304 -18.36321,-1.7464 -36.53622,-8.92169 -49.4526,-19.18918 -18.73257,-14.823 -30.50967,-34.40698 -36.92494,-60.97266 -5.16652,-21.39452 -6.1766,-48.84624 -2.59392,-70.63103 3.75466,-22.83038 11.14089,-41.06166 22.51604,-55.57572 4.57315,-5.70299 9.84356,-10.85467 15.70279,-15.54079 17.45715,-13.72674 39.41296,-20.76774 64.75966,-20.76774 29.5837,0 53.79359,9.06839 72.89965,27.30621 18.11792,16.93499 29.56043,43.92615 32.603,75.8811 1.05458,11.07571 0.82174,27.48811 -0.55846,39.37222 -3.02369,26.03465 -11.87381,49.08946 -25.18994,65.62034 -3.18334,4.18337 -10.22492,11.21421 -14.63082,14.49674 -13.66971,10.77317 -29.46423,17.15641 -49.11543,19.84971 -8.11757,0.9069 -16.36484,1.1302 -24.73964,0.6812 z"
       id="path52368"
       style="fill:#000000" />
    <path
       d="m 185.93872,995.47638 c -28.7376,-2.5383 -49.88413,-12.91876 -65.27553,-32.84935 -7.56782,-9.80952 -12.8415,-21.95507 -14.75429,-37.52287 l 71.4725,-9.60178 c 1.83528,12.81801 10.94953,15.98578 22.6769,15.68912 3.92463,-0.14172 5.24987,-0.50082 7.78615,-1.34287 9.39473,-3.03534 15.91646,-10.9988 19.57395,-23.89565 1.18991,-3.42538 2.29514,-11.09701 2.24641,-11.09701 -9.60902,7.12521 -21.43481,11.52359 -35.24569,13.30962 -9.21781,1.04018 -18.37172,0.94358 -27.46827,-0.17347 -14.58892,-2.14323 -26.37596,-6.57876 -36.6968,-13.80912 -5.83087,-4.34214 -11.25408,-9.45905 -15.97202,-15.9164 -8.53782,-11.89003 -12.73817,-27.29313 -12.15838,-44.58591 0.24116,-7.19283 0.62666,-10.55589 1.93711,-16.89948 3.12244,-15.11483 10.23665,-28.33414 21.1875,-39.22272 14.93679,-14.85182 35.22354,-22.83326 62.98595,-24.81391 7.24161,-0.5166 20.23114,-0.23079 26.19491,0.57648 17.8698,2.39569 34.07006,9.04072 46.38683,18.98166 3.89007,2.8587 11.61058,10.87605 14.84621,14.99431 12.21845,15.1186 20.81639,37.04697 23.89329,60.93799 1.64237,12.7525 1.88291,32.47575 0.55262,45.31301 -2.33821,22.56353 -8.5967,42.89701 -17.80913,57.86063 -4.9524,8.43155 -13.44118,18.18886 -20.75536,23.83438 -13.18229,10.52981 -29.31114,17.07534 -48.56973,19.71084 -9.01171,1.1028 -18.02342,1.2172 -27.03513,0.5225 z"
       id="path52360"
       style="fill:#000000" />
    <path
       d="m 630.81908,987.92318 c 25.75706,-1.78849 45.56609,-11.40307 55.72262,-26.48893 5.41659,-8.04548 7.75204,-17.00529 7.35162,-28.64213 -0.5839,-16.96952 -6.39978,-28.52467 -18.14451,-35.66727 -8.98363,-5.91073 -17.7772,-8.19568 -44.63501,-11.41453 -12.19458,-1.46154 -17.22606,-2.65206 -21.32865,-4.55211 -5.87748,-2.83341 -8.58667,-6.90769 -8.63432,-12.41252 0.0561,-3.64064 1.11128,-5.72239 3.4141,-8.19356 2.58881,-2.35487 5.66609,-3.44134 9.39471,-4.0586 4.37408,-0.50856 8.41083,-0.0643 11.76628,0.73289 6.11174,1.57388 11.08656,5.34046 13.5928,9.55243 0.85313,1.36998 1.05432,2.09998 1.05432,2.09998 l 46.90308,-8.35293 c -0.84647,-3.07856 -1.89275,-5.82797 -3.10297,-8.3074 -4.67464,-9.88088 -12.36918,-18.25554 -25.0546,-24.68509 -7.26423,-3.25141 -11.73903,-4.59044 -18.8283,-6.06206 -5.29051,-0.96535 -11.1236,-2.14122 -22.71145,-2.14122 -8.81008,-0.0296 -12.03405,0.46077 -16.77472,1.00054 -13.38254,2.0268 -23.83701,5.89184 -31.68762,11.71492 -3.59198,2.66429 -9.20608,8.32081 -11.72971,11.81834 -7.72439,10.70532 -10.47059,23.9578 -8.02313,38.71759 1.73149,10.44183 6.86428,19.54858 14.8166,25.28529 9.55064,7.32093 26.11744,12.33499 48.47356,15.52351 8.96345,1.5688 13.90243,2.80999 17.02414,4.46352 2.22087,1.06312 3.75291,1.9888 5.27918,3.60502 4.87183,5.53424 2.70883,14.68804 -4.4938,17.97287 -2.38378,0.9263 -3.48851,1.61743 -10.15083,1.83302 -4.342,-0.0439 -7.20193,-0.442 -10.09658,-1.19001 -6.67565,-1.72502 -10.6971,-4.64787 -14.36671,-9.35668 -0.95922,-1.44589 -1.75049,-3.16401 -1.75049,-3.16401 l -49.7892,11.38132 c 1.48217,3.7828 3.24778,7.36192 5.39664,10.66553 10.5137,16.39604 31.45899,26.09073 59.2788,28.29018 5.5182,0.4363 16.76514,0.453 21.83415,0.033 z"
       id="path52378"
       style="fill:#f7f908" />
    <path
       d="m 434.06455,987.91868 c 22.82256,-1.88636 40.76573,-9.14796 56.27163,-23.72986 18.86008,-17.73609 30.14418,-45.84785 32.23681,-80.70858 1.76299,-29.36928 -3.51737,-56.82699 -14.95101,-77.74441 -10.98514,-20.09692 -30.05281,-35.25206 -52.38499,-41.63609 -10.2014,-2.9162 -19.65018,-4.06536 -31.24859,-4.06536 -12.4976,0 -23.94308,1.72626 -36.30616,6.10261 -13.99358,4.95355 -27.82135,14.95704 -37.50221,27.06375 -11.98037,14.98244 -19.66141,35.92492 -22.47293,61.69422 -0.8981,7.28797 -1.11384,25.66079 -0.10451,33.9052 2.14074,23.41731 7.82124,42.40029 17.19167,57.78347 6.90032,11.35294 18.01736,22.68402 29.89771,29.45097 15.84509,9.36834 37.3763,13.70208 59.37258,11.88408 z"
       id="path52370"
       style="fill:#f7f908" />
    <path
       d="m 206.78894,987.92218 c 9.25029,-0.8062 18.61192,-2.77097 26.37682,-5.53577 5.11464,-1.69188 13.22048,-5.59638 17.37888,-8.60234 9.34583,-5.95508 18.34021,-15.41797 24.76227,-25.69488 12.32779,-19.69625 18.6865,-47.87387 17.94734,-79.53081 -0.42841,-18.34782 -2.73275,-32.44648 -7.56099,-46.26043 -6.02611,-17.24119 -12.69284,-28.03931 -24.64322,-39.4994 -2.52871,-2.47767 -6.02455,-5.40892 -7.69237,-6.59637 -10.56814,-7.78382 -23.5313,-12.82195 -39.11046,-15.21625 -3.01121,-0.46279 -8.42476,-0.92367 -15.46227,-0.93186 -5.85687,-0.007 -12.35021,0.42238 -14.71352,0.6744 -25.87654,2.55392 -44.33641,11.17402 -57.20498,26.33087 -10.79037,12.70913 -16.39022,27.97489 -17.10184,46.62135 -0.59094,15.48421 3.17807,29.59912 10.67906,39.99306 2.90423,4.31156 8.94063,10.1703 12.67209,13.03838 9.51677,7.31483 21.2127,12.0433 35.96472,13.90335 8.69466,0.9841 16.97466,0.96298 25.49782,-0.17153 12.7264,-1.74523 23.73258,-6.33146 32.28391,-13.11745 2.66935,-2.17114 4.9927,-4.51327 7.05597,-6.98389 2.48799,-2.66028 4.75426,-5.07529 4.84545,-5.31565 -0.30445,5.74358 -0.57808,10.83538 -0.84496,15.53111 -1.21943,12.31825 -3.62558,21.61421 -7.12946,28.11446 -5.26781,10.47661 -13.79568,17.61264 -24.96817,19.55292 -2.48705,0.46304 -4.49419,0.68017 -8.85518,0.53746 -12.3112,-0.32023 -20.99295,-4.95246 -25.24522,-14.84725 -18.87024,2.52092 -38.048,5.06286 -56.90215,7.69566 0.70817,3.2529 1.65704,6.5058 2.85031,9.75867 5.55655,15.49808 18.36968,29.57413 34.12675,37.387 10.75722,5.26461 22.20533,8.09739 34.61958,9.12109 5.44546,0.4492 15.47788,0.4709 20.37382,0.044 z"
       id="path52362"
       style="fill:#f7f908" />
    <path
       d="m 417.62161,936.35462 c -8.05232,-1.24397 -14.14667,-4.17807 -20.17799,-9.96224 -8.16149,-7.82697 -12.3393,-18.29445 -14.44213,-35.54109 -1.01555,-6.68482 -1.23801,-27.56176 -0.18347,-33.61917 1.92757,-15.66194 5.99994,-26.18031 13.21474,-34.13212 7.8445,-8.64586 19.59208,-13.07167 32.61706,-11.78956 9.21317,0.88596 16.48007,4.35921 23.20362,11.16233 8.13514,8.35296 12.73354,19.31957 14.95021,34.93914 0.96177,5.67522 1.26797,22.99324 0.18387,31.28201 -1.93816,17.47571 -5.93268,28.1628 -13.59367,36.18402 -6.40614,6.70737 -13.95099,10.44139 -23.22053,11.62647 -3.64203,0.4656 -8.98074,0.40192 -12.55171,-0.14979 z"
       id="path52372"
       style="fill:#000000" />
    <path
       d="m 192.03961,860.12742 c -11.37175,-1.74691 -19.71176,-7.97033 -22.5434,-17.30392 -0.89605,-2.98488 -1.40871,-8.14175 -1.02656,-11.46561 0.86056,-7.485 4.62301,-13.29299 11.21742,-17.61888 4.54374,-2.98072 10.52297,-4.78681 17.23023,-5.12695 6.78883,-0.29016 13.33713,0.48653 18.99764,3.15638 3.01712,1.5707 4.45392,2.32042 7.10041,4.96707 4.55434,4.55456 6.79756,9.70905 6.90324,17.48455 0.006,5.09695 -0.56376,7.70582 -2.63247,11.86558 -2.87442,5.77994 -8.60301,10.38831 -15.75936,12.82433 -4.83363,1.64542 -12.95203,2.4197 -19.48715,1.21745 z"
       id="path52364"
       style="fill:#000000" />
    <path
       d="m 599.22096,928.93084 c 0,0 1.15421,3.93168 2.04507,5.69613 2.44537,4.84333 7.45322,7.78952 14.47668,8.6878 3.38191,0.43253 5.74497,0.46033 8.38358,0.0371 1.27732,-0.20485 2.71818,-0.641 3.30127,-0.93748 1.5007,-0.76313 2.37845,-2.26566 2.48063,-3.78386 0.0946,-2.69962 -3.5877,-4.59533 -11.07654,-6.28882 -6.87302,-1.38609 -5.5106,-1.09502 -19.61069,-3.41092 z"
       id="path101687"
       style="fill:#00aacd" />
    <path
       d="m 423.53584,818.67901 c -6.21385,0.17588 -12.23002,1.73247 -17.17974,5.45031 -8.8111,6.21397 -13.79849,16.8262 -15.89642,33.82213 -1.14598,13.00488 -0.68773,21.98211 0.18048,31.82138 1.18066,9.61289 2.89187,16.38982 5.4935,21.75359 1.90573,3.92905 3.31275,6.06421 6.53664,9.28616 4.35103,4.34829 10.22781,7.3415 16.4287,8.10138 13.51177,1.65583 23.7847,-2.51157 31.10643,-12.06082 6.48096,-8.4527 9.7351,-22.89234 9.77832,-43.08089 0,-8.63951 -0.4151,-14.76645 -1.78713,-21.51137 -3.30449,-16.24511 -11.86624,-28.19922 -23.67162,-32.02637 -3.51306,-1.1389 -7.26083,-1.66109 -10.98916,-1.5555 z"
       id="path101685"
       style="fill:#00aacd" />
    <path
       d="m 199.04438,816.13356 c -3.06177,0.0322 -6.07661,0.43005 -8.00897,0.94709 -6.24488,1.67081 -11.1134,5.02505 -13.43782,9.87602 -0.97259,2.1033 -1.31795,2.93359 -1.49507,6.52199 -0.158,4.39596 0.40459,7.00987 1.76473,9.67314 2.53084,4.95684 8.43979,8.45339 15.64241,9.56774 3.12527,0.6281 11.21302,0.34152 13.82509,-0.50776 10.42999,-2.77262 16.10192,-10.56086 14.81991,-20.55408 -0.95019,-7.54189 -6.29528,-13.00211 -14.81991,-14.74843 -2.11976,-0.47448 -5.22858,-0.80786 -8.29037,-0.77571 z"
       id="path68876"
       style="fill:#00aacd" />
  </g>
</svg>
