<?xml version="1.0" encoding="UTF-8" standalone="no"?>
<svg
   version="1.1"
   viewBox="0 0 1024 973.153"
   id="svg26"
   xmlns="http://www.w3.org/2000/svg"
   xmlns:svg="http://www.w3.org/2000/svg">
  <defs
     id="defs2" />
  <path
     d="M 0,973.153 H 1024 V 0 H 0 Z"
     style="fill:#fff742"
     id="path4" />
  <g
     id="g1600">
    <g
       id="g1609">
      <path
         d="M 861.46082,507.83286 C 856.96756,524.44469 855.27145,537.10302 854.88737,553.58682 854.22368,581.79281 814.06708,592.99471 791.80976,560.96837 773.49056,534.61007 752.47357,440.56209 750.01339,429.40014 739.97091,383.7906 736.09014,367.17468 734.82625,350.3109 733.20594,328.69781 741.91181,316.42356 761.10774,311.45506 780.99604,306.30529 797.16745,316.21564 798.77548,338.01206 801.80819,378.98906 804.29295,410.95189 808.24542,429.59987 809.56973,435.84146 813.25078,438.09372 817.19505,438.09372 822.34073,438.09372 825.3417,434.50895 827.16583,430.58414 834.6877,414.38508 853.95533,345.25023 917.33714,264.90017 V 99.865546 H 611.45179 L 506.7089,204.60741 401.96602,99.865546 H 96.076573 V 636.96037 H 405.33058 V 451.81315 L 506.70071,553.18225 608.07391,451.81315 V 636.96037 H 649.62344 C 650.03927,622.40928 650.33527,603.03309 650.06693,594.81167 649.68694,586.23383 649.26701,565.60911 649.26701,554.46253 649.26701,492.46546 654.6964,477.27423 654.6964,387.92333 654.6964,361.20553 648.71496,354.71607 640.09307,354.71607 630.46745,354.71607 606.10945,373.0199 588.16614,385.795 559.3958,406.24663 543.89219,422.54606 525.26879,422.54606 514.2697,422.54606 507.99635,417.6974 501.01936,408.76723 499.71143,407.11926 496.0058,399.72951 496.0058,393.84844 496.0058,387.24325 498.65034,378.10516 508.78909,371.99159 519.75952,365.39049 531.86989,366.65028 557.87586,350.95513 588.71001,332.34301 625.58193,310.7545 631.51523,306.99766 642.11796,301.42795 639.58096,292.84704 639.59326,284.90933 639.59326,267.60923 655.09995,261.62779 668.40354,261.62779 681.16225,261.62779 689.07947,266.34534 690.99169,267.21286 695.76558,264.56422 708.17605,257.61489 731.40434,243.2881 759.97905,225.66435 759.4864,211.72471 777.29451,207.90847 797.0466,203.67127 809.55744,222.93992 809.55744,236.39817 809.55744,256.59067 783.76451,268.32516 770.76511,275.66267 734.38994,296.2075 721.53086,304.86523 708.56833,313.24745 709.25968,321.34493 709.24841,340.14449 709.26377,356.39272 709.26377,383.44237 717.37764,433.93334 717.37764,461.91503 717.37764,495.12229 715.99392,536.29901 715.99392,546.54121 715.99392,563.05676 717.8662,581.82047 719.40253,594.81167 720.40216,605.44205 721.76233,622.85789 722.51513,636.96037 H 917.32485 V 378.11642 C 916.98481,378.78934 916.64477,379.45303 916.30472,380.12492 899.44504,413.71216 877.89647,450.99275 861.44853,507.83286"
         id="path6"
         style="fill:#000000" />
      <path
         d="M 630.41703,832.77977 C 630.41703,781.9209 557.69741,804.02162 557.69741,780.99265 557.69741,774.78332 562.5305,769.72623 575.18914,769.72623 587.84789,769.72623 594.98547,776.15966 597.27389,786.52989 L 625.13615,780.99265 C 621.90371,761.90006 607.18004,745.32101 575.41324,745.32101 543.66242,745.32101 526.85876,761.43609 526.85876,781.9209 526.85876,832.55578 597.97804,810.69503 597.97804,833.93202 597.97804,841.0696 592.2168,845.66251 579.09398,845.66251 563.90674,845.66251 554.92884,838.98911 551.93617,827.72269 L 522.24977,834.15612 C 528.69916,856.48084 545.95094,870.53191 579.09398,870.53191 612.7012,870.53191 630.41703,855.56867 630.41703,832.77977 Z"
         id="path20"
         style="fill:#000000" />
      <path
         d="M 441.8697,870.00632 C 459.5855,870.00632 471.0919,861.17857 477.0771,851.97662 V 866.01161 H 508.3797 V 750.0187 H 477.0771 V 815.15263 C 477.0771,832.18029 470.9662,843.18679 454.1628,843.18679 440.3518,843.18679 432.8918,836.08513 432.8918,818.3694 V 750.0187 H 401.589 V 824.35464 C 401.589,852.88879 415.1759,870.00632 441.8697,870.00632 Z"
         id="path859"
         style="fill:#000000" />
      <path
         d="M 661.18619,740.12975 C 671.54049,740.12975 680.05429,731.61644 680.05429,721.48588 680.05429,711.13204 671.54049,702.6177 661.18619,702.6177 651.05609,702.6177 642.54229,711.13204 642.54229,721.48588 642.54229,731.61644 651.05609,740.12975 661.18619,740.12975 Z M 645.53489,866.25323 H 676.83769 V 750.26031 H 645.53489 Z"
         id="path12"
         style="fill:#000000" />
      <path
         id="path2114"
         style="fill:#000000;stroke-width:0.997499"
         d="M 753.17798,745.1516 C 716.61997,745.6491 694.9597,769.88062 694.94715,807.09166 694.9351,842.83964 715.77221,869.64477 753.52521,869.64477 783.99557,869.64477 801.92019,854.10352 808.02748,829.22844 L 778.09227,822.14589 C 774.43888,835.03296 765.44414,841.36958 753.36915,841.36958 736.29905,841.36958 726.65415,828.37171 726.65415,806.68628 726.65415,785.02872 737.31521,773.34836 753.33599,773.46447 766.9055,773.56281 774.43825,780.71053 777.68654,792.20291 L 807.38767,784.7322 C 802.54283,761.04215 783.87969,744.7338 753.17798,745.1516 Z" />
      <path
         d="M 354.13452,704.172 300.19109,800.302 245.81252,704.172 H 215.97252 V 866.086 H 247.82052 V 766.08023 L 287.02152,836.015 H 313.20552 L 352.18752,766.08 V 866.086 H 384.26152 V 704.172 Z"
         id="path9290"
         style="fill:#000000" />
    </g>
  </g>
</svg>
