<svg id="e3227c95-b357-4e0a-a3f8-920c2efe413b" data-name="Layer 1" xmlns="http://www.w3.org/2000/svg" width="1024" height="247.95" viewBox="0 0 1024 247.95"><defs><style>.a772941d-f2f4-4afb-8dae-6ead25d20946{fill:#ffdb00;}.ae4e0040-1380-412b-b35d-db9b20dadecb{fill-rule:evenodd;}</style></defs><path class="a772941d-f2f4-4afb-8dae-6ead25d20946" d="M0,0H173.05V248H0ZM148,25H24.94V223H148Z"/><path d="M288,111.23H277.27c-14-19.85-28-39.57-41.91-61.89h-.13v61.89H223.4V24.93h10.72c14.06,19.72,28,39.33,41.8,61.52h.25V24.93H288Z"/><path d="M316.09,77.08c3.46-11.35,6.91-21.83,10-35.14h.24c3.45,13.31,6.53,23.79,9.74,35.14Zm5.68-52.16-29.84,86.31h12.83l7.52-23.55h26l6.78,23.55h16.52L334.1,24.92Z"/><path d="M375.53,111.23V36.51H352.84V24.93H413V36.51H390.32v74.72Z"/><path d="M417.83,24.92H432.5v86.31H417.83Z"/><path d="M478.12,100.4c-15.41,0-20.84-17-20.84-33.54,0-15.9,6.17-31.07,20.84-31.07S499,51,499,66.86c0,16.53-5.43,33.54-20.84,33.54m0,12.33c22.56,0,36.62-20.1,36.62-45.87,0-24.16-15.54-43.39-36.62-43.39S441.5,42.7,441.5,66.86c0,25.77,14.06,45.87,36.62,45.87"/><path d="M588.34,111.23H577.62c-14.06-19.85-28-39.57-41.92-61.89h-.13v61.89H523.73V24.93h10.73c14,19.72,28,39.33,41.8,61.52h.24V24.93h11.84Z"/><path d="M616.46,77.08c3.45-11.35,6.91-21.83,10-35.14h.24c3.46,13.31,6.54,23.79,9.73,35.14Zm5.66-52.16-29.83,86.31h12.83l7.52-23.55h26l6.77,23.55H662l-27.5-86.31Z"/><path d="M666.25,24.94h14.68V99.66h29.21v11.59H666.25Z"/><path d="M278.9,183.43v35.63c-7.89,3.08-16.16,5.3-24.54,5.3-25.4,0-41.43-19.72-41.43-45.12,0-23.55,16-44.15,41.92-44.15a36.91,36.91,0,0,1,21,6.66L271,152a32,32,0,0,0-15.79-4.57c-15.77,0-26.51,12.45-26.51,32.06,0,20.46,12.33,32.55,25,32.55a21.67,21.67,0,0,0,10.35-2.09V183.43Z"/><path d="M331.78,148.17H307.12v23.67h24.17v11.6H307.12v27.85h29.1v11.59H292.33v-86.3h39.45Z"/><path d="M377.41,212c-15.41,0-20.83-17-20.83-33.53,0-15.91,6.16-31.08,20.83-31.08s20.84,15.17,20.84,31.08c0,16.52-5.43,33.53-20.84,33.53m0,12.33c22.57,0,36.62-20.1,36.62-45.86,0-24.17-15.53-43.41-36.62-43.41s-36.61,19.24-36.61,43.41c0,25.76,14.05,45.86,36.61,45.86"/><path d="M485,183.43v35.63c-7.89,3.08-16.16,5.3-24.53,5.3-25.4,0-41.43-19.72-41.43-45.12,0-23.55,16-44.15,41.92-44.15a37,37,0,0,1,21,6.66L477.14,152a32,32,0,0,0-15.78-4.57c-15.78,0-26.51,12.45-26.51,32.06,0,20.46,12.33,32.55,25,32.55a21.74,21.74,0,0,0,10.36-2.09V183.43Z"/><path d="M575.3,188.74c3.45-11.34,6.91-21.82,10-35.14h.26c3.45,13.32,6.52,23.8,9.73,35.14ZM581,136.58l-29.83,86.3H564l7.53-23.54h26l6.78,23.54H620.8l-27.5-86.3Z"/><path d="M513.41,148.17h6.52c8.76,0,13.69,5.06,13.69,13.93,0,11.59-7,16.77-14,17.15-1.48.12-4.93.24-6.16.37Zm37.48,74.71L533.5,187.13c9.49-5,14.91-15.29,14.91-25.65,0-16.75-10.22-24.9-26.75-24.9h-23v86.3h14.8V190.35h6.65L534,222.88Z"/><path d="M646.43,179.25c-1.48.12-5.06.23-6.16.35V148.18h6.67c8.61,0,13.54,5,13.54,13.93,0,11.59-7,16.77-14.05,17.14m2.09-42.66h-23v86.3h14.8V190.35h6.67c17.63,0,28.35-14.31,28.35-28.86,0-16.76-10.23-24.9-26.77-24.9"/><path d="M743.84,222.9H729V181.35H698.34V222.9H683.66V136.6h14.68v33.17H729V136.84h14.81Z"/><path d="M758,136.59h14.67v86.29H758Z"/><path d="M839.26,152.25c-3.58-2.22-9.49-4.82-15.18-4.82-15,0-26,12.45-26,32.06,0,20.47,12.09,32.55,26.41,32.55a28,28,0,0,0,14.79-4.3l4.06,10.72a37.52,37.52,0,0,1-19.48,5.91c-25.39,0-41.42-19.72-41.42-45.12,0-23.55,15.91-44.15,41.66-44.15,7.66,0,14.81,3.21,19.86,6.67Z"/><path class="ae4e0040-1380-412b-b35d-db9b20dadecb" d="M966.46,160.27h3.73c10.95,0,16.2,5.71,16.2,18,0,14.94-5.57,20.89-14.85,20.89h-5.08ZM863.61,134.7H1024v90.05H863.61ZM905,172V147.87h-14.3v63.71H905V184.41h18.49v27.17h14.31V147.87H923.53V172Zm63.15-24.16h-16v63.71H972.5c19,0,28.51-13.9,28.51-31.86s-8.58-31.85-32.82-31.85"/></svg>