<svg class="vj_icn vj_logo-ndtv" xmlns="http://www.w3.org/2000/svg" viewBox="0 0 882.3 284">
  <path d="M35.6,131.9l26.3,89.5,31.3-89.5h34.4l31,89.3,26-89.3h36.3l-39.7,122.9h-42.3l-29.2-80.6-28.7,80.6h-42.1L0,131.9h35.6ZM318.9,64c-7.8-1.8-13.7-8.5-13.7-16.9s5.8-15.2,13.7-16.9V0h-28.3v67.4c-23.6.3-18.4-66.6-64.8-67.1h-29v94.1h28.2V26.5c23.6-.3,18.4,67.1,64.8,67.6h28.8l.3-30.1h0ZM327.2,94h82.7c19.2,0,34.7-15.5,34.7-34.7v-24.3c0-4.4-.8-8.8-2.3-13h43.3v71.8h27.5V22.3h38.4l38.1,71.8h34.5L671.5,0h-29.5l-34.7,70L570.2,0h-242.8v30.3c7.3,2.1,12.7,8.8,12.7,16.6s-5.2,14.8-12.7,16.6v30.5h-.2ZM417.4,58c0,7.5-6,13.7-13.6,13.7h-48.7V22.2h48.5c7.5,0,13.7,6,13.7,13.6v.1l.1,22.1h0ZM555,145.5c7.5,9.6,7.9,37.4,5.2,46.9-3.1,11.8-10.4,13.9-19.1,17.3,4.4,1.4,7.3,2.3,9.9,3.8,11.5,7,10.1,24.9,10.1,35v9.3h-37.3c0-14,.8-24.4-3.7-28.4-4-4-14.7-3.5-18.9-3.5h-51.5v31.9h-37.3v-123h106.6c13.4,0,27.3-.6,36,10.7ZM503.3,194.2c5.2,0,16.8.5,20.9-5.8,2-3.2,2-13.6,0-17.4-3.7-7-15.4-6.1-20.6-6.1h-53.8v29.3h53.5ZM619.6,134.8v92.8h84v30.1h-121.2v-122.9h37.2ZM826.8,134.8c13.9,0,32.8-.9,45,11.3,10.5,10.7,10.5,24.3,10.5,38.5v24.3c0,11.6.3,27-10.1,37.4-11.3,11-33.7,11.5-46.1,11.5h-106.5v-123h107.2ZM813.1,227.6c13.4,0,23.1.8,29.2-9,3.4-5.7,3.2-39.6.3-45.2-5.2-9.6-18.6-8.6-31.8-8.6h-53.9v62.8h56.2Z"></path>
  <circle fill="#de372e" cx="322.8" cy="47.1" r="17.7"></circle>
  <circle fill="#e5e5e5" cx="308.4" cy="199.3" r="84.7"></circle>
  <path fill="#0c9ff9" d="M373.8,234.7c.5.3.8.6,1.1.7.5.1.8.3,1.2.8.4.6,1.2.4,1.9.2,1.4-.3,1.6-.2,1.6,1.3-.95.24-1.21.91-1.42,1.63l-.09.29c-.03.1-.06.19-.09.29-.2-.1-.3-.1-.4-.1v.2c.1,0,.2-.1.3-.1,0,.4,0,.8.2,1,.79.87,1.65,1.75,2.59,2.56-4.98,8.15-11.31,15.39-18.66,21.41-.41.06-.82.1-1.24.14-1.4.1-2.7.7-3.7,1.6-.7.6-1.4.8-2.2.6-1.3-.2-2.5,0-3.6.7-.6.4-1.3.6-1.9.9-.8.4-1.6,0-2.3-.4-.4-.2-.5-.7-.8-1.1,1.1-.9,1.7-1.9,1.9-3.1.1-.4.1-.9.1-1.3,0-.3-.2-.6-.1-.9.4-1.1.2-2.1,0-3.1-.2-.9-.3-1.8-.5-2.9.1-.2.4-.4.8-.8-.3-.7-.4-1.6.3-2.3.1-.1.1-.5.1-.7,0-.8.3-1.6.9-2.3.2.1.3.2.5.4.2-.1.4-.3.6-.4,1-.7,2.2-1.1,3.4-1.5,1.31-.35,2.62-.93,3.94-1.47l.36-.15h-.18c-.13.02-.26.02-.41.02.56-.47.6-.5.93-.17l.03.03c.78-.78,1.55-1.57,1.75-2.75,0-.3.5-.7.8-.9.1-.1.5.1.8.2.6-.7,1.2-1.4,1.9-2.1.2-.2.6-.2,1-.3-.1-.3-.1-.5-.2-.8.2-.1.5-.2.7-.4,1-.8,1.5-.8,2.3.1.2.2.3.5.5.7.2,0,.5-.2.6-.2.6.2,1.03,0,1.3-.6.2-.5.4-1,.7-1.4.4-.8,1-1.4,1.9-1.4.3,0,.5-.1.8-.2v-1.92ZM302,117.2c.3,0,.7.2.9.4.4.6.9.6,1.5.6,1.6,0,3.1,0,4.6.5.2.1.4.1.6.2,1,.4,1.1,1.2.2,1.8-.5.3-1.1.6-1.7,1,.7.2,1.1-.1,1.5-.4.3-.3.7-.5,1.1-.7.5-.2,1-.1,1.3.3.6.7,1.3.8,2.1.7,1.1-.1,2.3,0,3.4.4.5.17,1.06.21,1.63.23l.69.02c.23,0,.46.02.68.04.4-1,.5-1.1,1.5-.9,1.3.3,2.5.5,3.8.8.3.1.8.2,1,.5,1,1.1,2.4,1.5,3.8,2.1.2-.3.4-.7.5-1,1.7,0,3.4.1,5.2.2-.2-.5-.3-.7-.5-1,.6-.5,1.3-.3,2-.3,1.8.2,3.7.3,5.5.5.6.1,1.2.2,1.8.4.84.28,1.7.5,2.57.65,7.5,3.93,14.34,8.95,20.3,14.85-1.18.45-2.19.53-3.28.2-.4-.1-.8-.3-1.2-.3h-4.9c-.3,0-.7.1-1.1.1-1,.1-1.7.8-1.7,1.8-.1,1.3-.5,2.4-1.5,3.4.8.5,1.4.7,2.2.1.4.5.7,1,1.1,1.5,1.4-.8,3.4-.3,4.5,1l.23.27-.12-.28-.11-.29v-.6c1.1.5,1.8,1.2,2.5,1.9,1.4,1.4,2.9,2.8,4.3,4.1.2.2.4.3.6.4-.4.1-.7.2-1,.3-.1,1.9,2,2.2,3,3.6-.6,0-.8-.1-1.1-.1v.6c-.7,0-1.1-.5-1.4-1-1.1-1.9-2.6-3.5-3.8-5.3-.2-.4-.7-.7-1.1-1-.25-.22-.49-.45-.7-.7.59,1.06,1.09,2.2,1.7,3.3.08.16.1.32.1.48v.61c0,2.14-.05,4.26-.7,6.31-.3,1-1,1.5-1.8,1.7-.4.1-1-.2-1.6-.3-.7.2-1.1.8-1.1,1.6,0,1-.2,1.9-.9,2.6-.1.1-.1.3-.2.6.7.6,1.5,1.2,2.3,1.7,1.3.7,1.7,2,2,3.3.3.9-.7,1.2-1.3,1.5s-1.4.9-2.1.2c-.2-.2-.2-.6-.2-.9.1-.7,0-1.3-.5-1.8-.4-.3-.5-.9-.7-1.4-.3-.2-.8-.4-1.3-.5-.7-.2-1.1-.6-1.1-1.3-.1-.6-.2-1.1-.8-1.2-.8-.2-1.5-.3-2.1.3-.3.3-.7.6-1.2,1.1-.3-1.1-.5-1.9-.8-2.9-.6.1-.7.9-1.2,1.3-.5.5-1.1.9-1.8,1.4.6.3,1,.5,1.4.8.4.2.7.6,1.1,1,1.1-.9,2.4-.7,3.7-.4.2,0,.2.4.4.7-1.26.09-1.79.91-2.25,1.73l-.15.27c-.3.6.2,1.2.6,1.6.9,1.1,1.8,2.1,2.7,3.1.2.3.3.8.5,1.2,1.2.3,1.5,1.1,1.3,2.5-.4,2-.8,3.9-1.6,5.7-.2.6-.7,1.2-1.1,1.7-.3.4-.8.7-1.1,1.2-.4.6-.9.8-1.6,1.1-.9.4-1.8,1-2.8,1.4-.7.4-1.5.5-2.3.7-.5.4-.4.9-.1,1.5.5.8.3,1.8-.5,2.3-.4.3-.9.5-1.4.1-.4-.3-.4-1.1,0-1.6.2-.3.6-.5.9-.7-.18-.18-.26-.47-.33-.77l-.07-.31c-.16-.61-.41-1.16-1.49-.92l-.35.29-.16.13c-.02.12-.05.24-.1.38-.07,0-.15-.06-.22-.08h-.04s-.31.25-.31.25c-.43.35-.85.72-1.22,1.14-.6.6-.5,1.4,0,2l3,3.3c.15.31.36.55.59.79.07-.1.14-.22.21-.29.1.2.2.3.3.5-.06,0-.16.04-.28.07l.05.06s.03.04.03.08c.7,1.1,1,2.3,1.1,3.6,0,1.3-.4,2.2-1.5,2.8-.2.1-.4.3-.6.4v.1l-.1-.1-.06.04.26.26c-.08,0-.1,0-.15.05l-.05.05c0-.07-.06-.21-.08-.31v-.03l-.05.03c-.23.16-.49.37-.67.58l-.1.13c-.5.7-1.2,1.2-2,1.7-.5-.4-.9-.7-1.4-1.1,0-.3.1-.6.2-.9-.41-.33-.76-.74-1.1-1.16l-.25-.32c-.72-.9-1.47-1.76-2.85-1.82-.1-.4-.2-.9-.4-1.5-.4,1.2-.8,2.2-1.1,3.2-.3.8-.3,1.7.3,2.4,0-.2.1-.3.2-.5.2.2.5.3.7.5,0,.1-.1.2-.1.3-.2-.1-.5-.1-.7-.2.5.6.9,1.2,1.4,1.9-.1.1-.2.3-.4.5.9.7,1.8,1.3,2.7,1.9.3.5.6,1,.8,1.5.2.5.4,1,.4,1.5,0,.7.1,1.3.5,1.9.4.8,1.1,1.6.5,2.7-.3-.1-.6-.3-.9-.4l-.08-.14c-.52-.96-.59-.97-1.92-1.26,0-.4,0-.8-.4-1.1-.6-.4-.8-1.2-1.6-1.2,0,0-.1.1-.2.1.1-.8.2-1.7.3-2.6,0-.2-.2-.5-.3-.7-.3-.6-.7-1.2-1-1.8-.4-.7-.8-1.2-1.8-1-.1-.5-.2-.8-.2-1.2,0-1.1.3-2.2.3-3.3,0-1.3-.1-2.6-.8-3.7h-.1l.1-.1-.12-.49c-.16-.67-.32-1.39-.48-2.11-.1-.7-.9-.8-1.2-1.4-.4.3-.8.5-1.1.8-.4.4-.9.4-1.4.2-.6-.2-.7-.6-.7-1.1v-1c.1-.7-.2-1.3-.7-1.7-.5-.4-.9-.8-.9-1.4-.5-.6-1.2-1.1-1.6-1.8-.4-.6-.6-1.4-.9-2.2-1.2.9-2.7,1.3-4,1-.6-.1-1.1.2-1.2.8-.1,1-.6,1.6-1.5,2-.1.1-.2.1-.2.2-.8,1.4-1.9,2.4-3.2,3.3-.2.1-.3.5-.5.7-.4.4-.7.9-1.2,1.1-.8.4-.8.3-.7,1.3.1,1.3,0,2.7,0,4,0,.3-.2.7-.1,1,.1.8.1,1.4-.6,1.8v.4c.5,0,1-.2,1.4,0,.4.2.7.6,1,1,.6.8,1.2,1.6.7,2.7,0,0-.1.1-.1.2-.3.5-.6,1.1-1.3,1.1-.5,0-1-.5-1.1-1.4-.1-.6-.1-1.3-.1-1.9,0-.5-.3-.9-.8-1-.5-.1-.7.3-.9.6-.3.3-.5.7-.8,1-.4.5-.8.5-1.1.3-.5-1.4-.9-2.6-1.3-3.8-1.3-3.7-3.5-7-4.3-10.9l-.06-.2-.13-.4c-.06-.2-.11-.4-.11-.6,0-.9-.4-1.6-1.4-1.8.4-.3.8-.4.9-.7s0-.7-.2-1.1c-.1.2-.1.4-.2.6-.4.9-1.4,1.1-2.3.5l-.4-.3c-.66-.5-1.22-1.05-.8-2.3-.3.1-.5.2-.6.2-1.1-1-2.1-2-3.2-2.9-.4-.3-1.1-.3-1.6-.3-1.9.1-3.7,0-5.6-.3-1.1-.2-2.1-.4-3.2-.6-.5-.1-.8-.4-1-1-.2-.8-.5-.8-1.2-.5-.2.1-.4.3-.6.3-.5.1-1.2.3-1.6.1l-.47-.21c-1.64-.74-3.2-1.56-3.93-3.39-.1-.3-.2-.6-.4-.8-.5-.7-1.2-.8-1.8-.4-.7.5-.8,1.1-.4,1.8l.1.1c.8,1.1,1.5,2.3,2.4,3.5.2-.1.5-.1.9-.2.7.5.8,1.1,1,1.8.3.9.4,1,1.3.8.7-.2,1.3-.5,1.8-1,.7-.8,1.5-1.4,2.4-2.3,0,.7,0,1.1.1,1.5.2,1.2.8,1.8,2,2.1,1,.3,1.7,1.2,2.2,2,.2.3-.1.9-.2,1.3-.2.5-.4,1-.7,1.5-.2.5-.7.8-.9,1.3-.2.5-.4,1-.8,1.4-.7.8-1.8,1.1-2.4,2.1-.2.4-.9.4-1.4.6-.7.2-1.4.3-1.8,1.2-.1.3-.5.4-.8.6-.9.6-1.8,1.1-2.8,1.6s-2,1.1-3.2,1.2c-.5.1-.9.3-1.4.5-.7.2-1.5.5-2.3.7,0,.1.1.4.1.7,0,1.2.8,1.9,2,1.5,1.3-.4,2.7-.7,4.1-1l2.1-.6c.6-.2,1,0,1,.6,0,.9,0,1.8-.2,2.6-.3,1.2-.9,2.4-1.5,3.5-1.1,1.9-2.2,3.7-3.4,5.6-.3.4-.5.9-.9,1.1-2.2,1.4-3.5,3.6-5.3,5.4-1.6,1.5-2.5,3.4-3.1,5.4-.1.5-.2,1-.1,1.5.5,2.2,1.1,4.3,1.6,6.5.2.6.3,1.3.3,2,0,1.2-.1,2.4-.2,3.6-.1,1.1-.9,1.8-1.8,2.2-2,.8-3.3,2.5-4.8,3.8-.5.5-.5,1.1-.3,1.8.4,1.3.7,2.6.2,3.9-.2.6-.4,1.1-1,1.4-.4.2-.7.5-1.1.7-.67.4-.93.97-.8,1.7v.4c-.5,1.1-1,2.2-1.6,3.1-.37.58-.8,1.14-1.25,1.67-16.46-15.45-26.75-37.41-26.75-61.77,0-8.9,1.37-17.47,3.91-25.53.1.08.19.15.29.23.2.2.5.3.8.3,1.5,0,2.6.7,3.5,1.7.5.6,1.2.9,2,.9.7,0,1.3.2,1.9.7.2.2.6.2.8.1.1-.1.2-.5.1-.7-.3-.9.1-1.6.8-2.1l.13-.08.27-.17c.67-.42,1.38-.76,2.3-.35,1.9.8,3.8,1.6,5.7,2.3.5.2,1.1.4,1.6.2,1.4-.4,2.8-.4,4.3-.2.9.1,1.3-.1,1.7-.8.4-.7.9-1.5,1.5-1.9.5-1.3.9-2.6,0-4.1-.6.1-1.2.2-1.7.5-.9.5-1.6.5-2.4-.1-.5-.4-1.2-.6-1.7.1-.34.34-.68.25-1.02.09l-.18-.09c-.6-.3-1.2-.6-1.9-.8-.6-.1-1-.4-1.2-1-.3-1.1-.7-2.2-1.1-3.2-.4-1.1-1-1.2-1.8-.3-.1.1-.3.2-.4.3-.3-.1-.6-.3-.9-.4-.1.8.5,1.1.9,1.5.7.8.7,1.1-.1,1.8-.2.2-.4.5-.6.8-.5.7-1,.8-1.6.1-.2-.3-.4-.7-.6-1.1-.2-.3-.4-.7-.7-.9-1.3-.7-1.9-1.8-1.8-3.3-.4-.1-.7-.1-1.1-.2l.04.09.09.17c.16.31.28.63-.03.94-.21.07-.41-.02-.6-.13l-.17-.1c-.3-.18-.6-.31-.93.13.4,1.2.3,2.1-.5,2.7-.7.6-1.3,1.1-1.4,2.1-.89-.2-1.73-.46-2.46-.91.15-.4.31-.79.47-1.19h.99c.6-.1,1.2-.5,1.3-1.1,0-.3-.2-.9-.5-1.2-.16-.2-.35-.39-.55-.58.37-.82.75-1.62,1.14-2.43l-.09-.09c.8.9,1.8,1.2,2.9,1.5.3-.3.5-.6.8-.9-.7-.4-1.3-.9-2-1.2-.34-.16-.68-.34-.99-.53,7.17-14.06,18.16-25.86,31.59-34.01l-.1-.05c1.4.8,2.5,0,3.8-.4-.2-.4-.3-.7-.4-1,.5-.5,1-.4,1.4-.1.7.6,1.4.7,2.2.7,1.8.1,3.4.8,5,1.3.3.1.6.2,1.1.1-.2-.2-.4-.5-.7-.5-.9-.1-1.4-.6-1.7-1.5-.1-.3-.3-.5-.4-.7.3-.9.6-1.7.9-2.7.6-.3,1.4-.7,2.1.1.1.1.3.2.5.2.7.1,1.1.5,1.1,1.3,0,.1.2.3.4.6.6-.8.2-1.4.1-2.1.4-.4.9-.5,1.2.1.4.8.9.8,1.8.6.9-.2,2,0,2.9.1l-1.19-1.19c1.3-.9,2.6-.1,3.8-.5,0-.3-.2-.6-.1-.8.1-.2.4-.4.7-.4,2.2-.4,4.4-1.3,6.7-1.1.4.1.9.1,1.3,0,.3,0,.8-.1.8-.3.4-1.2,1.4-1.1,2.2-1.3.7-.1,1.4-.1,2.1-.1h-.01ZM273.5,236.9c.8.6,1.2,1.3,1.2,2.2,0,.16.03.33.05.49l.03.32c.08.92.05,1.79-.88,2.49l-.04.04s-.06.1-.06.16c-.3,1.4-.7,2.9-1.1,4.3-.4,1.2-.8,2.4-1.1,3.6-.3,1-.6,2.1-.8,3.1-.4,1.6-1.6,2.1-3,2.5-.7.2-1.9-.7-2.3-1.6-.7-1.6-.6-3.2.3-4.6,1-1.4,1-2.8.7-4.3-.4-1.7.3-3.2,2-3.7,1.2-.4,2.1-1.2,2.8-2.3.6-.9,1.2-1.9,2.2-2.7ZM345.6,229.1c.1.2.2.3.4.5.8-.1,1.5,0,2-.7.3-.4.9-.5,1.3-.1.6.5,1.2.5,2,.4.3,0,.8.1.9.3.3.5.6.6,1.2.2-.1.2-.1.3-.1.4l-.6.6c0,.1,0,.2.1.2,1,.3,2,.4,3.1.2.9-.2,2.1.2,3.1.5.9.2,1.9.4,2.8-.2.5-.3,1-.1,1.5,0,.6.1,1,.1,1.6,0,1-.2,2.1-.5,3.2.2-.8.5-1.6,1.1-2.3,1.6-.8.5-1.5,1.1-2.4,1.8,0-.9.2-1.5.9-1.8-.4-.4-.7-.4-1.1-.3-.3.1-.7.1-1.1.1-.8-.1-1.6-.2-2.5,0-1,.1-2-.2-3-.5-.6-.2-1-.4-1.5-.1-.9.5-1.8.4-2.8.1-1.6-.5-3.2-.7-4.6-.8-1.3-.1-2.5-.4-3.5-1.2-.3-.3-.8-.6-1.3-.7-.8-.2-1-.6-.9-1.3.4,0,.8,0,1.2-.1,1-.4,1.8-.1,2.4.7ZM376.8,220.91v.79c0,.5.1.9.5,1.2.2.2.4.4.5.6.7,1,1,1,1.6.1,1.1-1.7,2.6-2.1,4.4-1.2,1.79.85,3.59,1.71,5.32,2.63-.84,2.65-1.82,5.25-2.91,7.79h-2.71c.1-.4.1-.6.2-.9-.4-.1-.8-.3-1.2-.4-.4-.1-.9-.1-1.4-.1.1-.6,0-1.2.3-1.6.44-.7.34-1.25-.1-1.78,0,.19,0,.39.1.68-.47-.47-.5-.58-.17-.68l.06-.02-.09-.1s-.06-.07-.1-.1v-.1l.1.1c-.4-.8-1.1-1-1.8-1.2-1.2-.3-2.4-.6-3.6-1-.6-.2-.9-.8-.9-1.4,0-.8-.4-1.3-1.1-1.5-.7-.2-1.1-.7-1.3-1.4,1.4-.9,2.8-.6,4.3-.4ZM330.4,212.9c1.2.5,2.4,1.1,3.5,1.8.5.3.8.9,1.2,1.3.3.3.7.6,1,.9-.2-.4-.4-.7-.6-1,.6.1,1.1.4,1.4,1h-.6c.5.3,1,.7,1.5,1,.5.4,1.1.8,1.6,1.2.03-.03.08-.07.13-.1h-.03c-.1-.2-.1-.3-.2-.5.15.07.3.09.45.14l.15.06-.1.1c.4.7.5,1.6,1.2,2.2-.29.65.05,1.04.41,1.39l.17.16c.08.08.16.16.23.24.2.8,1,.9,1.8,1.1-.8,1.3-1.5,2.5-.2,3.9-.5.2-1.1.4-1.7.7l-.18.04c-.71.12-1.26-.18-1.82-.64-.4-.3-.7-.7-1.1-.9-1.3-.8-2-2-2.3-3.5-.3-1.7-1.1-3.1-1.9-4.5-.5-.9-1-1.8-2.1-2.2-.2-.1-.5-.5-.6-.8-.3-1.1-1.2-1.6-2.1-2.1-.2-.1-.3-.2-.5-.3l.14-.27c.37-.74.44-.79,1.16-.43ZM362.5,217.6c-.2.2-.3.4-.5.7.8.1,1.5.3,2.2.2.7,0,1.3-.4,1.9-.7.4.6.2,1.1-.1,1.5-.5.7-2,1-2.8.7-.4-.2-.9-.4-1.3-.6-.5-.3-1.1-.3-1.4.4-.2.4-.2,1,0,1.4.3.5.8.3,1.3.1.6-.27,1.17-.23,1.7.1-.2.47-.63.97-1.3,1.5.3.4.6.7.8.9,0,.5,0,.9.1,1.3.1.4.4.8.5,1.2.2.7-.1,1.3-.7,1.4-.6.1-1.4-.4-1.5-1-.1-.5-.1-1-.2-1.5,0-.4-.2-.7-.4-1h-.3c0,.2-.1.4-.1.6.1.6.2,1.2.2,1.8,0,1.2-.3,1.4-1.7,1.5,0-.2-.1-.5-.1-.7.1-1.1,0-2.1-.5-3.2-.1-.3.1-.7.2-1.1.4-1.2,1-2.4,1-3.7,0-1.1,1.7-2,3-1.8ZM356.3,209.4c-.1.9.6,1.2,1.1,1.7.2.2.4.3.5.5,1.1,1.2,1.1,1.6.1,2.9-.3.5-.5,1-.7,1.5-.2.5-.1,1,.3,1.5.4.4.6.9.9,1.4.3.6.2,1-.4,1.3-.2.1-.4.5-.9.8.2-.5.3-.9.5-1.4-.4,0-.5.3-.6.7-.2,1-.4,2-1.3,2.7-.3.2-.3.9-.3,1.4,0,1.2-.4,1.7-1.6,1.7-.5-.1-1.1-.1-1.6-.3-1-.4-2-.8-3.2-.6-.9.2-1.5-.6-1.4-1.6.1-.9.1-1.7-.9-2.1-.27-1.2-.27-2.27,0-3.2-.2,0-.4,0-.7.1.1-.3.2-.6.3-.6.3-.1.7,0,1,0,.4,0,.9-.1,1.4-.1l.1-.22c.49-.99,1.18-1.71,2.3-2.08.2-.1.4-.4.6-.6.6-.6,1.1-1.3,1.8-1.7,1.2-.8,1.9-1.9,2.3-3.2,0-.2.2-.3.4-.5ZM346.6,221.5c.1.2.1.4.1.6-.6-.3-.3-.4-.1-.6ZM301.4,219c.11,0,.2.31.2.7s-.09.7-.2.7-.2-.31-.2-.7.09-.7.2-.7ZM348.6,217.4c.1.1.1.2.1.3-.1,0-.2,0-.3-.1,0-.1-.1-.2-.1-.3.1,0,.3-.1.3.1ZM300.9,213.5c.11,0,.2.4.2.9s-.09.9-.2.9-.2-.4-.2-.9.09-.9.2-.9ZM359.81,194c.59.1.89.4.99,1,.1.4.2.7.3,1.1,0,.2.2.3.4.4-.2.5-.5,1-.7,1.5-.5,1.4,0,2.1,1.4,2.4l.25.03c.91.11,1.75.39,1.75,1.67,0,.2.3.4.5.5.9.2,1.1.8,1.2,1.5,0,.7.3,1,1.1,1.3-.3.2-.5.2-.8.4.5.3.9.5,1.4.8-.6,2.9-.2,2.9.4,4.5-.5-.1-.9-.1-1.4-.1,0,.6-.1,1.1,0,1.7-1.3-.5-1.9-1.4-2.1-2.6-.1,0-.5-.1-.6-.2-.5.3-1,.5-1.5.8-.1-1.7.7-2.5,2.2-2.7.3,0,.5-.2.8-.4l.07-.1c.43-.61.38-.72-.47-1.1-.07.15-.09.36-.14.53l-.02.06c.37-.08.56.12.46.51l-.47-.47v.06c-.16.01-.26.08-.34.1h-.06c-1.1.31-1.2.31-1.9-.79-.2,0-.4.1-.7.2.2-.9-.5-1.8.1-2.8l1.5.6c-.5-.8-1.5-1.3-1.1-2.5-.5-.1-.9-.3-1.4-.4-.1.5-.3.9-.4,1.3-.7-.2-1.1-.8-1.2-1.4-.1-.7-.5-1.1-.7-1.6-.4-.7-.4-1.5-.5-2.3.4-.3.6-.7.6-1.2,0-.4,0-.8.1-1.2.09-.65.36-1.04.88-1.09h.1ZM300.9,210.2c.39,0,.7.54.7,1.2s-.31,1.2-.7,1.2-.7-.54-.7-1.2.31-1.2.7-1.2ZM309.5,207.8c0,.1.1.1.2.2-.2.2-.3.5-.5.7-.1,0-.1-.1-.2-.1.1-.3.3-.5.5-.8ZM364.7,204.9c-.1,0-.3.2-.3.3-.1.1.1.3.2.5.2-.2.3-.4.5-.5-.2-.1-.3-.3-.4-.3ZM254.2,182.3c0,.2,0,.3.1.5,1,2.4,2,4.8,3.5,7,.6.9.9,1.8.9,2.8,0,.5.2,1.1.5,1.4.8.6,1,1.4,1.3,2.3.2.6.5,1.1.9,1.5l3.3,3.3c.3.2.6.5.9.8v-.21c-.03-.36-.12-.78-.2-1.19-.3-.1-.5-.1-.8-.1.13-.93-.13-1.8-.8-2.6-.1-.1-.2-.3-.3-.5-.2-.4.1-.7.6-.7.2,0,.3,0,.5.1-.7-.9-1.4-1.7-1.9-2.6-.4-.8-.8-1.4-1.5-1.9-.7-.5-1.1-1.1-1.3-2-.2-.7-.3-1.4-.6-2-.7-1.4-1.6-2.8-2.5-4.2-.4-.6-.9-1.2-1.4-1.7-.3-.4-.7-.5-1.2,0ZM311.7,198.8v.3h-.6v-.2c.2-.1.4-.1.6-.1ZM358.4,196.5l-.3.9v-.9h.3ZM315.6,194.4c0,.1.1.2.2.3-.1.2-.3.3-.4.4l-.2-.2c.1-.1.2-.2.4-.5ZM358.7,185c.1.4.1.8.2,1.2.4,1.3-.2,2.3-.7,3.5-.9-.8-1.6-1.5-1.3-2.6.08-.24.1-.54.1-.81v-.19c-.9,0-.3-.5,0-.7v.7l.08-.09c.44-.5.67-1.2,1.62-1.01ZM358.6,184.9c-.2-.1-.4-.3-.7-.5.6-.13.83.03.7.5ZM357.6,181.2c-.1.2-.1.5-.2.7h-.2c0-.2.1-.5.1-.7h.3ZM373.6,163c.2.3.5.6.8.8,1,.8,1.5,1.6,1.1,2.9,0,.2,0,.4.1.5.3.9.7,1.7,1,2.6.2.7-.1.8-.8,1.2-.6.3-1.2.4-1.7.6-.7.2-1,.7-1.4,1.3-.1.1-.2.1-.3.2-1-.1-.8-1.5-2.2-1.6l.5.5c.4.5.3.9-.2,1.2-.3.2-.7.5-1,.7-.47-.33-.73-.83-.8-1.5-.1,0-.3.1-.5.1.2.6.3,1.2.5,1.8.1.1.4.2.7.3-.2.4-.4.7-.6,1-.5.7-1.1.7-1.4-.1-.2-.3-.2-.7-.3-1.2-.5-.1-1-.3-1.1-1,1.1-2,2.4-3.8,5.2-3.1,0-.9.1-1.7.2-2.7.3.4.5.6.7.8,1.4-.6,1.8-2.2.8-3.6-.4-.6-.7-1.2-.4-2l.11-.06c.43-.19.71.08.99.36ZM368.3,172.4c-.3,0-.6.1-.9.1,0,.1.1.2.1.3.2-.1.5-.2.8-.4ZM269.8,155.6c-.8.6-1.4,1.4-2.4,1.7-.3.2-.5.5-.7.8-.1.2-.1.6,0,.7.7.3.7.9.7,1.6,0,.2.2.4.4.6.8.8,1.6,1.5,2.4,2.3.3.3.5.6.8.9-.4,1-.8,1.8-1.1,2.7-.2.5.1,1,.5,1,.8.1,1.2.5,1.7.9.5.3,1,.5,1.6.3.5-.2,1.1-.3,1.8-.5-.1-.5-.3-1-.2-1.4.19-.84-.15-1.34-.77-1.72l-.13-.08c-.7-.4-1-1-.7-1.9h.8c.2-.1.4-.1.7-.2-.4-.67-1.03-.8-1.9-.4-.53-1.2-1.2-2.17-2-2.9-.2-.2-.4-.3-.6-.5-.3-.2-.8-.5-.6-1,.2-.5.5-1.1,1.2-1.2.2-.1.4,0,.6-.1.5-.2.6-.9.3-1.3-.5-.5-1.9-.7-2.4-.3ZM353.3,167.47l.1.13c-.5-.1-1-.3-1.7-.4.82-.73,1.23-.21,1.6.27ZM372.7,166.9c.1.2.1.4.1.4-.1.1-.2.1-.3.1-.1-.1-.1-.3-.1-.5h.3ZM256.4,155.2c-1.3.4-2.5.3-2.9,1.7.3.1.6.3,1.1.7-.9.4-1.7.8-2.4,1.1-.2.1-.5,0-.6-.1-.5-.6-1.5-1-1.3-2-1.4-.6-1.6-.7-2.4.5-.7,1-1.3,2.2-1.9,3.3-.1.2-.1.4,0,.6.1,1.3,2,2.4,3.2,1.9.9-.4,1.9-.7,2.9-1,.8-.3,1.5-.2,2.3.2,1.4.8,3,1.1,4.7,1,.7-.1,1.2-.4,1.4-1.1-.1-.1-.2-.3-.3-.4-1.4-1.2-2.7-2.5-4.5-3.3-.8-.4-.9-.6-.3-1.4.3-.5.6-1,1-1.7ZM370.21,157.6h0c.59.1,1.11.39,1.62.7l.38.24c.82.51,1.63.99,2.71.76.4.3.7.7,1,1.1-.4.7-1.7.4-1.3,1.6-.8-.3-1.4-.4-2.1-.4-.1.5-.1.8-.1,1.2-.3,0-.6.1-.9.2l-.11-.22c-.23-.03-.46-.11-.69-.18.26-.2.44-.09.61.03-.14-.27-.28-.52-.41-.73-.4-.6-.4-1,0-1.6.2-.4,0-1-.1-1.4-.17-.34-.42-.69-.55-1.09l-.05-.21ZM282,127.1c.7,1,.7,1.1-.1,2.6,1,0,1.5-.4,1.6-.9.1-.6-.6-1.4-1.5-1.7ZM269.7,126.7c-.1,0-.2.1-.2.2.1.1.2.3.3.4,0-.06.04-.12.06-.16l.04-.04c0-.2-.1-.3-.2-.4ZM280.4,124.9c.2.6.3,1.1.8,1.3,0-.53-.27-.97-.8-1.3Z"></path>
</svg>