<?xml version="1.0" encoding="UTF-8"?>
<!-- Generator: Adobe Illustrator 27.4.1, SVG Export Plug-In . SVG Version: 6.00 Build 0)  -->
<svg version="1.1" id="Layer_1" xmlns="http://www.w3.org/2000/svg" xmlns:xlink="http://www.w3.org/1999/xlink" x="0px" y="0px" width="1430px" height="1360px" viewBox="0 0 1430 1360" style="enable-background:new 0 0 1430 1360;" xml:space="preserve">
<style type="text/css">
	.st0{fill:#FF6700;}
</style>
<g>
	<path class="st0" d="M149.4,473.2c-0.1,0-0.1,0-0.2,0c-26.4,0-51.2-10.3-69.9-28.9c-18.7-18.7-29.1-43.6-29.1-70   c0.1-54.6,44.5-99,99.1-99c0.1,0,0.1,0,0.2,0c54.5,0,99,44.4,99,99v0c0,26.5-10.4,51.3-29.1,70   C200.7,462.9,175.8,473.2,149.4,473.2z M149.3,443C149.3,443,149.4,443,149.3,443c18.5,0,35.7-7.1,48.8-20.1   c13-13,20.2-30.3,20.2-48.7c0-18.4-7.2-35.7-20.2-48.7c-13-13-30.3-20.1-48.7-20.1c0,0-0.1,0-0.1,0c-38,0-68.9,30.8-68.9,68.8   C80.4,412.2,111.3,443,149.3,443C149.3,443,149.3,443,149.3,443z"/>
	<g transform="translate(101.83253,-48.349226)">
		<g transform="matrix(1.7640932,0,0,1.7640932,77.809536,-36.94331)">
			<path class="st0" d="M708.7,497.8c0-15.7-12.6-28.3-28.3-28.3s-28.3,12.6-28.3,28.3c0,15.7,12.6,28.3,28.3,28.3     C696.1,526,708.7,513.4,708.7,497.8L708.7,497.8z M631.6,524.5v-77c0-5.7,3.5-14.9,10-17.4c6.6-2.5,12.6,0.3,19.8,3     c23.7,9,42.2-2.8,45-18.5c2.8-15.4-7.4-30.4-22.8-33.3c-19.1-3.5-32.4,2.3-48,14.3c-1.8,1.3-3.4,2.9-5,4.3     c-3.7-11.5-14.6-20-27.2-20c-15.9,0-28.5,12.8-28.5,28.5v115.7L631.6,524.5z M562.6,343c0-15.7-12.6-28.3-28.3-28.3     c-15.7,0-28.3,12.6-28.3,28.3s12.6,28.3,28.3,28.3S562.6,358.6,562.6,343z M465,520.2c-16.1-10.4-26.7-27.6-16.1-45.7     c9.8-16.7,44.6-19.8,49.6,9.3c1.7,10.2,7.2,8.9,7.2-0.4v-69.6c0-20.7,12.8-33.5,28.7-33.5s28.5,12.8,28.5,28.5v63.7     c0,34.8-17,57.4-58.6,57.4C489.1,529.9,474.4,526.2,465,520.2L465,520.2z"/>
			<path class="st0" d="M101.5,307.5c-8.7,0-16.7,3.6-22.6,9.3c-5.9,5.7-9.4,13.9-9.4,22.5c0,8.9,3.6,16.6,9.4,22.5l6.9,7.1     c11.6,12,12.3,14.8,1.4,26l-6.2,6.4c-5.2,5.4-8.3,12.5-8.3,20.3v102.8h57.6V421.7c0-7.9-3.3-15.2-8.3-20.3l-6.2-6.4     c-11.1-11.4-10.2-14.1,1.4-26l6.9-7.1c5.7-5.9,9.4-13.6,9.4-22.5s-3.5-16.8-9.4-22.5C118.2,311.1,110.6,307.5,101.5,307.5     L101.5,307.5z M406.7,378.8c-10.2-0.4-20.4,4.6-25.7,14l-26,46.4v-31c0-15.7-12.8-28.5-28.5-28.5c-16,0-28.5,12.8-28.5,28.5     v116.3h57.3v-45.3l30.2,45.3h46.2c5.2,0,9.4-4.3,9.4-10c0-1.8-0.3-3.8-1.4-5.4l-31.2-47.5l21.9-39.6c7.6-13.8,3.4-31.3-10.1-39.3     C415.9,380.3,411.3,379,406.7,378.8L406.7,378.8z M-13,380.3c-20.8,0-39.8,8.7-53.1,22.1c-13.4,13.6-22.2,32.5-22.2,53.2v68.9     H-31v-67.4c0-8.2,2-15.4,5.2-20.7c3.3-5.4,7.6-8.6,12.8-8.6c5.2,0,9.4,3.2,12.8,8.6c3.5,5.4,5.2,12.5,5.2,20.7v67.4h57.3v-68.9     c0-20.7-8.5-39.8-22.2-53.5C26.8,388.7,7.8,380.3-13,380.3L-13,380.3z M213.7,380.3c-20.8,0-39.9,8.6-53.5,22.1     c-13.5,13.6-22,32.8-21.9,53.5c0.2,20.7,8.3,40,21.9,53.5c10.4,10.4,28.5,22.1,53.5,22.1c18.4,0,35.7-6.8,48.9-18.2     c9.7-8.3,23.6-24.6,26.4-50.3h-57.6c-0.7,6.4-2.4,12.1-4.9,16.8c-3.4,6.4-7.6,10-12.8,10s-9.4-3.6-12.8-10     c-3.5-6.4-5.2-14.6-5.2-23.9c0-9.3,2-17.9,5.2-23.9c3.4-6.5,7.6-10,12.8-10s9.4,3.5,12.8,10c2.5,4.6,4.2,10.4,4.9,16.8h57.3     c-1.7-17.8-9.7-34.2-21.9-46.4C253.2,388.9,234.1,380.3,213.7,380.3L213.7,380.3z"/>
		</g>
	</g>
	<g>
		<path class="st0" d="M1165.4,465.2c4.1,6.8,12.8,9.2,19.8,5.5c23.1-12.3,44-15.6,74.7-14.6c35.1,1.1,66.1,15.3,89.5,41    c15.1,16.6,26.2,37.4,32.3,59.7c1.3,4.8,5,8.6,9.8,10.2l0,0c11.4,3.8,22.6-6.6,19.5-18.2c-7.2-26.8-20.6-51.6-39.2-72.1    c-29-31.9-67.3-49.4-110.8-50.8c-36.4-1.2-62,3.2-89.8,18C1163.5,448.1,1160.9,457.8,1165.4,465.2L1165.4,465.2z"/>
		<path class="st0" d="M323.6,445.7c8.5-2.7,12.9-12.1,9.4-20.3c-10-23.3-14.3-44.6-13.4-65.4c1.6-35.6,15.8-69.5,40.2-95.5    c24.1-25.7,56.5-42.2,91.2-46.4l0.5-0.1c80.5-12.4,126.3-70.9,166.7-122.5l0.5-0.6c29.5-42.1,77.8-65.8,129.1-63.5    c39.9,1.8,76.8,18.9,103.8,48.4c27,29.5,40.9,67.7,39.1,107.5c-1.3,30.2-13.1,60.4-34.9,89.7c-26.8,35.9-39.7,70.4-39.6,105.5    c0.1,38.4,18.2,77,50.8,108.8c30.9,30.1,71.1,49.7,110.2,53.9c19.1,2,41.3,1.6,63.9-1.8c9.8-1.5,15.4-11.9,11.5-21v0    c-2.7-6.3-9.4-9.9-16.1-8.9c-20,3-39.6,3.4-56,1.7c-32.5-3.5-66.2-20-92.3-45.5c-26.4-25.7-41.6-57.5-41.7-87.3    c-0.1-28.4,10.9-56.9,33.6-87.4c25.5-34.2,39.3-70,40.9-106.4c2.1-48-14.6-93.9-47-129.3C841.3,24,797,3.3,749,1.2    c-61.6-2.7-119.4,25.7-154.9,76c-38.6,49.4-78.6,100.3-147,110.9c-41.7,5.1-80.5,24.9-109.4,55.7c-29.2,31.2-46.4,72-48.3,114.8    c-1.3,29.8,6.3,56.6,15.7,78.7C308.3,444.4,316.2,448,323.6,445.7L323.6,445.7z"/>
		<path class="st0" d="M1079.1,1043.4c-43.9-45.1-58.1-90.6-42.5-135.5c1.6-4.5,3.4-8.8,5.5-13.1c4.2-8.6-0.8-18.9-10.1-21.1v0    c-6.9-1.7-14,1.7-17.1,8.1c-2.8,5.8-5,11.2-6.7,16.2c-13.8,39.4-16.1,100.7,51.5,168.7l1.4,1.4c25.4,26.4,51.3,73.8,49.4,117.6    c-3.7,82.5-73.9,146.6-156.5,143c-37.4-1.6-72.7-17.1-99.2-43.4c-26.4-26.2-42-60.9-44-97.7l-0.1-0.9    c-10.4-92.1-73.5-165-173.1-200c-39.1-13.7-82-20.7-124.8-20.7c-20.3,0-40.7,1.6-60.6,4.8c-65.7,10.5-121.5,37.1-161.4,76.8    l-0.5,0.6c-29.7,32.8-72.4,50.4-117,48.5c-39.9-1.8-76.8-18.9-103.8-48.4c-27-29.5-40.9-67.7-39.1-107.6    c0.8-17.2,5.2-33.8,12.7-48.8c4.1-8.3-0.2-18.2-9-21h0c-7.1-2.2-14.8,1.1-18.1,7.8C6.4,897.6,1,918.3,0,939.3    c-2.1,48,14.6,93.9,47,129.3c32.4,35.4,76.7,56.1,124.7,58.2c2.7,0.1,5.4,0.2,8.1,0.2c50.5,0,98.4-21,132.3-58.2    c70.9-70.3,203.4-92.8,315.2-53.5c41.6,14.6,77.2,37.1,103.2,65.2c28.3,30.7,45.1,67.4,49.9,109.2c2.5,44.2,21.3,85.7,52.9,117.1    c31.9,31.6,74.2,50.2,119.2,52.1c2.7,0.1,5.4,0.2,8,0.2c95.8,0,175.7-75.6,180-172c2.4-54-28.2-110-59.6-141.6L1079.1,1043.4z"/>
		<path class="st0" d="M1340.4,697.5c-7.1,5.9-14.8,11-22.8,15.5c-4.7,2.7-7.6,7.7-7.6,13.1v0c0,11.6,12.5,18.9,22.6,13.1    c8.4-4.8,16.2-10,23.5-15.7c1.2-0.9,2.4-1.9,3.5-2.8c8.6-7.1,6.6-20.9-3.7-25.4h0C1350.8,693.1,1344.8,693.9,1340.4,697.5z"/>
	</g>
</g>
</svg>