<?xml version="1.0" encoding="UTF-8"?>
<!-- Generator: Adobe Illustrator 27.4.1, SVG Export Plug-In . SVG Version: 6.00 Build 0)  -->
<svg version="1.1" id="Layer_1" xmlns="http://www.w3.org/2000/svg" xmlns:xlink="http://www.w3.org/1999/xlink" x="0px" y="0px" width="1759px" height="1360px" viewBox="0 0 1759 1360" style="enable-background:new 0 0 1759 1360;" xml:space="preserve">
<style type="text/css">
	.st0{fill:#FF6700;}
</style>
<g>
	<g>
		<path class="st0" d="M29.9,669.5c16.3-16.2,38.3-25.3,61.3-25.3c23,0,45,9.1,61.3,25.3c16.3,16.2,25.4,38.2,25.4,61.2v79h-65.8    V732c0-9.5-2.3-17.6-6.1-23.8c-3.9-6.2-8.9-9.8-14.8-9.9c-5.9,0-10.9,3.7-14.8,9.9c-3.8,6.3-6.1,14.4-6.1,23.8v77.7H4.6v-79    C4.6,706.9,14.3,685,29.9,669.5z"/>
		<path class="st0" d="M248.7,622.9c6.6-6.6,10.7-15.7,10.7-25.8c0-10.1-4.1-19.2-10.7-25.8c-6.9-6.9-16.2-10.7-25.9-10.7    c-20.1-0.1-36.5,16.2-36.6,36.3c0,0,0,0.1,0,0.2c0,10.1,4.1,19.2,10.7,25.8l8.1,8.1c13.5,13.5,14.4,17,1.6,29.8l-7.3,7.3    c-6.3,6.2-9.8,14.7-9.7,23.5v118.1h66.5V691.6c0-8.8-3.5-17.3-9.7-23.5l-7.4-7.3c-12.8-12.8-11.9-16.4,1.6-29.8L248.7,622.9z"/>
		<path class="st0" d="M351.8,769.7c5.9,0,10.9-4.2,14.8-11.4v0c3.1-6,5-12.6,5.6-19.3h65.9c-2,22.5-12.9,43.2-30.1,57.7    c-34.4,29.2-85.5,27.2-117.5-4.7c-33.8-33.7-33.8-88.4-0.1-122.2c0,0,0.1-0.1,0.1-0.1c16.3-16.2,38.3-25.3,61.3-25.3    c44.7,0,82,33.9,86.3,78.3h-65.9c-0.7-6.8-2.6-13.3-5.7-19.4c-3.9-7.2-8.9-11.4-14.7-11.4c-5.9,0-10.9,4.2-14.8,11.4    c-3.8,7.2-6.1,16.6-6.1,27.5c0,11,2.3,20.3,6.1,27.5C341,765.4,346,769.7,351.8,769.7z"/>
		<path class="st0" d="M613.4,798.2c0-2.1-0.6-4.2-1.7-6l-36-54.4l24.9-45.2c9.2-15.6,4-35.7-11.6-44.9c0,0,0,0-0.1,0    c-15.7-9.2-35.8-4-45.1,11.6l-29.8,53.1V677c0-18.1-14.8-32.8-32.9-32.8c-18.2,0-32.9,14.7-32.9,32.8c0,0,0,0,0,0v132.7h65.8v-52    l34.7,51.9h53.1C608.2,809.6,613.4,804.5,613.4,798.2L613.4,798.2L613.4,798.2z"/>
		<path class="st0" d="M629.3,669.4c16.3-16.2,38.3-25.3,61.3-25.3l0,0c24.1,0,44.8,9.5,61,25.9c27.9,28.1,20.9,69.7,20.9,69.7    H670.4c0.9,6.8,2.8,12.7,5.4,17.7c3.9,7.2,8.9,11.4,14.8,11.4c14,0,22.1-20.4,22.1-20.4h58.6c0,0-0.8,22.1-19,42.9    c-14.4,14.4-35.7,25.9-61.4,25.9c-23.1,0.1-45.3-9-61.7-25.3c-33.8-33.7-33.9-88.4-0.2-122.2C629.2,669.6,629.2,669.5,629.3,669.4    L629.3,669.4z M671.5,715.1l38.1-0.1c-0.8-3.7-2.4-9.2-4.1-12.4c-4.1-7.4-9-11.6-14.9-11.6c-5.9,0-11.8,5.1-14.8,11.4    C673.9,706.5,672.5,710.8,671.5,715.1L671.5,715.1z"/>
		<path class="st0" d="M814.7,560.3c-18.2,0-32.9,14.7-32.9,32.9l0.1,216.5h65.8l-0.1-216.5C847.6,575,832.9,560.3,814.7,560.3z"/>
		<path class="st0" d="M856.8,730.7c0.1-47.8,38.9-86.5,86.7-86.5c47.8,0,86.6,38.7,86.7,86.5c-0.1,47.8-38.9,86.5-86.7,86.5    C895.7,817.2,856.9,778.5,856.8,730.7C856.8,730.7,856.8,730.7,856.8,730.7L856.8,730.7z M922.6,730.7c0,21.5,9.4,39,20.9,39    c11.5,0,20.9-17.5,20.9-39s-9.4-39-20.9-39C932,691.7,922.6,709.2,922.6,730.7z"/>
		<path class="st0" d="M1211.4,730.7V593.1c0-18.1-14.8-32.8-32.9-32.8c-18.1,0-32.9,14.7-32.9,32.9v53.7    c-29.5-7.4-60.7,1.3-82.2,22.8c-33.8,33.6-33.9,88.3-0.3,122c0.1,0.1,0.2,0.2,0.3,0.3c10,10,31.4,25.3,61.3,25.3    c29.9,0,51.3-15.3,61.3-25.4C1202.2,775.7,1211.4,753.7,1211.4,730.7L1211.4,730.7L1211.4,730.7z M1124.8,769.6    c-11.5,0-20.9-17.5-20.9-39s9.4-39,20.9-39s20.9,17.5,20.9,39S1136.3,769.6,1124.8,769.6z"/>
		<path class="st0" d="M1245.2,669.4c16.3-16.2,38.3-25.3,61.3-25.3l0,0c24.1,0,44.8,9.5,61,25.9c27.9,28.1,20.9,69.7,20.9,69.7    h-102.1c0.9,6.8,2.8,12.7,5.4,17.7c3.9,7.2,8.9,11.4,14.8,11.4c14,0,22.1-20.4,22.1-20.4h58.6c0,0-0.8,22.1-19,42.9    c-14.4,14.4-35.7,25.9-61.4,25.9c-23.1,0.1-45.3-9-61.7-25.3c-33.8-33.7-33.9-88.4-0.2-122.2    C1245.1,669.6,1245.1,669.5,1245.2,669.4L1245.2,669.4z M1287.4,715.1l38.1-0.1c-0.8-3.7-2.4-9.2-4.1-12.4    c-4.1-7.4-9-11.6-14.9-11.6c-5.9,0-11.8,5.1-14.8,11.4C1289.8,706.5,1288.4,710.8,1287.4,715.1L1287.4,715.1z"/>
		<path class="st0" d="M1484.8,644.2c-47.8,0-86.6,38.7-86.7,86.5c0.1,47.8,38.9,86.5,86.7,86.5c47.8,0,86.6-38.7,86.7-86.5    C1571.4,682.9,1532.6,644.1,1484.8,644.2z M1484.8,769.6c-11.5,0-20.9-17.4-20.9-38.9s9.4-39,20.9-39c11.5,0,20.9,17.5,20.9,39    S1496.3,769.6,1484.8,769.6L1484.8,769.6z"/>
		<path class="st0" d="M1666.3,644.2c-23,0-45,9.1-61.3,25.3c-16.3,16.2-25.4,38.2-25.4,61.2v79h65.8V732c0-9.5,2.3-17.6,6.1-23.8    c3.9-6.2,8.9-9.8,14.8-9.9c5.9,0,10.9,3.7,14.8,9.9c3.8,6.3,6.1,14.4,6.1,23.8v77.7h65.8v-79c0-23.8-9.7-45.6-25.4-61.2    C1711.3,653.3,1689.2,644.2,1666.3,644.2z"/>
	</g>
	<path class="st0" d="M309.4,472.9c-0.1,0-0.1,0-0.2,0c-26.4,0-51.3-10.3-70-29c-18.8-18.7-29.1-43.6-29.1-70.1   c0.1-54.7,44.5-99.1,99.2-99.1c0.1,0,0.1,0,0.2,0c54.6,0,99.1,44.4,99.2,99.1v0c0,26.5-10.4,51.4-29.1,70.1   C360.8,462.6,335.9,472.9,309.4,472.9z M309.3,442.7C309.3,442.7,309.4,442.7,309.3,442.7c18.5,0,35.8-7.2,48.8-20.2   c13-13,20.2-30.3,20.3-48.7c0-18.4-7.2-35.7-20.3-48.7c-13-13-30.3-20.2-48.7-20.2c0,0-0.1,0-0.1,0c-38,0-69,30.9-69,68.9   C240.3,411.8,271.2,442.7,309.3,442.7C309.3,442.7,309.3,442.7,309.3,442.7z"/>
	<g>
		<path class="st0" d="M1240.5,1043.9c-43.9-45.1-58.2-90.8-42.5-135.7c8.7-24.9,26-47.6,47.5-67c7.5-6.8,6.4-18.9-2.2-24.2v0    c-5.7-3.5-13.1-2.9-18.1,1.6c-32.7,29.6-48.3,58.5-55.7,79.6c-13.8,39.5-16.1,100.8,51.5,168.9l1.4,1.4    c25.5,26.4,51.4,73.9,49.5,117.8c-3.7,82.6-74,146.9-156.8,143.2c-37.5-1.6-72.8-17.1-99.4-43.5c-26.4-26.2-42.1-61-44.1-97.9    l-0.1-0.9c-10.5-92.3-73.6-165.3-173.4-200.3c-39.2-13.7-82.1-20.8-125-20.8c-20.4,0-40.7,1.6-60.7,4.8    c-65.8,10.5-121.6,37.2-161.6,77l-0.5,0.6c-29.8,32.8-72.5,50.5-117.2,48.5c-40-1.8-76.9-19-103.9-48.5    c-27-29.5-40.9-67.8-39.2-107.7c1.4-32.5,16.2-62.7,38.8-84.5c7.8-7.5,5.4-20.5-4.5-24.8h0c-5.6-2.4-12.1-1.3-16.5,3    c-3.5,3.4-6.9,6.9-10.1,10.7c-22.9,26.5-36.3,60.1-37.8,94.3c-2.1,48,14.6,94,47.1,129.5c32.5,35.5,76.8,56.1,124.9,58.2    c2.7,0.1,5.4,0.2,8.1,0.2c50.6,0,98.5-21,132.5-58.3c71-70.4,203.7-92.9,315.7-53.6c41.6,14.6,77.4,37.2,103.3,65.3    c28.3,30.7,45.2,67.5,50,109.4c2.6,44.2,21.4,85.9,53,117.2c31.9,31.7,74.3,50.2,119.3,52.2c2.7,0.1,5.4,0.2,8,0.2    c95.9,0,176-75.7,180.3-172.3c2.4-54.1-28.2-110.2-59.6-141.8L1240.5,1043.9z"/>
		<path class="st0" d="M508.6,636.3L508.6,636.3c8.2,2.9,17.1-1.8,19.5-10.1c5.9-20.5,9-41.3,9.1-62.2c0.2-38.9-9.9-76.3-29.9-111.2    c-19.9-34.8-28.6-64.4-27.4-93.2c1.6-35.6,15.9-69.6,40.2-95.6c24.1-25.8,56.5-42.3,91.4-46.5l0.5-0.1    c80.6-12.4,126.5-71,166.9-122.7l0.5-0.6c29.5-42.1,77.9-65.9,129.3-63.6c40,1.8,76.9,19,103.9,48.5c27,29.5,40.9,67.8,39.2,107.7    c-1.3,30.3-13.1,60.5-35,89.8c-26.8,35.9-39.8,70.5-39.7,105.7c0.1,38.5,18.2,77.2,50.9,109c30.9,30.1,71.2,49.8,110.4,54    c48.9,5.2,117.9-5.7,161.7-41.6c48.4-39.8,72.3-49.2,121.7-47.6c35.2,1.1,66.2,15.3,89.6,41.1c25.8,28.4,39.8,68.9,37.4,108.4    c-0.5,8.4-1.7,16.3-3.4,23.8c-1.6,7,1.9,14.2,8.4,17.2h0c8.7,4,18.9-1,21-10.3c2.1-9.2,3.5-18.9,4.1-28.9    c2.9-48.2-13.5-95.9-45.2-130.6c-29.1-31.9-67.4-49.5-111-50.9c-57.1-1.8-87.6,9.9-141.8,54.5c-36.8,30.2-98,39.3-139.3,34.9    c-32.6-3.5-66.3-20.1-92.5-45.6c-26.4-25.7-41.6-57.6-41.7-87.4c-0.1-28.4,10.9-57,33.7-87.5c25.6-34.3,39.3-70.1,41-106.6    c2.1-48-14.6-94-47.1-129.5C1002.3,23,958,2.3,909.9,0.2c-61.7-2.7-119.6,25.7-155.2,76.2c-38.7,49.4-78.7,100.5-147.2,111.1    c-41.8,5.1-80.7,24.9-109.5,55.8c-29.3,31.3-46.5,72.1-48.3,115c-2,45.7,16.9,84.4,31.3,109.6c26.8,46.8,32.9,98.8,18.1,149.9    C496.8,625.5,500.9,633.6,508.6,636.3z"/>
	</g>
</g>
</svg>