<?xml version="1.0" encoding="UTF-8" standalone="no"?>
<!-- Created with Inkscape (http://www.inkscape.org/) -->

<svg
   version="1.1"
   id="svg1"
   width="1000"
   height="777.72626"
   viewBox="0 0 1000 777.72626"
   sodipodi:docname="nick-hd-logo-uk_2_png.svg"
   xml:space="preserve"
   inkscape:version="1.3 (0e150ed6c4, 2023-07-21)"
   xmlns:inkscape="http://www.inkscape.org/namespaces/inkscape"
   xmlns:sodipodi="http://sodipodi.sourceforge.net/DTD/sodipodi-0.dtd"
   xmlns="http://www.w3.org/2000/svg"
   xmlns:svg="http://www.w3.org/2000/svg"><defs
     id="defs1" /><sodipodi:namedview
     id="namedview1"
     pagecolor="#ffffff"
     bordercolor="#999999"
     borderopacity="1"
     inkscape:showpageshadow="2"
     inkscape:pageopacity="0"
     inkscape:pagecheckerboard="0"
     inkscape:deskcolor="#d1d1d1"
     showgrid="false"
     inkscape:zoom="0.36391753"
     inkscape:cx="502.86119"
     inkscape:cy="718.56941"
     inkscape:window-width="1920"
     inkscape:window-height="991"
     inkscape:window-x="-9"
     inkscape:window-y="-9"
     inkscape:window-maximized="1"
     inkscape:current-layer="g1" /><g
     inkscape:groupmode="layer"
     inkscape:label="Image"
     id="g1"
     transform="translate(-460.04918,-359.05724)"><g
       id="g15"
       transform="matrix(0.5719515,0,0,0.5719515,457.4182,359.04383)"
       style="opacity:1;fill:#ff6700;fill-opacity:1">&#10;	<g
   id="g11"
   style="fill:#ff6700;fill-opacity:1">&#10;		<path
   class="st0"
   d="m 29.9,669.5 c 16.3,-16.2 38.3,-25.3 61.3,-25.3 23,0 45,9.1 61.3,25.3 16.3,16.2 25.4,38.2 25.4,61.2 v 79 H 112.1 V 732 c 0,-9.5 -2.3,-17.6 -6.1,-23.8 -3.9,-6.2 -8.9,-9.8 -14.8,-9.9 -5.9,0 -10.9,3.7 -14.8,9.9 -3.8,6.3 -6.1,14.4 -6.1,23.8 v 77.7 H 4.6 v -79 c 0,-23.8 9.7,-45.7 25.3,-61.2 z"
   id="path1"
   style="fill:#ff6700;fill-opacity:1" />&#10;		<path
   class="st0"
   d="m 248.7,622.9 c 6.6,-6.6 10.7,-15.7 10.7,-25.8 0,-10.1 -4.1,-19.2 -10.7,-25.8 -6.9,-6.9 -16.2,-10.7 -25.9,-10.7 -20.1,-0.1 -36.5,16.2 -36.6,36.3 0,0 0,0.1 0,0.2 0,10.1 4.1,19.2 10.7,25.8 l 8.1,8.1 c 13.5,13.5 14.4,17 1.6,29.8 l -7.3,7.3 c -6.3,6.2 -9.8,14.7 -9.7,23.5 v 118.1 h 66.5 V 691.6 c 0,-8.8 -3.5,-17.3 -9.7,-23.5 L 239,660.8 C 226.2,648 227.1,644.4 240.6,631 Z"
   id="path2"
   style="fill:#ff6700;fill-opacity:1" />&#10;		<path
   class="st0"
   d="m 351.8,769.7 c 5.9,0 10.9,-4.2 14.8,-11.4 v 0 c 3.1,-6 5,-12.6 5.6,-19.3 h 65.9 c -2,22.5 -12.9,43.2 -30.1,57.7 -34.4,29.2 -85.5,27.2 -117.5,-4.7 -33.8,-33.7 -33.8,-88.4 -0.1,-122.2 0,0 0.1,-0.1 0.1,-0.1 16.3,-16.2 38.3,-25.3 61.3,-25.3 44.7,0 82,33.9 86.3,78.3 h -65.9 c -0.7,-6.8 -2.6,-13.3 -5.7,-19.4 -3.9,-7.2 -8.9,-11.4 -14.7,-11.4 -5.9,0 -10.9,4.2 -14.8,11.4 -3.8,7.2 -6.1,16.6 -6.1,27.5 0,11 2.3,20.3 6.1,27.5 4,7.1 9,11.4 14.8,11.4 z"
   id="path3"
   style="fill:#ff6700;fill-opacity:1" />&#10;		<path
   class="st0"
   d="m 613.4,798.2 c 0,-2.1 -0.6,-4.2 -1.7,-6 l -36,-54.4 24.9,-45.2 c 9.2,-15.6 4,-35.7 -11.6,-44.9 0,0 0,0 -0.1,0 -15.7,-9.2 -35.8,-4 -45.1,11.6 L 514,712.4 V 677 c 0,-18.1 -14.8,-32.8 -32.9,-32.8 -18.2,0 -32.9,14.7 -32.9,32.8 0,0 0,0 0,0 V 809.7 H 514 v -52 l 34.7,51.9 h 53.1 c 6.4,0 11.6,-5.1 11.6,-11.4 z"
   id="path4"
   style="fill:#ff6700;fill-opacity:1" />&#10;		<path
   class="st0"
   d="m 629.3,669.4 c 16.3,-16.2 38.3,-25.3 61.3,-25.3 v 0 c 24.1,0 44.8,9.5 61,25.9 27.9,28.1 20.9,69.7 20.9,69.7 H 670.4 c 0.9,6.8 2.8,12.7 5.4,17.7 3.9,7.2 8.9,11.4 14.8,11.4 14,0 22.1,-20.4 22.1,-20.4 h 58.6 c 0,0 -0.8,22.1 -19,42.9 -14.4,14.4 -35.7,25.9 -61.4,25.9 -23.1,0.1 -45.3,-9 -61.7,-25.3 -33.8,-33.7 -33.9,-88.4 -0.2,-122.2 0.2,-0.1 0.2,-0.2 0.3,-0.3 z m 42.2,45.7 38.1,-0.1 c -0.8,-3.7 -2.4,-9.2 -4.1,-12.4 -4.1,-7.4 -9,-11.6 -14.9,-11.6 -5.9,0 -11.8,5.1 -14.8,11.4 -1.9,4.1 -3.3,8.4 -4.3,12.7 z"
   id="path5"
   style="fill:#ff6700;fill-opacity:1" />&#10;		<path
   class="st0"
   d="m 814.7,560.3 c -18.2,0 -32.9,14.7 -32.9,32.9 l 0.1,216.5 h 65.8 l -0.1,-216.5 c 0,-18.2 -14.7,-32.9 -32.9,-32.9 z"
   id="path6"
   style="fill:#ff6700;fill-opacity:1" />&#10;		<path
   class="st0"
   d="m 856.8,730.7 c 0.1,-47.8 38.9,-86.5 86.7,-86.5 47.8,0 86.6,38.7 86.7,86.5 -0.1,47.8 -38.9,86.5 -86.7,86.5 -47.8,0 -86.6,-38.7 -86.7,-86.5 z m 65.8,0 c 0,21.5 9.4,39 20.9,39 11.5,0 20.9,-17.5 20.9,-39 0,-21.5 -9.4,-39 -20.9,-39 -11.5,0 -20.9,17.5 -20.9,39 z"
   id="path7"
   style="fill:#ff6700;fill-opacity:1" />&#10;		<path
   class="st0"
   d="M 1211.4,730.7 V 593.1 c 0,-18.1 -14.8,-32.8 -32.9,-32.8 -18.1,0 -32.9,14.7 -32.9,32.9 v 53.7 c -29.5,-7.4 -60.7,1.3 -82.2,22.8 -33.8,33.6 -33.9,88.3 -0.3,122 0.1,0.1 0.2,0.2 0.3,0.3 10,10 31.4,25.3 61.3,25.3 29.9,0 51.3,-15.3 61.3,-25.4 16.2,-16.2 25.4,-38.2 25.4,-61.2 z m -86.6,38.9 c -11.5,0 -20.9,-17.5 -20.9,-39 0,-21.5 9.4,-39 20.9,-39 11.5,0 20.9,17.5 20.9,39 0,21.5 -9.4,39 -20.9,39 z"
   id="path8"
   style="fill:#ff6700;fill-opacity:1" />&#10;		<path
   class="st0"
   d="m 1245.2,669.4 c 16.3,-16.2 38.3,-25.3 61.3,-25.3 v 0 c 24.1,0 44.8,9.5 61,25.9 27.9,28.1 20.9,69.7 20.9,69.7 h -102.1 c 0.9,6.8 2.8,12.7 5.4,17.7 3.9,7.2 8.9,11.4 14.8,11.4 14,0 22.1,-20.4 22.1,-20.4 h 58.6 c 0,0 -0.8,22.1 -19,42.9 -14.4,14.4 -35.7,25.9 -61.4,25.9 -23.1,0.1 -45.3,-9 -61.7,-25.3 -33.8,-33.7 -33.9,-88.4 -0.2,-122.2 0.2,-0.1 0.2,-0.2 0.3,-0.3 z m 42.2,45.7 38.1,-0.1 c -0.8,-3.7 -2.4,-9.2 -4.1,-12.4 -4.1,-7.4 -9,-11.6 -14.9,-11.6 -5.9,0 -11.8,5.1 -14.8,11.4 -1.9,4.1 -3.3,8.4 -4.3,12.7 z"
   id="path9"
   style="fill:#ff6700;fill-opacity:1" />&#10;		<path
   class="st0"
   d="m 1484.8,644.2 c -47.8,0 -86.6,38.7 -86.7,86.5 0.1,47.8 38.9,86.5 86.7,86.5 47.8,0 86.6,-38.7 86.7,-86.5 -0.1,-47.8 -38.9,-86.6 -86.7,-86.5 z m 0,125.4 c -11.5,0 -20.9,-17.4 -20.9,-38.9 0,-21.5 9.4,-39 20.9,-39 11.5,0 20.9,17.5 20.9,39 0,21.5 -9.4,38.9 -20.9,38.9 z"
   id="path10"
   style="fill:#ff6700;fill-opacity:1" />&#10;		<path
   class="st0"
   d="m 1666.3,644.2 c -23,0 -45,9.1 -61.3,25.3 -16.3,16.2 -25.4,38.2 -25.4,61.2 v 79 h 65.8 V 732 c 0,-9.5 2.3,-17.6 6.1,-23.8 3.9,-6.2 8.9,-9.8 14.8,-9.9 5.9,0 10.9,3.7 14.8,9.9 3.8,6.3 6.1,14.4 6.1,23.8 v 77.7 h 65.8 v -79 c 0,-23.8 -9.7,-45.6 -25.4,-61.2 -16.3,-16.2 -38.4,-25.3 -61.3,-25.3 z"
   id="path11"
   style="fill:#ff6700;fill-opacity:1" />&#10;	</g>&#10;	<path
   class="st0"
   d="m 309.4,472.9 c -0.1,0 -0.1,0 -0.2,0 -26.4,0 -51.3,-10.3 -70,-29 -18.8,-18.7 -29.1,-43.6 -29.1,-70.1 0.1,-54.7 44.5,-99.1 99.2,-99.1 0.1,0 0.1,0 0.2,0 54.6,0 99.1,44.4 99.2,99.1 v 0 c 0,26.5 -10.4,51.4 -29.1,70.1 -18.8,18.7 -43.7,29 -70.2,29 z m -0.1,-30.2 c 0,0 0.1,0 0,0 18.5,0 35.8,-7.2 48.8,-20.2 13,-13 20.2,-30.3 20.3,-48.7 0,-18.4 -7.2,-35.7 -20.3,-48.7 -13,-13 -30.3,-20.2 -48.7,-20.2 0,0 -0.1,0 -0.1,0 -38,0 -69,30.9 -69,68.9 0,38 30.9,68.9 69,68.9 z"
   id="path12"
   style="fill:#ff6700;fill-opacity:1" />&#10;	<g
   id="g14"
   style="fill:#ff6700;fill-opacity:1">&#10;		<path
   class="st0"
   d="m 1240.5,1043.9 c -43.9,-45.1 -58.2,-90.8 -42.5,-135.7 8.7,-24.9 26,-47.6 47.5,-67 7.5,-6.8 6.4,-18.9 -2.2,-24.2 v 0 c -5.7,-3.5 -13.1,-2.9 -18.1,1.6 -32.7,29.6 -48.3,58.5 -55.7,79.6 -13.8,39.5 -16.1,100.8 51.5,168.9 l 1.4,1.4 c 25.5,26.4 51.4,73.9 49.5,117.8 -3.7,82.6 -74,146.9 -156.8,143.2 -37.5,-1.6 -72.8,-17.1 -99.4,-43.5 -26.4,-26.2 -42.1,-61 -44.1,-97.9 l -0.1,-0.9 C 961,1094.9 897.9,1021.9 798.1,986.9 758.9,973.2 716,966.1 673.1,966.1 c -20.4,0 -40.7,1.6 -60.7,4.8 -65.8,10.5 -121.6,37.2 -161.6,77 l -0.5,0.6 c -29.8,32.8 -72.5,50.5 -117.2,48.5 -40,-1.8 -76.9,-19 -103.9,-48.5 -27,-29.5 -40.9,-67.8 -39.2,-107.7 1.4,-32.5 16.2,-62.7 38.8,-84.5 7.8,-7.5 5.4,-20.5 -4.5,-24.8 v 0 c -5.6,-2.4 -12.1,-1.3 -16.5,3 -3.5,3.4 -6.9,6.9 -10.1,10.7 -22.9,26.5 -36.3,60.1 -37.8,94.3 -2.1,48 14.6,94 47.1,129.5 32.5,35.5 76.8,56.1 124.9,58.2 2.7,0.1 5.4,0.2 8.1,0.2 50.6,0 98.5,-21 132.5,-58.3 71,-70.4 203.7,-92.9 315.7,-53.6 41.6,14.6 77.4,37.2 103.3,65.3 28.3,30.7 45.2,67.5 50,109.4 2.6,44.2 21.4,85.9 53,117.2 31.9,31.7 74.3,50.2 119.3,52.2 2.7,0.1 5.4,0.2 8,0.2 95.9,0 176,-75.7 180.3,-172.3 2.4,-54.1 -28.2,-110.2 -59.6,-141.8 z"
   id="path13"
   style="fill:#ff6700;fill-opacity:1" />&#10;		<path
   class="st0"
   d="m 508.6,636.3 v 0 c 8.2,2.9 17.1,-1.8 19.5,-10.1 5.9,-20.5 9,-41.3 9.1,-62.2 0.2,-38.9 -9.9,-76.3 -29.9,-111.2 -19.9,-34.8 -28.6,-64.4 -27.4,-93.2 1.6,-35.6 15.9,-69.6 40.2,-95.6 24.1,-25.8 56.5,-42.3 91.4,-46.5 l 0.5,-0.1 C 692.6,205 738.5,146.4 778.9,94.7 l 0.5,-0.6 C 808.9,52 857.3,28.2 908.7,30.5 c 40,1.8 76.9,19 103.9,48.5 27,29.5 40.9,67.8 39.2,107.7 -1.3,30.3 -13.1,60.5 -35,89.8 -26.8,35.9 -39.8,70.5 -39.7,105.7 0.1,38.5 18.2,77.2 50.9,109 30.9,30.1 71.2,49.8 110.4,54 48.9,5.2 117.9,-5.7 161.7,-41.6 48.4,-39.8 72.3,-49.2 121.7,-47.6 35.2,1.1 66.2,15.3 89.6,41.1 25.8,28.4 39.8,68.9 37.4,108.4 -0.5,8.4 -1.7,16.3 -3.4,23.8 -1.6,7 1.9,14.2 8.4,17.2 v 0 c 8.7,4 18.9,-1 21,-10.3 2.1,-9.2 3.5,-18.9 4.1,-28.9 2.9,-48.2 -13.5,-95.9 -45.2,-130.6 -29.1,-31.9 -67.4,-49.5 -111,-50.9 -57.1,-1.8 -87.6,9.9 -141.8,54.5 -36.8,30.2 -98,39.3 -139.3,34.9 -32.6,-3.5 -66.3,-20.1 -92.5,-45.6 -26.4,-25.7 -41.6,-57.6 -41.7,-87.4 -0.1,-28.4 10.9,-57 33.7,-87.5 25.6,-34.3 39.3,-70.1 41,-106.6 2.1,-48 -14.6,-94 -47.1,-129.5 C 1002.3,23 958,2.3 909.9,0.2 848.2,-2.5 790.3,25.9 754.7,76.4 716,125.8 676,176.9 607.5,187.5 c -41.8,5.1 -80.7,24.9 -109.5,55.8 -29.3,31.3 -46.5,72.1 -48.3,115 -2,45.7 16.9,84.4 31.3,109.6 26.8,46.8 32.9,98.8 18.1,149.9 -2.3,7.7 1.8,15.8 9.5,18.5 z"
   id="path14"
   style="fill:#ff6700;fill-opacity:1" />&#10;	</g>&#10;</g><path
       style="font-weight:800;font-stretch:expanded;font-size:245.865px;line-height:1.1;font-family:'Roc Grotesk';-inkscape-font-specification:'Roc Grotesk Ultra-Bold Expanded';letter-spacing:0px;opacity:1;fill:#f7e20f;fill-opacity:1;fill-rule:evenodd;stroke-width:8.79015;stroke-linejoin:round;paint-order:markers stroke fill"
       d="m 1332.668,954.72495 h 50.2795 c 37.3872,0 51.3108,-15.34165 51.3108,-42.54409 0,-23.85053 -13.6657,-42.2863 -55.3074,-42.2863 h -46.2829 z m 39.579,-26.68673 v -31.45688 h 8.8956 c 9.798,0 13.5367,7.09069 13.5367,15.59952 0,10.31373 -3.7387,15.85736 -13.0211,15.85736 z"
       id="path15" /><path
       style="font-weight:800;font-stretch:expanded;font-size:245.865px;line-height:1.1;font-family:'Roc Grotesk';-inkscape-font-specification:'Roc Grotesk Ultra-Bold Expanded';letter-spacing:0px;opacity:1;fill:#f7e20f;fill-opacity:1;fill-rule:evenodd;stroke-width:8.79015;stroke-linejoin:round;paint-order:markers stroke fill"
       d="m 1215.5995,954.72495 h 39.5789 v -28.74951 h 29.2652 v 28.74951 h 39.5789 v -84.83039 h -39.5789 v 27.20248 h -29.2652 v -27.20248 h -39.5789 z"
       id="text1" /></g><style
     type="text/css"
     id="style1">&#10;	.st0{fill:#FF6700;}&#10;</style></svg>
