<?xml version="1.0" encoding="utf-8"?>
<!-- Generator: Adobe Illustrator 24.3.0, SVG Export Plug-In . SVG Version: 6.00 Build 0)  -->
<svg version="1.1"
	 id="svg25" xmlns:cc="http://creativecommons.org/ns#" xmlns:dc="http://purl.org/dc/elements/1.1/" xmlns:rdf="http://www.w3.org/1999/02/22-rdf-syntax-ns#"
	 xmlns="http://www.w3.org/2000/svg" xmlns:xlink="http://www.w3.org/1999/xlink" x="0px" y="0px" viewBox="0 0 512 79.8"
	 style="enable-background:new 0 0 512 79.8;" xml:space="preserve">
<style type="text/css">
	.st0{fill:url(#path15-8-9_1_);}
	.st1{fill:url(#path17-4-0_1_);}
	.st2{fill:url(#path21-7-8_1_);}
	.st3{fill:url(#path23-2-2_1_);}
	.st4{fill:url(#path25-0-6_1_);}
	.st5{fill:#323232;}
</style>
<g>
	<g id="g4172-7-2" transform="matrix(2.9061,0,0,-2.9061,-723.7,1487.7)">
		
			<linearGradient id="path15-8-9_1_" gradientUnits="userSpaceOnUse" x1="7.3597" y1="312.2669" x2="8.0841" y2="312.2669" gradientTransform="matrix(774.65 -281.9469 -281.9469 -774.65 82548.9219 244517.0312)">
			<stop  offset="0" style="stop-color:#F8B81D"/>
			<stop  offset="1" style="stop-color:#F89A22"/>
		</linearGradient>
		<path id="path15-8-9" class="st0" d="M325.7,503.6c0-4.8,3.8-6.8,6.6-8.2c1.7-0.9,3.2-1.6,3.2-2.7c0-1.2-0.6-1.8-1.8-1.8
			c-1.3,0-3.6,1.9-4.3,2.7c-0.2,0.2-0.5,0.5-1,0.5c-0.3,0-0.6-0.2-0.9-0.5l-2.7-3.2c-0.8-0.9-0.2-1.7,0-1.9c0.4-0.4,4-4.1,8.9-4.1
			c5.4,0,9.5,3.7,9.5,8.5c0,5-3.9,7-6.7,8.5c-1.6,0.8-3.1,1.6-3.1,2.5c0,0.9,0.7,1.3,1.2,1.4c1.3,0.1,2.2-0.4,2.7-0.7
			c0.5-0.3,0.8-0.6,0.8-0.6c0.3-0.1,0.4-0.2,0.8-0.2c0.4,0,0.7,0.2,0.9,0.5l2.1,3.1c0.4,0.6,0.7,1.3-0.3,2c-1.6,1.2-3.6,2.4-7.2,2.4
			C329.4,511.9,325.7,508.5,325.7,503.6"/>
		
			<linearGradient id="path17-4-0_1_" gradientUnits="userSpaceOnUse" x1="7.3597" y1="312.2965" x2="8.0841" y2="312.2965" gradientTransform="matrix(774.65 -281.9469 -281.9469 -774.65 82548.9219 244517.0312)">
			<stop  offset="0" style="stop-color:#F8B81D"/>
			<stop  offset="1" style="stop-color:#F89A22"/>
		</linearGradient>
		<path id="path17-4-0" class="st1" d="M262.5,511.9c-3.5,0-6.9-1.3-9.6-4c-2.6-2.6-4-6.1-4-9.6c0-3.5,1.3-6.9,4-9.6
			c2.4-2.4,5.6-3.8,8.8-3.9c0,0,8.1-0.3,14.5-0.2c0.1,7.7-0.2,14.5-0.2,14.5c-0.2,3.2-1.5,6.3-3.9,8.8
			C269.5,510.6,266,511.9,262.5,511.9L262.5,511.9z M262.5,504.3c1.5,0,3-0.6,4.1-1.7c2.3-2.3,2.3-6,0-8.3c-1.1-1.1-2.6-1.7-4.1-1.7
			s-3,0.6-4.1,1.7c-2.3,2.3-2.3,6,0,8.3C259.5,503.7,261.1,504.3,262.5,504.3z"/>
		
			<linearGradient id="path21-7-8_1_" gradientUnits="userSpaceOnUse" x1="7.3597" y1="312.2574" x2="8.0841" y2="312.2574" gradientTransform="matrix(774.65 -281.9469 -281.9469 -774.65 82548.9219 244517.0312)">
			<stop  offset="0" style="stop-color:#F8B81D"/>
			<stop  offset="1" style="stop-color:#F89A22"/>
		</linearGradient>
		<path id="path21-7-8" class="st2" d="M346,511.6c-0.7,0-1.2-0.5-1.2-1.2v-4.1c0-0.7,0.5-1.2,1.2-1.2h4.8v-19.1
			c0-0.7,0.5-1.2,1.2-1.2h5c0.7,0,1.2,0.5,1.2,1.2V505h4.8c0.8,0,1.2,0.5,1.2,1.2v4.1c0,0.8-0.5,1.2-1.2,1.2H346z"/>
		
			<linearGradient id="path23-2-2_1_" gradientUnits="userSpaceOnUse" x1="7.3597" y1="312.284" x2="8.0841" y2="312.284" gradientTransform="matrix(774.65 -281.9469 -281.9469 -774.65 82548.9219 244517.0312)">
			<stop  offset="0" style="stop-color:#F8B81D"/>
			<stop  offset="1" style="stop-color:#F89A22"/>
		</linearGradient>
		<path id="path23-2-2" class="st3" d="M294.4,511.6c-0.7,0-1.2-0.5-1.2-1.2v-15.1c0-2.7-1-4.1-3-4.1c-0.7,0-2.8,0-2.8,4.1v15.1
			c0,0.7-0.5,1.2-1.2,1.2h-5c-0.7,0-1.2-0.5-1.2-1.2v-15.1c0-7.2,3.4-10.8,10.2-10.8c6.8,0,10.4,3.8,10.4,10.8v15.1
			c0,0.7-0.5,1.2-1.2,1.2H294.4z"/>
		
			<linearGradient id="path25-0-6_1_" gradientUnits="userSpaceOnUse" x1="7.3597" y1="312.2757" x2="8.0841" y2="312.2757" gradientTransform="matrix(774.65 -281.9469 -281.9469 -774.65 82548.9219 244517.0312)">
			<stop  offset="0" style="stop-color:#F8B81D"/>
			<stop  offset="1" style="stop-color:#F89A22"/>
		</linearGradient>
		<path id="path25-0-6" class="st4" d="M306,511.6c-0.8,0-1.2-0.5-1.2-1.2v-24.4c0-0.7,0.5-1.2,1.2-1.2h14.8c0.7,0,1.2,0.5,1.2,1.2
			v4.1c0,0.7-0.5,1.2-1.2,1.2h-8.5v3.6h7.5c0.8,0,1.2,0.5,1.2,1.2v4.1c0,0.7-0.5,1.2-1.2,1.2l-7.5,0v3.5h8.5c0.7,0,1.2,0.5,1.2,1.2
			v4.1c0,0.7-0.5,1.2-1.2,1.2L306,511.6z"/>
	</g>
	<g>
		<path class="st5" d="M506,17.5c-4.8-7.8-12.9-13.2-21.7-15.2c-7.3-2-15-1.2-22.5-1.3c-5,0.1-10.1-0.2-15,0.2
			c-2,0.6-3.2,2.8-2.9,4.8c0,23,0,45.9,0,68.9c-0.1,2.2,1.9,4.3,4.1,4.3c4.4,0.2,8.7,0,13.1,0.1c9.5-0.1,19.4,0.7,28.3-3
			c10.4-3.9,18.3-13.1,21-23.8C513.3,40.7,512.4,27.7,506,17.5z M491.1,42.8c-0.4,6.1-3.5,12.3-9.2,15c-5.5,3-12,2.1-18.1,2.2
			c0-13.4,0-26.8,0-40.1h0c6.5,0,13.7-0.9,19.5,3C489.9,27.1,491.9,35.5,491.1,42.8z"/>
		<path class="st5" d="M430.2,1L430.2,1l-16,0.1c-1.8,0.1-3.1,1.9-2.9,3.6v25.8l-21.7,0V4.6c0.1-1.7-1.1-3.5-2.9-3.6v0l-16,0.1
			c-1.8,0.1-3.1,1.9-2.9,3.6v70.8c-0.1,1.7,1.1,3.5,2.9,3.6l16-0.1c1.8-0.1,3.1-1.9,2.9-3.6V49.6h21.7v25.9
			c-0.1,1.7,1.1,3.5,2.9,3.6l16-0.1c1.8-0.1,3.1-1.9,2.9-3.6V4.6C433.3,2.9,432,1.1,430.2,1z"/>
	</g>
</g>
</svg>
