<?xml version="1.0" encoding="UTF-8" standalone="no"?>
<!-- Created with Inkscape (http://www.inkscape.org/) -->

<svg
   xmlns:dc="http://purl.org/dc/elements/1.1/"
   xmlns:cc="http://creativecommons.org/ns#"
   xmlns:rdf="http://www.w3.org/1999/02/22-rdf-syntax-ns#"
   xmlns:svg="http://www.w3.org/2000/svg"
   xmlns="http://www.w3.org/2000/svg"
   xmlns:sodipodi="http://sodipodi.sourceforge.net/DTD/sodipodi-0.dtd"
   xmlns:inkscape="http://www.inkscape.org/namespaces/inkscape"
   width="1000"
   height="183.77478"
   id="svg5557"
   version="1.1"
   inkscape:version="0.48.5 r10040"
   sodipodi:docname="A.svg">
  <defs
     id="defs5559">
    <clipPath
       clipPathUnits="userSpaceOnUse"
       id="clipPath5305">
      <path
         inkscape:connector-curvature="0"
         d="m 319.947,231.533 40.378,0 0,23.377 -40.378,0 0,-23.377 z"
         id="path5307" />
    </clipPath>
    <clipPath
       clipPathUnits="userSpaceOnUse"
       id="clipPath5345">
      <path
         inkscape:connector-curvature="0"
         d="m 319.947,202.04 40.378,0 0,23.377 -40.378,0 0,-23.377 z"
         id="path5347" />
    </clipPath>
    <clipPath
       clipPathUnits="userSpaceOnUse"
       id="clipPath4985">
      <path
         inkscape:connector-curvature="0"
         d="m 147.434,153.742 50.709,0 0,5.549 -50.709,0 0,-5.549 z"
         id="path4987" />
    </clipPath>
    <clipPath
       clipPathUnits="userSpaceOnUse"
       id="clipPath4993">
      <path
         inkscape:connector-curvature="0"
         d="m 147.355,159.371 50.868,0 0,-5.709 -50.868,0 0,5.709 z"
         id="path4995" />
    </clipPath>
    <clipPath
       clipPathUnits="userSpaceOnUse"
       id="clipPath4997">
      <path
         inkscape:connector-curvature="0"
         d="m 147.439,159.292 50.704,0 0,-5.549 -50.704,0 0,5.549 z"
         id="path4999" />
    </clipPath>
    <clipPath
       clipPathUnits="userSpaceOnUse"
       id="clipPath4303">
      <path
         inkscape:connector-curvature="0"
         d="m 0,0 419.528,0 0,595.276 L 0,595.276 0,0 z"
         id="path4305" />
    </clipPath>
    <clipPath
       clipPathUnits="userSpaceOnUse"
       id="clipPath4311">
      <path
         inkscape:connector-curvature="0"
         d="m 167.024,454.265 19.987,0 0,-23.333 -19.987,0 0,23.333 z"
         id="path4313" />
    </clipPath>
    <clipPath
       clipPathUnits="userSpaceOnUse"
       id="clipPath4315">
      <path
         inkscape:connector-curvature="0"
         d="m 168.024,431.932 17.987,0 0,21.332 -17.987,0 0,-21.332 z"
         id="path4317" />
    </clipPath>
    <clipPath
       clipPathUnits="userSpaceOnUse"
       id="clipPath4319">
      <path
         inkscape:connector-curvature="0"
         d="m 168.024,431.932 17.987,0 0,21.332 -17.987,0 0,-21.332 z"
         id="path4321" />
    </clipPath>
    <clipPath
       clipPathUnits="userSpaceOnUse"
       id="clipPath4323">
      <path
         inkscape:connector-curvature="0"
         d="m 168.024,431.932 17.987,0 0,21.332 -17.987,0 0,-21.332 z"
         id="path4325" />
    </clipPath>
    <clipPath
       clipPathUnits="userSpaceOnUse"
       id="clipPath4327">
      <path
         inkscape:connector-curvature="0"
         d="m 168.024,431.932 17.987,0 0,21.332 -17.987,0 0,-21.332 z"
         id="path4329" />
    </clipPath>
    <clipPath
       clipPathUnits="userSpaceOnUse"
       id="clipPath4331">
      <path
         inkscape:connector-curvature="0"
         d="m 168.024,431.932 17.987,0 0,21.332 -17.987,0 0,-21.332 z"
         id="path4333" />
    </clipPath>
    <clipPath
       clipPathUnits="userSpaceOnUse"
       id="clipPath4335">
      <path
         inkscape:connector-curvature="0"
         d="m 168.024,431.932 17.987,0 0,21.332 -17.987,0 0,-21.332 z"
         id="path4337" />
    </clipPath>
    <clipPath
       clipPathUnits="userSpaceOnUse"
       id="clipPath4339">
      <path
         inkscape:connector-curvature="0"
         d="m 168.024,431.932 17.987,0 0,21.332 -17.987,0 0,-21.332 z"
         id="path4341" />
    </clipPath>
    <clipPath
       clipPathUnits="userSpaceOnUse"
       id="clipPath4343">
      <path
         inkscape:connector-curvature="0"
         d="m 168.024,431.932 17.987,0 0,21.332 -17.987,0 0,-21.332 z"
         id="path4345" />
    </clipPath>
    <clipPath
       clipPathUnits="userSpaceOnUse"
       id="clipPath4347">
      <path
         inkscape:connector-curvature="0"
         d="m 168.024,431.932 17.987,0 0,21.332 -17.987,0 0,-21.332 z"
         id="path4349" />
    </clipPath>
    <clipPath
       clipPathUnits="userSpaceOnUse"
       id="clipPath4351">
      <path
         inkscape:connector-curvature="0"
         d="m 168.024,431.932 17.987,0 0,21.332 -17.987,0 0,-21.332 z"
         id="path4353" />
    </clipPath>
    <clipPath
       clipPathUnits="userSpaceOnUse"
       id="clipPath4355">
      <path
         inkscape:connector-curvature="0"
         d="m 168.024,431.932 17.987,0 0,21.332 -17.987,0 0,-21.332 z"
         id="path4357" />
    </clipPath>
    <clipPath
       clipPathUnits="userSpaceOnUse"
       id="clipPath4359">
      <path
         inkscape:connector-curvature="0"
         d="m 168.024,431.932 17.987,0 0,21.332 -17.987,0 0,-21.332 z"
         id="path4361" />
    </clipPath>
    <clipPath
       clipPathUnits="userSpaceOnUse"
       id="clipPath4363">
      <path
         inkscape:connector-curvature="0"
         d="m 168.024,431.932 17.987,0 0,21.332 -17.987,0 0,-21.332 z"
         id="path4365" />
    </clipPath>
    <clipPath
       clipPathUnits="userSpaceOnUse"
       id="clipPath4367">
      <path
         inkscape:connector-curvature="0"
         d="m 168.024,431.932 17.987,0 0,21.332 -17.987,0 0,-21.332 z"
         id="path4369" />
    </clipPath>
    <clipPath
       clipPathUnits="userSpaceOnUse"
       id="clipPath4371">
      <path
         inkscape:connector-curvature="0"
         d="m 168.024,431.932 17.987,0 0,21.332 -17.987,0 0,-21.332 z"
         id="path4373" />
    </clipPath>
    <linearGradient
       x1="0"
       y1="0"
       x2="1"
       y2="0"
       gradientUnits="userSpaceOnUse"
       gradientTransform="matrix(47.141842,-17.158227,-17.158227,-47.141842,152.20667,421.1261)"
       spreadMethod="pad"
       id="linearGradient4617">
      <stop
         style="stop-opacity:1;stop-color:#f8b81d"
         offset="0"
         id="stop4619" />
      <stop
         style="stop-opacity:1;stop-color:#f89a22"
         offset="1"
         id="stop4621" />
    </linearGradient>
  </defs>
  <sodipodi:namedview
     id="base"
     pagecolor="#ffffff"
     bordercolor="#666666"
     borderopacity="1.0"
     inkscape:pageopacity="0.0"
     inkscape:pageshadow="2"
     inkscape:zoom="0.39878337"
     inkscape:cx="721.75656"
     inkscape:cy="-321.78585"
     inkscape:document-units="px"
     inkscape:current-layer="layer1"
     showgrid="false"
     fit-margin-left="0.5"
     fit-margin-bottom="0.5"
     fit-margin-top="0.5"
     fit-margin-right="0.5"
     inkscape:window-width="1057"
     inkscape:window-height="1022"
     inkscape:window-x="854"
     inkscape:window-y="-4"
     inkscape:window-maximized="0" />
  <metadata
     id="metadata5562">
    <rdf:RDF>
      <cc:Work
         rdf:about="">
        <dc:format>image/svg+xml</dc:format>
        <dc:type
           rdf:resource="http://purl.org/dc/dcmitype/StillImage" />
        <dc:title></dc:title>
      </cc:Work>
    </rdf:RDF>
  </metadata>
  <g
     inkscape:label="Layer 1"
     inkscape:groupmode="layer"
     id="layer1"
     transform="translate(-1104.6376,932.14946)">
    <g
       id="g4605"
       transform="matrix(27.267609,0,0,-27.267609,-3184.1698,9955.9796)">
      <g
         id="g4607">
        <g
           id="g4613">
          <g
             id="g4615">
            <path
               d="m 176.02,397.258 c 0,-1.181 0.934,-1.656 1.617,-2.003 l 0,0 c 0.422,-0.215 0.787,-0.401 0.787,-0.658 l 0,0 c 0,-0.286 -0.158,-0.445 -0.445,-0.445 l 0,0 c -0.329,0 -0.878,0.471 -1.062,0.652 l 0,0 c -0.052,0.052 -0.133,0.121 -0.24,0.121 l 0,0 c -0.08,0 -0.151,-0.037 -0.218,-0.113 l 0,0 -0.663,-0.778 c -0.203,-0.229 -0.046,-0.409 0.008,-0.461 l 0,0 c 0.096,-0.101 0.97,-0.988 2.175,-0.988 l 0,0 c 1.323,0 2.322,0.892 2.322,2.074 l 0,0 c 0,1.223 -0.949,1.714 -1.643,2.072 l 0,0 c -0.399,0.206 -0.742,0.384 -0.742,0.607 l 0,0 c 0,0.222 0.157,0.315 0.298,0.33 l 0,0 c 0.307,0.03 0.539,-0.096 0.652,-0.169 l 0,0 c 0.114,-0.072 0.207,-0.138 0.207,-0.138 l 0,0 c 0.062,-0.034 0.109,-0.059 0.187,-0.058 l 0,0 c 0.093,-10e-4 0.173,0.044 0.232,0.128 l 0,0 0.521,0.768 c 0.096,0.135 0.176,0.313 -0.061,0.496 l 0,0 c -0.383,0.293 -0.891,0.593 -1.751,0.593 l 0,0 c -1.284,0 -2.181,-0.835 -2.181,-2.03 m -17.75,1.063 c -1.288,-1.29 -1.288,-3.379 10e-4,-4.669 l 0,0 c 0.595,-0.596 1.362,-0.916 2.141,-0.961 l 0,0 c 0,0 1.969,-0.066 3.535,-0.046 l 0,0 c 0.023,1.874 -0.046,3.534 -0.046,3.534 l 0,0 c -0.045,0.779 -0.366,1.546 -0.961,2.142 l 0,0 c -0.645,0.644 -1.49,0.967 -2.335,0.967 l 0,0 c -0.845,0 -1.69,-0.323 -2.335,-0.967 m 1.325,-3.345 c -0.558,0.558 -0.558,1.463 0,2.021 l 0,0 c 0.558,0.558 1.463,0.558 2.021,0 l 0,0 c 0.558,-0.558 0.558,-1.463 0,-2.021 l 0,0 c -0.279,-0.279 -0.645,-0.419 -1.011,-0.419 l 0,0 c -0.365,0 -0.731,0.14 -1.01,0.419 m 21.387,4.238 c -0.183,0 -0.302,-0.118 -0.302,-0.301 l 0,0 0,-1.007 c 0,-0.183 0.119,-0.301 0.302,-0.301 l 0,0 1.168,0 0,-4.661 c 0,-0.181 0.119,-0.3 0.302,-0.3 l 0,0 1.229,0 c 0.183,0 0.301,0.119 0.301,0.3 l 0,0 0,4.661 1.169,0 c 0.182,0 0.301,0.118 0.301,0.301 l 0,0 0,1.007 c 0,0.183 -0.119,0.301 -0.301,0.301 l 0,0 -4.169,0 z m -12.605,0 c -0.18,0 -0.297,-0.118 -0.297,-0.3 l 0,0 0,-3.685 c 0,-0.663 -0.251,-1.014 -0.728,-1.013 l 0,0 c -0.169,0 -0.685,-0.001 -0.685,1.013 l 0,0 0,3.685 c 0,0.182 -0.116,0.3 -0.296,0.3 l 0,0 -1.208,0 c -0.18,0 -0.296,-0.118 -0.296,-0.3 l 0,0 0,-3.685 c 0,-1.754 0.836,-2.644 2.485,-2.644 l 0,0 c 1.655,0 2.529,0.915 2.529,2.644 l 0,0 0,3.685 c 0,0.182 -0.116,0.3 -0.296,0.3 l 0,0 -1.208,0 z m 2.832,-0.002 c -0.183,0 -0.302,-0.118 -0.301,-0.301 l 0,0 -10e-4,-5.967 c 0,-0.183 0.119,-0.301 0.302,-0.301 l 0,0 3.607,0 c 0.183,0 0.301,0.118 0.301,0.301 l 0,0 0,1.007 c 0,0.182 -0.118,0.3 -0.301,0.3 l 0,0 -2.076,0 0,0.877 1.827,0 c 0.182,0 0.301,0.118 0.301,0.301 l 0,0 -0.001,1.007 c 0.001,0.182 -0.118,0.301 -0.3,0.3 l 0,0 -1.827,0.001 0,0.867 2.076,0 c 0.183,0 0.301,0.118 0.301,0.301 l 0,0 0,1.006 c 0,0.183 -0.118,0.301 -0.301,0.301 l 0,0 -3.607,0 z m 21.259,-0.008 c -0.09,0 -0.168,-0.065 -0.182,-0.154 l 0,0 c -0.096,-0.577 -0.731,-1.003 -1.509,-1.011 l 0,0 c -0.101,-10e-4 -0.183,-0.082 -0.183,-0.183 l 0,0 0,-1.003 c 0,-0.102 0.083,-0.184 0.184,-0.184 l 0,0 1.296,0 0,-3.843 c 0,-0.102 0.082,-0.185 0.184,-0.185 l 0,0 1.499,0 c 0.101,0 0.184,0.083 0.184,0.185 l 0,0 0,6.194 c 0,0.102 -0.083,0.184 -0.184,0.184 l 0,0 -1.289,0 z m -5.233,-1.288 c -0.102,0 -0.184,-0.083 -0.184,-0.184 l 0,0 0,-1.677 -1.629,0 c -0.102,0 -0.185,-0.083 -0.185,-0.185 l 0,0 0,-1.183 c 0,-0.102 0.083,-0.185 0.185,-0.185 l 0,0 1.629,0 0,-1.676 c 0,-0.102 0.082,-0.185 0.184,-0.185 l 0,0 1.221,0 c 0.102,0 0.185,0.083 0.185,0.185 l 0,0 0,1.676 1.62,0 c 0.102,0 0.184,0.083 0.184,0.185 l 0,0 0,1.183 c 0,0.102 -0.082,0.185 -0.184,0.185 l 0,0 -1.62,0 0,1.677 c 0,0.101 -0.083,0.184 -0.185,0.184 l 0,0 -1.221,0 z"
               style="fill:url(#linearGradient4617);stroke:none"
               id="path4623"
               inkscape:connector-curvature="0" />
          </g>
        </g>
      </g>
    </g>
  </g>
</svg>
