<?xml version="1.0" encoding="UTF-8" standalone="no"?>
<svg
   version="1.1"
   width="2035.1426"
   height="467.97806"
   xml:space="preserve"
   viewBox="0 0 2035.1426 467.97806"
   id="svg3170"
   xmlns="http://www.w3.org/2000/svg"
   xmlns:svg="http://www.w3.org/2000/svg"><defs
     id="defs26"><filter
       style="color-interpolation-filters:sRGB"
       id="filter269"
       x="0"
       y="0"
       width="1"
       height="1"><feColorMatrix
         values="-1 0 0 0 1 0 -1 0 0 1 0 0 -1 0 1 -0.21 -0.72 -0.07 2 0 "
         result="color2"
         id="feColorMatrix267" /></filter><filter
       style="color-interpolation-filters:sRGB"
       id="filter1336"
       x="0"
       y="0"
       width="1"
       height="1"><feColorMatrix
         values="-1 0 0 0 1 0 -1 0 0 1 0 0 -1 0 1 -0.21 -0.72 -0.07 2 0 "
         result="fbSourceGraphic"
         id="feColorMatrix1334" /><feColorMatrix
         result="fbSourceGraphicAlpha"
         in="fbSourceGraphic"
         values="0 0 0 -1 0 0 0 0 -1 0 0 0 0 -1 0 0 0 0 1 0"
         id="feColorMatrix1701" /><feColorMatrix
         id="feColorMatrix1703"
         values="-1 0 0 0 1 0 -1 0 0 1 0 0 -1 0 1 -0.21 -0.72 -0.07 2 0 "
         result="color2"
         in="fbSourceGraphic" /></filter><filter
       style="color-interpolation-filters:sRGB"
       id="filter2113"
       x="0"
       y="0"
       width="1"
       height="1"><feColorMatrix
         values="-1 0 0 0 1 0 -1 0 0 1 0 0 -1 0 1 -0.21 -0.72 -0.07 2 0 "
         result="color2"
         id="feColorMatrix2111" /></filter></defs><g
     transform="matrix(10.297,0,0,-10.297,360.06,329.07658)"
     id="g4"><path
       d="M 0,0 C -1.788,0.03 -2.696,0.935 -3.526,1.843 -1.592,4.12 -0.636,7.069 -0.837,10.006 -1.232,15.776 -5.897,20.375 -11.698,20.644 -14.946,20.795 -18.114,19.54 -20.391,17.217 -22.667,14.894 -23.851,11.805 -23.63,8.45 -23.248,2.656 -18.439,-2.193 -12.231,-2.19 -10.885,-2.189 -9.523,-1.96 -8.123,-1.425 -7.949,-1.356 -7.946,-1.147 -8.025,-1.036 -8.307,-0.619 -8.847,-0.056 -9.137,0.147 -9.376,0.315 -10.009,0.777 -10.987,0.661 -11.347,0.614 -11.583,0.582 -12.234,0.582 -16.991,0.578 -20.653,4.337 -20.877,8.792 -21.004,11.301 -20.028,13.743 -18.212,15.48 -16.397,17.217 -13.917,18.079 -11.407,17.843 -7.312,17.458 -4.035,14.213 -3.629,10.132 -3.581,9.649 -3.567,9.17 -3.593,8.695 -3.673,7.529 -3.995,5.566 -5.703,3.562 -6.019,3.707 -6.376,3.764 -6.6,3.779 -7.962,3.87 -8.645,3.19 -8.876,2.894 -9.008,2.721 -8.891,2.506 -8.692,2.466 -8.426,2.417 -7.686,2.213 -6.714,1.38 -6.404,1.108 -6.103,0.78 -5.821,0.461 -4.626,-0.896 -3.083,-2.69 0,-2.73 H 0.001 C 0.144,-2.73 0.26,-2.615 0.26,-2.472 V -0.258 C 0.26,-0.116 0.144,0 0.001,0 Z"
       fill="#122f4b"
       data-darkreader-inline-fill=""
       id="path2" /></g><g
     transform="matrix(10.297,0,0,-10.297,0,464.80658)"
     fill="#34ab53"
     id="g8"><path
       d="M 0,0 C 0,-0.17 0.138,-0.308 0.308,-0.308 H 45.141 C 45.312,-0.308 45.45,-0.17 45.45,0 V 44.832 C 45.45,45.002 45.312,45.14 45.141,45.14 H 0.308 C 0.138,45.14 0.001,45.003 0,44.834 Z M 42.801,2.34 H 2.648 V 42.492 H 42.801 Z"
       fill="#0991b2"
       data-darkreader-inline-fill=""
       id="path6" /></g><path
     d="M 650.22687,114.08242 C 627.60206,114.08242 609.14981,120.36384 595.055,132.97305 L 595.05109,132.97695 595.04719,132.98086 C 581.16961,145.5415 573.92609,160.8453 573.92609,178.78555 573.92609,190.35882 576.41949,200.23562 581.10773,208.60977 L 581.11555,208.62344 581.12141,208.63516 C 585.93678,216.94049 592.1451,223.50404 599.86945,228.04141 599.87195,228.04288 599.87476,228.04384 599.87727,228.04531 607.42239,232.63685 615.6136,236.40318 624.59211,239.50625 L 624.59602,239.5082 624.60187,239.51016 C 633.67433,242.58939 642.57957,245.344 651.47883,247.93398 H 651.48273 L 651.48859,247.93594 C 660.46966,250.50292 668.46679,253.2245 675.81086,256.2582 683.00088,259.38807 688.70466,263.56742 693.01594,268.80508 L 693.01789,268.80703 693.01984,268.80898 C 697.42923,274.13249 699.68448,280.41922 699.68977,287.93789 V 287.96133 C 699.68977,300.42381 695.28398,310.12201 686.6175,317.71328 677.85141,325.25082 665.2751,329.04922 648.61164,329.04922 640.85395,329.04922 633.44486,328.10079 626.19562,326.05117 618.85573,323.97591 612.99351,321.74189 608.8382,319.43203 604.60642,317.08019 600.67698,314.25029 597.05109,311.09609 L 597.03547,311.08437 597.01984,311.0707 C 593.20413,307.88973 590.82568,305.49945 589.805,304.33242 588.6894,303.05709 587.91032,302.01971 587.81086,301.8207 L 586.58234,299.36562 568.47883,319.40078 572.57844,324.36562 572.49836,324.26016 C 574.32386,326.81682 577.48152,329.76007 582.06867,333.36562 L 582.07258,333.36953 582.07453,333.37148 C 586.50438,336.81837 591.58352,340.25954 597.31086,343.53359 L 597.32062,343.53945 597.33039,343.54531 C 603.30484,346.8657 610.709,349.81924 619.70539,352.27383 L 619.7093,352.27578 619.7132,352.27773 C 628.926,354.7463 638.461,355.89492 648.45148,355.89492 673.13168,355.89492 692.70585,349.81602 706.84602,337.17227 L 706.85383,337.16641 C 721.10553,324.56359 728.14484,308.09277 728.14484,287.96133 728.14484,276.41728 725.8252,266.53355 720.9632,258.13711 720.96158,258.13422 720.95896,258.13219 720.95734,258.1293 716.28187,249.78058 709.8948,243.38919 702.21906,238.71523 L 702.20734,238.70742 702.19367,238.70156 C 694.65648,234.27599 686.46789,230.5075 677.47883,227.40078 668.56397,224.32006 659.65539,221.56563 650.59211,218.975 L 650.58234,218.97305 C 641.75004,216.40245 633.59112,213.67829 626.2757,210.49648 L 626.26008,210.48867 626.2425,210.48281 C 619.06933,207.51895 613.37663,203.354 608.89289,197.9418 L 608.88898,197.93789 C 604.64344,192.77871 602.37727,186.48109 602.37727,178.78359 602.37727,168.3156 606.57656,159.57347 615.28547,152.10586 623.94127,144.68382 635.373,140.92812 650.22883,140.92812 656.49912,140.92812 662.46176,141.8677 668.305,143.44766 674.16012,145.03074 678.8651,146.92792 682.2093,148.90469 685.66715,150.94866 688.98703,153.32045 692.16242,155.86172 695.34374,158.40772 697.45821,160.40242 698.02961,161.08828 L 698.0843,161.15273 698.14289,161.21328 C 699.03797,162.10869 699.57359,162.83824 699.72883,163.14883 L 700.89289,165.47695 720.5843,145.77773 716.73273,141.24453 C 714.90683,139.05262 711.93327,136.61395 707.85969,133.67812 L 707.84797,133.67031 C 703.87541,130.69099 699.29918,127.9142 694.11555,124.99648 694.11507,124.99621 694.11407,124.99676 694.11359,124.99648 688.90967,121.9739 682.47159,119.50834 674.78352,117.38125 667.03273,115.23655 658.79076,114.08242 650.22687,114.08242 Z"
     id="path2829"
     style="fill:#122f4b;fill-opacity:1" /><path
     d="M 737.06672,117.40859 V 119.28359 144.40664 H 809.71906 V 352.66836 H 838.21906 V 144.40664 H 911.17219 V 117.40859 Z"
     id="path2835"
     style="fill:#122f4b;fill-opacity:1" /><path
     d="M 915.13898,117.40859 1002.6527,270.44375 V 352.6625 H 1031.3148 V 270.44375 L 1118.7894,117.40859 H 1086.1527 L 1016.8831,240.8832 947.61555,117.40859 Z"
     id="path2841"
     style="fill:#122f4b;fill-opacity:1" /><path
     d="M 1150.8167,117.40664 V 352.66641 L 1298.3948,352.65859 V 350.78359 325.82461 H 1179.4769 V 117.40664 Z"
     id="path2847"
     style="fill:#122f4b;fill-opacity:1" /><path
     d="M 1332.0296,117.39743 V 352.69261 H 1497.6489 V 325.82053 L 1360.6527,325.81664 V 243.5542 H 1468.2243 V 216.68211 H 1360.6527 V 144.43103 H 1494.7517 V 117.39743 Z"
     id="path2853"
     style="fill:#122f4b;fill-opacity:1" /><path
     d="M 1593.848,116.8168 V 352.24648 H 1595.723 1622.5745 V 246.11758 H 1747.4437 V 352.24648 H 1776.1702 V 116.8168 H 1747.4437 V 219.11758 H 1622.5745 V 116.8168 Z"
     id="path2859"
     style="fill:#122f4b;fill-opacity:1" /><path
     id="path2865"
     d="M 1837.7617,116.88477 V 118.76172 352.11523 H 1911.2305 C 1945.2838,352.11523 1976.3122,340.22937 2000.1016,317.12695 2023.6932,294.22011 2035.1426,266.74205 2035.1426,234.50195 2035.1426,202.39383 2022.996,174.15046 1999.4062,151.08203 L 1999.3945,151.07031 1999.3828,151.06055 C 1976.0268,128.98303 1945.5922,116.88867 1911.5312,116.88867 Z M 1866.4023,143.88086 H 1912.5312 C 1939.2776,143.88086 1960.9882,152.50054 1979.0918,170.10547 1997.2068,187.88155 2006.6621,209.30408 2006.6621,234.6582 2006.6621,259.9819 1996.5202,282.00068 1978.4062,299.61523 L 1978.4023,299.61719 1978.4004,299.62109 C 1963.2139,314.52133 1938.8816,325.27539 1912.2305,325.27539 H 1866.4023 Z"
     style="fill:#122f4b;fill-opacity:1" /></svg>
