<?xml version="1.0" encoding="UTF-8" standalone="no"?><svg version="1.1" viewBox="0 0 993.66821 138" xml:space="preserve" width="993.66821" height="138" xmlns="http://www.w3.org/2000/svg" xmlns:svg="http://www.w3.org/2000/svg"><path d="M526.79837 137.94735h19.53453c2.50179 0 4.47904-1.21012 5.19383-3.63036l21.99116-66.51068 21.80096 66.51068c.71477 2.42024 2.53831 3.63036 5.18222 3.63036h19.54978c2.50531 0 4.11589-1.21012 5.01065-3.45749l34.71198-88.684615c1.0737-2.938868-.35791-5.013363-3.57905-5.013363h-16.83517c-2.50483 0-4.48863 1.037249-5.2043 3.45749l-23.95909 69.991248-22.71677-69.818373c-.71569-2.420243-2.68939-3.630365-5.1942-3.630365h-17.54163c-2.50483 0-4.47293 1.210122-5.18855 3.630365l-22.7146 69.818373-24.15371-69.991248c-.89459-2.247368-2.68376-3.45749-5.18859-3.45749h-16.29843c-3.22114 0-4.65275 2.074495-3.57906 5.013363l34.16735 88.684615c.89477 2.24737 2.50533 3.45749 5.01069 3.45749Z" fill="#de004d"/><path d="M277.37247 23.910147V133.63207c0 2.76599 1.61013 4.36793 4.47281 4.36793h15.4637c1.80938 0 2.89595-.35344 3.65084-1.01494.85224-.7468 1.28208-1.74811 1.28208-3.21487V98.557608h30.77864l19.48999 36.630412c1.2524 1.90161 3.04145 2.78898 5.36738 2.78898h18.6305c3.57833 0 5.03248-2.27052 2.88548-5.20939l-21.30922-36.673195c5.20361.083223 10.17274-.822779 13.77373-2.561633 4.45942-2.153379 7.05305-5.185952 8.92516-9.017021.97077-1.986521 1.97755-5.114506 2.49453-8.046391 1.12751-6.394476.96434-11.71545.96434-21.303299V44.116786l-.01334-11.085098c-.03253-2.235451-.10446-4.220479-.2553-5.999064-.22772-2.6849-.62572-5.249176-1.32096-8.039046-.92142-3.697504-2.53366-7.246131-4.755-10.0781046-2.68804-3.426939-6.02501-5.4346451-9.06945-6.6540492-2.92128-1.1700745-6.30996-1.80929913-8.88668-2.02836994-3.61608-.30743668-4.42767-.22221244-11.63851-.22221244H302.0079c-3.83239 0-7.47525.78155357-10.68277 2.12583348-4.26048 1.7855755-7.61716 4.4890346-9.95404 7.9034637-2.80391 4.096799-3.99862 9.065857-3.99862 13.870008Zm51.30243-.804166h8.08341c2.6588 0 4.93407-.004672 6.90941.005392 2.48427.012659 4.02008-.052031 6.19411.322151 1.12892.194302 2.12643.421606 3.0328.822123 1.79543.793382 2.58588 1.676804 3.08268 2.246519 1.01012 1.158383 1.7358 2.852985 2.13736 4.529988.32931 1.375136.48456 2.695113.58006 4.121466.13855 2.069646.12054 4.363492.12054 7.375775v13.813853c0 3.012279.01815 5.306125-.12041 7.375775-.09549 1.426349-.20467 2.746332-.53395 4.121464-.40154 1.677002-1.12765 3.417872-2.13777 4.57625-.25961.297717-1.17672 1.343958-2.97214 2.13734-.90638.400515-1.89941.644907-3.02832.839211-1.53589.26435-2.98169.388944-6.35496.36798-1.97534.010066-4.25068-.013035-6.90941.005392h-8.08341l-.00225-.002248h-11.49993c-1.81645 0-5.34412.056881-8.11129-.736408-1.48183-.424813-2.67866-.8958-3.93727-2.154412-1.22374-1.223734-2.17382-3.116176-2.62169-6.682499-.20582-1.638871-.26913-3.589885-.26913-6.047632V38.729182c0-2.457747.10959-4.408757.31541-6.047634.44787-3.566323 1.42087-5.458766 2.64461-6.682497 1.15486-1.154865 2.40915-1.752965 3.89098-2.177777 2.76717-.793289 6.27193-.713043 8.08838-.713046h11.49993Z" fill="#de004d"/><path d="M890.61868 11.057467v40.752297c-1.38443-2.292123-3.09124-4.228479-5.20509-5.807319-4.64258-3.467524-11.33441-5.210563-20.71504-5.210563h-17.17618c-13.24955 0-21.97962 2.820207-27.7216 8.217284-6.89376 6.479661-9.31449 16.627623-9.31449 30.114832v20.963842c0 12.67865 2.25314 22.5007 8.65829 29.00739 5.69892 5.78927 14.6556 8.85212 28.26271 8.85212h17.29127c13.5064 0 21.58224-3.59462 25.92013-11.04098v6.71912c0 2.766 1.51824 4.31032 4.38095 4.31032h14.83229c2.86271 0 4.42706-1.54432 4.42706-4.31032V11.057467c0-2.7659916-1.61029-4.321862-4.473-4.321862h-14.69433c-2.86271 0-4.47297 1.5558704-4.47297 4.321862ZM876.68611 116.69657h-28.62696c-10.91405 0-13.96634-2.77877-13.96634-14.53424V76.749781c0-11.928341 3.23119-14.694335 13.96634-14.694335h28.62696c9.53073 0 13.92382 2.558391 13.92382 14.694335v25.412549c0 12.10122-4.26224 14.53424-13.92382 14.53424Z" fill="#de004d"/><path d="M764.77318 40.791882h-13.66701c-13.77658 0-21.60294 3.976114-25.89694 11.236844v-6.914979c0-2.765992-1.61023-4.321865-4.47292-4.321865h-14.68684c-2.86372 0-4.47458 1.601787-4.47458 4.36778v88.465828c0 2.766 1.61086 4.32186 4.47458 4.32186h14.69837c2.86268 0 4.47292-1.55586 4.47292-4.32186V76.749781c0-12.191278 4.29399-14.694335 13.95548-14.694335h25.04831c10.65656 0 13.95548 2.765994 13.95548 14.694335v56.875709c0 2.766 1.54127 4.32186 4.40393 4.32186h14.76409c2.86372 0 4.47458-1.55586 4.47458-4.32186V79.170022c0-24.721053-8.41219-38.37814-37.04945-38.37814Z" fill="#de004d"/><path d="M672.68958 137.9342h14.85898c1.27372 0 2.29086-.30431 3.02808-.88494.92266-.7267 1.40688-1.91985 1.40688-3.88387V45.435714c0-1.453338-.31357-2.801642-1.33161-3.655886-.77713-.652077-1.78845-.987946-3.14945-.987946H672.8046c-2.86786 0-4.48107 1.555873-4.48107 4.321865v88.465723c0 2.76599 1.49818 4.35473 4.36605 4.35473Z" fill="#de004d"/><path d="M672.8046 30.592287h14.69786c2.86788 0 4.48106-1.647996 4.48106-4.413988V11.149546c0-2.765992-1.61318-4.413941-4.48106-4.413941H672.8046c-2.86786 0-4.48107 1.5558704-4.48107 4.321862v15.212958c0 2.765992 1.61321 4.321862 4.48107 4.321862Z" fill="#de004d"/><path d="M427.71088 137.94735h49.99822c1.33743 0 2.4078-.41996 3.16922-1.21138.92494-.96136 1.07633-2.24198 1.07633-3.57129v-11.3899c0-2.21343-.30163-2.87041-.87589-3.60086-.75298-.95778-1.97467-1.48083-3.5997-1.48083h-49.23109c-6.61532 0-10.4121-1.05048-12.34953-4.77992-1.17573-2.26317-1.65903-5.89201-1.56814-9.92972v-3.42694h70.97471c1.54621 0 2.66526-.377462 3.42311-1.054099.89073-.79527 1.28252-1.689339 1.28252-3.958621V82.391308c0-7.672338-.23214-11.239062-.75491-14.75291-1.33559-8.977513-4.56816-15.786808-10.67274-20.332001-5.73699-4.271504-14.01053-6.530733-25.62992-6.530733h-25.24219c-28.82258 0-37.05761 13.832268-37.05761 37.865835v20.921305c0 16.583706 3.68175 28.212306 14.81828 34.057156 5.60959 2.94412 12.74868 4.32739 22.23933 4.32739ZM414.3171 81.035716v-4.938764c.02544-3.44065.26064-6.01497 1.04587-8.150546.59369-1.614672 1.48178-2.873615 2.67796-3.746226 2.16966-1.582767 5.17018-2.11271 10.16952-2.11271h24.14871c10.27327 0 13.58567 2.431967 13.94964 12.435974.02352.645845.03472 1.32325.03472 2.033595v4.478677Z" fill="#de004d"/><path d="M928.89049 6.7354288c-.94553 0-1.48737.5312253-1.48737 1.4481069v5.3561533c0 .916881.54184 1.447658 1.48737 1.447658h9.50547v24.047632c0 1.607465.85498 1.770276 1.81507 1.770276h5.62296c1.07485 0 1.53908-.577343 1.53908-1.494223V14.987347h10.24927l10.70009 24.707678c.29982.723855.89961 1.11023 1.74914 1.11023h8.06393c.8953.025523 1.51615-.425678 1.87987-1.20421l13.48806-31.1762331c.44973-1.0133955-.04992-1.6893831-1.14935-1.6893831h-6.32963c-.84955 0-1.4455.3381193-1.74534 1.1102302l-10.09832 24.057047-10.12137-24.057047c-.29981-.7721109-.92259-1.1102302-1.77216-1.1102302h-6.34642Z" fill="#de004d"/><path d="M221.96392 71.250383a18.361528 18.348715 0 0 1-18.36152 18.348715 18.361528 18.348715 0 0 1-18.36153-18.348715 18.361528 18.348715 0 0 1 18.36153-18.348715 18.361528 18.348715 0 0 1 18.36152 18.348715Z" fill="#de004d"/><path d="M106.9444 71.250383a18.361528 18.348715 0 0 1-18.361532 18.348715A18.361528 18.348715 0 0 1 70.22134 71.250383a18.361528 18.348715 0 0 1 18.361528-18.348715A18.361528 18.348715 0 0 1 106.9444 71.250383Z" fill="#de004d"/><path d="M205.83138 10.501046c-4.1647.073972-7.84222.563585-10.98099 1.180771-7.76669 1.527187-15.86794 4.568204-25.15114 9.962867-4.47376 2.599794-8.69178 5.49114-12.36395 8.222264-.46648.346943-3.3458 2.483722-7.26704 5.696725-2.61267 2.140777-5.22973 4.446901-7.6557 6.624988-3.13725 2.816692-5.95463 5.441067-8.02906 7.443171-4.11714 3.9736-6.41869 6.377415-9.63352 9.560741-1.37241 1.419388-2.76671 2.792348-4.17647 4.172054-1.53933 1.506514-2.60552 3.223565-3.18905 5.11226-.47349 1.53256-.61617 3.299323-.41167 4.965032.31218 2.542852 1.43342 4.972654 3.4219 6.935587 0 0 3.3043 3.334853 5.72074 5.653633 2.87585 2.759613 5.74354 5.460335 5.99729 5.695987 2.45742 2.282118 4.89734 4.421283 7.09856 6.345071 5.70272 4.983983 9.81818 8.047033 9.81818 8.047033 2.8537 2.24085 5.92389 4.46795 9.12897 6.59534 4.52102 3.00084 8.34727 5.23611 12.6789 7.43957 2.93191 1.49144 6.18962 2.90798 9.64387 4.15651 5.64264 2.03953 11.11763 3.19055 15.30913 3.69823 6.35133.76928 14.85452.79274 24.84831-2.0385 3.84635-1.08967 7.90189-2.70627 11.54712-4.14393 1.57412-.57399 2.75081-1.75415 3.39583-3.10604.76451-1.6023.74845-3.28967.17208-4.94414l-4.03025-10.43104c-1.26679-3.30036-4.88102-4.882534-8.12746-3.572865l-1.75453.671265c-4.31748 1.70202-6.76358 2.56259-9.17479 3.17118-2.39244.60386-7.49241 1.7594-14.16835.91883-2.27957-.28702-4.76953-.80015-7.45216-1.63367-2.88111-.89519-5.64581-2.02609-8.31257-3.313168-6.15812-2.972132-12.23355-6.953332-18.59175-11.792434-4.64452-3.534848-9.4457-7.604718-13.76219-11.518357-1.69287-1.534881-3.34503-3.034013-4.82335-4.467374 4.28831-4.183011 7.77327-7.555646 10.27296-9.83038 4.10715-3.737524 6.14799-5.49955 8.62709-7.568975 2.34344-1.956185 4.73025-3.842785 7.12551-5.61675 4.08661-3.026593 8.15122-5.725106 12.10785-7.879444 1.84641-1.005353 4.16465-2.159004 6.73911-3.220163 2.67279-1.101693 5.67026-2.103602 8.80276-2.734913 6.59603-1.329335 11.90692-.657184 14.33729-.230941 2.44944.429584 4.78964 1.098072 9.22062 2.477911l1.79901.540513c3.33399 1.067322 6.79911-.753492 7.81967-4.13809l3.32128-10.745556c.45309-1.692382.34472-3.307158-.53559-4.848889-.74269-1.300781-2.00257-2.391038-3.61465-2.847689-3.74111-1.165642-7.92801-2.54846-11.84409-3.352257-5.08748-1.044235-9.73901-1.38594-13.90371-1.311968Z" fill="#de004d"/><path d="M88.948555 10.502843c-4.165495.073971-7.84373.563576-10.983099 1.180753-7.768178 1.527164-15.870983 4.568134-25.155971 9.962715-4.474618 2.599755-8.693451 5.491056-12.366326 8.222139-.466572.346938-3.34644 2.483683-7.268439 5.696638-2.613164 2.140745-5.230725 4.446834-7.657162 6.624887-3.137854 2.81665-5.955777 5.440983-8.030605 7.443058-4.117938 3.97354-6.419923 6.377319-9.6353777 9.560596-1.3726742 1.419365-2.7672343 2.792305-4.1772655 4.171989C2.1346815 64.87211 1.0682889 66.589135.48464802 68.4778c-.47358754 1.532537-.59333566 3.299273-.38880136 4.964957.31223842 2.542813 1.43370274 4.972577 3.42256114 6.93548 0 0 3.3049361 3.334803 5.7218408 5.653548 2.8763974 2.759572 5.7446384 5.460252 5.9984414 5.6959 2.457895 2.282084 4.898278 4.421216 7.099917 6.344974 5.703819 4.983911 9.820077 8.046911 9.820077 8.046911 2.854246 2.24081 5.902065 4.46789 9.10776 6.59523 4.521892 3.00081 8.34888 5.23604 12.681345 7.43947 2.932468 1.49141 6.190802 2.90793 9.645715 4.15645 5.643728 2.03949 11.119772 3.19049 15.312076 3.69816 6.35255.76927 14.85737.79274 24.85308-2.03846 3.84708-1.08965 7.90341-2.70623 11.54935-4.14387 1.57442-.57398 2.75134-1.75412 3.39648-3.10599.76465-1.60228.7486-3.28962.17211-4.94406l-4.03102-10.43089c-1.26703-3.30031-4.88197-4.882458-8.12903-3.572808l-1.75487.671248c-4.31831 1.702-6.764882 2.56256-9.176549 3.17114-2.392898.60385-7.49385 1.75937-14.171076.91881-2.280004-.28701-4.770448-.80014-7.453587-1.63364-2.881663-.89518-5.646898-2.02607-8.314172-3.313118-6.159304-2.972086-12.235893-6.953226-18.595324-11.792255-4.645407-3.534793-9.447506-7.604604-13.764825-11.518182-1.693198-1.534856-3.345677-3.033966-4.824276-4.467305 4.28913-4.182946 7.77476-7.555531 10.274932-9.830231 4.107934-3.737466 6.149171-5.499465 8.628745-7.568859 2.343889-1.956156 4.731161-3.842726 7.126881-5.616666 4.087388-3.026544 8.152782-5.725018 12.11017-7.879322 1.84677-1.005339 4.165458-2.158971 6.740408-3.220114 2.673303-1.101677 5.671347-2.10357 8.804454-2.734872 6.597296-1.329314 11.909204-.657175 14.340046-.230936 2.449907.429576 4.790563 1.098053 9.222383 2.477871l1.79936.540506c3.33463 1.067306 6.80042-.75348 7.82118-4.138027l3.32192-10.745392c.45318-1.692357.34478-3.307108-.53569-4.848816-.74284-1.30076-2.00296-2.391001-3.61535-2.847645-3.74183-1.165624-7.92954-2.548422-11.84637-3.352206-5.088464-1.04422-9.740888-1.385919-13.906385-1.311948Z" fill="#de004d"/></svg>