<?xml version="1.0" encoding="UTF-8" standalone="no"?>
<svg
   width="1214.8984"
   height="587.03015"
   viewbox="0 0 1000 357.06882"
   id="svg2"
   version="1.1"
   xmlns="http://www.w3.org/2000/svg"
   xmlns:svg="http://www.w3.org/2000/svg">
  <defs
     id="defs4" />
  <path
     d="M 606.40244,542.98995 C 555.09558,542.98995 511.8037,506.24093 504.06133,454.27978 H 601.27721 C 612.01839,454.27978 635.51813,456.56978 635.51813,456.56978 V 413.55053 C 635.51813,413.55053 612.45458,415.18624 599.69602,415.18624 H 504.06133 C 513.65751,364.26104 555.64081,329.09321 606.40244,329.09321 633.22813,329.09321 666.26954,341.30654 666.26954,341.30654 L 666.8693,296.05181 C 666.8693,296.05181 643.42408,287.16444 606.40244,287.16444 520.90917,287.16444 445.99352,352.48391 445.99352,435.85075 445.99352,525.86949 520.90917,586.71801 606.40244,586.71801 646.6955,586.71801 670.68596,575.97683 670.68596,575.97683 L 669.54096,529.08639 C 669.54096,529.08639 639.88003,542.98995 606.40244,542.98995"
     id="path12863"
     style="fill:#42a769;fill-opacity:1" />
  <path
     d="M 315.3055,585.61118 C 315.3055,585.61118 318.57693,563.8562 318.57693,544.77288 V 338.1278 H 304.50979 C 285.481,338.1278 256.03817,338.1278 234.28318,340.25423 L 232.42937,292.21879 H 459.41182 L 458.37586,340.25423 C 435.80303,338.1278 406.90543,338.1278 387.3314,338.1278 H 370.04736 V 544.77288 C 370.04736,563.8562 373.91855,585.61118 373.91855,585.61118 Z"
     id="path12867"
     style="fill:#42a769;fill-opacity:1" />
  <path
     d="M 667.30549,268.26105 C 650.56669,263.572 628.75719,260.3551 610.38268,260.3551 560.54795,260.3551 517.58323,275.51271 481.76111,307.35459 L 482.36087,272.02319 C 520.30941,246.23344 563.38319,234.61988 610.38268,234.61988 630.99266,234.61988 648.9855,237.45512 667.85073,242.36226 Z"
     id="path12871"
     style="fill:#42a769;fill-opacity:1" />
  <path
     d="M 97.70659,434.65668 H 55.34163 V 328.00819 C 55.34163,328.00819 75.95161,327.35391 100.48731,327.35391 L 110.95587,327.84462 C 150.37656,331.06152 166.62464,352.48936 166.62464,378.33363 166.62464,407.34027 143.77918,429.14978 110.95587,433.83882 L 97.70659,434.65668 M 213.5696,545.39445 134.67371,469.38832 C 183.30891,464.80832 224.09269,429.04073 224.09269,382.69553 224.09269,333.46057 195.68581,289.84156 110.95587,286.29751 L 99.9966,286.02489 C 41.38354,286.02489 1.09048,288.8056 1.09048,288.8056 1.09048,288.8056 3.81667,317.81225 3.81667,332.31557 V 545.39445 C 3.81667,565.02301 0,585.63299 0,585.63299 H 59.15829 C 59.15829,585.63299 55.34163,565.02301 55.34163,541.57779 V 454.93952 L 110.95587,513.06186 139.09014,542.12302 C 156.37417,561.04277 186.63486,585.63299 186.63486,585.63299 H 264.87647 C 264.87647,585.63299 229.81769,561.04277 213.5696,545.39445"
     id="path12875"
     style="fill:#42a769;fill-opacity:1" />
  <path
     d="M 755.34054,315.2578 822.87929,351.08494 C 836.05769,321.99307 856.02229,308.63988 875.15399,308.63635 900.08669,308.63174 915.80269,329.51751 915.28129,346.88901 914.70779,365.99643 898.48029,377.66271 883.19439,389.75215 862.69409,404.20544 842.29499,418.92854 822.16599,434.37198 764.07271,480.53998 757.89248,517.24786 755.4671,541.54956 V 587.03013 H 996.94499 V 511.1197 H 853.28269 C 854.76679,501.32392 873.13569,488.65857 890.87389,477.39203 890.87389,477.39203 928.95809,452.61658 951.18519,433.57167 977.96489,409.33515 996.57009,382.31003 997.04139,350.67921 997.96069,288.97589 948.40509,233.03192 874.62699,232.98126 811.51707,232.93793 774.17129,274.34397 755.34054,315.2578 Z"
     id="path2998"
     style="fill:#42a769;fill-opacity:1" />
  <path
     id="rect868-5"
     d="M 923.81836,0 V 200.14649 H 1214.8984 V 0 Z M 960.90625,41.394536 H 986.5332 V 86.851568 H 1031.8594 V 41.394536 H 1057.4844 V 160.94532 H 1031.8594 V 107.74219 H 986.5332 V 160.94532 H 960.90625 Z M 1088.5781,41.394536 H 1142.502 C 1172.196,41.394536 1189.6426,63.986282 1189.6426,96.820318 1190.0001,135.04008 1171.7739,160.94532 1141.502,160.94532 H 1088.5781 V 96.820318 Z M 1113.5371,62.339849 V 97.929692 139.07227 H 1136.3203 C 1154.9336,139.07227 1164.3323,123.92775 1163.9766,97.929692 1164.3323,75.440292 1156.4843,62.339849 1137.8711,62.339849 Z"
     style="fill:#42a769;fill-opacity:1" />
</svg>
