<?xml version="1.0" encoding="UTF-8" standalone="no"?>
<svg
   xmlns:dc="http://purl.org/dc/elements/1.1/"
   xmlns:cc="http://creativecommons.org/ns#"
   xmlns:rdf="http://www.w3.org/1999/02/22-rdf-syntax-ns#"
   xmlns:svg="http://www.w3.org/2000/svg"
   xmlns="http://www.w3.org/2000/svg"
   xmlns:sodipodi="http://sodipodi.sourceforge.net/DTD/sodipodi-0.dtd"
   xmlns:inkscape="http://www.inkscape.org/namespaces/inkscape"
   width="1000"
   height="160.25421"
   viewBox="0 0 999.99998 160.25421"
   version="1.2"
   id="svg170"
   sodipodi:docname="RTE_One_HD_2014.svg"
   inkscape:version="1.0.2-2 (e86c870879, 2021-01-15)">
  <metadata
     id="metadata174">
    <rdf:RDF>
      <cc:Work
         rdf:about="">
        <dc:format>image/svg+xml</dc:format>
        <dc:type
           rdf:resource="http://purl.org/dc/dcmitype/StillImage" />
        <dc:title></dc:title>
      </cc:Work>
    </rdf:RDF>
  </metadata>
  <sodipodi:namedview
     pagecolor="#ffffff"
     bordercolor="#666666"
     borderopacity="1"
     objecttolerance="10"
     gridtolerance="10"
     guidetolerance="10"
     inkscape:pageopacity="0"
     inkscape:pageshadow="2"
     inkscape:window-width="1920"
     inkscape:window-height="1001"
     id="namedview172"
     showgrid="false"
     inkscape:zoom="0.81259198"
     inkscape:cx="257.99281"
     inkscape:cy="25.492527"
     inkscape:window-x="-9"
     inkscape:window-y="-9"
     inkscape:window-maximized="1"
     inkscape:current-layer="surface6636"
     inkscape:document-rotation="0"
     units="px" />
  <defs
     id="defs11" />
  <g
     id="surface6636">
    <path
       style="fill:#1176dd;fill-opacity:1;fill-rule:nonzero;stroke:none;stroke-width:6.80687"
       d="m 270.70649,138.1053 c -22.94669,0 -42.22397,-16.45884 -45.68058,-39.698009 h 43.42049 c 4.78605,0 15.2357,0.983867 15.2357,0.983867 V 80.113794 c 0,0 -10.23694,0.744537 -15.98024,0.744537 h -42.67595 c 4.28091,-22.813669 22.99983,-38.554584 45.68058,-38.554584 11.99181,0 26.72232,5.503977 26.72232,5.503977 l 0.29266,-20.314252 c 0,0 -10.50281,-3.961878 -27.0148,-3.961878 -38.18239,0 -71.6052,29.274968 -71.6052,66.57981 0,40.336146 33.42281,67.590226 71.6052,67.590226 17.97438,0 28.68992,-4.81267 28.68992,-4.81267 l -0.50506,-21.00563 c 0,0 -13.21488,6.22197 -28.1847,6.22197"
       id="path133" />
    <path
       style="fill:#1176dd;fill-opacity:1;fill-rule:nonzero;stroke:none;stroke-width:6.80687"
       d="m 140.73759,157.16987 c 0,0 1.46239,-9.70511 1.46239,-18.24033 V 46.371882 h -6.24851 c -8.50861,0 -21.67032,0 -31.37544,0.930636 l -0.82431,-21.510767 h 101.33215 l -0.47851,21.510767 c -10.02425,-0.930636 -22.94664,-0.930636 -31.69457,-0.930636 h -7.7109 v 92.557658 c 0,8.53522 1.70172,18.24033 1.70172,18.24033 h -26.16395"
       id="path135" />
    <path
       style="fill:#1176dd;fill-opacity:1;fill-rule:nonzero;stroke:none;stroke-width:6.80687"
       d="m 297.9074,15.076221 c -7.47158,-2.100604 -17.22993,-3.562993 -25.41942,-3.562993 -22.25531,0 -41.39965,6.780267 -57.40652,21.05879 l 0.21237,-15.794076 C 232.25788,5.184937 251.48202,0 272.48763,0 c 9.19991,0 17.20332,1.27629 25.65874,3.456671 l -0.23957,11.61955"
       id="path137" />
    <path
       style="fill:#1176dd;fill-opacity:1;fill-rule:nonzero;stroke:none;stroke-width:6.80687"
       d="M 95.3495,139.16887 60.14512,105.16101 c 21.6704,-2.10054 39.88412,-18.08078 39.88412,-38.820461 0,-22.069204 -12.68313,-41.612374 -50.49325,-43.181155 -1.56877,-0.07964 -3.21734,-0.132733 -4.91905,-0.132733 -26.16396,0 -44.11173,1.249676 -44.11173,1.249676 0,0 1.1965,12.975617 1.1965,19.490008 V 139.16908 C 1.70171,147.9701 0,157.17008 0,157.17008 h 26.40321 c 0,0 -1.70171,-9.19998 -1.70171,-19.72933 V 98.646826 l 24.83449,26.031014 12.55019,13.0554 c 7.73752,8.45543 21.21834,19.43684 21.21834,19.43684 h 34.93843 c 0,0 -15.63451,-10.98141 -22.89345,-18.001 M 43.60658,89.606468 H 24.7015 V 41.798746 c 0,0 9.19998,-0.239601 20.15476,-0.239601 1.64855,0 3.24389,0.132732 4.67973,0.185827 17.57557,1.462391 24.83451,11.061182 24.83451,22.627506 0,12.975615 -10.21034,22.760503 -24.83451,24.861109 -1.88782,0.239587 -3.90864,0.372321 -5.92941,0.372321"
       id="path139" />
    <path
       style="fill:#1176dd;fill-opacity:1;fill-rule:nonzero;stroke:none;stroke-width:6.80687"
       d="m 509.02711,30.178991 c 0,3.429986 -0.0544,9.970992 -0.0544,15.927012 0,2.020829 0.0544,94.365707 0.0544,107.128607 0,2.65897 2.49938,4.09475 4.09473,4.09475 1.62197,0 8.32253,0.0271 11.48662,0.0271 1.96764,0 4.20115,-1.75488 4.20115,-4.09475 V 68.813963 c -0.0254,-0.132732 0,-2.233537 0,-3.589606 0,-0.691306 0.66437,-1.09012 1.11673,-1.116739 0.37219,0 0.55815,0.07964 0.90403,0.372318 2.76531,2.260092 68.54741,84.501044 73.81211,91.042044 1.19655,1.46239 2.39304,1.86128 3.45661,1.86128 0.98386,-0.0271 3.16417,0 5.76995,0 2.02082,0 3.35027,0 5.58372,0 1.32954,0 1.96768,-0.42542 2.81856,-1.03703 0.55815,-0.39887 1.48897,-1.83466 1.46237,-2.79185 -0.10622,-3.5896 0.0546,-16.645 -0.0254,-41.53266 -0.10622,-40.681737 0,-79.581977 -0.0256,-81.948458 -0.0254,-0.611258 -0.23943,-1.781496 -1.06355,-2.685519 -0.87747,-0.957184 -2.02082,-1.409229 -3.00463,-1.409229 -1.62197,0 -9.06698,-0.05445 -11.51322,0 -0.95721,0.05445 -1.78144,0.239601 -2.71207,1.063576 -0.95726,0.797698 -1.46248,1.861273 -1.46248,3.11095 0,3.190725 -0.0254,29.913046 -0.0254,37.411231 v 50.626189 c 0,0.21237 -0.23943,0.77115 -0.63779,0.90408 -0.5582,0.18583 -1.14335,0.13274 -1.56882,-0.53161 -1.91493,-3.00454 -70.27621,-86.973827 -73.8126,-91.095188 -1.01043,-1.169968 -2.15378,-1.595398 -3.35026,-1.595398 -1.3561,0 -9.971,0 -11.22075,0.02722 -1.01036,0 -2.18031,0.372335 -3.03118,1.196513 -0.74448,0.744537 -1.24968,1.808112 -1.24968,3.084404"
       id="path141" />
    <path
       style="fill:#1176dd;fill-opacity:1;fill-rule:nonzero;stroke:none;stroke-width:6.80687"
       d="m 746.36385,25.92469 c -1.2763,0 -4.49357,0 -10.84846,-0.02722 -14.73045,-0.05445 -40.46903,0 -48.04698,0.05445 -16.27264,0.132732 -16.75131,0.07964 -22.89342,0.07964 -6.40812,0 -8.69472,2.924849 -10.39647,5.105161 -1.70169,2.26009 -2.3133,4.280916 -2.3133,8.269341 0,9.81144 -0.0546,97.715923 -0.0546,106.091583 0,5.37111 4.44037,11.85888 11.93862,11.85888 6.11553,0 30.57772,-0.13273 47.11635,-0.10619 13.24151,0.0271 27.65296,-0.0271 33.26334,-0.0271 1.72829,0 2.76527,-0.9838 3.27046,-1.5954 0.5582,-0.66503 0.95723,-1.70171 0.95723,-2.81845 0,-1.32945 0.0254,-2.57913 0.0254,-4.46702 0,-1.99421 0,-3.4566 0,-4.67973 0,-1.11674 -0.23943,-2.36641 -1.43582,-3.42999 -1.11676,-1.03702 -2.04739,-1.14335 -2.79187,-1.14335 -6.75371,0 -14.03918,-0.0271 -19.59641,-0.0796 -5.79645,-0.0545 -27.9188,0.0545 -38.87366,0.0545 -8.74789,0 -10.29011,0.34578 -12.3375,-1.11674 -2.15371,-1.51562 -1.40922,-5.50404 -1.40922,-13.13517 0,-9.78489 -0.0255,-19.38368 -0.0546,-26.935034 12.63001,0 39.27257,0 51.37069,0 0.74452,0 6.00922,0.05447 9.7051,0 1.2763,-0.02706 2.52604,-0.717923 2.95145,-1.22313 0.79769,-0.850857 1.06356,-1.701719 1.1965,-2.472802 0.42526,-2.233473 0.87747,-4.573341 1.22314,-6.966437 0.31909,-2.393024 0.61124,-3.828872 0.79763,-5.105162 0.18634,-1.116733 -0.93056,-2.260086 -2.07391,-2.233472 -1.32954,0.02706 -1.7017,0 -3.88212,0 -1.86118,0 -43.89898,-0.02706 -61.31507,-0.05447 -0.0256,-10.742143 -0.0546,-24.036798 0.0546,-31.588217 0.0255,-1.808043 0.69134,-2.632357 1.43582,-3.29705 0.69131,-0.58471 1.62197,-1.063575 2.65898,-1.063575 1.1699,-0.02722 2.28666,0 3.69599,0 5.39752,0 14.41136,-0.02722 20.58007,0 8.7746,0 35.78937,0 42.11758,0 0.82434,0.02722 2.04738,-0.212374 2.95145,-1.249744 1.01037,-1.063575 0.98383,-1.967597 1.48902,-4.945608 0.55815,-3.190726 1.22305,-6.567551 1.59532,-9.279685 0.15924,-1.302905 -0.85083,-2.499418 -2.07397,-2.472804"
       id="path143" />
    <path
       style="fill:#1176dd;fill-opacity:1;fill-rule:nonzero;stroke:none;stroke-width:6.80687"
       d="m 420.24516,24.249515 c -36.82631,0 -66.55325,30.843685 -66.55325,68.254985 0,37.41123 29.75354,67.74971 66.60641,67.74971 36.85287,0 66.81915,-30.33848 66.81915,-67.74971 0,-37.4113 -30.01944,-68.254985 -66.87231,-68.254985 m 0.15924,116.647625 c -26.05763,0 -45.81351,-21.40445 -45.81351,-49.190342 0,-28.051768 19.86228,-48.259698 45.70713,-48.259698 25.57896,0 45.9996,20.420647 45.9996,48.259698 0,27.387082 -20.23447,49.190342 -45.89322,49.190342"
       id="path145" />
    <path
       style="fill:#1176dd;fill-opacity:1;fill-rule:nonzero;stroke:none;stroke-width:6.80687"
       d="m 952.83045,62.405287 c -2.978,-1.276292 -6.48784,-1.914436 -10.55605,-1.914436 -1.75489,0 -2.89825,0.02706 -3.45659,0.05447 -0.58469,0 -1.48902,0.02706 -2.71212,0.07964 -1.1965,0.05447 -2.33991,0.132733 -3.37686,0.185827 v 59.001832 c 4.78614,0.23958 7.95026,0.34577 9.54557,0.34577 6.32832,0 11.24739,-1.56878 14.75714,-4.75951 3.53634,-3.19072 5.2647,-8.74793 5.2647,-16.724709 V 81.976007 c 0,-5.424204 -0.82423,-9.731733 -2.49943,-12.895842 -1.70171,-3.164112 -4.01497,-5.397651 -6.96636,-6.673941"
       id="path147" />
    <path
       style="fill:#1176dd;fill-opacity:1;fill-rule:nonzero;stroke:none;stroke-width:6.80687"
       d="M 995.32026,25.977852 H 814.06047 c -2.57921,0 -4.67974,2.100535 -4.67974,4.67973 V 152.88896 c 0,2.5792 2.10053,4.67973 4.67974,4.67973 h 181.25979 c 2.60581,0 4.67974,-2.10053 4.67974,-4.67973 V 30.657582 c 0,-2.579195 -2.07393,-4.67973 -4.67974,-4.67973 m -95.4027,104.283528 c 0,0.63781 -0.23945,1.16997 -0.69131,1.62195 -0.50489,0.42541 -1.01041,0.6378 -1.56875,0.6378 h -11.27389 c -0.63784,0 -1.16999,-0.21237 -1.62195,-0.6378 -0.4518,-0.45196 -0.63784,-0.9838 -0.63784,-1.62195 V 95.455896 h -32.30607 v 34.805484 c 0,0.66504 -0.23892,1.22313 -0.66439,1.62195 -0.4518,0.45196 -0.98386,0.6378 -1.62202,0.6378 h -11.19413 c -0.63779,0 -1.1699,-0.21237 -1.62197,-0.6378 -0.4518,-0.45196 -0.66433,-0.9838 -0.66433,-1.62195 V 50.227367 c 0,-0.611259 0.21237,-1.090191 0.61124,-1.542169 0.45182,-0.398881 0.98383,-0.611256 1.67511,-0.611256 h 11.19413 c 0.66506,0 1.22315,0.185827 1.64857,0.558163 0.42526,0.398882 0.63784,0.930638 0.63784,1.595398 v 31.348889 h 32.30612 V 50.227503 c 0,-0.611258 0.18583,-1.090191 0.63784,-1.542167 0.42526,-0.398883 0.95711,-0.611258 1.62195,-0.611258 h 11.27384 c 0.5847,0 1.11674,0.212374 1.56876,0.611258 0.47836,0.451974 0.69139,0.930636 0.69139,1.542167 z m 78.03989,-31.588145 c 0,5.663525 -0.77109,10.635755 -2.36646,14.943215 -1.5422,4.28092 -3.82886,7.92362 -6.86011,10.84847 -3.03114,2.92485 -6.78031,5.15832 -11.27387,6.67394 -4.46702,1.51555 -9.51893,2.26009 -15.18255,2.26009 -3.05774,0 -7.12595,-0.13273 -12.12476,-0.42541 -5.02541,-0.29268 -8.42883,-0.58472 -10.23687,-0.87748 -1.96763,-0.34577 -2.95145,-1.51555 -2.95145,-3.56293 V 52.062025 c 0,-1.994211 0.98387,-3.16411 2.95145,-3.483217 1.64855,-0.345789 4.75955,-0.665032 9.30631,-0.957183 4.5202,-0.292695 8.88079,-0.451976 13.05532,-0.451976 5.66357,0 10.71553,0.771083 15.18255,2.286703 4.4936,1.515553 8.24273,3.722479 11.27387,6.673945 3.03125,2.951398 5.31791,6.540937 6.86011,10.82185 1.59537,4.280913 2.36646,9.279683 2.36646,15.022988 V 98.6733"
       id="path149" />
  </g>
</svg>
