<?xml version="1.0" encoding="UTF-8" standalone="no"?>
<svg
   xmlns:dc="http://purl.org/dc/elements/1.1/"
   xmlns:cc="http://creativecommons.org/ns#"
   xmlns:rdf="http://www.w3.org/1999/02/22-rdf-syntax-ns#"
   xmlns:svg="http://www.w3.org/2000/svg"
   xmlns="http://www.w3.org/2000/svg"
   xmlns:sodipodi="http://sodipodi.sourceforge.net/DTD/sodipodi-0.dtd"
   xmlns:inkscape="http://www.inkscape.org/namespaces/inkscape"
   id="Layer_1"
   data-name="Layer 1"
   width="1000"
   height="271.00729"
   viewBox="0 0 1000 271.00729"
   version="1.1"
   sodipodi:docname="RTÉ 2FM 2016 Orange.svg"
   inkscape:version="1.0.1 (3bc2e813f5, 2020-09-07)">
  <metadata
     id="metadata910">
    <rdf:RDF>
      <cc:Work
         rdf:about="">
        <dc:format>image/svg+xml</dc:format>
        <dc:type
           rdf:resource="http://purl.org/dc/dcmitype/StillImage" />
        <dc:title>RP-Logo</dc:title>
      </cc:Work>
    </rdf:RDF>
  </metadata>
  <sodipodi:namedview
     pagecolor="#ffffff"
     bordercolor="#666666"
     borderopacity="1"
     objecttolerance="10"
     gridtolerance="10"
     guidetolerance="10"
     inkscape:pageopacity="0"
     inkscape:pageshadow="2"
     inkscape:window-width="1600"
     inkscape:window-height="837"
     id="namedview908"
     showgrid="false"
     inkscape:zoom="0.76095916"
     inkscape:cx="486.24288"
     inkscape:cy="184.83168"
     inkscape:window-x="-8"
     inkscape:window-y="-8"
     inkscape:window-maximized="1"
     inkscape:current-layer="Layer_1" />
  <defs
     id="defs871">
    <style
       id="style869">
      .cls-1, .cls-2 {
        fill: #F15A29;
      }

      .cls-1 {
        fill-rule: evenodd;
      }
    </style>
  </defs>
  <title
     id="title873">RP-Logo</title>
  <g
     id="g905"
     transform="matrix(9.0909091,0,0,9.0909091,-9.0909091,-18.670883)">
    <g
       id="g883">
      <path
         class="cls-1"
         d="m 46.737,25.324 a 7.784,7.784 0 0 1 -7.743,-6.711 h 7.353 c 0.815,0 2.548,0.174 2.548,0.174 V 15.55 c 0,0 -1.717,0.128 -2.675,0.128 h -7.192 a 7.782,7.782 0 0 1 7.709,-6.512 15.72,15.72 0 0 1 4.485,0.927 l 0.067,-3.41 A 14,14 0 0 0 46.737,6.007 c -6.474,0 -12.1,4.957 -12.1,11.238 0,6.765 5.629,11.374 12.1,11.374 a 12.881,12.881 0 0 0 4.823,-0.812 l -0.067,-3.545 a 12.473,12.473 0 0 1 -4.756,1.062 z"
         id="path875" />
      <path
         class="cls-1"
         d="m 24.743,28.51 a 20.937,20.937 0 0 0 0.285,-3.074 V 9.84 h -1.057 c -1.44,0 -3.662,0.021 -5.319,0.18 L 18.546,6.4 h 17.1 L 35.54,10.02 C 33.884,9.861 31.661,9.84 30.221,9.84 h -1.328 v 15.6 a 20.937,20.937 0 0 0 0.285,3.074 z"
         id="path877" />
      <path
         class="cls-1"
         d="M 51.318,4.6 A 16.823,16.823 0 0 0 47,4 14.046,14.046 0 0 0 37.33,7.533 L 37.389,4.9 A 16.746,16.746 0 0 1 47,2.056 16.11,16.11 0 0 1 51.357,2.662 Z"
         id="path879" />
      <path
         class="cls-1"
         d="m 17.088,25.5 -5.917,-5.757 c 3.66,-0.339 6.708,-3.013 6.708,-6.534 0,-3.852 -2.3,-7.256 -9.322,-7.256 -4.43,0 -7.488,0.2 -7.488,0.2 0,0 0.217,2.2 0.217,3.3 V 25.5 A 19.546,19.546 0 0 1 1,28.514 h 4.465 a 20.824,20.824 0 0 1 -0.285,-3.3 v -6.566 l 6.314,6.576 a 36.732,36.732 0 0 0 3.582,3.29 h 5.891 A 44.7,44.7 0 0 1 17.088,25.5 Z M 5.18,17.131 V 9.1 c 0,0 1.548,-0.068 3.427,-0.068 3.513,0 4.962,1.76 4.962,3.87 0,2.456 -2.2,4.232 -5.211,4.232 -1.317,0 -2.466,0 -3.178,0 z"
         id="path881" />
    </g>
    <g
       id="g889">
      <polygon
         class="cls-2"
         points="89.378,11.413 89.378,8.839 95.133,8.839 95.155,6.402 86.808,6.402 86.808,18.613 89.378,18.613 89.378,13.833 94.522,13.833 94.522,11.413 "
         id="polygon885" />
      <polygon
         class="cls-2"
         points="99.866,18.613 99.866,10.54 103.403,17.601 104.876,17.601 108.43,10.536 108.43,18.613 111,18.613 111,6.402 107.465,6.402 104.156,13.286 100.848,6.402 97.296,6.402 97.296,18.613 "
         id="polygon887" />
    </g>
    <g
       id="g903">
      <polygon
         class="cls-2"
         points="72.306,25.922 80.388,25.922 83.064,28.445 69.178,28.446 "
         id="polygon891" />
      <polygon
         class="cls-2"
         points="84.102,29.42 86.808,31.944 64.844,31.944 67.972,29.42 "
         id="polygon893" />
      <path
         class="cls-2"
         d="m 82.319,12.644 c 0.008,3.357 -3.473,6.482 -5.41,8.127 -1.937,1.645 -13.4,11.009 -13.4,11.009 l -2.411,-2.3 10.249,-8.256 a 34.215,34.215 0 0 0 6.994,-6.771 c 2.449,-3.527 1.474,-5.9 1.346,-6.4 -0.002,0.008 2.625,1.972 2.632,4.591 z"
         id="path895" />
      <path
         class="cls-2"
         d="M 60.417,28.806 57.98,26.529 69.416,17.305 c 0,0 4.425,-3.155 6.4,-7.112 a 7.452,7.452 0 0 0 0.882,-3.129 4.092,4.092 0 0 0 -0.2,-1.637 5.3,5.3 0 0 1 2.522,4.557 c -0.153,3.007 -3.3,6.256 -4.711,7.522 -1.467,1.312 -3.949,3.27 -4.328,3.576 -0.379,0.306 -9.564,7.724 -9.564,7.724 z"
         id="path897" />
      <path
         class="cls-2"
         d="M 67.167,13.308 64.73,11.052 c 0,0 2.1,-3.866 5.087,-5.3 a 7.722,7.722 0 0 1 5.512,-0.674 5.46,5.46 0 0 1 0.391,1.667 8.71,8.71 0 0 0 -4.62,1.764 11.587,11.587 0 0 0 -2.077,2.011 15.246,15.246 0 0 0 -1.856,2.788 z"
         id="path899" />
      <path
         class="cls-2"
         d="M 64.011,10.313 61.534,8.029 c 0,0 1.7,-3.552 4.531,-5 2.831,-1.448 6.6,-1.278 8.5,0.9 a 9.616,9.616 0 0 0 -5.9,1.324 12.085,12.085 0 0 0 -2.806,2.5 22.077,22.077 0 0 0 -1.848,2.56 z"
         id="path901" />
    </g>
  </g>
</svg>
