<?xml version="1.0" encoding="UTF-8" standalone="no"?>
<svg
   xmlns:dc="http://purl.org/dc/elements/1.1/"
   xmlns:cc="http://creativecommons.org/ns#"
   xmlns:rdf="http://www.w3.org/1999/02/22-rdf-syntax-ns#"
   xmlns:svg="http://www.w3.org/2000/svg"
   xmlns="http://www.w3.org/2000/svg"
   xmlns:sodipodi="http://sodipodi.sourceforge.net/DTD/sodipodi-0.dtd"
   xmlns:inkscape="http://www.inkscape.org/namespaces/inkscape"
   width="1000"
   height="167.00824"
   viewBox="0 0 264.58333 44.187598"
   version="1.1"
   id="svg11452"
   inkscape:version="1.0.1 (3bc2e813f5, 2020-09-07)"
   sodipodi:docname="RTÉ Radio 1 2010.svg">
  <defs
     id="defs11446">
    <clipPath
       clipPathUnits="userSpaceOnUse"
       id="clipPath9793">
      <path
         d="M 0,0 H 841.89 V 595.276 H 0 Z"
         id="path9791" />
    </clipPath>
    <clipPath
       clipPathUnits="userSpaceOnUse"
       id="clipPath9793-7">
      <path
         d="M 0,0 H 841.89 V 595.276 H 0 Z"
         id="path9791-4" />
    </clipPath>
  </defs>
  <sodipodi:namedview
     id="base"
     pagecolor="#ffffff"
     bordercolor="#666666"
     borderopacity="1.0"
     inkscape:pageopacity="0.0"
     inkscape:pageshadow="2"
     inkscape:zoom="0.5"
     inkscape:cx="457.60212"
     inkscape:cy="160"
     inkscape:document-units="px"
     inkscape:current-layer="layer1"
     inkscape:document-rotation="0"
     showgrid="false"
     units="px"
     inkscape:window-width="1600"
     inkscape:window-height="837"
     inkscape:window-x="-8"
     inkscape:window-y="-8"
     inkscape:window-maximized="1" />
  <metadata
     id="metadata11449">
    <rdf:RDF>
      <cc:Work
         rdf:about="">
        <dc:format>image/svg+xml</dc:format>
        <dc:type
           rdf:resource="http://purl.org/dc/dcmitype/StillImage" />
        <dc:title></dc:title>
      </cc:Work>
    </rdf:RDF>
  </metadata>
  <g
     inkscape:label="Layer 1"
     inkscape:groupmode="layer"
     id="layer1">
    <g
       id="g12311"
       transform="matrix(1.0702636,0,0,1.0702636,-105.57443,-68.950501)">
      <g
         id="g9777"
         transform="matrix(2.5624275,0,0,-2.5624275,196.46376,74.777084)">
        <path
           d="m 0,0 h 0.439 c 1.772,0 3.368,-0.214 3.368,-2.401 0,-2.066 -1.685,-2.382 -3.35,-2.382 H 0 Z m 0,-6.089 h 0.369 l 4,-5.845 h 1.807 l -4.21,5.969 c 2.034,0.175 3.316,1.624 3.316,3.67 0,3 -2.334,3.669 -4.843,3.669 H -1.474 V -11.934 H 0 Z"
           style="fill:#4ca1d2;fill-opacity:1;fill-rule:nonzero;stroke:none"
           id="path9779" />
      </g>
      <g
         id="g9781"
         transform="matrix(2.5624275,0,0,-2.5624275,252.26421,101.81608)">
        <path
           d="m 0,0 v 10.542 h 1.07 c 1.56,0 2.892,-0.21 4.1,-1.286 C 6.311,8.251 6.889,6.786 6.889,5.27 6.889,3.79 6.329,2.398 5.241,1.374 4.033,0.228 2.682,0 1.07,0 Z m -1.474,-1.38 h 2.455 c 2.069,0 3.646,0.267 5.225,1.68 1.453,1.304 2.156,3.013 2.156,4.952 0,1.975 -0.685,3.755 -2.192,5.063 -1.561,1.339 -3.172,1.602 -5.154,1.602 h -2.49 z"
           style="fill:#4ca1d2;fill-opacity:1;fill-rule:nonzero;stroke:none"
           id="path9783" />
      </g>
      <path
         d="m 282.77913,105.35069 h -3.7719 V 71.278089 h 3.7719 z"
         style="fill:#4ca1d2;fill-opacity:1;fill-rule:nonzero;stroke:none;stroke-width:2.56242"
         id="path9785" />
      <g
         id="g9787"
         transform="matrix(2.5624275,0,0,-2.5624275,-1298.2591,1302.3451)">
        <g
           id="g9789"
           clip-path="url(#clipPath9793-7)">
          <g
             id="g9795"
             transform="translate(625.9009,479.2799)">
            <path
               d="m 0,0 c 3.031,0 5.413,-2.484 5.413,-5.495 0,-2.994 -2.416,-5.498 -5.413,-5.498 -2.992,0 -5.41,2.504 -5.41,5.498 C -5.41,-2.484 -3.029,0 0,0 m 0,1.373 c -3.763,0 -6.88,-3.083 -6.88,-6.888 0,-3.821 3.117,-6.851 6.88,-6.851 3.766,0 6.884,3.03 6.884,6.851 0,3.805 -3.118,6.888 -6.884,6.888"
               style="fill:#4ca1d2;fill-opacity:1;fill-rule:nonzero;stroke:none"
               id="path9797" />
          </g>
        </g>
      </g>
      <g
         id="g9799"
         transform="matrix(2.5624275,0,0,-2.5624275,336.46276,74.802971)">
        <path
           d="M 0,0 0.773,1.375 H 3.666 V -11.922 H 2.193 V 0 Z"
           style="fill:#4ca1d2;fill-opacity:1;fill-rule:nonzero;stroke:none"
           id="path9801" />
      </g>
      <g
         id="g9803"
         transform="matrix(2.5624275,0,0,-2.5624275,230.32088,71.234014)">
        <path
           d="m 0,0 h -0.547 l -5.829,-13.315 h 1.614 l 1.596,3.782 h 5.651 l 1.562,-3.782 h 1.632 z m -2.568,-8.157 2.264,5.33 2.21,-5.33 z"
           style="fill:#4ca1d2;fill-opacity:1;fill-rule:nonzero;stroke:none"
           id="path9805" />
      </g>
      <g
         id="g9815"
         transform="matrix(2.5624275,0,0,-2.5624275,169.37252,100.39341)">
        <path
           d="m 0,0 c -2.341,0 -4.308,1.673 -4.66,4.041 h 4.428 c 0.488,0 1.555,-0.11 1.555,-0.11 v 1.964 c 0,0 -1.048,-0.076 -1.63,-0.076 H -4.66 c 0.435,2.319 2.345,3.92 4.66,3.92 1.221,0 2.723,-0.56 2.723,-0.56 l 0.026,2.062 c 0,0 -1.067,0.407 -2.749,0.407 -3.894,0 -7.303,-2.976 -7.303,-6.769 0,-4.1 3.409,-6.87 7.303,-6.87 1.831,0 2.922,0.49 2.922,0.49 L 2.871,0.633 C 2.871,0.633 1.523,0 0,0"
           style="fill:#4ca1d2;fill-opacity:1;fill-rule:nonzero;stroke:none"
           id="path9817" />
      </g>
      <g
         id="g9819"
         transform="matrix(2.5624275,0,0,-2.5624275,135.40884,105.36069)">
        <path
           d="m 0,0 c 0,0 0.15,0.989 0.15,1.857 v 9.408 h -0.636 c -0.868,0 -2.212,0 -3.2,-0.095 l -0.086,2.185 H 6.562 L 6.513,11.17 C 5.489,11.265 4.171,11.265 3.28,11.265 H 2.495 V 1.857 C 2.495,0.989 2.669,0 2.669,0 Z"
           style="fill:#4ca1d2;fill-opacity:1;fill-rule:nonzero;stroke:none"
           id="path9821" />
      </g>
      <g
         id="g9823"
         transform="matrix(2.5624275,0,0,-2.5624275,176.47019,68.336676)">
        <path
           d="m 0,0 c -0.761,0.21 -1.755,0.357 -2.589,0.357 -2.269,0 -4.224,-0.687 -5.855,-2.139 l 0.024,1.608 c 1.727,1.175 3.689,1.701 5.831,1.701 0.937,0 1.753,-0.126 2.614,-0.354 z"
           style="fill:#4ca1d2;fill-opacity:1;fill-rule:nonzero;stroke:none"
           id="path9825" />
      </g>
      <g
         id="g9827"
         transform="matrix(2.5624275,0,0,-2.5624275,110.03594,87.756045)">
        <path
           d="m 0,0 h -1.927 v 4.86 c 0,0 0.937,0.023 2.055,0.023 0.166,0 0.329,-0.012 0.476,-0.019 C 2.394,4.716 3.137,3.74 3.137,2.562 3.137,1.245 2.095,0.251 0.604,0.037 0.411,0.011 0.205,0 0,0 M 5.276,-5.039 1.687,-1.58 c 2.209,0.211 4.067,1.836 4.067,3.945 0,2.24 -1.294,4.227 -5.15,4.389 -0.161,0.009 -0.327,0.01 -0.5,0.01 -2.668,0 -4.5,-0.126 -4.5,-0.126 0,0 0.122,-1.319 0.122,-1.978 v -9.699 c 0,-0.894 -0.172,-1.831 -0.172,-1.831 h 2.691 c 0,0 -0.172,0.937 -0.172,2.004 v 3.949 l 2.531,-2.649 1.28,-1.326 C 2.675,-5.754 4.049,-6.87 4.049,-6.87 H 7.61 c 0,0 -1.595,1.116 -2.334,1.831"
           style="fill:#4ca1d2;fill-opacity:1;fill-rule:nonzero;stroke:none"
           id="path9829" />
      </g>
    </g>
  </g>
</svg>
