<?xml version="1.0" encoding="UTF-8" standalone="no"?>
<svg
   xmlns:dc="http://purl.org/dc/elements/1.1/"
   xmlns:cc="http://creativecommons.org/ns#"
   xmlns:rdf="http://www.w3.org/1999/02/22-rdf-syntax-ns#"
   xmlns:svg="http://www.w3.org/2000/svg"
   xmlns="http://www.w3.org/2000/svg"
   xmlns:sodipodi="http://sodipodi.sourceforge.net/DTD/sodipodi-0.dtd"
   xmlns:inkscape="http://www.inkscape.org/namespaces/inkscape"
   width="1000"
   height="204.00043"
   viewBox="0 0 264.58333 53.975115"
   version="1.1"
   id="svg839"
   inkscape:version="1.0.1 (3bc2e813f5, 2020-09-07)"
   sodipodi:docname="RTÉ Raidió na Gaeltachta.svg">
  <defs
     id="defs833" />
  <sodipodi:namedview
     id="base"
     pagecolor="#ffffff"
     bordercolor="#666666"
     borderopacity="1.0"
     inkscape:pageopacity="0.0"
     inkscape:pageshadow="2"
     inkscape:zoom="0.47158032"
     inkscape:cx="400"
     inkscape:cy="305.53646"
     inkscape:document-units="px"
     inkscape:current-layer="layer1"
     inkscape:document-rotation="0"
     showgrid="false"
     units="px"
     inkscape:window-width="1600"
     inkscape:window-height="837"
     inkscape:window-x="-8"
     inkscape:window-y="-8"
     inkscape:window-maximized="1" />
  <metadata
     id="metadata836">
    <rdf:RDF>
      <cc:Work
         rdf:about="">
        <dc:format>image/svg+xml</dc:format>
        <dc:type
           rdf:resource="http://purl.org/dc/dcmitype/StillImage" />
        <dc:title></dc:title>
      </cc:Work>
    </rdf:RDF>
  </metadata>
  <g
     inkscape:label="Layer 1"
     inkscape:groupmode="layer"
     id="layer1">
    <g
       id="g4587"
       transform="translate(-91.136417,-145.16788)">
      <g
         id="g1550"
         transform="matrix(3.1754661,0,0,-3.1754661,334.74262,175.07442)">
        <path
           d="M 0,0 C 0.013,0 0.026,-0.002 0.038,-0.002 0.049,0.099 -0.152,0.124 -0.23,0.144 -0.155,0.098 -0.079,0.047 0,0 M 1.118,-0.687 C 1.113,-0.697 1.108,-0.711 1.105,-0.725 1.096,-0.709 0.906,-0.733 0.895,-0.716 0.836,-0.697 0.851,-0.729 0.833,-0.782 c 0.052,-0.014 0.285,0.009 0.335,-0.008 0.006,0.017 0.01,0.026 0.014,0.042 -0.052,0.015 -0.044,0.019 -0.064,0.061 M 0.421,2.094 C 0.396,2.095 0.367,2.101 0.343,2.101 0.334,2.023 0.468,2.101 0.507,2.126 0.482,2.13 0.454,2.131 0.425,2.133 0.425,2.119 0.423,2.108 0.421,2.094 M 2.682,4.451 C 2.68,4.422 2.679,4.398 2.675,4.371 2.673,4.357 2.671,4.345 2.67,4.332 c -0.011,0 -0.024,0 -0.039,0.004 C 2.631,4.322 2.629,4.308 2.627,4.294 2.653,4.291 2.68,4.29 2.707,4.287 2.709,4.3 2.709,4.314 2.712,4.327 2.724,4.327 2.739,4.324 2.753,4.324 2.756,4.372 2.745,4.376 2.72,4.407 2.723,4.46 2.735,4.447 2.682,4.451 m -5.174,0.997 c 0.093,0.174 0.298,0.468 0.256,0.689 -0.149,-0.283 -0.311,-0.519 -0.405,-0.845 0.013,-0.003 0.027,-0.004 0.038,-0.006 0.006,0.072 0.079,0.11 0.111,0.162 m 5.426,-5.705 c -0.04,0.017 -0.077,0.034 -0.118,0.054 0.037,-0.044 0.074,-0.089 0.11,-0.132 0.003,0.025 0.006,0.053 0.008,0.078 M 4.896,4.637 C 4.869,4.637 4.84,4.642 4.816,4.646 4.848,4.594 4.853,4.632 4.896,4.637 m -6.057,-4.83 c -10e-4,-0.014 -0.02,0.006 -0.021,-0.005 -0.004,0 -0.014,-0.012 -0.024,-0.026 0.036,-0.04 0.068,-0.069 0.093,-0.074 -0.003,0.028 -0.011,0.102 -0.048,0.105 M 5.196,-0.888 C 5.183,-0.885 5.167,-0.885 5.156,-0.882 5.152,-0.892 5.147,-0.9 5.142,-0.909 5.168,-0.911 5.194,-0.914 5.196,-0.888 M 4.029,1.837 C 4.054,1.777 4.141,1.671 4.214,1.574 4.229,1.583 4.24,1.594 4.256,1.601 4.29,1.618 4.079,1.764 4.029,1.837 M -1.109,-0.3 c -0.001,0.001 -0.002,0.002 -0.004,0.002 0.002,-0.012 0.003,-0.016 0.004,-0.002 M 6.329,2.307 C 6.401,2.3 6.355,2.38 6.34,2.425 6.325,2.402 6.307,2.376 6.29,2.353 6.345,2.346 6.334,2.361 6.329,2.307 M 5.5,7.4 C 5.493,7.388 5.486,7.374 5.479,7.36 5.446,7.36 5.46,7.349 5.46,7.321 5.493,7.321 5.511,7.372 5.5,7.4 M 4.943,8.44 V 8.42 h 0.021 v 0.02 h 0.019 v 0.039 c -0.038,0 -0.068,0.03 -0.1,0.039 C 4.896,8.499 4.91,8.479 4.923,8.459 4.923,8.433 4.915,8.44 4.943,8.44 M 5.917,7.262 H 5.856 C 5.844,7.254 5.829,7.248 5.819,7.242 V 7.222 H 5.796 V 7.201 H 5.917 Z M 1.157,0.47 C 1.363,0.487 2.105,0.674 2.261,0.78 2.588,1.006 2.887,1.762 2.913,2.173 2.898,2.31 2.883,2.445 2.87,2.581 2.863,2.701 2.857,2.821 2.849,2.942 2.627,3.449 1.9,4.255 1.311,3.74 1.199,3.642 1.096,3.556 1.079,3.399 1.06,3.24 1.171,3.1 1.196,2.944 1.157,2.951 1.113,2.952 1.074,2.956 1.069,2.905 1.085,2.917 1.031,2.92 1.024,2.844 0.919,2.883 0.862,2.857 0.871,2.801 0.878,2.747 0.886,2.694 0.802,2.701 0.69,2.46 0.655,2.394 0.765,2.383 0.781,2.139 0.786,2.058 0.8,2.058 0.812,2.056 0.824,2.056 0.833,2.121 0.86,2.111 0.915,2.126 0.911,2.112 0.911,2.101 0.909,2.087 0.938,2.082 0.964,2.081 0.991,2.079 0.957,1.751 0.681,1.921 0.483,1.886 0.429,1.877 0.375,1.872 0.32,1.862 c 0.001,0.014 0.001,0.026 0.004,0.041 -0.029,0 -0.056,0.005 -0.083,0.007 0.013,0.109 -0.372,0.123 -0.515,0.129 0.009,0.097 -0.074,0.209 -0.104,0.291 -0.085,0.219 -0.189,0.474 -0.209,0.715 -0.04,0.442 0.246,0.75 0.375,1.089 0.064,0.174 0.126,0.347 0.187,0.522 C 0.113,4.81 0.251,4.963 0.389,5.117 0.457,5.109 0.415,5.159 0.398,5.197 0.404,5.277 0.272,5.283 0.203,5.296 -0.343,5.032 -0.5,4.675 -0.774,4.191 -0.928,3.92 -1.093,3.666 -1.151,3.334 -1.166,3.094 -1.182,2.854 -1.196,2.613 -1.223,2.307 -1.248,2.024 -1.151,1.765 -0.867,1.006 0.324,0.416 1.157,0.47 m 4.562,6.833 c 0,0.033 -0.034,0.018 -0.06,0.018 0.005,-0.013 0.013,-0.027 0.017,-0.04 0.023,0 0.028,0.007 0.043,0.022 M 4.624,8.44 h 0.041 c 0,-0.039 0.085,-0.051 0.12,-0.062 v 0.02 C 4.697,8.398 4.621,8.522 4.555,8.567 4.496,8.611 4.443,8.628 4.366,8.639 4.448,8.54 4.512,8.446 4.606,8.359 c 0.032,0 0.018,0.052 0.018,0.081 M 4.278,5.382 C 4.335,5.377 4.338,5.405 4.364,5.455 4.338,5.455 4.309,5.458 4.283,5.462 4.28,5.436 4.28,5.406 4.278,5.382 M 4.702,8.299 V 8.26 c 0.028,0 0.025,0.004 0.042,0.019 -0.026,0 -0.019,-0.003 -0.019,0.02 z M 3.738,6.119 C 3.698,6.123 3.657,6.126 3.618,6.132 3.651,6.114 3.7,6.105 3.738,6.119 M 0.251,8.04 V 8.022 H 0.272 C 0.263,8.04 0.257,8.059 0.251,8.082 0.289,8.082 0.324,8.12 0.35,8.141 0.35,8.07 0.461,8.052 0.508,8.04 0.504,8.074 0.496,8.107 0.489,8.141 0.515,8.141 0.508,8.147 0.508,8.12 0.544,8.11 0.577,8.1 0.611,8.09 0.715,8.074 0.771,8.074 0.847,8 V 7.981 c 0.027,0 0.042,0.021 0.059,0.041 H 0.927 V 8 C 0.964,8 0.948,7.895 0.948,7.859 h 0.039 v 0.022 c 0.029,0 0.002,0.297 0.019,0.359 0.042,0 0.085,10e-4 0.121,-0.02 h 0.019 c 0,0.119 0.177,0.099 0.256,0.107 0.037,0.006 0.072,0.012 0.105,0.022 0.039,-0.017 0.079,-0.033 0.116,-0.05 0,-0.043 0.035,0.06 0.04,0.079 0.081,0 0.309,-0.209 0.376,-0.278 0,0.028 0.02,0.03 0.041,0.041 0,0.026 -0.007,0.019 0.021,0.019 V 8.141 c 0.024,0 0.037,-0.021 0.06,-0.023 0.066,-0.013 0.109,0.038 0.159,0.06 0,0.03 -0.009,0.023 0.018,0.023 0,-0.036 0.072,-0.049 0.1,-0.054 C 2.545,8.133 2.651,8.119 2.756,8.103 2.989,8.023 3.213,7.926 3.473,7.891 3.655,7.867 3.808,7.926 3.97,7.94 c 0,0.029 -0.032,0.057 -0.04,0.082 0.061,0 0.079,0.067 0.078,0.119 h 0.019 c 0,0.032 0.018,0.017 0.038,0.013 C 4.198,8.121 4.344,7.972 4.426,7.859 4.459,7.867 4.492,7.873 4.525,7.881 4.525,7.839 4.575,7.806 4.6,7.777 4.798,7.574 5.02,7.47 5.319,7.461 V 7.5 C 5.294,7.5 5.302,7.5 5.291,7.514 5.227,7.602 5.164,7.705 5.071,7.767 5.014,7.797 4.955,7.826 4.896,7.859 4.825,7.924 4.836,7.997 4.788,8.07 4.716,8.183 4.539,8.241 4.426,8.299 c 0,0.134 -0.328,0.165 -0.418,0.2 H 3.989 c 0,-0.025 0.004,-0.02 -0.019,-0.02 V 8.44 H 3.946 C 3.943,8.479 3.936,8.518 3.93,8.559 3.901,8.559 3.909,8.566 3.909,8.54 3.864,8.547 3.816,8.553 3.771,8.559 H 3.712 C 3.718,8.6 3.724,8.639 3.731,8.68 3.695,8.686 3.663,8.694 3.629,8.698 V 8.719 H 3.61 C 3.61,8.647 3.54,8.628 3.492,8.6 V 8.579 C 3.461,8.579 3.436,8.69 3.413,8.719 3.367,8.719 3.373,8.639 3.371,8.6 H 3.333 c 0,0.159 -0.044,0.299 0.097,0.399 v 0.019 c -0.074,0 -0.087,0.098 -0.077,0.161 -0.047,0 -0.096,0.019 -0.14,0 -0.067,0 -0.146,-0.012 -0.199,-0.042 -0.036,0 -0.007,-0.05 0,-0.079 H 2.954 C 2.948,9.085 2.942,9.112 2.934,9.137 H 2.915 C 2.894,9.071 2.875,9.006 2.855,8.938 c -0.063,0 -0.153,0.11 -0.179,0.16 -0.032,0 -0.02,-0.05 -0.02,-0.08 -0.025,0 -0.02,-0.007 -0.02,0.02 C 2.61,9.032 2.583,9.025 2.557,9.018 V 8.999 H 2.496 c 0,0.033 0.024,0.057 0.041,0.081 -0.033,0 -0.068,0.06 -0.1,0.079 0,0.034 0.035,0.06 0.059,0.078 V 9.258 C 2.441,9.258 2.417,9.285 2.379,9.318 2.325,9.293 2.271,9.266 2.218,9.237 2.161,9.231 2.101,9.226 2.039,9.219 V 9.2 C 2.007,9.2 2.02,9.23 2.02,9.258 H 2.002 V 9.237 C 1.98,9.231 1.959,9.226 1.94,9.219 1.813,9.219 1.757,9.145 1.683,9.058 V 9.038 H 1.644 C 1.637,9.071 1.631,9.104 1.623,9.137 H 1.584 V 9.118 C 1.564,9.112 1.544,9.104 1.524,9.098 H 1.385 v 0.02 H 1.365 C 1.337,9.025 1.274,8.949 1.182,8.918 1.061,8.88 0.93,8.885 0.812,8.848 0.544,8.764 0.151,8.53 0.021,8.256 -0.014,8.184 -0.019,8.084 -0.026,8 h 0.039 c 0,0.141 0.183,0.07 0.238,0.04 M 1.422,9.418 V 9.359 c 0.036,0 0.029,0.051 0,0.059 M 3.338,0.021 C 3.347,0.032 3.367,0.035 3.39,0.038 3.368,0.048 3.341,0.051 3.338,0.021 m -20.102,-2.354 c 0.994,0 1.983,-0.054 3.416,-0.054 2.69,0 4.87,1.658 4.87,4.639 0,2.394 -1.615,4.078 -3.979,4.078 -1.445,0 -2.874,-0.134 -4.307,-0.134 0.312,-0.455 0.312,-1.15 0.312,-1.751 v -5.028 c 0,-0.601 0,-1.297 -0.312,-1.75 m 1.589,7.393 c 0,0.212 0.012,0.427 0.012,0.627 0.313,0.054 0.823,0.108 1.349,0.108 2.531,0 3.863,-1.458 3.863,-3.771 0,-2.193 -0.892,-3.877 -3.412,-3.877 -1.531,0 -1.812,0.054 -1.812,1.015 z M 3.338,0.021 c -0.011,0 -0.021,0 -0.031,10e-4 0.01,-0.002 0.02,-0.004 0.031,-0.006 0,0.002 0,0.003 0,0.005 m -24.556,-2.354 h 1.897 c -0.31,0.453 -0.31,1.149 -0.31,1.75 v 5.028 c 0,0.601 0,1.296 0.31,1.751 h -1.897 c 0.311,-0.455 0.311,-1.15 0.311,-1.751 v -5.028 c 0,-0.601 0,-1.297 -0.311,-1.75 m 16.432,8.529 h -1.896 c 0.311,-0.455 0.311,-1.15 0.311,-1.751 v -5.028 c 0,-0.601 0,-1.297 -0.311,-1.75 h 1.896 c -0.31,0.453 -0.31,1.149 -0.31,1.75 v 5.028 c 0,0.601 0,1.296 0.31,1.751 m -33.143,-8.529 c -0.312,0.453 -0.312,1.149 -0.312,1.75 v 2.407 c 0.822,-0.069 0.921,-0.293 1.515,-1.097 l 1.728,-2.328 c 0.309,-0.426 0.58,-0.732 1.19,-0.732 h 1.159 c -0.578,0.508 -0.777,0.722 -1.19,1.244 l -2.462,3.207 c 1.019,0.387 2.096,1.189 2.096,2.418 0,1.046 -0.752,1.794 -2.194,1.794 -1.106,0 -2.237,-0.134 -3.427,-0.134 0.312,-0.455 0.312,-1.15 0.312,-1.751 v -4.947 c 0,-0.576 0.027,-1.217 -0.384,-1.831 z m -0.312,7.485 c 0,0.213 0.014,0.444 0.029,0.643 h 0.664 c 1.261,-0.026 2.068,-0.186 2.068,-1.526 0,-1.268 -0.749,-1.963 -2.124,-1.963 -0.213,0 -0.425,0.012 -0.637,0.04 z m 9.177,-3.742 h 3.182 l 1.547,-3.743 h 1.529 l -0.284,0.494 c -1.415,2.473 -2.322,5.374 -3.229,8.035 h -1.67 l -0.015,-0.362 c 0,-1.096 -2.916,-6.833 -3.725,-7.796 l -0.311,-0.371 h 1.772 c -0.03,0.172 -0.044,0.332 -0.044,0.508 0,0.761 0.639,2.069 1.248,3.235 m 1.472,3.397 c 0.027,0.066 0.112,0.321 0.238,0.321 0.13,0 0.214,-0.228 0.243,-0.321 l 0.992,-2.864 h -2.704 z M 3.864,-2.295 c 0.011,0.114 0.129,0.221 0.229,0.26 0.001,0.024 0.005,0.053 0.007,0.079 C 4.059,-1.953 4.02,-1.947 3.979,-1.944 3.933,-2.006 3.886,-2.071 3.838,-2.131 3.823,-2.168 3.805,-2.21 3.787,-2.247 3.802,-2.249 3.815,-2.252 3.83,-2.252 3.826,-2.264 3.826,-2.277 3.824,-2.292 c 0.013,0 0.026,-0.002 0.04,-0.003 m 0.267,0.46 c 0,-0.015 -0.002,-0.026 -0.005,-0.039 -0.073,0.006 -0.028,-0.04 -0.006,-0.082 0.002,0.042 0.006,0.082 0.011,0.121 m -7.098,3.349 c 0.012,-0.152 0.055,-0.246 0,-0.394 C -2.958,1.119 -2.535,0.453 -2.444,0.372 -2.454,0.29 -2.524,0.527 -2.585,0.474 -2.587,0.46 -2.587,0.448 -2.588,0.434 -2.602,0.436 -2.614,0.438 -2.628,0.438 -2.629,0.424 -2.629,0.414 -2.632,0.4 c 0.163,-0.019 0.599,-0.868 0.788,-1.014 0.444,-0.336 0.988,-1.006 1.553,-1.148 0.261,-0.067 0.328,-0.524 0.612,-0.564 0,-0.013 -0.001,-0.025 -0.002,-0.039 -0.043,0.005 -0.082,0.009 -0.123,0.012 0,-0.013 -0.002,-0.026 -0.003,-0.04 0.307,-0.029 0.665,-0.053 0.937,0.029 0.029,-0.002 0.055,-0.005 0.08,-0.008 0.003,0.027 0.007,0.055 0.007,0.08 -0.009,0.002 -0.025,0.002 -0.037,0.006 0.005,0.069 -0.107,0.02 -0.161,0.012 0,0.015 0.001,0.028 0.002,0.043 0.015,-0.002 0.027,-0.004 0.04,-0.004 0.005,0.041 0.378,0.018 0.452,0.014 0.385,-0.012 0.104,-0.118 0.437,-0.141 0.573,-0.043 1.073,0.044 1.488,0.244 0.255,0.123 0.293,0.409 0.551,0.519 -0.01,-0.083 0.07,0.031 0.144,0.006 0.162,-0.056 0.283,0.139 0.408,0.275 0.048,0.079 0.25,0.12 0.299,0.2 0.08,0.101 0.215,0.094 0.285,0.182 0,0 0.001,0 0.001,0 0,0 0,0 0,0 0.006,0.008 0.011,0.018 0.016,0.027 -0.004,0 -0.008,0 -0.012,0 0.047,0.393 0.263,0.436 0.409,0.784 0.052,-0.006 0.043,0.008 0.039,-0.045 0.094,0.004 0.186,0.008 0.285,0.011 C 5.878,0 5.816,0.143 5.743,0.268 5.75,0.333 5.824,0.336 5.876,0.377 5.928,0.371 5.913,0.358 5.922,0.414 5.934,0.411 5.945,0.409 5.959,0.409 5.959,0.42 5.954,0.432 5.949,0.446 5.922,0.544 5.959,0.653 5.959,0.769 5.938,0.921 6.026,0.872 6.007,1.02 6.002,1.184 5.997,1.342 5.997,1.504 5.997,1.527 6.012,1.546 6.013,1.573 6.026,1.57 5.888,1.552 5.902,1.549 5.902,1.568 6.302,1.67 6.351,1.7 6.311,1.691 6.268,1.683 6.225,1.673 c 0,0 -0.1,0.46 -0.109,0.534 C 5.981,2.22 5.958,2.276 5.974,2.355 5.98,2.353 5.983,2.352 5.986,2.351 5.982,2.365 5.985,2.38 5.984,2.395 5.994,2.427 6.008,2.461 6.022,2.498 6.014,2.499 6.005,2.499 5.997,2.5 6.016,2.576 6.044,2.654 6.024,2.723 5.91,3.132 5.597,3.499 5.489,3.901 5.457,4.098 5.422,4.296 5.389,4.495 5.332,4.558 5.273,4.618 5.214,4.678 4.992,4.934 5.055,5.038 4.654,5.063 4.649,5.024 4.869,4.727 4.896,4.637 4.974,4.628 4.874,4.558 4.844,4.522 4.934,4.513 4.926,4.381 4.945,4.309 4.945,4.296 4.943,4.284 4.942,4.269 4.915,4.274 4.888,4.276 4.861,4.279 4.879,4.474 4.43,4.971 4.312,5.15 4.241,5.277 4.17,5.401 4.098,5.527 4.081,5.526 4.061,5.526 4.047,5.525 4.054,5.609 3.936,5.587 3.901,5.65 3.868,5.751 3.835,5.85 3.804,5.95 3.805,5.978 3.809,6.005 3.812,6.031 3.799,6.032 3.784,6.032 3.771,6.033 3.769,6.021 3.768,6.009 3.766,5.996 3.708,6 3.7,5.969 3.677,5.924 3.52,5.938 3.12,6.189 2.981,6.274 2.991,6.26 3.004,6.243 3.018,6.229 3.016,6.215 3.014,6.203 3.014,6.189 2.82,6.208 2.579,6.266 2.405,6.208 1.892,6.26 1.535,6.232 1.167,5.915 1.081,5.843 0.999,5.765 1.019,5.634 1.075,5.208 2.222,5.354 2.525,5.354 2.523,5.323 2.52,5.298 2.518,5.271 2.495,5.272 2.5,4.755 2.496,4.628 2.647,4.615 2.659,4.594 2.767,4.481 2.768,4.495 2.77,4.51 2.77,4.522 2.785,4.521 2.798,4.519 2.811,4.519 2.814,4.531 2.814,4.544 2.816,4.558 2.848,4.555 2.846,4.606 2.849,4.659 2.879,4.634 2.91,4.611 2.94,4.587 2.945,4.637 2.956,4.625 2.903,4.632 2.908,4.68 2.89,4.677 2.851,4.677 2.853,4.707 2.859,4.735 2.875,4.753 2.88,4.818 2.897,4.795 2.953,4.794 3.296,4.787 3.226,4.318 3.039,4.336 2.985,4.34 3.076,4.046 3.082,3.969 3.137,3.962 3.191,3.957 3.244,3.952 3.245,3.965 3.248,3.98 3.248,3.993 3.318,3.984 3.292,4.053 3.301,4.108 3.355,4.466 3.589,4.501 3.909,4.531 3.897,4.412 4.045,4.312 4.092,4.214 4.122,4.108 4.154,4.011 4.186,3.907 4.241,3.793 4.293,3.679 4.344,3.563 4.392,3.559 4.383,3.433 4.45,3.392 4.45,3.379 4.448,3.366 4.446,3.353 4.512,3.344 4.552,2.585 4.393,2.465 4.392,2.436 4.391,2.409 4.387,2.383 4.45,2.377 4.435,2.313 4.437,2.258 4.439,1.988 4.481,1.584 4.312,1.41 4.31,1.441 4.267,1.504 4.214,1.574 4.059,1.488 3.999,1.323 3.901,1.184 3.724,0.937 3.545,0.699 3.367,0.456 3.286,0.315 3.061,0.234 2.979,0.094 2.977,0.08 2.975,0.069 2.975,0.055 3.226,0.03 4.03,0.947 4.122,1.147 4.136,1.147 4.151,1.142 4.164,1.142 4.136,0.868 3.602,0.315 3.618,0.11 3.61,0.044 3.586,0.071 3.533,0.077 3.529,0.037 3.447,0.044 3.39,0.038 3.415,0.026 3.434,0.006 3.406,0.007 3.405,0.001 3.372,0.008 3.338,0.016 3.336,0.003 3.335,-0.009 3.335,-0.02 3.32,-0.018 3.307,-0.018 3.294,-0.018 c 0.002,0.012 0.002,0.025 0.004,0.04 0.003,0 0.006,0 0.009,0 C 3.281,0.027 3.258,0.032 3.258,0.027 3.202,0.032 3.134,-0.018 3.089,-0.038 3.083,-0.085 3.126,-0.138 3.159,-0.166 3.143,-0.314 2.735,-0.41 2.627,-0.513 2.527,-0.604 2.347,-0.61 2.212,-0.672 2.059,-0.738 1.871,-0.78 1.692,-0.767 1.69,-0.782 1.687,-0.795 1.686,-0.807 1.589,-0.799 1.59,-0.995 1.514,-1.036 c -0.013,0 -0.027,0.002 -0.04,0.002 0.006,0.065 -0.101,0.035 -0.156,0.057 -0.326,0.031 -0.641,-0.109 -0.984,-0.064 0,-0.014 -0.002,-0.026 -0.002,-0.039 -0.129,0.011 -0.362,0.113 -0.455,0.046 -0.257,0.024 -0.253,0.677 -0.473,0.769 -0.009,-0.105 0.012,-0.232 0.052,-0.328 -0.028,0.005 -0.054,0.008 -0.083,0.01 0.005,0.053 0.018,0.039 -0.036,0.044 -0.004,-0.027 -0.006,-0.054 -0.008,-0.081 0.097,-0.007 0.158,-0.083 0.231,-0.144 -0.002,-0.012 -0.003,-0.026 -0.003,-0.037 -0.175,0.016 -0.657,0.168 -0.791,0.283 -0.293,0.252 -0.42,0.666 -0.712,0.918 -0.35,0.369 -0.489,0.756 -0.556,1.145 0.006,-0.028 0.015,-0.058 0.033,-0.095 0.097,-0.193 0.103,-0.24 0.209,-0.386 0.061,-0.12 0.097,-0.314 0.133,-0.392 0.136,-0.238 0.614,-0.689 0.835,-0.865 0,-0.014 0.026,-0.09 0.026,-0.107 0.01,0 0.038,0.046 0.06,0.076 -0.093,0.105 -0.203,0.285 -0.242,0.331 -0.379,0.457 -0.676,0.891 -0.907,1.42 -0.149,0.34 -0.065,0.646 -0.157,0.82 -0.113,0.259 0.017,0.889 -0.095,1.149 C -2.706,3.701 -2.611,3.77 -2.626,4.004 -2.748,4.016 -2.679,3.353 -2.67,3.23 c -0.028,0.004 -0.055,0.006 -0.081,0.008 0.005,0.06 -0.032,0.085 -0.071,0.128 10e-4,0.011 10e-4,0.026 0.006,0.039 C -2.843,3.407 -2.87,3.412 -2.897,3.413 -2.906,3.33 -2.891,3.238 -2.967,3.217 -3.021,2.665 -3.118,2.349 -3.045,1.853 -3.055,1.748 -2.958,1.615 -2.967,1.514 m 0.448,0.353 C -2.467,1.725 -2.513,1.668 -2.507,1.576 -2.529,1.714 -2.543,1.853 -2.554,1.991 -2.539,1.933 -2.526,1.887 -2.519,1.867 M 3.014,4.5 C 3.011,4.484 3.011,4.473 3.008,4.46 2.942,4.466 2.966,4.44 2.962,4.383 3.035,4.377 3.023,4.448 3.014,4.5 m 3.4,-2.159 C 6.395,2.287 6.376,2.237 6.358,2.184 6.439,2.189 6.52,2.192 6.602,2.2 6.603,2.213 6.605,2.225 6.606,2.238 6.531,2.247 6.475,2.31 6.414,2.341 M 4.779,4.688 C 4.785,4.756 4.742,4.813 4.716,4.858 4.724,4.815 4.732,4.774 4.744,4.732 4.742,4.719 4.742,4.707 4.737,4.693 4.752,4.689 4.765,4.688 4.779,4.688 M 4.203,2.087 C 4.188,2.063 4.171,2.036 4.154,2.011 4.151,1.986 4.15,1.959 4.147,1.931 4.218,1.925 4.203,2.033 4.203,2.087 m -14.278,-6.218 -0.168,0.494 -0.875,-10e-4 -0.01,-0.244 c 0,-0.444 -1.248,-2.904 -1.579,-3.295 l -0.256,-0.314 h 1.054 l -0.026,0.31 c 0,0.297 0.262,0.843 0.501,1.301 h 1.254 c 0.044,-0.106 0.661,-1.611 0.661,-1.611 h 0.88 l -0.202,0.351 c -0.529,0.925 -0.888,1.985 -1.234,3.009 m -1.171,-1.333 c 0.089,0.206 0.474,1.098 0.474,1.098 0.002,0.003 0.011,0.022 0.019,0.04 0.007,-0.014 0.014,-0.031 0.014,-0.031 0,0 0.316,-0.908 0.387,-1.107 z M -27.305,-5.62 c 0.119,-0.176 0.119,-0.456 0.119,-0.703 v -0.282 c 0,-0.169 -0.006,-0.344 -0.048,-0.51 -0.094,-0.008 -0.374,-0.03 -0.374,-0.03 -1.339,0 -1.62,0.903 -1.62,1.66 0,0.747 0.482,1.503 1.403,1.503 0.452,0 0.781,-0.116 1.174,-0.413 l 0.148,-0.112 v 0.893 l -0.347,0.028 -0.665,0.038 c -1.584,0 -2.529,-0.791 -2.529,-2.114 0,-1.256 0.775,-1.921 2.243,-1.921 0.459,0 0.962,0.035 1.311,0.093 l 0.084,0.014 -0.048,0.576 v 0.577 c 0,0.247 0,0.528 0.119,0.704 l 0.096,0.143 h -1.164 z m 10.342,-1.456 h -0.368 v 2.593 c 0,0.247 0,0.528 0.118,0.701 l 0.099,0.144 h -1.167 l 0.099,-0.144 c 0.118,-0.173 0.118,-0.454 0.118,-0.701 v -1.612 c 0,-0.491 -0.058,-1.091 -0.186,-1.244 l -0.125,-0.152 h 1.887 l 0.448,0.019 0.01,0.069 0.182,0.823 -0.215,-0.196 c -0.276,-0.25 -0.548,-0.3 -0.9,-0.3 m -6.369,2.973 -0.158,0.466 -0.876,-10e-4 -0.007,-0.245 c 0,-0.455 -1.24,-2.887 -1.582,-3.295 l -0.261,-0.313 h 1.062 l -0.028,0.31 c 0,0.29 0.249,0.815 0.501,1.301 h 1.25 c 0.045,-0.106 0.667,-1.611 0.667,-1.611 h 0.881 l -0.204,0.351 c -0.535,0.933 -0.896,2.002 -1.245,3.037 m -1.161,-1.361 c 0.089,0.206 0.475,1.098 0.475,1.098 0.001,0.003 0.01,0.024 0.019,0.044 0.007,-0.018 0.014,-0.034 0.014,-0.034 0,0 0.314,-0.909 0.382,-1.108 z m 4.446,-1.612 h -0.61 v 1.362 h 0.059 c 0.418,0 1.117,0 1.358,0.37 l 0.104,0.158 -0.19,-0.017 c -0.434,-0.038 -0.888,-0.039 -1.331,-0.039 v 1.19 h 0.474 c 0.282,0 0.633,-0.022 0.844,-0.194 l 0.163,-0.132 -0.042,0.74 h -2.387 l 0.098,-0.144 c 0.116,-0.173 0.116,-0.454 0.116,-0.701 v -2.161 c 0,-0.234 -0.015,-0.525 -0.134,-0.703 l -0.097,-0.144 h 1.933 l 0.496,0.02 0.166,0.011 0.177,0.855 -0.203,-0.168 c -0.301,-0.251 -0.708,-0.303 -0.994,-0.303 M 5.084,-4.099 4.928,-3.637 4.057,-3.638 4.043,-3.88 c 0,-0.457 -1.236,-2.89 -1.578,-3.298 L 2.202,-7.491 h 1.061 l -0.027,0.31 c 0,0.319 0.313,0.937 0.501,1.301 H 4.989 C 5.032,-5.986 5.653,-7.491 5.653,-7.491 H 6.534 L 6.331,-7.14 C 5.798,-6.206 5.435,-5.135 5.084,-4.099 M 3.923,-5.464 c 0.09,0.206 0.476,1.098 0.476,1.098 0.001,0.004 0.011,0.023 0.02,0.041 0.008,-0.017 0.016,-0.034 0.016,-0.034 0,0 0.314,-0.906 0.383,-1.105 z M -6.392,-6.963 c -0.451,0 -0.804,0.145 -1.049,0.431 -0.226,0.264 -0.346,0.638 -0.346,1.081 0,0.344 0.089,1.469 1.243,1.469 0.57,0 0.758,-0.235 0.901,-0.475 l 0.162,-0.272 0.028,0.316 0.025,0.819 -0.633,0.026 -0.478,0.02 c -1.254,0 -2.065,-0.81 -2.065,-2.064 -0.004,-0.575 0.191,-1.089 0.548,-1.449 0.339,-0.342 0.798,-0.522 1.328,-0.522 0.987,0 1.482,0.572 1.482,0.891 v 0.262 l -0.158,-0.165 c -0.108,-0.111 -0.418,-0.368 -0.988,-0.368 m 8.251,2.854 c 0.443,0 0.715,0.115 0.808,0.345 l 0.053,0.126 h -3.27 l -0.216,-0.738 0.218,0.156 c 0.128,0.092 0.243,0.111 0.377,0.111 h 0.72 v -2.535 c 0,-0.249 0,-0.531 -0.117,-0.703 L 0.335,-7.491 h 1.169 l -0.103,0.145 c -0.12,0.172 -0.12,0.454 -0.12,0.702 v 2.535 z m -3.073,0.331 0.084,0.14 h -1.153 l 0.081,-0.138 c 0.117,-0.201 0.126,-0.429 0.126,-0.707 v -0.731 h -1.618 v 0.731 c 0,0.267 0.01,0.505 0.128,0.707 l 0.081,0.138 h -1.154 l 0.082,-0.139 c 0.121,-0.205 0.131,-0.441 0.131,-0.706 v -2.161 c 0,-0.266 -0.01,-0.503 -0.131,-0.708 l -0.082,-0.139 h 1.154 l -0.082,0.139 c -0.118,0.202 -0.127,0.43 -0.127,0.708 v 1.016 h 1.618 v -1.016 c 0,-0.231 0,-0.492 -0.125,-0.708 l -0.082,-0.139 h 1.153 l -0.084,0.14 c -0.12,0.201 -0.13,0.429 -0.13,0.707 v 2.161 c 0,0.267 0.01,0.504 0.13,0.705 m -12.1,-0.331 c 0.443,0 0.717,0.115 0.813,0.343 l 0.054,0.128 h -3.273 l -0.218,-0.741 0.219,0.159 c 0.126,0.092 0.243,0.111 0.379,0.111 h 0.718 v -2.535 c 0,-0.249 0,-0.531 -0.118,-0.702 l -0.101,-0.145 h 1.168 l -0.099,0.144 c -0.119,0.172 -0.119,0.454 -0.119,0.703 v 2.535 z m -19.997,0.027 -0.151,0.445 -0.875,-10e-4 -0.006,-0.245 c 0,-0.454 -1.24,-2.887 -1.582,-3.295 l -0.261,-0.313 h 1.061 l -0.029,0.31 c 0,0.285 0.238,0.79 0.501,1.301 h 1.254 c 0.044,-0.106 0.665,-1.611 0.665,-1.611 h 0.88 l -0.205,0.351 c -0.537,0.939 -0.9,2.016 -1.252,3.058 m -1.155,-1.382 c 0.089,0.206 0.475,1.098 0.475,1.098 10e-4,0.002 0.011,0.022 0.02,0.04 0.007,-0.015 0.015,-0.032 0.015,-0.032 0,0 0.315,-0.907 0.384,-1.106 z m -2.593,1.689 c 0.066,-0.118 0.134,-0.293 0.134,-0.69 v -1.956 c -0.001,0.002 -1.218,1.624 -1.218,1.624 l -0.377,0.552 -0.331,0.483 c -0.1,0.124 -0.195,0.124 -0.315,0.124 h -0.849 l 0.17,-0.16 c 0.152,-0.142 0.164,-0.411 0.164,-0.697 V -5.72 c 0,-0.501 0,-1.187 -0.205,-1.641 l -0.058,-0.13 h 0.988 l -0.059,0.13 c -0.166,0.363 -0.176,0.854 -0.176,1.266 0,0.029 0.001,1.331 0.001,1.53 0.125,-0.169 2.195,-2.95 2.195,-2.95 h 0.574 l -0.008,0.235 -0.01,0.392 v 2.303 c 0,0.339 0.055,0.596 0.173,0.81 l 0.076,0.137 h -0.946 z"
           style="fill:#5a913a;fill-opacity:1;fill-rule:nonzero;stroke:none"
           id="path1552" />
      </g>
      <g
         id="g1554"
         transform="matrix(3.1754661,0,0,-3.1754661,179.39818,192.76148)">
        <path
           d="m 0,0 c -2.355,0 -4.337,1.688 -4.692,4.077 h 4.458 c 0.492,0 1.567,-0.104 1.567,-0.104 v 1.981 c 0,0 -1.054,-0.079 -1.643,-0.079 h -4.382 c 0.44,2.344 2.362,3.961 4.692,3.961 1.23,0 2.744,-0.565 2.744,-0.565 l 0.026,2.083 c 0,0 -1.075,0.41 -2.77,0.41 -3.921,0 -7.353,-3.007 -7.353,-6.837 0,-4.142 3.432,-6.94 7.353,-6.94 1.843,0 2.945,0.494 2.945,0.494 L 2.893,0.637 C 2.893,0.637 1.535,0 0,0"
           style="fill:#5a913a;fill-opacity:1;fill-rule:nonzero;stroke:none"
           id="path1556" />
      </g>
      <g
         id="g1558"
         transform="matrix(3.1754661,0,0,-3.1754661,137.02063,198.98697)">
        <path
           d="m 0,0 c 0,0 0.149,1 0.149,1.875 v 9.505 h -0.641 c -0.873,0 -2.225,0 -3.221,-0.098 L -3.799,13.49 H 6.608 L 6.557,11.282 C 5.527,11.38 4.201,11.38 3.302,11.38 H 2.512 V 1.875 C 2.512,1 2.686,0 2.686,0 Z"
           style="fill:#5a913a;fill-opacity:1;fill-rule:nonzero;stroke:none"
           id="path1560" />
      </g>
      <g
         id="g1562"
         transform="matrix(3.1754661,0,0,-3.1754661,188.25548,152.64799)">
        <path
           d="m 0,0 c -0.765,0.215 -1.767,0.364 -2.608,0.364 -2.284,0 -4.252,-0.695 -5.895,-2.161 l 0.024,1.622 c 1.741,1.188 3.715,1.721 5.871,1.721 0.946,0 1.767,-0.13 2.634,-0.356 z"
           style="fill:#5a913a;fill-opacity:1;fill-rule:nonzero;stroke:none"
           id="path1564" />
      </g>
      <g
         id="g1566"
         transform="matrix(3.1754661,0,0,-3.1754661,122.22423,193.11487)">
        <path
           d="m 0,0 -3.616,3.493 c 2.225,0.216 4.097,1.857 4.097,3.987 0,2.265 -1.302,4.271 -5.185,4.433 -0.162,0.007 -0.33,0.013 -0.505,0.013 -2.687,0 -4.53,-0.13 -4.53,-0.13 0,0 0.123,-1.33 0.123,-1.999 V 0 c 0,-0.902 -0.174,-1.849 -0.174,-1.849 h 2.711 c 0,0 -0.175,0.947 -0.175,2.026 v 3.985 l 2.55,-2.674 1.289,-1.338 c 0.794,-0.87 2.179,-1.999 2.179,-1.999 H 2.35 C 2.35,-1.849 0.745,-0.72 0,0 m -5.312,5.092 h -1.942 v 4.906 c 0,0 0.944,0.026 2.07,0.026 0.169,0 0.332,-0.013 0.48,-0.019 1.805,-0.15 2.55,-1.137 2.55,-2.324 0,-1.332 -1.048,-2.337 -2.55,-2.552 C -4.899,5.103 -5.106,5.092 -5.312,5.092"
           style="fill:#5a913a;fill-opacity:1;fill-rule:nonzero;stroke:none"
           id="path1568" />
      </g>
    </g>
  </g>
</svg>
