<?xml version="1.0" encoding="utf-8"?>
<!-- Generator: Adobe Illustrator 23.0.1, SVG Export Plug-In . SVG Version: 6.00 Build 0)  -->
<svg version="1.1" id="PRIMARY" xmlns="http://www.w3.org/2000/svg" xmlns:xlink="http://www.w3.org/1999/xlink" x="0px" y="0px"
	 width="1845.2px" height="500px" viewBox="0 0 1845.2 500" enable-background="new 0 0 1845.2 500" xml:space="preserve">
<g>
	
		<linearGradient id="Plinth_1_" gradientUnits="userSpaceOnUse" x1="994.1717" y1="-41.1026" x2="1694.8291" y2="371.6178" gradientTransform="matrix(1 0 0 -1 0 402.0022)">
		<stop  offset="0" style="stop-color:#8C00FF"/>
		<stop  offset="1" style="stop-color:#FF5E1D"/>
	</linearGradient>
	<path id="Plinth_12_" fill="url(#Plinth_1_)" d="M1811.9,0H832.1c-18.3,0-33.3,15-33.3,33.3v433.3c0,18.3,15,33.3,33.3,33.3h979.8
		c18.3,0,33.3-15,33.3-33.3V33.3C1845.2,15,1830.2,0,1811.9,0L1811.9,0z"/>
	
		<linearGradient id="p35_1_" gradientUnits="userSpaceOnUse" x1="1324.9661" y1="163.5323" x2="1316.2703" y2="412.5365" gradientTransform="matrix(1 0 0 -1 0 402.0022)">
		<stop  offset="0" style="stop-color:#FFFFFF"/>
		<stop  offset="1" style="stop-color:#FFFFFF;stop-opacity:0.25"/>
	</linearGradient>
	<path id="p35_8_" opacity="0.25" fill="url(#p35_1_)" enable-background="new    " d="M822.5,247.9h3.3
		c98.8-3.3,994.4-36.8,994.4-36.8c12.5-0.4,25-9.6,25-25.4V33.3c0-18.3-15-33.3-33.3-33.3H832.1c-18.3,0-33.3,15-33.3,33.3v240.8
		C798.8,271.3,799.2,250.4,822.5,247.9z"/>
	<path id="Sky_x5F_Logo_12_" fill="#8C00FF" d="M499.6,464.2c5.8,2.9,17.9,6.7,33.3,7.1c26.2,0.4,40.4-9.6,50.8-32.9l140-311.7
		c-5.8-2.9-18.8-6.7-29.2-6.7c-17.9-0.4-42.1,3.3-57.5,40l-45.4,106.7l-88.8-144.6c-5.8-1.7-20-4.2-30-4.2
		c-31.7,0-49.2,11.7-67.1,31.2l-86.7,94.2l69.6,109.2c12.9,20,29.6,30,57.1,30c17.9,0,32.9-4.2,40-7.5l-83.7-125.4l59.2-62.9
		l97.5,152.5C558.7,339.2,499.6,464.2,499.6,464.2z M315.8,346.2c0,22.9-9.2,36.2-54.2,36.2c-5.8,0-11.3-0.4-16.3-1.2v-305
		c0-23.3,7.9-47.5,53.3-47.5c5.8,0,11.7,0.4,17.1,1.7C315.8,30.4,315.8,346.3,315.8,346.2z M222.9,300c0,42.9-27.9,74.2-85,80.4
		c-41.2,4.6-101.2-0.8-129.6-4.2c-0.8-4.6-1.7-10.4-1.7-15c0-37.5,20-45.8,39.2-45.8c19.6,0,50.8,3.3,74.2,3.3
		c25.4,0,33.3-8.8,33.3-16.7c0-10.8-10-15-30-19.2l-54.2-10.4C24.2,264.2,0,232.9,0,200c0-40,28.3-73.8,84.2-79.6
		c42.1-4.6,93.8,0.4,122.1,4.2c0.8,4.6,1.7,9.6,1.7,14.6c0,37.5-19.6,45.4-38.8,45.4c-14.6,0-37.1-2.5-63.3-2.5s-37.1,7.1-37.1,16.2
		c0,9.6,10.4,13.3,27.1,16.2l51.7,9.6C200,232.9,222.9,262.9,222.9,300z"/>
	
		<linearGradient id="s35_1_" gradientUnits="userSpaceOnUse" x1="365.3427" y1="138.8062" x2="359.4927" y2="306.2688" gradientTransform="matrix(1 0 0 -1 0 402.0022)">
		<stop  offset="0" style="stop-color:#FFFFFF"/>
		<stop  offset="1" style="stop-color:#FFFFFF;stop-opacity:0.25"/>
	</linearGradient>
	<path id="s35_6_" opacity="0.25" fill="url(#s35_1_)" enable-background="new    " d="M723.8,126.7l-51.2,114.2
		c-1.7,2.9-7.1,12.9-21.3,13.3c-3.3,0-46.7,1.7-46.7,1.7c-8.3,0.4-11.2,8.3-11.2,8.3L637.5,160c15.4-36.7,39.6-40.4,57.5-40
		C705,120,717.9,123.3,723.8,126.7z M589.6,262.9l-86.7-140.8c-5.8-1.7-20-4.2-30-4.2c-31.7,0-49.2,11.7-67.1,31.2l-86.7,94.2
		l7.1,10.8c2.9,4.2,8.8,10.8,20.4,10.4c4.2,0,45.8-1.7,49.2-1.7c10.8-0.4,17.5,4.2,21.7,9.6l-15.4-23.3l59.2-62.9l40,62.5
		c7.1,9.6,17.9,9.6,20.4,9.6c2.1,0,54.2-2.1,56.7-2.1C582.1,256.3,586.2,258.3,589.6,262.9z M298.8,28.8
		c-45.4,0-52.9,24.2-52.9,47.5v209.2c0-8.3,6.7-17.1,17.1-17.5c7.5-0.4,28.8-0.8,35-1.3c7.1-0.4,17.5-5,17.9-17.9V30.4
		C310.4,29.6,304.6,28.8,298.8,28.8z M147.1,223.3l-51.7-9.6c-16.7-2.9-27.1-6.7-27.1-16.3c0-8.7,10.8-16.2,37.1-16.2
		c25.8,0,48.8,2.5,63.3,2.5c19.2,0,38.8-7.9,38.8-45.4c0-5-0.4-9.6-1.7-14.6c-28.3-3.3-79.6-8.8-122.1-4.2C28.3,126.2,0,160,0,200
		c0,20.4,9.2,40.4,27.5,54.6c13.8,8.7,27.5,12.5,41.7,15c11.7,2.1,37.9,3.8,57.9,2.9c6.2-0.4,51.7-1.7,61.7-2.1
		c22.9-0.8,35.8,18.8,34.2,38.8v-1.3c0.4-2.5,0.4-5,0.4-7.9C222.9,262.9,200,232.9,147.1,223.3z"/>
	<g>
		<path fill="#FFFFFF" d="M1652.5,250.9l87.7-112.7l-5.9-2c-2.9-1-6.5-2-10.5-2.6c-17-3-28.7,0.4-34.6,9.6l-57.1,74.7l-55.8-74.9
			c-4.6-6.8-12.8-10.2-24.1-10.2c-3.8,0-7.8,0.4-12,1.4c-4,0.8-7.6,1.8-10.5,2.8l-5.7,2l83.1,111.9l-89.2,116.7l5.9,2
			c2.9,1,6.1,2,9.7,2.8c3.8,0.8,7.6,1.4,11.3,1.4c11.5,0,19.5-3.4,24.1-10.2l60.2-84.8l61.7,84.6c4.6,6.8,13,10.2,24.5,10.2
			c3.8,0,7.8-0.4,12-1.4c4.2-0.8,7.8-1.8,10.7-2.8l5.9-2"/>
		<path id="XMLID_26_" fill="#FFFFFF" d="M1233.7,215.8v141.7c0,10-5.4,15.4-21.7,15.4c-6.7,0-14.6-0.8-18.8-2.1v-150
			c0-34.2-16.3-54.6-47.1-54.6c-25.8,0-47.5,18.3-56.2,36.7v154.6c0,10-5.4,15.4-21.7,15.4c-6.7,0-14.6-0.8-18.8-2.1v-150
			c0-34.2-16.2-54.6-47.1-54.6c-25.8,0-47.5,18.3-56.2,36.7v154.6c0,10-5.4,15.4-21.7,15.4c-6.7,0-14.6-0.8-18.8-2.1V135
			c3.8-0.8,11.7-2.1,19.2-2.1c15.4,0,20.4,5.8,20.4,16.2v16.3c15.4-20,38.7-35,67.1-35c31.2,0,55.8,15.8,68.3,42.5
			c16.3-24.6,40.8-42.5,75.4-42.5C1207.4,130.4,1233.7,168.3,1233.7,215.8L1233.7,215.8z"/>
		<path id="XMLID_13_" fill="#FFFFFF" d="M1484.2,220v151.2c-3.8,0.8-11.3,2.1-18.3,2.1c-14.6,0-21.7-5.4-21.7-15.4v-20.4
			c-21.2,24.2-48.8,38.3-83.3,38.3c-52.5,0-81.7-34.2-81.7-71.7c0-57.1,60.8-82.1,164.6-75v-8.3c0-38.7-11.7-55-56.2-55
			c-18.8,0-43.8,5.4-57.1,8.8c-7.9,2.1-13.8,3.8-18.8,3.8c-11.2,0-18.8-10-14.6-30.4c24.2-8.8,58.8-17.1,92.1-17.1
			C1458.8,130.4,1484.2,161.7,1484.2,220L1484.2,220z M1444.2,302.5v-45c-67.9-5-124.2,3.8-124.2,44.6c0,20.4,17.1,39.2,47.9,39.2
			C1399.6,341.7,1427.1,325.8,1444.2,302.5z"/>
	</g>
</g>
</svg>
