<?xml version="1.0" encoding="utf-8"?>
<!-- Generator: Adobe Illustrator 23.0.1, SVG Export Plug-In . SVG Version: 6.00 Build 0)  -->
<svg version="1.1" id="PRIMARY" xmlns:svg="http://www.w3.org/2000/svg"
	 xmlns="http://www.w3.org/2000/svg" xmlns:xlink="http://www.w3.org/1999/xlink" x="0px" y="0px" width="1526.8px" height="250px"
	 viewBox="0 0 1526.8 250" enable-background="new 0 0 1526.8 250" xml:space="preserve">
<g id="g10948" transform="translate(0.99491237,-1)">
	<path id="path1682" fill="#EFEFEF" d="M1509.2,1.1H415c-9.2,0-16.7,7.4-16.7,16.7v216.7c0,9.2,7.5,16.6,16.7,16.6h1094.2
		c9.2,0,16.7-7.4,16.7-16.6V17.7C1525.8,8.5,1518.3,1.1,1509.2,1.1"/>
	<g id="g10967">
		<path id="path152398" fill="url(#path7615_1_)" enable-background="new    " d="M 406.6158,234.36846 V 17.70664 C 406.6158,13.125498 410.3504,9.4157683 414.93151,9.4157683 L 1509.2182,9.4157683 C 1513.7994,9.4157683 1517.5091,13.125498 1517.5091,17.70664 V 234.39336 C 1517.5091,238.97451 1513.7994,242.70913 1509.2182,242.70913 L 414.90661,242.70913 C 410.3504,242.68423 406.6158,238.94961 406.6158,234.36846 M 414.90661,1.1 C 405.7444,1.1 398.3,8.544356 398.3,17.70664 V 234.39336 C 398.3,243.55565 405.7195,251 414.90661,251 L 1509.1933,251 C 1518.3556,251 1525.8,243.58054 1525.8,234.39336 V 17.70664 C 1525.8,8.544356 1518.3556,1.1 1509.1933,1.1 Z"/>
		
			<linearGradient id="path15161_1_" gradientUnits="userSpaceOnUse" x1="17.9186" y1="331.6346" x2="289.4302" y2="331.6346" gradientTransform="matrix(3.7813 0 0 -3.7813 390.9654 1380.7911)">
			<stop  offset="0" style="stop-color:#FF9E00"/>
			<stop  offset="0.3" style="stop-color:#FF0000"/>
			<stop  offset="0.6" style="stop-color:#B5007D"/>
			<stop  offset="0.815" style="stop-color:#21429C"/>
			<stop  offset="1" style="stop-color:#0071FF"/>
		</linearGradient>
		<path id="path15161" fill="url(#path15161_1_)" d="M1382.6,118.8h72.4c-0.8-20.1-13.7-35.7-34.6-35.7
			C1402.1,82.9,1385.7,95.6,1382.6,118.8 M1473.7,134.4h-91.2c2.6,22.7,18.5,35.4,41.8,35.4c10,0,18-1.8,25.4-4.5
			c5-1.6,7.4-2.4,9.2-2.4c5.5,0,9.2,4.8,8.5,15.3c-10.6,4.8-26.7,9.8-43.6,9.8c-36.7,0-61.6-24.8-61.6-61.6
			c0-35.4,26.2-60.8,58.4-60.8c36.2,0,54.2,28.3,54.2,56.6C1474.5,126.2,1474.3,130.2,1473.7,134.4"/>
		
			<linearGradient id="path15165_1_" gradientUnits="userSpaceOnUse" x1="17.9186" y1="331.5486" x2="289.4302" y2="331.5486" gradientTransform="matrix(3.7813 0 0 -3.7813 390.9654 1380.7911)">
			<stop  offset="0" style="stop-color:#FF9E00"/>
			<stop  offset="0.3" style="stop-color:#FF0000"/>
			<stop  offset="0.6" style="stop-color:#B5007D"/>
			<stop  offset="0.815" style="stop-color:#21429C"/>
			<stop  offset="1" style="stop-color:#0071FF"/>
		</linearGradient>
		<path id="path15165" fill="url(#path15165_1_)" d="M1249.5,180c-1.6-10.3,1.6-15.6,7.7-15.6c5.5,0,19.3,6.1,38.6,6.1
			c20.1,0,27.7-7.1,27.7-16.4c0-6.6-2.9-12.4-21.1-17.4l-20.9-5.5c-23-6.1-32.2-17.7-32.2-32c0-17.7,14-33.3,45.7-33.3
			c14.3,0,32,3.2,42.5,7.4c1.8,10-1.3,15.3-7.4,15.3c-5.3,0-17.7-5-35.1-5c-18.5,0-25.4,6.3-25.4,14.8c0,5.8,2.6,11.4,19.3,15.9
			l21.4,5.8c23.8,6.6,33.3,17.7,33.3,33.3c0,18.5-14.3,34.9-48.6,34.9C1279.9,187.9,1261.1,184.2,1249.5,180"/>
		
			<linearGradient id="path15149_1_" gradientUnits="userSpaceOnUse" x1="17.9186" y1="331.5288" x2="289.4302" y2="331.5288" gradientTransform="matrix(3.7813 0 0 -3.7813 390.9654 1380.7911)">
			<stop  offset="0" style="stop-color:#FF9E00"/>
			<stop  offset="0.3" style="stop-color:#FF0000"/>
			<stop  offset="0.6" style="stop-color:#B5007D"/>
			<stop  offset="0.815" style="stop-color:#21429C"/>
			<stop  offset="1" style="stop-color:#0071FF"/>
		</linearGradient>
		<path id="path15149" fill="url(#path15149_1_)" d="M1202.7,151.9v-22.2c-33.8-2.4-62.1,1.8-62.1,22.2c0,10.3,8.5,19.6,24,19.6
			C1180.2,171.4,1193.9,163.5,1202.7,151.9 M1222.8,110.6v75.6c-1.8,0.5-5.5,1.1-9,1.1c-7.4,0-10.8-2.6-10.8-7.7v-10.3
			c-10.6,11.9-24.3,19-41.8,19c-26.2,0-40.7-17.2-40.7-35.7c0-28.5,30.4-41,82.2-37.5v-4.2c0-19.3-5.8-27.5-28.3-27.5
			c-9.2,0-21.9,2.6-28.5,4.5c-4,1.1-6.9,1.8-9.2,1.8c-5.5,0-9.2-5-7.4-15.1c11.9-4.5,29.3-8.5,46-8.5
			C1210.1,65.9,1222.8,81.6,1222.8,110.6"/>
		
			<linearGradient id="path15125_1_" gradientUnits="userSpaceOnUse" x1="17.9186" y1="331.5499" x2="289.4302" y2="331.5499" gradientTransform="matrix(3.7813 0 0 -3.7813 390.9654 1380.7911)">
			<stop  offset="0" style="stop-color:#FF9E00"/>
			<stop  offset="0.3" style="stop-color:#FF0000"/>
			<stop  offset="0.6" style="stop-color:#B5007D"/>
			<stop  offset="0.815" style="stop-color:#21429C"/>
			<stop  offset="1" style="stop-color:#0071FF"/>
		</linearGradient>
		<path id="path15125" fill="url(#path15125_1_)" d="M1000.1,127.2c0-35.1,25.6-61,59.7-61c15.9,0,30.7,4.5,41,9.2
			c1.6,11.1-1.6,15.3-6.6,15.3c-8.5,0-15.9-7.1-33.6-7.1c-21.9,0-40.2,16.4-40.2,43.3c0,26.7,18.2,43.3,40.2,43.3
			c17.7,0,25.1-7.4,32.8-7.4c5,0,8.7,4.8,7.4,15.6c-10.3,5-25.1,9.5-41,9.5C1025.9,188.6,1000.1,162.2,1000.1,127.2"/>
		
			<linearGradient id="path10663_1_" gradientUnits="userSpaceOnUse" x1="17.9186" y1="331.5122" x2="289.4302" y2="331.5122" gradientTransform="matrix(3.7813 0 0 -3.7813 390.9654 1380.7911)">
			<stop  offset="0" style="stop-color:#FF9E00"/>
			<stop  offset="0.3" style="stop-color:#FF0000"/>
			<stop  offset="0.6" style="stop-color:#B5007D"/>
			<stop  offset="0.815" style="stop-color:#21429C"/>
			<stop  offset="1" style="stop-color:#0071FF"/>
		</linearGradient>
		<path id="path10663" fill="url(#path10663_1_)" d="M835.5,74.2l23.6,91L888.4,70c1.9-0.9,3.9-1.6,5.9-2.1s4.3-0.7,6.6-0.7
			c3.2,0,5.7,0.4,7.5,1.1c1.9,0.7,3.3,1.8,4.3,3.2c1,1.4,1.8,3.1,2.4,5.1l26.7,88.4l22.9-91c0.5-2,1.2-3.5,2.2-4.5
			c1.1-1,2.3-1.6,3.7-1.9c1.4-0.3,2.8-0.5,4.2-0.5c2.4,0,4.6,0.3,6.6,0.8c2,0.5,3.9,1.2,5.8,2.1l-30.9,107.9
			c-0.8,2.7-1.9,4.7-3.3,6.1c-1.4,1.3-3,2.1-5,2.5c-1.9,0.4-4,0.6-6.4,0.6c-2.1,0-4.1-0.2-6.2-0.5c-2-0.3-3.8-0.7-5.5-1.3
			l-29.6-95.2l-27.8,87.8c-0.5,1.7-1.2,3.2-2.2,4.6c-0.9,1.4-2.3,2.5-4.2,3.3c-1.8,0.8-4.5,1.3-7.9,1.3c-2.3,0-4.5-0.2-6.5-0.5
			c-2.1-0.3-4-0.7-5.8-1.3L812.7,70.1c1.7-0.8,3.6-1.4,5.8-1.9c2.2-0.6,4.6-0.9,7.1-0.9c1.7,0,3.3,0.2,4.6,0.6
			c1.3,0.4,2.4,1.1,3.3,2.2C834.4,71,835.1,72.4,835.5,74.2z"/>
		
			<linearGradient id="path15121_1_" gradientUnits="userSpaceOnUse" x1="17.9186" y1="331.542" x2="289.4302" y2="331.542" gradientTransform="matrix(3.7813 0 0 -3.7813 390.9654 1380.7911)">
			<stop  offset="0" style="stop-color:#FF9E00"/>
			<stop  offset="0.3" style="stop-color:#FF0000"/>
			<stop  offset="0.6" style="stop-color:#B5007D"/>
			<stop  offset="0.815" style="stop-color:#21429C"/>
			<stop  offset="1" style="stop-color:#0071FF"/>
		</linearGradient>
		<path id="path15121" fill="url(#path15121_1_)" d="M784.2,127c0-27-18.2-43.3-40.2-43.3C722,83.7,704,100.1,704,127
			c0,26.7,18.2,43.6,39.9,43.6C765.9,170.6,784.2,153.7,784.2,127 M683.4,127c0-35.1,25.6-61,60.3-61c34.9,0,60.5,25.9,60.5,61
			c0,34.9-25.6,61.3-60.5,61.3C709.3,188.3,683.4,161.9,683.4,127"/>
		
			<linearGradient id="path10659_1_" gradientUnits="userSpaceOnUse" x1="17.9186" y1="336.9561" x2="289.4302" y2="336.9561" gradientTransform="matrix(3.7813 0 0 -3.7813 390.9654 1380.7911)">
			<stop  offset="0" style="stop-color:#FF9E00"/>
			<stop  offset="0.3" style="stop-color:#FF0000"/>
			<stop  offset="0.6" style="stop-color:#B5007D"/>
			<stop  offset="0.815" style="stop-color:#21429C"/>
			<stop  offset="1" style="stop-color:#0071FF"/>
		</linearGradient>
		<path id="path10659" fill="url(#path10659_1_)" d="M560.7,33.4c0-2.4,0.8-4.2,2.5-5.5c1.7-1.3,4.5-1.9,8.3-1.9
			c2.5,0,5.5,0.3,8.9,1v58c2.2-2.6,4.6-5,7.2-7.2c2.7-2.3,5.6-4.3,8.8-6.1c3.3-1.8,6.8-3.1,10.6-4.1c3.9-1.1,8.1-1.6,12.7-1.6
			c6,0,11.6,1,16.9,3c5.3,2,10,5,14,8.9c4,4,7.2,9,9.5,15c2.3,6,3.4,13.1,3.4,21.3v66c0,2.1-0.6,3.8-1.9,5c-1.3,1.2-3.4,1.9-6.4,2.2
			c-2.9,0.2-6.7,0-11.4-0.8v-68c0-7.5-1.2-13.9-3.7-19c-2.4-5.1-5.7-9-10-11.5s-9.4-3.9-15.3-3.9c-3.7,0-7.8,0.8-12.3,2.5
			c-4.5,1.6-8.7,4-12.7,7.1c-3.9,3.1-7,6.9-9.4,11.4v75c0,2.1-0.6,3.8-1.9,5c-1.3,1.2-3.4,1.9-6.4,2.2c-2.9,0.2-6.7,0-11.4-0.8V33.4
			z"/>
		
			<linearGradient id="path7615_1_" gradientUnits="userSpaceOnUse" x1="17.9186" y1="331.5486" x2="289.4302" y2="331.5486" gradientTransform="matrix(3.7813 0 0 -3.7813 390.9654 1380.7911)">
			<stop  offset="0" style="stop-color:#FF9E00"/>
			<stop  offset="0.3" style="stop-color:#FF0000"/>
			<stop  offset="0.6" style="stop-color:#B5007D"/>
			<stop  offset="0.815" style="stop-color:#21429C"/>
			<stop  offset="1" style="stop-color:#0071FF"/>
		</linearGradient>
		<path id="path7615" fill="url(#path7615_1_)" d="M446.6,180c-1.6-10.3,1.6-15.6,7.7-15.6c5.5,0,19.3,6.1,38.6,6.1
			c20.1,0,27.7-7.1,27.7-16.4c0-6.6-2.9-12.4-21.1-17.4l-20.9-5.5c-23-6.1-32.2-17.7-32.2-32c0-17.7,14-33.3,45.7-33.3
			c14.3,0,32,3.2,42.5,7.4c1.8,10-1.3,15.3-7.4,15.3c-5.3,0-17.7-5-35.1-5c-18.5,0-25.4,6.3-25.4,14.8c0,5.8,2.6,11.4,19.3,15.9
			l21.4,5.8c23.8,6.6,33.3,17.7,33.3,33.3c0,18.5-14.3,34.9-48.6,34.9C477,187.9,458.2,184.2,446.6,180"/>
	</g>
	
		<linearGradient id="path15555_2_" gradientUnits="userSpaceOnUse" x1="923.9538" y1="251.7611" x2="931.2642" y2="251.7611" gradientTransform="matrix(-0.5941 -17.0139 17.0139 -0.5941 -2771.3633 15979.2627)">
		<stop  offset="0" style="stop-color:#FFFFFF"/>
		<stop  offset="0.5" style="stop-color:#FFFFFF;stop-opacity:0.4"/>
		<stop  offset="1" style="stop-color:#FFFFFF;stop-opacity:0.25"/>
	</linearGradient>
	<path id="path15555_1_" opacity="0.5" fill="url(#path15555_2_)" enable-background="new    " d="M415,1.1
		c-9.2,0-16.7,7.5-16.7,16.7l0,0v120.2c0-1.8,0.7-11.7,12-12.8l0,0c0.5-0.1,1-0.1,1.6-0.1l0,0c49.3-1.7,1101.5-38.5,1101.5-38.5l0,0
		c6.3-0.2,12.4-4.9,12.4-12.7c0,0,0-35.9,0-56.1c0-9.3-7.5-16.7-16.7-16.7L415,1.1z"/>
	<path id="path1692" fill="url(#path7615_1_)" d="M248.8,233.1c3,1.5,9.1,3.3,16.6,3.6c13.1,0.3,20.2-4.7,25.5-16.4l70-155.9
		c-2.9-1.5-9.3-3.2-14.5-3.4c-9-0.2-21.1,1.6-28.8,20l-22.7,53.4L250.5,62c-2.9-0.8-9.9-2.1-15-2.1c-15.8,0-24.5,5.7-33.6,15.6
		l-43.2,47.2l34.8,54.6c6.5,10,14.9,15.1,28.6,15.1c9.1,0,16.5-2.1,19.9-3.8l-41.9-63l29.7-31.5l48.7,76.4L248.8,233.1z
		 M156.9,174.1c0,11.5-4.5,18.1-27,18.1c-3,0-5.5-0.2-8-0.6V39.2c0-11.6,4-23.7,26.6-23.7c2.9,0,5.8,0.3,8.4,0.9V174.1z
		 M110.6,151.1c0,21.5-14.1,37.1-42.6,40.1c-20.7,2.2-50.5-0.3-64.8-2c-0.5-2.3-0.8-5.1-0.8-7.5c0-18.7,10.1-23,19.6-23
		c9.9,0,25.5,1.8,37,1.8c12.8,0,16.6-4.3,16.6-8.4c0-5.4-5.1-7.6-15-9.5l-27.1-5.1C11,133-1,117.5-1,101c0-20.1,14.2-36.8,42.2-39.9
		c21.1-2.3,46.9,0.3,61,2c0.5,2.4,0.8,4.7,0.8,7.2c0,18.7-9.8,22.7-19.4,22.7c-7.3,0-18.7-1.3-31.6-1.3c-13.2,0-18.7,3.7-18.7,8.1
		c0,4.7,5.2,6.7,13.5,8l25.8,4.8C99.1,117.5,110.6,132.6,110.6,151.1"/>
	
		<linearGradient id="path15297-4_2_" gradientUnits="userSpaceOnUse" x1="886.2481" y1="206.9293" x2="893.5585" y2="206.9293" gradientTransform="matrix(-0.3996 -11.4418 11.4418 -0.3996 -1831.8837 10355.6572)">
		<stop  offset="0" style="stop-color:#FFFFFF"/>
		<stop  offset="0.5" style="stop-color:#FFFFFF;stop-opacity:0.4"/>
		<stop  offset="1" style="stop-color:#FFFFFF;stop-opacity:0.25"/>
	</linearGradient>
	<path id="path15297-4_1_" opacity="0.5" fill="url(#path15297-4_2_)" enable-background="new    " d="M121.9,39.2v104.5
		c0-4.8,3.8-8.7,8.6-8.8l0,0c3.8-0.1,14.4-0.5,17.6-0.6l0,0c3.5-0.1,8.8-2.5,8.9-8.9l0,0v-109c-2.8-0.6-5.6-0.9-8.5-0.9l0,0
		C125.8,15.6,121.9,27.5,121.9,39.2 M201.9,75.6l-43.2,47.2l3.5,5.4c1.5,2,4.4,5.4,10.2,5.2l0,0c2.1-0.1,22.9-0.8,24.6-0.9l0,0
		c5.4-0.2,8.8,2.1,10.9,4.9l0,0l-7.7-11.6l29.7-31.5l19.9,31.3l0,0c3.6,4.7,9,4.8,10.2,4.8l0,0c1,0,27.2-0.9,28.3-1l0,0
		c1.8-0.1,3.9,0.9,5.5,3.2l0,0l-43.3-70.4c-2.9-0.9-9.9-2.1-15-2.1l0,0C219.7,60,211,65.7,201.9,75.6 M41.2,61
		C13.2,64.2-1,80.8-1,100.9l0,0c0,10.3,4.7,20.2,13.7,27.3l0,0c6.8,4.5,13.8,6.2,20.7,7.4l0,0c5.7,1,19,1.9,28.9,1.5l0,0
		c3.1-0.1,25.9-0.9,30.8-1.1l0,0c11.6-0.4,17.8,9.5,17.2,19.4l0,0v-0.4l0,0v-0.1l0,0c0.1-1.3,0.2-2.6,0.2-3.9l0,0
		c0-18.5-11.4-33.6-37.9-38.5l0,0l-25.8-4.8c-8.3-1.4-13.4-3.4-13.4-8.1l0,0c0-4.4,5.5-8.1,18.6-8.1l0,0c13,0,24.3,1.3,31.6,1.3l0,0
		c9.5,0,19.4-4,19.4-22.7l0,0c0-2.4-0.3-4.8-0.8-7.2l0,0C92.1,61.8,75.9,60,59.8,60l0,0C53.5,60.2,47.2,60.5,41.2,61 M317.5,80.9
		l-22.1,52.1l0,0c0-0.1,1.4-4.1,5.7-4.3l0,0c0,0,21.8-0.8,23.4-0.8l0,0c7.1-0.3,9.9-5.1,10.7-6.7l0,0l25.6-57.1
		c-2.9-1.5-9.3-3.3-14.5-3.4h-1.1C336.3,60.8,324.9,63.2,317.5,80.9"/>
		
</g>
</svg>
