<?xml version="1.0" encoding="utf-8"?>
<!-- Generator: Adobe Illustrator 25.0.1, SVG Export Plug-In . SVG Version: 6.00 Build 0)  -->
<svg version="1.1" id="Livello_1" xmlns="http://www.w3.org/2000/svg" xmlns:xlink="http://www.w3.org/1999/xlink" x="0px" y="0px"
	 viewBox="0 0 2108.7 250" style="enable-background:new 0 0 2108.7 250;" xml:space="preserve">
<style type="text/css">
	.st0{fill:#9B001F;}
	.st1{fill:#FFFFFF;}
	.st2{fill:#FF0031;}
	.st3{fill:url(#path15335_2_);}
	.st4{opacity:0.3;fill:url(#path15297-4_2_);enable-background:new    ;}
	.st5{opacity:0.3;fill:url(#path15555_2_);enable-background:new    ;}
</style>
<path class="st0" d="M2092.1,0.1H1075c-9.2,0-16.6,7.4-16.6,16.6v216.6c0,9.2,7.4,16.6,16.6,16.6l0,0h1017.1
	c9.2,0,16.6-7.4,16.6-16.6V16.7C2108.7,7.6,2101.3,0.1,2092.1,0.1 M2092.1,5.1c6.4,0,11.6,5.2,11.6,11.6v216.6
	c0,6.4-5.2,11.6-11.6,11.6l0,0l0,0H1075c-6.4,0-11.6-5.2-11.6-11.6V16.7c0-6.4,5.2-11.6,11.6-11.6l0,0L2092.1,5.1"/>
<path class="st1" d="M2092.1,5.1c6.4,0,11.6,5.2,11.6,11.6v216.6c0,6.4-5.2,11.6-11.6,11.6l0,0l0,0H1075c-6.4,0-11.6-5.2-11.6-11.6
	V16.7c0-6.4,5.2-11.6,11.6-11.6l0,0l0,0L2092.1,5.1"/>
<path class="st0" d="M1701.5,171.1c0,0-1.4,4-2.4,6.9c-1.7,5.3-5.5,19.6-6.3,24c-1.2,6.6-5,23.9-5.2,24.3c-0.2,0.5-0.4,0.6-1.1,1.1
	c-1.5,0.9-2.1,0.6-4-0.4c-2.5-1.1-4.6-2.8-6.3-5c-3.6-4.7-2.7-13.5-2-18.7c2.5-18.1,5-26,11.9-44c0.1-0.2,0.1-0.4,0-0.6
	c-2.1-4.6-3.2-9.5-3.3-14.5c0-14.1,8.2-28,17.2-39.3c0.7-0.9,5.2-6.2,7.2-6.1s2.4,2.5,2.1,4.5c-1,6.6-5.6,13.1-8.8,18.6
	c-2.6,4.5-4.7,9.2-6.1,14.2c-0.2,0.9-1,5-1,5.6c0.1,1.5,0.4,3.5,0.4,3.5s5.7-8.1,9.5-13c2.1-2.7,3.6-4.5,5.3-6.4s8.4-8.9,10.4-10.8
	c4.1-3.8,5.8-5.5,10.3-7.8c3.5-1.9,6.6-2.2,10,0c5.3,3.6,7.7,11,8.3,17.1c0.7,7.5-0.7,15-4,21.7c-3.7,7.2-9.2,13.2-16,17.5
	c-7.2,4.8-15.6,8.1-23.9,7.8C1702.9,171.1,1702.2,171.1,1701.5,171.1 M1734.9,119.3c-4.2,3.6-9.7,10.8-12.3,14.5
	c-3.5,5-6.7,10.7-9.9,15c-0.6,1-2.7,4.6-2.6,4.6c0.1,0.2,2.2,0.1,4.2-0.1c4.5-0.7,10.5-3.8,13.7-6.4c4.9-4,8.4-9.5,9.9-15.7
	c0.7-2.8,1.1-8.9-1-11.6C1736.8,119.1,1735.7,118.7,1734.9,119.3 M1631.5,164.8c-0.7-0.6-1.3-1.2-1.9-1.9c-0.1-0.1-1.7-2.6-2.1-3.3
	c-0.2-0.6-0.5-1.1-0.7-1.7c-1.4-3.8-1.6-8-0.6-12c0.7-4,1.5-4.1,3.5-9.5c0.1-0.3,0.2-0.6,0.2-0.9c0.1-0.7-1.1-5.7-1.2-7.3
	c-0.1-2.5,1.9-4.2,5-4.5c0.2,0,0.5,0,0.7-0.1c1.2-0.2,2.1-2.7,2.7-4.7c1-2.7,2.5-6.9,2.5-6.9s-4-0.9-6.2-1.7
	c-2.2-0.7-4.1-2.2-5.3-4.2c-1.2-2.6-0.5-4,2.2-4.8c3.7-0.9,7.4-1.6,11.1-2.1c3.1-0.5,5.9-0.9,8.8-1.2c2.5-0.2,14.1-1.6,17.8-1.6
	c5.6,0.1,9.3,2.5,12.6,7.3c1.7,2.6,3,5.6,0.2,7.2c-4.1,2.5-17.3,2.7-19.8,2.7h-9.3l-2.7,9c0,0,9.5-0.1,14.9-0.1
	c1.1,0,2.2,0.1,3.3,0.2c2.7,0.6,3.7,2.7,3.8,5.7c0.1,3.6-0.5,5.2-3.3,5.7c-1.5,0.2-17.8,0.4-20.1,0.6c-0.9,0.1-1.9,0.2-2.8,0.4
	c0,0-1.2,3.1-2.2,6.2c-1,3.2-2,6.6-2,6.6h1.5c1.1,0,2.2-0.1,3.2-0.4c5-0.9,12.4-2,18.5-3c3.2-0.5,5-0.7,6.7,1.4
	c1.4,1.6,2.2,3.7,2.4,5.8c0.1,2.2-1.6,3.6-3.6,5.2c-6.4,5-17.5,10.3-25.6,11.1c-3.8,0.4-4.7,0-8.1-0.9c-0.6-0.1-3-1.2-2.8-1.4
	C1632.3,165.4,1631.9,165.1,1631.5,164.8L1631.5,164.8z M1567.6,165.9c-4.6-1.7-5.7-9.2-5.9-13c-0.7-12.3,2.5-29.5,6.7-41
	c1.2-3.3,2.8-8.7,6.6-8.3c2.5,0.2,4.3,2.2,5.7,4.2c3.6,5.1,8.4,12,11.5,16.8c3.6,5.5,6.9,10.9,10.3,15.9c0.3,0.6,0.7,1.1,1.2,1.5
	c0.6,0.5,1.1,0.5,1.4,0.1c0.1-0.1-0.1-6.4-0.2-7.7c-0.2-2-0.4-3.6-0.6-5.3c-0.8-5.6-2-11.2-3.5-16.7c-1.4-5.3-3.1-10.8-4.3-16
	c-0.4-1.6-0.7-3.3-0.7-5c0-2.4,1.5-3.6,3.8-2.7c4.7,1.6,10.9,11.9,12.8,15.5c0.6,1.2,3.1,7.3,3.6,9c2,5.8,3.2,11.7,3.7,17.8
	c0.5,6.2,0.1,15.2-2.6,21.3c-1.2,2.5-2.7,4.8-4.6,6.8c-2.6,2.4-7.7,4.2-11.3,2.2c-3.8-2.2-10.3-13.3-11.3-15.1
	c-3.7-6.4-10-19.1-11-20.4c-0.2-0.4-0.6-0.7-1-0.7c-0.4-0.1-0.5,0.6-0.6,1.1c-0.6,3.7-1.1,20.8-1.1,21.3c-0.1,2.8-0.2,10-1.1,13.5
	c-0.5,2.2-1.1,4.2-3.2,5.1C1570.5,166.9,1569.4,166.5,1567.6,165.9 M1531.8,123c0.2,0,0.5,0,0.7,0.1c5.2,0.7,10.4,1.6,14.2,3.5
	c3.4,1.4,6.2,4,7.7,7.3c3,6,3.2,13,0.5,19.1c-2,4.3-6.4,7.9-10.4,9.9c-4.1,1.9-8.5,3.1-13,3.5c-8.4,0.8-16.9-0.6-24.5-4.3
	c-4.3-2.1-9.8-5.8-12.4-10.5c-2.1-3.5-1.9-8,0.5-11.3c3.8-5.3,12.1-6.4,18.3-6.2c6,0.3,12,1.4,17.7,3.2c1.2,0.5,5.8,2.2,6.7,3.1
	c0.7,0.5,0.9,1.4,0.6,2.2c-1,3.1-8.7,4.8-10.9,5.1c-5.9,0.9-8.9-1.4-15.7-4c-1.8-0.8-3.7-1.3-5.6-1.5c-3.1-0.2-6.7,0.5-7.3,3.8
	c-0.2,1.7,1.7,3.3,3.2,4c3.1,1.4,6.6,2.2,10,2.1c10.4,0.1,22.2-1.6,30.7-7.7c1.2-0.9,2.4-2.1,2.4-3.6c0-0.2-0.2-1.9-0.9-2h-0.2
	c-0.2,0-0.5-0.6-0.7-1c-1.1-0.9-2.3-1.5-3.6-2c-5.8-2.4-16.5-3.6-21.9-4.1c-5.7-0.5-14.9-1.2-17-1.6c-2.3-0.3-4.5-0.8-6.6-1.6
	c-2.1-1-3.8-2.8-4.5-5.1c-0.9-4.1,0-8.5,2.5-11.9c5.7-8.2,19.1-11.4,29.1-12.6c9.7-1.2,25.4-1.2,34.8,3.8c1.5,0.7,2.2,1.5,1.9,3.1
	c-0.6,3-2.8,4.8-5.6,5.7s-8.7,1.2-11.1,1.4c-11.5,0.6-25.4,0.2-36.3,3.3c-1,0.1-2,0.5-2.8,1.1c-1.7,1.9,3.2,2.4,4.2,2.6
	c0.2,0,0.4,0.1,0.7,0.1L1531.8,123 M1458.1,119.8c0.4,3.5-0.5,9.9-0.6,10.8c-0.4,2.4-1.1,4.8-2,7.1c-1.2,2.7-2.4,5.1-3.6,7.3
	c-2.8,4.7-6.3,8.9-10.3,12.6c-11.3,9.7-28.6,15.2-43.6,17.1c-10.9,1.3-21.8,0.9-32.6-1c-3.7-0.6-9.2-2-9.2-2s0,2.2-0.1,3.7
	c-0.2,1.1-0.5,2.2-0.9,3.2c-0.7,1.6-2.3,2.7-4,2.8c-2.2,0.4-4.6,0.6-6.7-0.4c-3.5-1.5-4.6-4.6-5.2-8.3c-0.5-3-1-8.1-1-8.1
	s-2.6-1.2-4.7-2.2c-6.4-3.1-12.5-6.8-18.2-11.1c-1.5-1.1-7.9-6.6-9.4-7.9c-4-3.6-7.5-7.8-10.4-12.4c-2.1-3.8-2.7-7.2-1.1-11.1
	c2.2-5.6,10.3-9.8,15.7-12.3c4.1-1.7,16.6-5.8,21.8-6.6c2.5-0.4,6.3-1,6.6-1.2l0.2-0.2c0.2-2.6,0.3-5.1,0.2-7.7c0-2,1.5-15.1,2-17.8
	c0.2-1.5,1.4-7.3,2.6-8.8c0.8-0.9,2.2-1.1,3.1-0.3c0,0,0.1,0,0.1,0.1c5.9,3.7,7.8,16.6,8.2,23.2c0.2,4,0.4,10,0.4,10s6.8-0.2,11-0.1
	c4.3,0.2,8.6,0.7,12.9,1.5c5.5,0.9,16.1,3.2,22.2,6.3c5,2.5,9.7,6.8,11.3,11.4c1.4,4.2,1.2,7.1-1,10.8c-2.4,4.2-6.9,7.4-11.6,7.7
	c-1.4,0.1-6.6-0.6-8.2-1.9c-0.6-0.5-0.6-1.4-0.1-2c1.3-0.8,2.7-1.6,4.1-2.2c0.7-0.4,1.3-0.9,1.9-1.4c1.2-1.1,2.2-2.2,2.1-3.6
	c-0.1-1.7-2-2.8-3.8-3.6c-8.3-3.3-24.9-6.1-32.9-6.6c-3.1-0.1-7.6-0.4-7.6-0.4l1,44.2c0,0,3.7,0.7,6.6,1.2c1.7,0.2,8.8,0.9,10.7,1
	c14.2,0.4,30.2-0.9,43.4-7.1c5.7-2.5,10.8-6.1,15-10.7c5.4-6.3,8.1-14.6,7.3-22.9c-0.7-9.4-7.4-20.7-12.8-27.5
	c-14-18.1-38-32.8-59.2-41.5c-21.6-8.9-42.9-14-65.8-14.9c-5.9-0.2-18.8,0.1-25.3,1.9c-1,0.2-1.9,0.6-2.7,0.7
	c-0.8,0.2-1.5,0.5-2.1,0.9l-0.4,0.4c0.2,0.1,0.5,0.3,0.7,0.4c0.7,0.2,3.6,0.5,5.1,0.7c1.3,0.2,2.5,0.9,3.3,2c0.6,0.7,0.6,1.8,0,2.5
	c-1.5,1.9-7.1,1.5-9.4,1.1c-2.6-0.4-5.7-1.2-6.3-3.3c-0.6-2.6,0.6-5.2,1.9-7.6c2.7-4.7,6.6-7.2,12.1-8.7c8.4-2.2,17-3.6,25.6-4.1
	c17.1-0.6,33.3,2.4,49.9,7.4c10.6,3.3,21,7.3,31,12c7.8,3.8,15.3,8,22.5,12.8c1.9,1.2,12.5,9,14.1,10.4c3.5,2.8,7.9,6.9,11.3,10.2
	c6.3,6.3,14.2,15.9,18.1,23.5c0.9,1.9,1.6,3.6,2.8,5.7c0.4,0.7,2.1,5.1,2.5,6.3c0.2,1.2,0.7,3.1,0.7,3.1
	C1457.8,116,1458,117.9,1458.1,119.8L1458.1,119.8z M1338.3,114.7c0,0-6.6,0.5-11,1c-5.7,0.6-16.5,2.5-22.7,4.7
	c-1.9,0.6-5.7,2.2-5.9,4.1c-0.4,2,0.9,3.6,2.2,5.2c0.7,0.9,5.3,5.2,6.6,6.3c7.4,5.7,15.4,10.6,23.8,14.5c2.7,1.1,7.2,2.7,7.2,2.7
	s-0.4-12.8-0.2-25.3C1338.2,121.3,1338.3,114.7,1338.3,114.7 M1474.3,99.1c0.3,0,0.7,0.1,1,0.2c3,1.1,4.2,4,5,7.1
	c1.7,7.1,2.5,22.9,2.7,29c0.2,4.6,0.4,9.2,0.5,13.7c0.1,3.8,0.5,9-0.4,12.6c-0.2,1.5-1.2,2.8-2.5,3.6c-1.5,0.9-4.7,1-6.4,0.6
	c-4.5-0.9-5.8-3.7-6.4-8.2c-1.5-10.4-0.7-30.8,0.1-39.5c0.2-2.8,1.4-12,2.8-15.7C1471.3,101.4,1472.4,98.8,1474.3,99.1 M1466.6,85.8
	c-0.7,1-1.3,2.1-1.9,3.2c-0.4,0.6-0.8,1.2-1.4,1.6c-1.1,1.1-2.9,1.1-4.1-0.1l0,0l0,0c-2-1.8-3.1-4.4-3.2-7.1c0-1.1,0.1-2.5,0-3.3
	c-0.4-1.6-2-3.3-2.8-4.8c-1.1-2.3-1.8-4.7-2-7.2c-0.4-6.4,3.1-12.4,7.4-17.1c4.7-4.9,10.4-8.8,16.7-11.4c5.9-2.6,14.9-4.2,21.4-2
	c2.6,0.9,4.9,2.5,6.7,4.5c0.4,0.4,0.6,0.9,0.9,1s1.1,0.2,1.6,0.4c2.3,0.5,4.4,1.6,6.3,3c2.3,1.8,3.9,4.3,4.5,7.2
	c1.2,5.9-2.2,12.5-6.1,16.6c-6.7,6.9-13.4,11.8-21.9,15.1c-4.5,1.7-9.2,2.6-14,2.5c-1.4-0.1-2.7-0.5-4-0.5c-1.1-0.1-2.3-0.4-3.3-0.9
	C1467.1,85.9,1466.7,85.8,1466.6,85.8 M1481,75.2c5.6-0.4,11-2,15.9-4.7c4.8-2.7,11.9-7.9,11.1-14.1c-0.2-1.9-1.4-3.5-3.2-4.2
	c-2.1-1-3.2-0.7-6.1,0c-1.6,0.5-3.2,1.1-4.7,2c-6.7,4.1-12.7,9.4-17.6,15.6c-1,1.2-2,2.7-2.7,3.7c-0.5,0.6-0.9,1.1-0.9,1.4
	C1472.9,75.5,1478.8,75.5,1481,75.2 M1461.2,70c0,0,1.9-2.8,3.5-5c3.6-4.5,7.6-8.7,11.9-12.5c1.2-1,2.6-2.1,2.6-2.1
	c-1.2,0.1-2.3,0.3-3.5,0.5c-3,0.6-7.3,3.5-9.4,5.3c-3.6,3.1-7.4,8.1-5.7,12.4C1460.7,69,1460.9,69.5,1461.2,70"/>
<path class="st0" d="M1944.6,77v92.3c0,4-2,6.3-8.3,6.3c-2.5,0-5.1-0.3-7.5-0.8v-42.5h-52.7v37c0,4-2,6.3-8.3,6.3
	c-2.5,0-5.1-0.2-7.5-0.8V82.5c0-3.9,2-6.3,8.5-6.3c2.5,0,4.9,0.3,7.3,0.8v41.1h52.4V82.5c0-3.9,2.2-6.3,8.7-6.3
	C1939.7,76.2,1942.2,76.4,1944.6,77"/>
<path class="st0" d="M2052.7,125.8c0,27.7-19.3,48.6-49.6,48.6h-28.2c-6.1,0-8.3-2.4-8.3-6.3V83.7c0-3.8,2.2-6.3,8.3-6.3h28.2
	C2033.3,77.4,2052.7,98.1,2052.7,125.8 M2036.6,125.8c0-20.7-13-34.2-33.5-34.2h-20.7v68.5h20.7
	C2023.6,160.1,2036.6,146.7,2036.6,125.8"/>
<g>
	<path class="st0" d="M1805.4,218.3c-1.8,0-3.3-1.5-3.3-3.4V35c0-1.8,1.5-3.4,3.3-3.4s3.3,1.5,3.3,3.4v180
		C1808.8,216.8,1807.3,218.3,1805.4,218.3"/>
</g>
<g id="layer1_1_" transform="translate(-15.060659,-164.8585)">
	<path id="path15585_1_" class="st2" d="M126.7,314.7c0,21.5-14,37.1-42.6,40.2c-20.6,2.2-50.5-0.4-64.7-2c-0.5-2.3-0.9-5.2-0.9-7.5
		c0-18.7,10.1-23,19.6-23c9.9,0,25.5,1.7,37,1.7c12.8,0,16.6-4.3,16.6-8.4c0-5.4-5.1-7.6-15-9.5L49.6,301
		c-22.5-4.3-34.5-19.8-34.5-36.3c0-20,14.2-36.8,42.2-39.9c21.1-2.3,46.9,0.3,61,2c0.5,2.4,0.8,4.7,0.8,7.2
		c0,18.7-9.9,22.7-19.4,22.7c-7.3,0-18.6-1.3-31.6-1.3c-13.2,0-18.6,3.6-18.6,8c0,4.7,5.2,6.6,13.4,8.1l25.8,4.8
		C115.3,281.1,126.7,296.2,126.7,314.7 M173,337.7c0,11.5-4.5,18.1-27,18.1c-3,0-5.6-0.2-8.1-0.6V202.8c0-11.6,3.9-23.7,26.6-23.7
		c2.9,0,5.8,0.3,8.5,0.9V337.7z M264.9,396.7c3,1.5,9,3.4,16.6,3.5c13.1,0.3,20.2-4.7,25.5-16.4L377,228c-2.9-1.5-9.3-3.3-14.5-3.4
		c-9-0.2-21.1,1.6-28.8,20l-22.8,53.3l-44.5-72.3c-2.9-0.9-9.9-2.1-15-2.1c-15.8,0-24.5,5.8-33.6,15.6l-43.2,47.2l34.8,54.7
		c6.4,10,14.9,15.1,28.6,15.1c9,0,16.5-2.1,20-3.7l-41.9-63l29.7-31.5l48.7,76.3L264.9,396.7z"/>
	
		<linearGradient id="path15335_2_" gradientUnits="userSpaceOnUse" x1="-866.356" y1="357.1824" x2="-755.5975" y2="357.1824" gradientTransform="matrix(7.5001 0 0 7.5001 6912.0176 -2389.0952)">
		<stop  offset="0" style="stop-color:#FF0031"/>
		<stop  offset="1" style="stop-color:#9B001F"/>
	</linearGradient>
	<path id="path15335_1_" class="st3" d="M1228.4,164.8H431c-9.2,0-16.7,7.5-16.7,16.7v216.6c0,9.2,7.5,16.7,16.7,16.7h797.3
		c9.2,0,16.7-7.5,16.7-16.7V181.4C1244.9,172.2,1237.6,164.8,1228.4,164.8"/>
	
		<linearGradient id="path15297-4_2_" gradientUnits="userSpaceOnUse" x1="-965.1582" y1="-233.2623" x2="-962.9369" y2="-233.2623" gradientTransform="matrix(-1.3157 -37.6778 37.6778 -1.3157 7716.647 -36375.7148)">
		<stop  offset="0" style="stop-color:#FFFFFF"/>
		<stop  offset="0.5146" style="stop-color:#FFFFFF;stop-opacity:0.25"/>
		<stop  offset="1" style="stop-color:#FFFFFF;stop-opacity:0.25"/>
	</linearGradient>
	<path id="path15297-4_1_" class="st4" d="M138,202.8v104.5c0-4.2,3.2-8.6,8.6-8.8l0,0c3.8-0.1,14.4-0.5,17.6-0.6l0,0
		c3.5-0.1,8.8-2.5,8.9-8.9l0,0V180c-2.7-0.6-5.6-0.9-8.5-0.9l0,0C141.9,179.2,138,191.2,138,202.8 M218,239.2l-43.2,47.2l3.5,5.4
		c1.5,2,4.4,5.4,10.2,5.2l0,0c2.1-0.1,22.9-0.8,24.6-0.9l0,0c5.4-0.2,8.8,2.1,10.9,4.9l0,0l0,0l-7.7-11.6l29.7-31.5l19.9,31.3l0,0
		c3.6,4.7,9,4.8,10.2,4.8l0,0c1,0,27.2-0.9,28.3-1l0,0c1.8-0.1,3.9,0.9,5.5,3.2l0,0l-43.3-70.4c-2.9-0.9-9.9-2.1-15-2.1l0,0
		C235.8,223.6,227.1,229.3,218,239.2 M57.3,224.7c-28,3.1-42.2,19.8-42.2,39.9l0,0c0,10.3,4.7,20.2,13.7,27.3l0,0
		c6.8,4.5,13.8,6.2,20.7,7.4l0,0c5.7,1,19,1.9,28.9,1.5l0,0c3.1-0.1,25.9-0.9,30.8-1.1l0,0c11.6-0.4,17.8,9.5,17.2,19.4l0,0
		c0-0.1,0-0.3,0-0.4l0,0v-0.1l0,0c0.1-1.3,0.2-2.6,0.2-3.9l0,0c0-18.5-11.4-33.6-37.9-38.5l0,0l-25.8-4.8
		c-8.3-1.4-13.4-3.4-13.4-8.1l0,0c0-4.4,5.5-8.1,18.6-8.1l0,0c13,0,24.3,1.3,31.6,1.3l0,0c9.5,0,19.4-4,19.4-22.7l0,0
		c0-2.5-0.3-4.8-0.8-7.2l0,0c-10.1-1.2-26.3-2.9-42.4-2.9l0,0C69.6,223.8,63.3,224.1,57.3,224.7 M333.6,244.6l-22.1,52.1l0,0
		c0-0.1,1.4-4.1,5.7-4.3l0,0c0,0,21.8-0.8,23.4-0.8l0,0c7.1-0.3,9.9-5.1,10.7-6.7l0,0l25.6-57.1c-2.9-1.5-9.3-3.3-14.5-3.4l0,0
		c-0.4,0-0.7,0-1.1,0l0,0C352.4,224.5,341,226.9,333.6,244.6"/>
	
		<linearGradient id="path15555_2_" gradientUnits="userSpaceOnUse" x1="-947.613" y1="-235.5117" x2="-945.3914" y2="-235.5117" gradientTransform="matrix(-1.9565 -56.0258 56.0258 -1.9565 12171.6309 -53272.9258)">
		<stop  offset="0" style="stop-color:#FFFFFF"/>
		<stop  offset="0.5146" style="stop-color:#FFFFFF;stop-opacity:0.25"/>
		<stop  offset="1" style="stop-color:#FFFFFF;stop-opacity:0.25"/>
	</linearGradient>
	<path id="path15555_1_" class="st5" d="M431,164.8c-9.2,0-16.7,7.5-16.7,16.7l0,0v120.2v0.1v-0.1c0-1.8,0.7-11.7,12-12.8l0,0
		c0,0,0.6-0.1,1.6-0.1l0,0c49.3-1.7,804.7-28.2,804.7-28.2l0,0c6.3-0.2,12.4-4.9,12.4-12.7l0,0v-66.3c0-9.2-7.5-16.7-16.7-16.7l0,0
		L431,164.8z"/>
	<g>
		<path class="st1" d="M1190.5,275.2v74.5c-2,0.5-5.4,1-8.8,1c-7,0-10.1-2.5-10.1-7.4v-9.8c-11.1,11.7-24.3,18.6-41.8,18.6
			c-26.3,0-40.8-16.8-40.8-35.6c0-28.4,30.7-40.8,82.6-37.4v-3.2c0-18.1-5.9-28.9-28.9-28.9c-11.9,0-22.2,2.6-29.2,4.9
			c-3.6,1-6.4,1.9-8.3,1.9c-5.4,0-8.5-4.9-7.3-15.2c11.7-4.4,29.2-8.3,45.6-8.3C1177.8,230.4,1190.5,247.5,1190.5,275.2
			 M1171.4,316.1v-22.5c-33.8-1.5-63,1.8-63,22.7c0,10.3,8.8,19.9,24.5,19.9C1148.9,336.2,1162.4,328.1,1171.4,316.1"/>
		<path class="st1" d="M461.5,291.1c0-34.8,25.8-60.7,59.6-60.7c16.2,0,30.7,4.4,40.8,9.6c1,10.6-2.9,15-7.8,15
			c-6.9,0-14.5-7.5-32.3-7.5c-22.5,0-40.8,16.8-40.8,43.9s18.3,44.4,40.8,44.4c17.8,0,25.5-7.5,32.3-7.5c4.9,0,8.8,4.4,7.8,15
			c-10.3,4.9-24.8,9.3-40.8,9.3C487.3,352.1,461.5,325.9,461.5,291.1"/>
		<path class="st1" d="M875.5,298.9h-91.1c2.9,22.7,18.9,35.8,42.4,35.8c10.1,0,17.8-2.3,25.3-4.6c4.9-1.8,7.5-2.8,9.6-2.8
			c4.9,0,8.5,4.6,7.3,15.2c-10.3,4.6-26.1,9.6-42.9,9.6c-36.4,0-61.5-24.8-61.5-61.2c0-35.1,26.1-60.6,58.3-60.6
			c35.9,0,53.7,28.7,53.7,56.6C876.5,290.6,876.2,294.5,875.5,298.9 M784.4,283.1h73.3c-0.8-20.1-13.7-35.9-34.8-35.9
			C804.2,247,787.5,259.6,784.4,283.1"/>
		<path class="st1" d="M582.6,205.5c0-7.2,5.7-12.4,12.4-12.4c6.9,0,12.2,5.4,12.2,12.4c0,6.4-5.4,12.2-12.2,12.2
			S582.6,211.8,582.6,205.5 M585.3,349.7V239.2c0-4.4,2.4-7.3,10.3-7.3c3.1,0,6.9,0.8,8.8,1.3v110.2c0,4.6-2.6,7.3-10.3,7.3
			C590.9,350.7,587.2,350.2,585.3,349.7"/>
		<path class="st1" d="M1064.9,272.8v70.5c0,4.6-2.6,7.3-10.3,7.3c-3.1,0-6.9-0.5-8.8-1v-74.7c0-17.3-8.3-27.6-23.8-27.6
			c-13.2,0-24.5,9.6-28.9,19.1v76.9c0,4.6-2.4,7.3-10.1,7.3c-3.4,0-7-0.5-9-1v-74.7c0-17.3-8-27.6-23.8-27.6
			c-13.2,0-24.5,9.6-28.9,19.1v76.9c0,4.6-2.4,7.3-10.1,7.3c-3.4,0-7.2-0.5-8.8-1V233.1c2-0.5,5.7-1.3,8.8-1.3
			c7.3,0,9.8,2.9,9.8,7.8v8.3c7.5-10.1,19.4-17.6,33.8-17.6c15.5,0,27.6,8,33.8,21.2c8-11.7,20.4-21.2,37.7-21.2
			C1051.5,230.4,1064.9,249.5,1064.9,272.8"/>
		<path class="st1" d="M739.4,280.3v63c0,4.6-2.4,7.3-10.1,7.3c-3.1,0-6.9-0.5-8.8-1v-66.7c0-24-11.9-35.4-29.4-35.4
			c-13.9,0-28.9,9.8-35.1,21.1v74.9c0,4.6-2.5,7.3-10.1,7.3c-3.4,0-7-0.5-8.8-1V233.1c1.8-0.5,5.4-1.3,8.8-1.3
			c7.5,0,10.1,2.9,10.1,7.3v10.1c8.5-10.3,21.5-18.9,39.2-18.9C719.3,230.4,739.4,245.7,739.4,280.3"/>
	</g>
</g>
</svg>
