<?xml version="1.0" encoding="UTF-8" standalone="no"?><svg xmlns="http://www.w3.org/2000/svg" xml:space="preserve" id="svg29" version="1.1" viewBox="0 0 2937.4 1000"><defs id="defs10"><linearGradient id="b" x1="-1151.9" x2="-1151.9" y1="-775.02" y2="-779.87" gradientTransform="matrix(149.68 0 0 -91.158 172382 -71520)" gradientUnits="userSpaceOnUse"><stop id="stop1" offset="0" stop-color="#002A91"/><stop id="stop2" offset=".8" stop-color="#002672"/></linearGradient><linearGradient id="c" x1="-1151.8" x2="-1152" y1="-784.92" y2="-782.98" gradientTransform="matrix(149.68 0 0 -57.766 172382 -45995)" gradientUnits="userSpaceOnUse"><stop id="stop3" offset="0" stop-color="#fff"/><stop id="stop4" offset="1" stop-color="#fff" stop-opacity=".25"/></linearGradient><linearGradient id="d" x1="-1152.6" x2="-1152.6" y1="-773.58" y2="-778.43" gradientTransform="matrix(317.37 0 0 -103 366970 -80578)" gradientUnits="userSpaceOnUse"><stop id="stop5" offset=".4" stop-color="#f00"/><stop id="stop6" offset="1" stop-color="#D42321"/></linearGradient><linearGradient id="e" x1="-1152.3" x2="-1152.8" y1="-785.34" y2="-782.74" gradientTransform="matrix(317.37 0 0 -56.478 366970 -45017)" gradientUnits="userSpaceOnUse"><stop id="stop7" offset="0" stop-color="#fff"/><stop id="stop8" offset="1" stop-color="#fff" stop-opacity=".25"/></linearGradient><linearGradient id="a" x1="-1151.9" x2="-1151.9" y1="-775.02" y2="-779.87" gradientTransform="matrix(149.71 0 0 -91.176 175063 -70634)" gradientUnits="userSpaceOnUse"><stop id="stop9" offset="0" stop-color="#002A91"/><stop id="stop10" offset=".8" stop-color="#002672"/></linearGradient></defs><path id="path10" fill="#fff" d="M2914.1.00002c12.9 0 23.3 10.94 23.3 24.276v451.45c0 13.336-10.5 24.276-23.3 24.276h-607.9c-12.9 0-23.3-10.94-23.3-24.276v-451.34c0-13.44 10.5-24.276 23.3-24.276h607.9"/><g id="g12" fill="url(#a)" stroke-width="1.0002"><path id="path11" d="M2619.1 153.8v184.7c0 8.1-4.1 12.6-16.7 12.6-5.7 0-11-.8-15.1-1.6v-85h-105.4v74.1c0 8.1-4.1 12.6-16.7 12.6-6.1 0-12.2-.8-15.1-1.6V164.8c0-7.8 4.1-12.6 17.1-12.6 5.7 0 11.3.8 14.6 1.6V236h104.9v-71.2c0-7.8 4.5-12.6 17.5-12.6 6 0 11.6.8 14.9 1.6"/><path id="path12" d="M2835.3 251.4c0 55.4-38.7 97.3-99.3 97.3h-56.5c-12.2 0-16.7-4.9-16.7-12.6V167.2c0-7.7 4.5-12.6 16.7-12.6h56.5c60.6 0 99.3 41.5 99.3 96.8m-32.2 0c0-41.5-26-68.4-67.1-68.4h-41.5v137.1h41.5c41.1.1 67.1-26.8 67.1-68.7"/></g><g id="g23" transform="translate(400.08 900.18) scale(1.0002)"><path id="path13" fill="url(#b)" d="M101.6-435.8c5.9 2.9 18 6.7 33.5 7.1 26.4.4 40.6-9.6 51-32.9l140.6-311.7c-5.9-2.9-18.8-6.7-29.3-6.7-18-.4-42.2 3.3-57.7 40L194-633.3l-89.1-144.6c-5.9-1.7-20.1-4.2-30.1-4.2-31.8 0-49.4 11.7-67.3 31.2l-87 94.2 69.9 109.2c13 20 29.7 30 57.3 30 18 0 33-4.2 40.2-7.5L3.7-650.4l59.4-62.9L161-560.8zm-184.5-118c0 22.9-9.2 36.2-54.4 36.2-5.9 0-11.3-.4-16.3-1.2v-305c0-23.3 7.9-47.5 53.5-47.5 5.9 0 11.7.4 17.2 1.7zm-93.3-46.2c0 42.9-28 74.2-85.3 80.4-41.4 4.6-101.6-.8-130.1-4.2-.8-4.6-1.7-10.4-1.7-15 0-37.5 20.1-45.8 39.3-45.8 19.7 0 51 3.3 74.5 3.3 25.5 0 33.5-8.8 33.5-16.7 0-10.8-10-15-30.1-19.2l-54.4-10.4c-45.2-8.3-69.4-39.6-69.4-72.5 0-40 28.4-73.8 84.5-79.6 42.2-4.6 94.1.4 122.6 4.2.8 4.6 1.7 9.6 1.7 14.6 0 37.5-19.7 45.4-38.9 45.4-14.6 0-37.2-2.5-63.6-2.5s-37.2 7.1-37.2 16.2c0 9.6 10.5 13.3 27.2 16.2l51.9 9.6c52.5 8.9 75.5 38.9 75.5 76z"/><path id="path14" fill="url(#c)" d="m326.6-773.3-51.5 114.2c-1.7 2.9-7.1 12.9-21.3 13.3-3.3 0-46.9 1.7-46.9 1.7-8.4.4-11.3 8.3-11.3 8.3L240-740c15.5-36.7 39.7-40.4 57.7-40 10.1 0 23 3.3 28.9 6.7zM191.9-637.1l-87-140.8c-5.9-1.7-20.1-4.2-30.1-4.2-31.8 0-49.4 11.7-67.3 31.2l-87 94.2 7.1 10.8c2.9 4.2 8.8 10.8 20.5 10.4 4.2 0 46-1.7 49.4-1.7 10.9-.4 17.6 4.2 21.8 9.6L3.7-650.8l59.4-62.9 40.2 62.5c7.1 9.6 18 9.6 20.5 9.6 2.1 0 54.4-2.1 56.9-2.1 3.7-.1 7.9 2 11.2 6.6zm-292-234.1c-45.6 0-53.1 24.2-53.1 47.5v209.2c0-8.3 6.7-17.1 17.2-17.5 7.5-.4 28.9-.8 35.1-1.2 7.1-.4 17.6-5 18-17.9v-218.3c-5.5-1-11.3-1.8-17.2-1.8zm-152.2 194.5-51.9-9.6c-16.7-2.9-27.2-6.7-27.2-16.2 0-8.8 10.9-16.2 37.2-16.2 25.9 0 48.9 2.5 63.6 2.5 19.2 0 38.9-7.9 38.9-45.4 0-5-.4-9.6-1.7-14.6-28.4-3.3-79.9-8.8-122.6-4.2-55.6 6.6-84 40.4-84 80.4 0 20.4 9.2 40.4 27.6 54.6 13.8 8.8 27.6 12.5 41.8 15 11.7 2.1 38.1 3.8 58.1 2.9 6.3-.4 51.9-1.7 61.9-2.1 23-.8 36 18.7 34.3 38.7v-1.2c.4-2.5.4-5 .4-7.9-.3-37.1-23.3-67.1-76.4-76.7z" opacity=".25"/><path id="path15" fill="url(#d)" d="M1908.6-900H435.4c-18.4 0-33.5 15-33.5 33.3v433.3c0 18.3 15.1 33.3 33.5 33.3h1473.7c18.4 0 33.5-15 33.5-33.3v-433.3c-.5-18.3-15.6-33.3-34-33.3z"/><path id="path16" fill="url(#e)" d="M425.7-652.1h3.3c99.1-3.3 1488.3-51.7 1488.3-51.7 12.5-.4 25.1-9.6 25.1-25.4v-137.5c0-18.3-15.1-33.3-33.5-33.3H435.4c-18.4 0-33.5 15-33.5 33.3v240.8c0-2.9.4-23.7 23.8-26.2z" opacity=".4"/><g id="g22" fill="#fff" transform="translate(184.41 16.308)"><path id="path17" d="M313.7-557.1c-2.9-20.4 3.3-31.2 15.5-31.2 11.3 0 38.9 12.1 77.4 12.1 40.6 0 55.6-14.2 55.6-32.9 0-13.3-5.9-25-42.2-35l-41.8-11.2c-46.4-12.1-64.4-35.4-64.4-63.8 0-35.4 28-66.7 91.6-66.7 28.4 0 64 6.2 85.8 14.6 3.8 20-2.5 30.8-14.6 30.8-10.9 0-35.6-10.4-70.3-10.4-37.6 0-51.5 12.9-51.5 29.6 0 11.7 5.4 22.5 38.9 32.1l42.7 11.7c47.7 13.3 66.9 35.4 66.9 66.7 0 36.7-28.4 69.6-97.5 69.6-31 .2-69.1-7.3-92.1-16z"/><path id="path18" d="M787.6-663.4c0 77.1-54.4 122.5-113.8 122.5-35.6 0-64.4-16.7-82-40.4v99.2c0 9.2-5.4 15.4-21.3 15.4-7.9 0-15.5-.8-19.2-2.1v-312.5c3.8-.8 11.3-2.1 19.2-2.1 15.9 0 21.3 5.8 21.3 15.4v22.5c17.2-23.8 46.4-40.4 82-40.4 59.5 0 113.8 45.8 113.8 122.5zm-40.9 0c0-51.7-34.3-87.1-80.7-87.1-31.4 0-60.7 18.3-74 44.6v85c13.4 26.7 42.2 44.6 74 44.6 46.3 0 80.7-35.4 80.7-87.1z"/><path id="path19" d="M826.5-663.4c0-70 51.9-122.1 121.3-122.1 69.9 0 121.7 52.1 121.7 122.1 0 69.6-51.9 122.5-121.7 122.5-69.4 0-121.3-52.9-121.3-122.5zm202.1 0c0-54.2-36.4-87.1-80.7-87.1-43.9 0-80.3 32.9-80.3 87.1 0 53.3 36.4 87.5 80.3 87.5 44.3-.4 80.7-34.2 80.7-87.5z"/><path id="path20" d="M1265.8-763.8c0 16.2-6.7 19.6-23.8 19.6-33.9 0-62.7 15.8-80.3 52.5v132.9c0 10-5.4 15.4-21.8 15.4-6.7 0-14.6-.8-18.8-2.1v-235.8c3.8-.8 11.7-2.1 18.8-2.1 16.3 0 21.8 5.8 21.8 15.4v32.9c23-35 58.1-52.5 102.1-46.7.3 3.4 2 10.9 2 18z"/><path id="path21" d="M1443.1-557.1c-20.5 10-44.3 16.2-68.2 16.2-46.9 0-74.9-27.5-74.9-73.3v-202.5c0-10.4 5.9-17.1 21.8-17.1 6.7 0 14.6 1.7 18.8 2.5v51.2h92c.4 3.3 1.7 10.4 1.7 16.2 0 14.2-5.9 19.2-14.6 19.2h-78.6v127.9c0 27.5 13 40.8 38.9 40.8 23.8 0 36.8-10.4 48.1-10.4s17.5 9.7 15 29.3z"/><path id="path22" d="M1471.2-557.1c-2.9-20.4 3.3-31.2 15.5-31.2 11.3 0 38.9 12.1 77.4 12.1 40.6 0 55.6-14.2 55.6-32.9 0-13.3-5.9-25-42.2-35l-41.8-11.2c-46.4-12.1-64.4-35.4-64.4-63.8 0-35.4 28-66.7 91.6-66.7 28.4 0 64 6.2 85.8 14.6 3.8 20-2.5 30.8-14.6 30.8-10.9 0-35.6-10.4-70.3-10.4-37.6 0-51.5 12.9-51.5 29.6 0 11.7 5.4 22.5 38.9 32.1l42.7 11.7c47.7 13.3 66.9 35.4 66.9 66.7 0 36.7-28.4 69.6-97.5 69.6-31.1.2-69.1-7.3-92.1-16z"/></g></g><path id="path23" fill="#002a91" d="M2937.4 531.08c-.05 8.9599-3.6796 17.528-10.08 23.798l.088 411.81c-.012 12.866-10.439 23.294-23.306 23.306H33.302c-12.852-.0477-23.258-10.454-23.306-23.306v-411.8C3.8556 548.8611.274 540.7-.004 532.1v434.59c-.007 18.398 14.908 33.314 33.306 33.308h2870.7c18.447.0855 33.438-14.861 33.407-33.308z"/><g id="g31"><path id="path10-1" fill="#231f20" d="m904.55766 613.83978-.0003 94.35379h-62.5522v52.03748h62.5522l.0003 94.78153h54.28049v-241.1728ZM771.7239 765.15589v89.85669h54.32914v-89.85669Z"/><path id="path9-9" fill="#231f20" d="M1978.728 855.01212V613.83978h131.8988c6.9864 0 13.0091 2.52958 18.0683 7.58875l29.6321 29.63226c5.0592 5.05917 7.5887 11.08199 7.5887 18.06844v130.45422c0 6.98646-2.5414 12.99743-7.5887 18.06844l-29.6321 29.77148c-5.0473 5.07102-11.0819 7.58875-18.0683 7.58875Zm54.205-52.17635h62.8777c1.9273 0 3.6137-.72274 5.0592-2.16822l8.6728-8.67286c1.4455-1.44548 2.1682-3.13186 2.1682-5.05916V681.77716c0-1.9273-.7227-3.6137-2.1682-5.05918l-8.6728-8.67285c-1.4455-1.44549-3.1319-2.16821-5.0592-2.16821h-62.8777Z"/><path id="path7-6" fill="#231f20" d="M1576.35 613.84055v241.17204h54.2193v-89.75913h19.5197c3.1327 0 5.1803.7233 6.1442 2.16878l64.3399 87.59035h42.9811v-23.66512l-49.8486-66.09401h5.0592c6.7474 0 12.5305-2.40911 17.3498-7.22736l19.8814-19.87473c5.0604-5.05915 7.5909-11.08288 7.5909-18.06934v-61.07198c0-6.98647-2.5305-13.00824-7.5909-18.06742l-19.8814-19.87473c-4.8193-4.81825-10.6024-7.22735-17.3498-7.22735Zm54.2193 51.31437h65.4248c1.9277.00001 3.6135.7214 5.0593 2.16688l6.8676 6.86589c1.4459 1.44547 2.1699 3.13317 2.1699 5.06048v21.32058c0 1.9273-.724 3.61311-2.1699 5.05859l-6.8676 6.86588c-1.4458 1.44547-3.1316 2.16879-5.0593 2.16879h-65.4248Z"/><path id="path8-7" fill="#231f20" d="M1777.3655 855.01212V613.83978h187.3481v52.03714h-133.1431v42.28017h121.8686v52.03713h-121.8686v42.64155h133.1431v52.17635Z"/><path id="path2-0" fill="#231f20" d="M1375.161 855.01212V613.83978h131.8988c6.9864 0 13.0091 2.52958 18.0683 7.58875l29.632 29.63226c5.0591 5.05917 7.5888 11.08199 7.5888 18.06844v130.45422c0 6.98646-2.5416 12.99739-7.5888 18.06844l-29.632 29.77148c-5.0473 5.07102-11.0819 7.58875-18.0683 7.58875Zm54.2049-52.17635h62.8778c1.9273 0 3.6137-.72274 5.0592-2.16822l8.6727-8.67286c1.4456-1.44548 2.1683-3.13186 2.1683-5.05916V681.77716c0-1.9273-.7227-3.6137-2.1683-5.05918l-8.6727-8.67285c-1.4455-1.44549-3.1319-2.16821-5.0592-2.16821h-62.8778Z"/><path id="path1-9" fill="#231f20" d="M1173.9688 855.01212V613.83978h78.0551l57.096 170.56617V613.83978h52.0368v241.17234h-75.887l-59.2642-176.84866v176.84866Z"/><path id="text1-0-7" fill="#231f20" d="m1010.0167 847.42337-29.63207-29.77148c-5.04727-5.07098-7.58863-11.08198-7.58863-18.06844V613.83978h54.205V787.2969c0 1.9273.7227 3.61368 2.1681 5.05916l8.6728 8.31149c1.4454 1.44548 3.1319 2.16822 5.0592 2.16822h47.339c1.9273 0 3.6137-.72274 5.0592-2.16822l8.3114-8.31149c1.4454-1.44548 2.1681-3.13186 2.1681-5.05916V613.83978h54.205v185.74367c0 6.98646-2.5413 12.99746-7.5886 18.06844l-29.6321 29.77148c-5.0473 5.07098-11.0819 7.58875-18.0684 7.58875h-76.6097c-6.9864 0-13.021-2.51773-18.0683-7.58875Z"/><path id="text13-3" fill="#231f20" d="M771.48403 628.8146h43.2316v-14.97503h11.33741v42.27037h-11.33741v-14.97453h-43.2316Z"/><path id="path15-15" fill="#231f20" d="M771.48403 714.21098h54.56901v42.30644h-11.90193V726.4514h-9.46849v27.42202h-11.74447V726.4514h-9.64839v30.06602h-11.80573Z"/><path id="path17-64" fill="#231f20" d="M771.48403 663.97999v12.31521h21.44584v17.76786h-21.44584v12.29299h54.56901v-12.29299h-21.34885V676.2952l21.34885-.02221v-12.293Z"/></g></svg>