<?xml version="1.0" encoding="utf-8"?>
<!-- Generator: Adobe Illustrator 24.3.0, SVG Export Plug-In . SVG Version: 6.00 Build 0)  -->
<svg version="1.1"
	 id="svg90" xmlns:cc="http://creativecommons.org/ns#" xmlns:dc="http://purl.org/dc/elements/1.1/" xmlns:rdf="http://www.w3.org/1999/02/22-rdf-syntax-ns#"
	 xmlns="http://www.w3.org/2000/svg" xmlns:xlink="http://www.w3.org/1999/xlink" x="0px" y="0px" viewBox="0 0 512 342.2"
	 style="enable-background:new 0 0 512 342.2;" xml:space="preserve">
<style type="text/css">
	.st0{fill:#84DF1B;}
	.st1{fill:#7EDE0E;}
	.st2{fill:#F64FB6;}
	.st3{fill:#FFDA0C;}
	.st4{fill:#FFC300;}
	.st5{fill:#F19315;}
	.st6{fill:#6CD0DC;}
	.st7{fill:#F458B9;}
	.st8{fill:#74D1DD;}
	.st9{fill:#FFC500;}
	.st10{fill:#3C4ABF;}
	.st11{fill:#FFFFFF;}
	.st12{fill:#EFEFEF;}
	.st13{fill:#F0F0F0;}
</style>
<g id="g905" transform="matrix(.96757 0 0 .96757 .00018993 31.978)">
	<g id="_x23_84df1bff-4" transform="matrix(1.0335 0 0 1.0335 -64.083 -143.64)">
		<path id="path78-3" class="st0" d="M228.3,368.3c5.4-1.8,10.7-3.9,15.7-6.5c2.8,11.8,9.2,22.7,18.1,31
			c-6.3,7.5-16.7,11.5-26.3,9.7C229.5,391,226.8,378.6,228.3,368.3L228.3,368.3z"/>
		<path id="path80-3" class="st0" d="M450.6,387c4.3-1.3,9.2,0.6,11.6,4.3c2.2,3.2,2.5,7.6,0.7,11c-2.3,4.2-7.6,6.4-12.2,5.1
			c-2.8-0.7-5.2-2.6-6.5-5.1c-1.5-2.6-1.7-5.8-0.8-8.7C444.3,390.4,447.3,387.9,450.6,387z"/>
		<path id="path82-3" class="st0" d="M149.6,396c3.3-0.9,6.8,1.9,6.6,5.3c0.1,3.4-3.6,5.8-6.7,4.8c-2.5-0.7-4.2-3.4-3.7-5.9
			C145.9,398.2,147.7,396.5,149.6,396L149.6,396z"/>
		<path id="path84-0" class="st0" d="M278.8,421.4c2.5-0.8,5.4,1.3,5.3,4c0.2,2.4-2.1,4.3-4.4,4.1c-2.4,0-4.2-2.5-3.8-4.8
			C276,423,277.3,421.8,278.8,421.4L278.8,421.4z"/>
	</g>
	<g id="_x23_7ede0eff-9" transform="matrix(1.0335 0 0 1.0335 -64.083 -143.64)">
		<path id="path2-6" class="st1" d="M446.9,114.1c12.7-5.4,26.6-7.7,40.3-7c15.2,0.7,30.1,5.4,43.1,13.3c10.6,6.5,19.9,15.2,27,25.4
			c7.9,11.2,13.3,24.3,15.5,37.8c2.6,16.1,1,32.8-5,48c-8.5,22.1-25.9,40.5-47.5,50.2c-10.4,4.8-21.8,7.5-33.2,8.1
			c-8.4,0.4-16.8-0.3-25-2.1c-6.4-9-15.1-16.2-24.8-21.4c-7.8-4.2-16.2-7.1-24.8-8.9c-7.9-9.2-13.8-20.1-17.5-31.6
			c-1.6-5.2-2.8-10.5-3.5-15.8c-0.8-5.9-0.5-11.8-0.5-17.7c1-17.1,7.1-33.8,17.2-47.6C418.1,131.3,431.6,120.6,446.9,114.1"/>
	</g>
	<g id="_x23_f64fb6ff-5" transform="matrix(1.0335 0 0 1.0335 -64.083 -143.64)">
		<path id="path5-0" class="st2" d="M345.6,116.5c12.8-2.1,26.2-0.1,37.8,5.7c10.1,5.1,18.8,13,24.9,22.6
			c-10.1,13.8-16.2,30.5-17.2,47.6c0,5.9-0.3,11.9,0.5,17.7c0.7,5.4,1.8,10.7,3.5,15.8c-8.5,7.1-19.1,11.7-30,13.4
			c-15.8,2.5-32.4-1.5-45.4-10.8c-9.5-6.7-17-16.2-21.4-26.9c-4.6-11-5.8-23.3-3.7-35c0.1-0.5,0-1-0.1-1.5c0.1-0.1,0.4-0.3,0.5-0.5
			c2.5-11.8,8.7-22.9,17.3-31.3C321.3,124.5,333.1,118.5,345.6,116.5"/>
	</g>
	<g id="_x23_ffda0cff-4" transform="matrix(1.0335 0 0 1.0335 -64.083 -143.64)">
		<path id="path87-2" class="st3" d="M302.7,418c2.2-0.6,4.8,0.4,5.9,2.4c1.3,2.1,1,5.3-1.2,6.8c-1.9,1.5-4.8,1.6-6.7,0
			c-2.2-1.7-2.6-5.3-0.8-7.5C300.7,418.8,301.7,418.3,302.7,418L302.7,418z"/>
	</g>
	<g id="_x23_ffc300ff-3" transform="matrix(1.0335 0 0 1.0335 -64.083 -143.64)">
		<path id="path8-4" class="st4" d="M91,134.2c13-10.1,29.5-15.8,46-15.4c10.5-0.1,21,2.3,30.5,6.7c15.9,7.2,29,20.3,36.4,36.1
			c2.6,5.5,4.5,11.3,5.6,17.3c3.8,18.6-0.1,38.7-10.4,54.6c-7.3,11.3-17.7,20.6-29.8,26.5c-13,6.4-27.9,8.8-42.3,7
			c-14.7-1.8-28.7-8.2-39.8-18.1c-13-11.4-21.8-27.5-24.3-44.7c-1.9-12.6-0.5-25.6,4-37.5C71.7,153.9,80.1,142.5,91,134.2"/>
	</g>
	<g id="_x23_f19315ff" transform="translate(-62.005 -107)">
		<path id="path48" class="st5" d="M501.5,263.1c11.8-0.6,23.5-3.4,34.3-8.4c1.9-0.2,3.7,0.3,5.5,0.6c12.7,2.2,24.5,9.1,32.9,19
			c8.4,9.9,13.2,22.8,13.2,35.7c0.2,12.1-3.8,24.2-11.1,33.9c-7.3,9.8-17.9,17.2-29.6,20.5c-14.3,4.1-30.2,2.2-43.1-5.2
			c-13.9-7.9-24.2-22-27.2-37.7c3.9-5,6.9-10.8,8.5-16.9c2.2-8.2,1.9-16.9-0.3-25c3.6-5.4,8.1-10.2,13.3-14.1
			C499,264.6,500.2,263.7,501.5,263.1"/>
	</g>
	<g id="_x23_6cd0dcff-0" transform="matrix(1.0335 0 0 1.0335 -64.083 -143.64)">
		<path id="path22-7" class="st6" d="M221.3,166.3c10.8-8.2,24.3-12.6,37.8-12.4c12.5,0,24.9,4.1,35.2,11.1l0,0.1
			c0.1,0.5,0.2,1,0.1,1.5c-2.1,11.7-0.9,24,3.7,35c4.4,10.8,12,20.2,21.4,26.9c-2.3,11.5-8,22.3-16.2,30.7
			c-8.5,8.8-19.7,15.1-31.7,17.6c-7.3-8.3-16.9-14.4-27.2-18.1c-11.2-4-23.2-5.4-35-4.7c-4.7-6.1-8.4-13.1-10.5-20.6
			c10.4-15.9,14.2-36,10.4-54.6c0-0.2,0-0.7,0-1C213,173.6,216.9,169.6,221.3,166.3"/>
	</g>
	<g id="_x23_f458b9ff-4" transform="matrix(1.0335 0 0 1.0335 -64.083 -143.64)">
		<path id="path69-9" class="st7" d="M113.9,330.4c3.3-1,6.9,1.9,6.6,5.3c0.1,3.3-3.6,5.8-6.7,4.8c-2.4-0.6-4.1-3.1-3.8-5.5
			C110,332.8,111.8,330.9,113.9,330.4L113.9,330.4z"/>
		<path id="path71-5" class="st7" d="M162,362.8c1.9-1.5,4-2.5,6.3-3.2c1.8,11,3.5,22,5.3,33c-5,0.2-10.1-1.9-13.3-5.7
			c-3.3-3.8-4.8-9.1-4-14C156.7,368.9,158.8,365.2,162,362.8L162,362.8z"/>
		<path id="path73-1" class="st7" d="M405.4,417.9c3-0.8,6.2,1.6,6.4,4.6c0.5,3-2.2,5.8-5.2,5.8c-3,0.1-5.7-2.7-5.3-5.7
			C401.4,420.3,403.3,418.4,405.4,417.9L405.4,417.9z"/>
		<path id="path75-0" class="st7" d="M330.2,428.4c3.1-0.7,6.5,0.1,8.9,2.1c4.6,3.5,5.4,11.2,1.4,15.4c-3.5,3.8-9.9,4.6-14.1,1.5
			c-4.2-2.8-5.6-8.8-3.5-13.3C324.1,431.1,327.1,429.1,330.2,428.4L330.2,428.4z"/>
	</g>
	<g id="_x23_74d1ddff-7" transform="matrix(1.0335 0 0 1.0335 -64.083 -143.64)">
		<path id="path56-7" class="st8" d="M130.9,312.1c3.4-1.2,7.2,1.8,6.9,5.3c0.1,3.5-4,5.9-7.1,4.7c-2.4-0.8-3.9-3.6-3.4-6.1
			C127.6,314.1,129.1,312.6,130.9,312.1L130.9,312.1z"/>
		<path id="path58-9" class="st8" d="M150.6,339.8c-5-6.9-6.2-16-3.9-24.1c1.2,2,2.5,3.9,4.3,5.4c3.1,2.7,7.3,4.1,11.5,3.8
			c1.5,8.5,2.9,17.1,4.3,25.6C160.3,349.1,154.4,345.2,150.6,339.8z"/>
		<path id="path60-9" class="st8" d="M447,360.5c4-2.5,9.7-1.6,12.9,1.8c2.8,2.9,3.6,7.3,2.4,11c-1.5,4.5-6.5,7.3-11.2,6.8
			c-4.1-0.4-7.7-3.4-9-7.3c-1.4-4.2-0.1-9.4,3.8-11.7C446.3,360.9,446.7,360.7,447,360.5z"/>
		<path id="path62-5" class="st8" d="M265.4,395.7c8,6.4,17.6,10.8,27.7,12.6c-3.5,2.7-8,4.3-12.5,3.8c-4.7-0.4-9.2-2.9-12-6.8
			C266.7,402.6,265.5,399.1,265.4,395.7L265.4,395.7z"/>
		<path id="path64-1" class="st8" d="M325.4,405.5c5.1-1.9,9.9-4.5,14.4-7.6c-0.2,2.3-0.7,4.6-0.4,7c0.4,3.4,1.8,6.6,4.1,9.1
			c-2.6,2.5-6.5,3.7-10.1,2.8C328.4,415.7,324.9,410.6,325.4,405.5L325.4,405.5z"/>
		<path id="path66-2" class="st8" d="M252.8,411c3.6-0.9,7.4,2.3,7.1,6c0.1,3.3-3.1,5.8-6.3,5.5c-3.3-0.1-5.8-3.4-5.4-6.5
			C248.3,413.5,250.4,411.5,252.8,411L252.8,411z"/>
	</g>
	<g id="_x23_ffc500ff-8" transform="matrix(1.0335 0 0 1.0335 -64.083 -143.64)">
		<path id="path41-7" class="st9" d="M320.6,277.8c1.8-0.5,3.7-0.3,5.6-0.4c1.7,0,3.4,0.4,5.1,1.1c0.1,2.7,1,5.3,1.8,8
			c0.8,2.7,1.6,5.3,2.4,8c-7.8-4.6-16.6-7.4-25.6-8.2C311.9,282,316.1,279,320.6,277.8z"/>
		<path id="path43-2" class="st9" d="M143.8,348.9c4.4-1,9.2,1.2,11.4,5.2c2,3.6,1.9,8.4-0.7,11.7c-3.2,4.1-9.5,5.4-13.9,2.6
			c-4.5-2.5-6.4-8.4-4.6-13.2C137.2,351.9,140.4,349.6,143.8,348.9z"/>
		<path id="path45-5" class="st9" d="M400.9,373c12.2-0.6,24.3-2.7,35.6-7.3c3.5,6.1,4.5,13.5,3.2,20.4c-1.1,6.3-4.8,12-9.9,15.8
			c-4.7,3.5-10.4,5.7-16.2,6.1c-4.9,0.3-10-0.7-14.4-3C399.8,394.3,400.3,383.7,400.9,373L400.9,373z"/>
	</g>
	<g id="_x23_3c4abfff-5" transform="matrix(1.0335 0 0 1.0335 -64.083 -143.64)">
		<path id="path25-8" class="st10" d="M178,260.5c10.2-3.5,20.8-5.9,31.5-6.5c11.8-0.7,23.9,0.7,35,4.7c10.3,3.7,19.9,9.8,27.2,18.1
			c3.6,4.1,6.6,8.7,8.7,13.8c9.2-3.8,19.3-5.3,29.3-4.4c9,0.8,17.8,3.7,25.6,8.2c-0.8-2.6-1.6-5.3-2.4-8c-0.7-2.6-1.7-5.2-1.8-8
			c-0.2-4.7,1.8-9.4,5.5-12.4c2.7-2.3,6.2-3.3,9.5-4.4c13.5-4.3,27.6-6.3,41.7-6.6c8.3,0,16.5,0.7,24.6,2.4
			c8.6,1.8,17.1,4.8,24.8,8.9c9.7,5.2,18.4,12.4,24.8,21.4c3.9,5.5,6.9,11.6,8.6,18.1c2.1,7.9,2.4,16.3,0.3,24.2
			c-1.6,5.9-4.4,11.5-8.2,16.4c-4.3,5.6-9.9,10.2-15.9,14c-0.4,0.2-0.7,0.4-1,0.6c-3.1,1.7-6.2,3.3-9.5,4.6
			c-11.3,4.6-23.5,6.7-35.6,7.3c-0.6,10.7-1.1,21.3-1.7,32c0,5.3-2.9,10.5-7.4,13.4c-3.1,2-6.8,3.1-10.4,2.9
			c-9.1-0.7-18.3-1.4-27.4-2.1c-4-0.4-7.7-2.3-10.4-5.2c-2.3-2.5-3.8-5.7-4.1-9.1c-0.3-2.3,0.1-4.7,0.4-7c-4.5,3.1-9.3,5.7-14.4,7.6
			c-10.2,3.8-21.5,4.7-32.2,2.8c-10.1-1.8-19.7-6.2-27.7-12.6c-1.1-0.9-2.3-1.9-3.3-2.9c-8.9-8.2-15.3-19.2-18.1-31
			c-5.1,2.5-10.3,4.7-15.7,6.5l7.5,34.3c0.7,6.3-2.7,12.8-8.2,15.8c-1.3,0.7-2.6,1.2-4,1.6l-26.5,5.6c-3.6,0.8-7.4,0.6-10.7-1
			c-5-2-8.7-6.7-9.6-12l-14.2-87.6c-4.1,0.3-8.4-1.1-11.5-3.8c-1.8-1.5-3.1-3.4-4.3-5.4c-3.2-5.1-6.5-10.3-9.7-15.4
			c-2.1-3.6-3.1-8-1.9-12c0.9-3.4,3-6.5,5.8-8.6C152.2,271.3,164.8,265.1,178,260.5"/>
	</g>
	<g id="_x23_ffffffff-7" transform="matrix(1.0335 0 0 1.0335 -64.083 -143.64)">
		<path id="path34-3" class="st11" d="M188.7,269.7c14.8-4.2,30.8-5.5,45.8-1.7c10.7,2.6,20.9,7.9,28.3,16.2
			c4.1,4.6,7.2,10.1,8.9,16.1c-8.8,6-15.8,14.5-20.1,24.3c-3.1,7.1-4.8,14.9-4.8,22.6c-8.9,5.6-18.7,9.5-28.8,12.2
			c-1,0.3-2,0.5-3,0.9c-0.1,0.3-0.2,0.6-0.1,1l9.2,41.8c0.6,2.6-1.3,5.4-3.9,5.8l-26.8,5.6c-2.3,0.5-4.6-1.2-5-3.5L171.6,308
			c0,0-0.1,0.1-0.1,0.1c-2,1.3-3.9,2.6-5.8,3.9c-1.2,0.8-2.6,1.2-4,1.1c-1.8,0-3.4-1.1-4.3-2.6c-3-4.8-6-9.6-8.9-14.3
			c-1-1.6-1.4-3.7-0.6-5.5c1-2.5,3.5-3.7,5.6-5.1C164.3,278.6,176.3,273.3,188.7,269.7 M199.8,292.9c-0.7,0.1-0.8,0.8-0.6,1.4
			l10.6,46.3c8.2-0.9,16.3-4.2,22-10.2c4-4.2,6.6-9.9,6.9-15.7c0.2-4.9-1.6-9.9-4.9-13.6c-4.1-4.9-10.3-7.9-16.5-9.1
			C211.5,290.9,205.5,291.3,199.8,292.9L199.8,292.9z"/>
		<path id="path36-0" class="st11" d="M375.5,267.1c16.4-1.7,33.4-0.4,48.8,5.9c11,4.4,21.2,11.4,28.2,21.1c4.4,6,7.5,13.1,8.3,20.5
			c0.8,6.9-0.5,14-3.9,20c-4.9,8.8-13.4,15.1-22.5,19.1c-12.9,5.7-27.2,7.5-41.2,7.2l-4,0l-2.8,44.2c-0.4,2-2,4.2-4.3,4l-27.1-2.3
			c-1.9-0.1-3.7-1.4-4.3-3.3c-0.5-1.3-0.1-2.7,0-4l2.7-22.8c0.1-0.1,0.2-0.4,0.6-1c7.6-13.2,9.5-29.5,5.3-44.1
			c-0.2-0.6-0.3-0.7-0.4-1c1.1-9.8,2.8-22.7,3.9-32.2c-2.9,1-5.9,2.2-9.1,2.3c-2.3,0.1-4.5-1.4-5.2-3.6l-4.3-15.3
			c-0.5-1.6-1-3.4-0.5-5c0.6-2,2.5-3.4,4.4-4.1C357,269.8,366.2,268,375.5,267.1 M391,341.3c0.2,0,0.6,0.1,1,0.1
			c6.3,0.8,13,0.3,19-2c5.2-2,9.8-5.6,12.7-10.3c2.9-4.4,3.9-10,2.6-15.2c-1.4-5.9-5.3-11-10.2-14.5c-6.3-4.6-14.1-6.7-21.8-6.8
			l-1,0L391,341.3z"/>
		<path id="path38-1" class="st11" d="M299.3,296.5c11.7-1.1,23.7,1.9,33.4,8.5c8.4,5.6,15.1,13.8,18.9,23.1
			c5.5,13.4,5.1,29.1-1.4,42.1c-5,10.1-13.5,18.4-23.6,23.3c-11.8,5.8-25.9,6.7-38.3,2.6c-8.9-2.9-17.1-8.3-23.2-15.5
			c-6.9-8-11.2-18.3-12-28.8c-1.2-12.8,2.8-25.9,10.8-36C272.4,304.8,285.5,297.7,299.3,296.5 M303.8,311.4
			c-7.9,1.2-14.7,7.2-16.9,14.9c-1.6,5.3-1,11.3,1.7,16.1c2.3,4.3,6.2,7.7,10.7,9.5c5.7,2.3,12.4,2,17.8-0.9c3.8-2,7-5.2,9-9
			c2.8-5.4,3.1-12,0.9-17.6c-2.1-5.4-6.6-9.8-12-11.9C311.5,311.2,307.6,310.8,303.8,311.4L303.8,311.4z"/>
	</g>
	<g id="_x23_efefefff-7" transform="matrix(1.0335 0 0 1.0335 -64.083 -143.64)">
		<path id="path11-6" class="st12" d="M495.9,143.4c2.5-0.5,5.3-0.9,7.6,0.3c3.1,1.6,4.9,4.7,6.1,7.8c2.3,5.9,3.1,12.3,3.7,18.6
			c0.8,10.2,1.6,20.4,2.5,30.6c1.2,13.9,1.6,28.1-2.3,41.7c-2.5,8.9-7.2,17.4-14.5,23.3c-2.1,1.9-4.9,2.9-7.5,4
			c-6.5,2.7-13.7,3.8-20.7,3.3c-6.6-0.5-13.1-3-18.2-7.2c-7.2-5.9-11.8-14.3-15-22.9c-0.7-3.2-0.6-6.9,1.6-9.5
			c2.3-2.6,5.7-3.9,9-4.6c2.1-0.5,4,0.9,5.4,2.3c3.9,3.7,6.5,8.5,9.2,13.1c2.7,3.1,6.6,5.1,10.7,5.1c5.4,0,11-1.6,15-5.4
			c4.4-4.2,6.5-10.2,7-16.1c0.6-4.9,0.2-9.8-0.3-14.7c-3.4,1.5-6.9,2.7-10.6,3.5c-3.2,0.7-6.5,0.8-9.8,1.1c-6.4,0.4-12.8-2-17.5-6.4
			c-6.4-5.9-10.2-14.1-13-22.2c-1.1-2.8-1.6-5.8-2.2-8.8c-0.9-4.6-1.4-9.2-1.6-13.9c-0.1-3.7,0.3-7.6,2.3-10.8
			c1.7-2.5,4.6-3.9,7.6-4c3.3,0.3,6.7,1.7,8.6,4.5c1.6,2.2,2,5,2.3,7.6c1.2,4.9,0.8,10,1.8,15c0.8,4.3,2.8,8.5,6.3,11.4
			c2.9,2.4,6.6,4,10.4,3.9c2.9-0.7,5.8-2.1,7.9-4.3c1.8-1.9,3-4.4,3.4-6.9c0.6-3.6,0.2-7.3-0.5-10.9c-0.8-4.4-1.7-8.8-2.5-13.2
			c-0.3-3.5-0.5-7.2,1.1-10.5C490.8,145.7,493.2,144,495.9,143.4L495.9,143.4z"/>
		<path id="path13-9" class="st12" d="M330.5,154c1-2,3.3-2.9,5.4-3.2c2-0.2,4.1-0.1,5.8,1.1c1.5,1,2.5,2.6,3.2,4.3
			c6.8-1.8,14.2-1.9,20.7,1c4.5,2,8,5.6,10.1,10c1.2,2.2,1.5,4.7,2,7.1c1.2,6.6,0.2,13.2,0.2,19.9c-0.2,3.2,0.2,6.8-1.7,9.6
			c-1.7,2.5-5.1,3.1-7.9,2.5c-1.9-0.4-3.6-1.8-4.3-3.6c-1.2-2.8-1.1-5.9-0.7-8.9c0.5-4.1,0.9-8.1,1.4-12.1c0.3-3.4-0.2-7.1-2.3-9.9
			c-1.9-2.4-4.9-3.6-7.9-4c-1.9-0.4-4.1,0.1-5.5,1.5c-1.5,1.6-2.1,3.7-2.3,5.8c-0.3,3.4-0.5,6.7-0.8,10.1c-0.5,4.7-0.2,9.3-0.4,14
			c-0.4,2.5-1.7,5.2-4.3,5.9c-2.2,0.5-4.5,0.4-6.6-0.5c-2.2-0.7-4.4-2.7-4.2-5.3c0.4-8,0.9-16,1.4-24c0.5-5-0.3-10.1-1.2-15.1
			C330,158.2,329.6,156,330.5,154L330.5,154z"/>
		<path id="path15-9" class="st12" d="M128.4,154.7c0.6-1,1.5-2,2.6-2.1c1-0.1,2.6-0.1,3.8-0.1c1.2,0,2.3,0.1,3.4,0.8
			c2.3,1.3,3.1,4,3.4,6.5c0.5,5.2-1,10.2-1.8,15.3c3.1,0.4,6.2,0.9,9.2,1.3c3.3,0.5,6.6,1.1,9.4,2.9c1.8,1.1,3.1,3,3.2,5.2
			c0.1,1.9-0.1,4-1.5,5.5c-1.5,1.6-3.8,2.2-5.9,2.6c-5.8,0.7-11.7-0.2-17.4-1.5c-0.8,4.7-1.6,9.5-2.3,14.2c-0.5,4.2-0.4,9,2.4,12.5
			c0.8,1.2,2.4,1.6,3.8,1.7c2.4-0.3,3.8-2.6,4.7-4.6c0.9-2.4,2.4-4.5,4.5-6c3.2-2.3,7.9-0.5,9.4,2.9c1.1,2.2,1.6,4.7,1.7,7.1
			c-0.4,3.9-2.8,7.2-5.5,9.8c-2.3,2.1-4.8,3.9-7.5,5.4c-2.6,1-5.4,1.6-8.2,1.7c-5.3-0.2-10.6-2.1-14.3-6c-3.5-3.7-5.2-8.6-6-13.6
			c-0.5-3.6-0.7-7.2-0.4-10.8c0.6-5.5,0.8-11,1.7-16.4c-4.4-0.7-8.9-1.3-12.8-3.5c-1.9-1.1-3.7-2.8-3.9-5.1c-0.1-2.1,0.3-4.5,1.9-6
			c1.5-1.5,3.6-2.1,5.7-2.3c4.1-0.5,8.1,0.4,12.1,0.8c0.4-3.6,1.1-7.2,1.9-10.7C126.3,159.5,127,156.9,128.4,154.7L128.4,154.7z"/>
		<path id="path17-3" class="st12" d="M254.5,180.4c1.8-0.3,3.7,0.2,5.3,0.9c1.8,0.8,3.2,2.4,3.5,4.4c0.3,2.2-0.1,4.7-1.3,6.6
			c-1.6,2.5-4.9,3.4-7.7,2.7c-2.4-0.4-4.9-1.8-5.8-4.1c-0.9-2.2-1-4.9,0.3-7.1C249.9,181.9,252.2,180.9,254.5,180.4z"/>
		<path id="path19-4" class="st12" d="M255.5,203.7c2-0.3,4.2-0.2,5.8,1.2c2,1.7,2.9,4.5,3.2,7c0.8,11.4,1.5,22.9,2.3,34.3
			c0.2,2.3-0.4,4.8-1.6,6.8c-2.1,3.1-7,3.2-9.7,0.8c-1.7-1.4-2.5-3.7-2.7-5.9c-1-11.6-1.9-23.1-2.4-34.7c-0.3-2.3,0.2-4.7,1.3-6.8
			C252.4,205,253.9,203.9,255.5,203.7L255.5,203.7z"/>
	</g>
	<g id="_x23_f0f0f0ff" transform="translate(-62.005 -107)">
		<path id="path51" class="st13" d="M533.3,266.8c1.8-1.9,4.7-2.4,7.2-2.2c3.4,0.4,5.6,3.8,6.1,6.9c0.2,9,1.3,18,2.7,26.9
			c2.1,13.1,5,26.1,9,38.7c0.5,2,0.5,4.3-0.7,6c-1.1,1.5-2.9,2.3-4.7,2.6c-1.7,0.2-3.6,0.3-5.2-0.5c-2.1-0.9-3.6-2.8-4.6-4.7
			c-1.7-3.4-2.3-7.1-2.9-10.8c-1.9-11.2-3.4-22.6-5.2-33.8c-2.7,0.5-5.5,1-8.2,0.3c-1.6-0.4-3-1.5-3.6-3c-0.6-1.8-0.9-3.8,0.1-5.5
			c1.6-2.8,4.3-4.9,6.8-6.8c0.4-0.3,0.4-0.7,0.6-1.1c0.5-2.8,0.2-5.6,0.3-8.4C531.3,269.6,532.1,268.1,533.3,266.8L533.3,266.8z"/>
		<path id="path53" class="st13" d="M500.7,294.9c1.6-2.6,5.3-3.6,8-2.2c1.2,0.7,2,1.9,2.3,3.3c0.9,3.7,1.7,7.4,2.6,11.2
			c3.4-0.8,6.8-1.8,10.2-2.7c1.8-0.4,4-0.4,5.4,1c2.9,2.4,2.7,8-1,9.5c-4,1.3-8,2.2-12,3.3c0.7,3.2,1.5,6.5,2.3,9.7
			c0.4,3.3-2.7,6.3-6,6.3c-2.4,0.2-4.6-1.5-5.2-3.8c-0.8-3.1-1.4-6.2-2.2-9.3c-3.2,0.8-6.3,1.7-9.5,2.5c-3.2,0.7-6.2-2.3-6.4-5.4
			c-0.3-2.4,1.3-4.9,3.6-5.6c3.2-0.9,6.4-1.7,9.7-2.6c-0.8-3.5-1.7-7-2.5-10.5C500,298,499.8,296.3,500.7,294.9L500.7,294.9z"/>
	</g>
</g>
</svg>
