<?xml version="1.0" encoding="UTF-8" standalone="no"?><svg version="1.1" width="597.74939" height="171.35547" xml:space="preserve" xmlns="http://www.w3.org/2000/svg" xmlns:svg="http://www.w3.org/2000/svg"><path d="M6.8888104 41.35501H52.814206c3.804607 0 6.88879 3.084173 6.88879 6.888692V137.7966c0 7.60911 6.168368 13.77791 13.777582 13.77791 7.609105 0 13.777581-6.1688 13.777581-13.77791V48.243702c0-3.804519 3.084293-6.888692 6.8889-6.888692H140.0728c3.80461 0 6.88792 3.084173 6.88792 6.888692v52.813268c0 47.55649-21.33032 68.88714-68.887579 68.88714h-9.185127C21.330753 169.94411 0 148.61346 0 101.05697V48.243702c0-3.804519 3.0842251-6.888692 6.8888104-6.888692Z" fill="#ff1d00"/><path opacity=".5" d="M227.74514 150.4362c3.17963-3.73478 10.39809-15.78245 12.56199-24.23719.77493-3.02891-1.28827-6.01995-4.41536-6.01995h-12.71522c-2.93446 0-5.53726 1.8976-6.41508 4.69753-.37433 1.19611-3.04062 8.0942-4.91009 10.60813l-11.71482-11.12639c4.59158-2.78549 15.54132-9.59383 15.54132-22.5458 0-6.201863-2.65425-20.480195-26.25464-20.485339-23.59162-.005254-27.25613 13.245746-27.25613 20.485339 0 11.56935 6.10204 17.34642 7.7121 19.19039-3.45436 1.76669-16.49794 8.99325-16.01197 23.60586.90847 27.38758 37.69582 31.24036 57.10085 17.89577l2.76699 2.84798c2.05773 2.11792 4.88601 3.31316 7.83906 3.31316h15.13634c3.63386 0 5.41577-4.4285 2.79326-6.94483Zm-38.67543-54.038999c4.98233.00394 6.02432 3.498029 5.88641 5.415329-.39622 5.54743-4.65068 8.63457-6.88682 9.88968-1.37473-1.25511-5.36322-5.08949-5.18044-9.12416.09961-2.19532.97195-6.18479 6.18085-6.180849Zm-10.61919 50.285829c-3.40729-7.61381 2.88082-12.35129 3.9666-13.02323l14.60001 14.83447c-2.1617 2.16084-15.11335 5.90523-18.56661-1.81124Z" fill="#ff1d00"/><path d="M515.85128 170.5143c-7.10268 0-13.27716-1.28051-18.52345-3.84153-5.24629-2.56101-9.72582-6.28249-13.43858-11.16443-3.63205-4.96197-6.6184-11.04438-8.95906-18.24724l-2.54243.96038c3.95491 13.52536 6.01306 23.56935 6.17449 30.13196h-29.41961V3e-8h29.54068V34.500302c0 6.002383-.48427 11.924734-1.45283 17.767054-.96855 5.84232-2.58279 12.564988-4.84273 20.168006l2.54243.96038c.08071-.240095.16142-.480189.24215-.720285.16142-.240095.28249-.520206.3632-.840334 2.34065-6.642637 5.327-12.324893 8.95905-17.046767 3.63205-4.721874 8.07123-8.323304 13.31752-10.804289 5.24629-2.561017 11.25934-3.841525 18.03917-3.841525 9.03977 0 16.62672 2.360938 22.76084 7.082813 6.21484 4.721873 10.85579 11.724653 13.92286 21.00834 3.14777 9.283684 4.72166 20.76824 4.72166 34.453665v5.28211c0 20.56816-3.51098 36.13435-10.53294 46.69854-7.02197 10.56419-17.31277 15.84629-30.87242 15.84629Zm-11.62255-19.68781c7.74837 0 13.55964-3.36134 17.43383-10.08402 3.8742-6.72266 5.81129-16.96673 5.81129-30.73219v-9.24367c0-9.203655-.88784-16.84669-2.66351-22.929104-1.69496-6.082414-4.23739-10.604209-7.62731-13.565385-3.38991-3.041207-7.70801-4.561811-12.9543-4.561811-5.48843 0-10.16974 1.640652-14.04393 4.921955-3.79348 3.20127-6.65875 7.963161-8.59584 14.285671-1.93709 6.242478-2.90564 13.925529-2.90564 23.049154v6.84272c0 9.12362.96855 16.80667 2.90564 23.04914 1.93709 6.24248 4.80236 10.96436 8.59584 14.16563 3.87419 3.20128 8.5555 4.80191 14.04393 4.80191Z" fill="#ff1d00"/><path d="M565.66631 1e-7V25.654036h32.08311V1e-7Zm1.51103 41.1610059V168.36041h29.53874V41.161006Z" fill="#ff1d00"/><path d="M405.12658 1e-7V25.654036h32.0831V1e-7Zm1.51101 41.1610059V168.36041h29.54072V41.161006Z" fill="#ff1d00"/><path d="M363.40196 168.3607V0h29.54065v168.3607Z" fill="#ff1d00"/><path d="M300.82617 39.303786c-10.89754 0-20.1124 1.879097-27.64453 5.64059-7.53213 3.681461-13.18119 8.964175-16.94726 15.846907-3.68594 6.802701-4.5882 15.628586-4.10743 25.072335l28.26563 2.658772c-.72116-9.683844.56041-16.965805 3.8457-21.847744 3.36541-4.881937 8.69459-7.324347 15.98633-7.324347 4.24683 0 7.73264.841054 10.45703 2.521721 2.72438 1.600636 4.68674 4.041088 5.88867 7.32239 1.28207 3.201272 1.92383 7.282478 1.92383 12.244448v8.250416l-23.4375 6.026289c-9.1347 2.259841-17.02702 5.063027-23.67773 8.410957-6.6507 3.34791-12.10083 7.91026-16.34766 13.68544-4.24684 5.69147-6.36914 12.84699-6.36914 21.46791v.50317c0 6.77954 1.28157 12.12377 3.8457 16.92569 2.56413 4.72187 6.28987 8.36383 11.17774 10.92485 4.88786 2.48099 10.77688 3.72189 17.66797 3.72189 11.13794 0 20.19283-3.28349 27.16406-8.76338 3.52567-2.77748 6.53058-6.21186 9.01465-10.30309 2.48408-4.09122 4.41196-8.00813 5.85429-13.41296l1.26172.28191 1.26171.28188c-.88142 3.71751-1.40673 6.22832-1.64689 9.19495-.24015 2.96664-.15979 5.55794.24085 7.77414.80129 4.43243 3.00552 7.78477 6.61132 9.99513 3.68593 2.21035 9.01316 3.31465 15.98438 3.31465 1.6827 0 3.21766-.11395 5.04883-.34263.54234-.06465 1.19297-.15986 1.67956-.24278v-20.33416c-4.61407 0-6.00573-1.38137-6.00573-9.49185V80.839754c0-9.04359-1.80436-16.646605-5.41016-22.809051-3.52567-6.24248-8.77292-10.924438-15.74414-14.045678-6.97122-3.121239-15.58529-4.681239-25.8418-4.681239Zm17.66797 69.889674v7.70221c0 6.38003-1.12161 12.05973-3.36523 17.03925-2.16348 4.97953-5.24941 8.8698-9.25586 11.6708-3.92632 2.80096-8.37185 4.20156-13.33985 4.20156-2.88464 0-5.40878-.5059-7.57226-1.51735-2.08336-1.08927-3.68679-2.60493-4.8086-4.55005-1.1218-2.02293-1.68359-4.43526-1.68359-7.23625v-.46794c0-5.67975 2.28421-10.34772 6.85156-14.00455 4.56735-3.65684 10.81723-6.57505 18.75-8.75358Z" fill="#ff1d00"/></svg>