<?xml version="1.0" encoding="UTF-8" standalone="no"?><svg version="1.1" width="770.22498" height="171.338" xmlns="http://www.w3.org/2000/svg" xmlns:svg="http://www.w3.org/2000/svg"><path d="M6.8888104 41.371081H52.814206c3.804607 0 6.88879 3.084173 6.88879 6.888692v89.552897c0 7.60911 6.168368 13.77791 13.777582 13.77791 7.609105 0 13.777581-6.1688 13.777581-13.77791V48.259773c0-3.804519 3.084293-6.888692 6.8889-6.888692H140.0728c3.80461 0 6.88792 3.084173 6.88792 6.888692v52.813267c0 47.55649-21.33032 68.88714-68.887579 68.88714h-9.185127C21.330753 169.96018 0 148.62953 0 101.07304V48.259773c0-3.804519 3.0842251-6.888692 6.8888104-6.888692Z" fill="#eb3c19"/><path opacity=".7" d="M227.74514 150.45227c3.17963-3.73478 10.39809-15.78245 12.56199-24.23719.77493-3.02891-1.28827-6.01995-4.41536-6.01995h-12.71522c-2.93446 0-5.53726 1.8976-6.41508 4.69753-.37433 1.19611-3.04062 8.0942-4.91009 10.60813l-11.71482-11.12639c4.59158-2.78549 15.54132-9.59383 15.54132-22.5458 0-6.201862-2.65425-20.480194-26.25464-20.485338-23.59162-.005254-27.25613 13.245746-27.25613 20.485338 0 11.56935 6.10204 17.34642 7.7121 19.19039-3.45436 1.76669-16.49794 8.99325-16.01197 23.60586.90847 27.38758 37.69582 31.24036 57.10085 17.89577l2.76699 2.84798c2.05773 2.11792 4.88601 3.31316 7.83906 3.31316h15.13634c3.63386 0 5.41577-4.4285 2.79326-6.94483Zm-38.67543-54.038998c4.98233.00394 6.02432 3.498029 5.88641 5.415328-.39622 5.54743-4.65068 8.63457-6.88682 9.88968-1.37473-1.25511-5.36322-5.08949-5.18044-9.12416.09961-2.19532.97195-6.184789 6.18085-6.180848ZM178.45052 146.6991c-3.40729-7.61381 2.88082-12.35129 3.9666-13.02323l14.60001 14.83447c-2.1617 2.16084-15.11335 5.90523-18.56661-1.81124Z" fill="#eb3c19"/><path d="M566.093 0v24.83h31.847V0Zm1.20349 41.415v127.03507H596.638V41.415Z" fill="#eb3c19"/><path d="M516.06526 170.61607c26.95531 0 41.15498-21.53754 41.15498-62.6875v-5.29415c0-41.149945-14.19967-62.687491-41.15498-62.687491-21.41985 0-34.05515 12.8744-40.67365 33.329053l-2.50657-.962572c4.45244-15.401151 6.25747-26.109763 6.25747-38.021591V.00019351h-29.33703V168.45029h29.2167c-.24067-6.25673-2.16605-16.36372-6.13714-30.2007l2.50657-.96257c6.73883 21.29691 19.37413 33.32905 40.67365 33.32905Zm-11.55227-19.73273c-16.48607 0-25.39096-14.67922-25.39096-42.11251v-6.85833c0-27.553624 8.90489-42.353167 25.39096-42.353167 15.40303 0 23.10455 13.355684 23.10455 41.149947v9.26476c0 27.67394-7.70152 40.9093-23.10455 40.9093Z" fill="#eb3c19"/><path d="M405.331 0v24.83h31.938V0Zm1.18743 41.415v127.03507h29.36171V41.415Z" fill="#eb3c19"/><path d="M392.69999 168.45029V.00019351H363.275V168.45029Z" fill="#eb3c19"/><path d="M280.89477 171.338c22.14187 0 36.34154-11.43053 42.23802-32.84777l2.40672.48129c-.59609 2.93421-1.59842 8.13619-1.46489 13.2391.07214 2.75667.47215 5.48443 1.45038 7.81014.9239 2.19655 2.23439 3.94715 4.00914 5.31566 3.6812 2.83857 9.2074 3.84061 14.46263 4.03179 4.82806.17565 9.18873-.31961 10.86323-.58821v-19.913c-6.72796.14978-7.65997-1.19131-7.65997-8.81259V78.690449c0-26.109764-15.76404-39.465449-46.57012-39.465449-33.45346 0-50.90222 17.205973-49.09718 46.323774l28.51969 3.128358c-1.44404-20.21401 5.29479-29.599086 19.97581-29.599086 12.6353 0 18.29111 6.256718 18.29111 20.09369v10.58829l-24.18758 6.136396C269.82384 102.03282 248.765 111.89918 248.765 139.09183v.4813c0 19.97336 11.67261 31.76487 32.12977 31.76487Zm10.70993-21.2969c-8.78454 0-13.47766-4.57222-13.47766-13.11505v-.48128c0-12.27279 10.22857-18.4092 25.15027-22.62044l15.04203-4.21125v8.54282c0 18.77015-11.3116 31.8852-26.71464 31.8852Z" fill="#eb3c19"/><path d="M680.14285 168.55774h-15.17211a4.0705789 4.0733575 0 0 1-4.0706-4.07337v-30.9289h-26.96981v30.9289a4.0705789 4.0733575 0 0 1-4.07058 4.07337h-15.16734a4.0705789 4.0733575 0 0 1-4.07058-4.07337V86.765617a4.0705789 4.0733575 0 0 1 4.07058-4.073358h15.16734a4.0705789 4.0733575 0 0 1 4.07058 4.073358v27.754933h26.96981V86.765617a4.0705789 4.0733575 0 0 1 4.0706-4.073358h15.17211a4.0705789 4.0733575 0 0 1 4.07058 4.073358v77.718753a4.0705789 4.0733575 0 0 1-4.07058 4.07337Zm90.08211-44.7627c0 9.94726-1.90889 18.38315-5.67667 25.04142-2.07745 3.75097-4.62397 6.83415-7.66819 9.51582-2.35946 2.0785-5.12367 3.93562-8.06393 5.37174-2.91166 1.42213-5.94818 2.51813-9.30949 3.30416-4.41242 1.03188-8.78971 1.52956-14.39964 1.52956h-23.70675a4.0705789 4.0733575 0 0 1-4.07058-4.07337V86.765617a4.0705789 4.0733575 0 0 1 4.07058-4.073358h25.63063c5.88585 0 10.54565.541967 15.0838 1.675543 2.9893.746697 5.78622 1.750092 8.33303 3.024374 3.42496 1.670785 6.44695 3.793123 9.00308 6.310417 2.23021 2.196385 4.15342 4.714993 5.7223 7.555817 3.36692 6.09671 5.05183 13.63221 5.05183 22.53663Zm-24.07456.8423c0-5.21429-.70696-9.74655-2.14999-13.19601-2.27342-5.75429-6.65062-8.40831-10.96889-9.41792-1.91251-.44712-3.87533-.60974-5.7601-.60974h-6.73386v48.13194h5.17069c7.05446 0 12.22515-2.0456 15.51194-6.13681 3.28681-4.09121 4.93021-10.44292 4.93021-18.77146Z" fill="#eb3c19" opacity=".7"/></svg>