<?xml version="1.0" encoding="UTF-8" standalone="no"?><svg version="1.1" width="1185.8108" height="132.02628" viewBox="0 0 1185.8108 132.02628" xml:space="preserve" xmlns="http://www.w3.org/2000/svg" xmlns:svg="http://www.w3.org/2000/svg"><path opacity=".7" d="M227.74588 111.37473c3.17809-3.73496 10.39592-15.782641 12.56073-24.237384.77574-3.028919-1.28842-6.019887-4.41552-6.019887h-12.71507c-2.93384 0-5.53751 1.897516-6.41391 4.697526-.37579 1.196039-3.0412 8.094148-4.91075 10.608123l-11.71521-11.12642c4.59133-2.785527 15.54154-9.593923 15.54154-22.545847 0-6.201862-2.65467-20.48017-26.25554-20.4854-23.59147-.00523-27.25541 13.245738-27.25541 20.4854 0 11.569352 6.10254 17.346518 7.71172 19.190395-3.45323 1.766768-16.49712 8.993289-16.01128 23.606044.90861 27.38833 37.69562 31.23969 57.10108 17.89552l2.76607 2.84829c2.05879 2.11811 4.88525 3.31361 7.83922 3.31361h15.13623c3.63441 0 5.41538-4.42866 2.79425-6.94518Zm-38.6767-54.039254c4.98322.003889 6.02469 3.498136 5.88646 5.415365-.39592 5.547453-4.65039 8.634571-6.88633 9.889614-1.37431-1.255043-5.36304-5.089367-5.18051-9.124037.09931-2.195352.97168-6.18483 6.18038-6.180942Zm-10.61871 50.286064c-3.4076-7.61394 2.88015-12.351425 3.96725-13.023401l14.59939 14.834551c-2.16213 2.16129-15.11341 5.9047-18.56664-1.81115Z" fill="#6ee67d"/><path d="M278.0841 30.370494c-1.90847 6.545426-3.54583 13.456275-5.09194 21.549618h-1.81854c-1.63603-8.093343-3.18213-15.004192-5.27312-21.640269l-9.54772-27.9156582h-30.55161l31.00659 80.4710962v46.827079h29.09677V82.835281l31.00658-80.4710962H287.2681Z" fill="#6ee67d"/><path d="M354.48729 74.741401h36.73468v-20.82132h-36.73468V26.187108h40.09932V2.3641848h-69.28736V129.66236h71.01465v-23.82301h-41.82661Z" fill="#6ee67d"/><path d="m463.87666 56.738195-13.00363-7.000964c-13.7297-7.27359-17.09435-12.639337-17.09435-18.640585 0-5.637166 4.36452-9.454995 11.9125-9.454995 10.6375 0 15.91196 6.182551 16.09449 21.640269l25.36841-3.001026C487.60771 13.093574 473.42438 0 446.05355 0c-25.64086 0-39.73428 12.092517-39.82554 34.826506-.18253 20.457239 12.63857 29.550164 25.6422 36.91454l12.63858 7.27426c12.8211 7.273723 17.3668 13.092863 17.3668 20.458579 0 6.456785-4.72823 10.820805-12.63858 10.820805-12.54865 0-17.00443-6.54744-17.54932-24.095776l-27.00578 3.455223c-.27245 28.823203 15.18454 42.372143 43.19153 42.372143 27.00578 0 42.64395-13.82103 42.64395-37.643371 0-22.004351-13.72971-30.642544-26.64073-37.644714Z" fill="#6ee67d"/><path d="M495.2738 26.187108h26.46088V129.66236h29.09678V26.187108h26.36962V2.3641848H495.2738Z" fill="#6ee67d"/><path d="M617.79296 74.741401h36.73333v-20.82132h-36.73333V26.187108h40.09798V2.3641848h-69.28602V129.66236h71.01465v-23.82301h-41.82661Z" fill="#6ee67d"/><path d="m752.03672 105.11185-2.45605-14.912194c-2.45604-14.911395-6.00188-19.549515-17.09569-22.8233v-1.635888c14.27728-2.36405 22.09637-11.820387 22.09637-27.096668v-4.09059c0-20.914653-12.91103-32.1890252-37.82581-32.1890252h-45.64489V129.66236h29.18803V77.016141h8.27272c8.63777 0 11.27634 3.727178 12.82244 16.547282l1.63469 12.821437c1.63736 12.82145 2.72983 18.91281 5.27446 23.2775h31.55282l.36236-2.4555c-3.54583-2.91024-5.63682-7.27426-8.18145-22.09501ZM725.6671 43.373376c0 8.091198-3.72836 11.820388-11.63871 11.820388h-13.72971V25.368963h13.72971c7.91035 0 11.63871 3.637733 11.63871 11.729065Z" fill="#6ee67d"/><path d="M809.22772 2.3641848h-40.64557V129.66236h40.64557c30.91398 0 45.64489-17.18613 45.64489-53.101757V55.647961c0-36.098942-14.73091-53.2837762-45.64489-53.2837762Zm16.09449 82.6525022c0 14.821414-5.54826 21.640263-17.64059 21.640263h-9.91143V25.368963h9.91143c12.09233 0 17.64059 6.819392 17.64059 21.640269Z" fill="#6ee67d"/><path d="M886.04964 2.3641848 856.22545 129.66236h28.09691l3.45591-18.09453h31.91519l3.45457 18.09453h30.82406L923.603 2.3641848Zm6.09314 88.2896682 6.36425-29.822923c1.90981-11.275539 3.36465-20.549902 4.27326-31.370037h1.90981c1.09113 10.820135 2.63723 20.094498 4.45578 31.370037l6.27432 29.822923Z" fill="#6ee67d"/><path d="m1001.1351 2.3641848-9.18477 28.0063092c-1.91023 6.545426-3.54661 13.456275-5.09305 21.549618h-1.81895c-1.63774-8.093343-3.18419-15.004192-5.27563-21.640269l-9.54982-27.9156448h-30.55835l31.01343 80.4710828v46.827079h29.10319V82.835281l31.01335-80.4710828Z" fill="#6ee67d"/><path d="M6.88879 2.2962631h45.925217c3.804591 0 6.888742 3.0841682 6.888742 6.8886953V98.738078c0 7.609112 6.168435 13.777442 13.777617 13.777442 7.609183 0 13.777618-6.16833 13.777618-13.777442V9.1849584c0-3.8045271 3.084151-6.8886953 6.888742-6.8886953h45.924984c3.80486 0 6.88901 3.0841682 6.88901 6.8886953V61.998405c0 47.556585-21.33069 68.886955-68.887814 68.886955h-9.185079C21.330708 130.88536 0 109.55499 0 61.998405V9.1849584c0-3.8045271 3.0842124-6.8886953 6.88879-6.8886953Z" fill="#6ee67d"/><path d="M1095.7642 129.42428h-15.1755c-2.2461.00008-4.0669-1.80044-4.0669-4.04869V94.466675h-26.9536v30.908915c0 2.24814-1.8206 4.0486-4.0664 4.04869h-15.1252c-2.2459-.00003-4.0666-1.80051-4.0666-4.04869V47.726649c0-2.248171 1.8207-4.050608 4.0666-4.050649h15.1252c2.2458.000096 4.0664 1.802517 4.0664 4.050649v27.717413h26.9536V47.726649c0-2.248249 1.8208-4.050719 4.0669-4.050649h15.1755c2.246 0 4.0667 1.802439 4.0667 4.050649v77.648941c0 2.24822-1.8207 4.04869-4.0667 4.04869Zm90.0466-44.711735c0 9.940844-1.9399 18.371285-5.7068 25.025245-2.077 3.74855-4.6228 6.82974-7.6662 9.50967-2.3588 2.07716-5.1223 3.93308-8.0618 5.36827-2.9109 1.42121-5.915 2.49447-9.2754 3.27999-4.4113 1.0312-8.7876 1.52856-14.396 1.52856h-23.7005c-2.2474-.00003-4.0694-1.80051-4.0694-4.04869V47.726649c0-2.248171 1.822-4.050608 4.0694-4.050649h25.6237c5.8846 0 10.5431.521538 15.0801 1.654382 2.9886.746214 5.7846 1.748961 8.3308 3.022421 3.424 1.669705 6.4452 3.790672 9.0006 6.306339 2.2297 2.194966 4.1524 4.711946 5.7209 7.550936 3.3659 6.092775 5.0506 13.60381 5.0506 22.502467Zm-24.0683.841765c0-5.210925-.7468-9.740251-2.1895-13.187479-2.2728-5.750573-6.6489-8.402886-10.966-9.411843-1.912-.44683-3.8343-.609337-5.7186-.609337h-6.732v48.100839h5.1694c7.0526 0 12.2218-2.04428 15.5076-6.13285 3.286-4.08857 4.9291-10.436167 4.9291-18.75933Z" opacity=".7" fill="#6ee67d"/></svg>