<?xml version="1.0" encoding="UTF-8" standalone="no"?>
<!-- Generator: Adobe Illustrator 21.1.0, SVG Export Plug-In . SVG Version: 6.00 Build 0)  -->

<svg
   xmlns:dc="http://purl.org/dc/elements/1.1/"
   xmlns:cc="http://creativecommons.org/ns#"
   xmlns:rdf="http://www.w3.org/1999/02/22-rdf-syntax-ns#"
   xmlns:svg="http://www.w3.org/2000/svg"
   xmlns="http://www.w3.org/2000/svg"
   xmlns:xlink="http://www.w3.org/1999/xlink"
   xmlns:sodipodi="http://sodipodi.sourceforge.net/DTD/sodipodi-0.dtd"
   xmlns:inkscape="http://www.inkscape.org/namespaces/inkscape"
   version="1.1"
   id="Layer_1"
   x="0px"
   y="0px"
   width="999.99994"
   height="963.83948"
   viewBox="0 0 999.99994 963.83945"
   xml:space="preserve"
   sodipodi:docname="Utsav_Plus_HD logo.svg"
   inkscape:version="0.92.3 (2405546, 2018-03-11)"><metadata
   id="metadata36"><rdf:RDF><cc:Work
       rdf:about=""><dc:format>image/svg+xml</dc:format><dc:type
         rdf:resource="http://purl.org/dc/dcmitype/StillImage" /><dc:title></dc:title></cc:Work></rdf:RDF></metadata><defs
   id="defs34">
<linearGradient
   inkscape:collect="always"
   xlink:href="#linearGradient919"
   id="linearGradient982"
   gradientUnits="userSpaceOnUse"
   x1="288.61188"
   y1="688.23383"
   x2="427.04883"
   y2="517.56641" /><linearGradient
   inkscape:collect="always"
   id="linearGradient919"><stop
     style="stop-color:#d82429;stop-opacity:1"
     offset="0"
     id="stop915" /><stop
     style="stop-color:#e0533e;stop-opacity:1"
     offset="1"
     id="stop917" /></linearGradient><linearGradient
   inkscape:collect="always"
   xlink:href="#linearGradient919"
   id="linearGradient984"
   gradientUnits="userSpaceOnUse"
   x1="135.51414"
   y1="132.66666"
   x2="145.09465"
   y2="129.21071" /></defs><sodipodi:namedview
   pagecolor="#ffffff"
   bordercolor="#666666"
   borderopacity="1"
   objecttolerance="10"
   gridtolerance="10"
   guidetolerance="10"
   inkscape:pageopacity="0"
   inkscape:pageshadow="2"
   inkscape:window-width="1366"
   inkscape:window-height="705"
   id="namedview32"
   showgrid="false"
   inkscape:zoom="0.472"
   inkscape:cx="623.72711"
   inkscape:cy="447.39523"
   inkscape:window-x="-8"
   inkscape:window-y="-8"
   inkscape:window-maximized="1"
   inkscape:current-layer="Layer_1" />
<style
   type="text/css"
   id="style2">
	.st0{fill:#FFFFFF;}
	.st1{fill:#0066B2;}
	.st2{fill:#00A551;}
	.st3{fill:#EC1C24;}
	.st4{fill:#231F20;}
	.st5{fill:#221F1F;}
</style>

<g
   id="g862"
   transform="translate(-723.18599,-832.68806)"><g
     aria-label="Utsav Plus HD"
     style="font-style:normal;font-variant:normal;font-weight:bold;font-stretch:normal;font-size:158.80949402px;line-height:1.25;font-family:Roboto;-inkscape-font-specification:'Roboto Bold';letter-spacing:0px;word-spacing:0px;fill:#b18949;fill-opacity:1;stroke:none;stroke-width:0.29776785"
     id="text1108"><path
       d="m 809.72475,1682.0731 v 74.3644 q 0,18.5329 -11.63155,29.3115 -11.55401,10.7786 -31.63783,10.7786 -19.77364,0 -31.4052,-10.4684 -11.63155,-10.4684 -11.86418,-28.7688 v -75.2173 h 23.26311 v 74.5195 q 0,11.0887 5.27297,16.2066 5.35051,5.0403 14.7333,5.0403 19.61856,0 19.92873,-20.6266 v -75.1398 z"
       style="fill:#b18949;fill-opacity:1;stroke-width:0.29776785"
       id="path864"
       inkscape:connector-curvature="0" /><path
       d="m 854.1573,1690.4478 v 20.6266 h 14.34558 v 16.4393 H 854.1573 v 41.8736 q 0,4.6526 1.7835,6.6687 1.78351,2.0162 6.82385,2.0162 3.72209,0 6.59121,-0.5428 v 16.982 q -6.59121,2.0162 -13.57015,2.0162 -23.57328,0 -24.03854,-23.806 v -45.2079 h -12.25191 v -16.4393 h 12.25191 v -20.6266 z"
       style="fill:#b18949;fill-opacity:1;stroke-width:0.29776785"
       id="path866"
       inkscape:connector-curvature="0" /><path
       d="m 926.42802,1771.7911 q 0,-4.1098 -4.10981,-6.4361 -4.03227,-2.4039 -13.02734,-4.2649 -29.93187,-6.2811 -29.93187,-25.4343 0,-11.1663 9.2277,-18.6105 9.30524,-7.5218 24.27118,-7.5218 15.974,0 25.51187,7.5218 9.61542,7.5217 9.61542,19.541 h -22.41013 q 0,-4.8077 -3.10175,-7.9095 -3.10174,-3.1793 -9.69296,-3.1793 -5.66069,0 -8.76244,2.559 -3.10174,2.5589 -3.10174,6.5136 0,3.7221 3.48946,6.0485 3.56701,2.2487 11.94173,3.9547 8.37472,1.6284 14.11296,3.7221 17.7575,6.5136 17.7575,22.5652 0,11.4765 -9.84805,18.6105 -9.84805,7.0565 -25.43433,7.0565 -10.54594,0 -18.76557,-3.7221 -8.14209,-3.7997 -12.79472,-10.3134 -4.65262,-6.5912 -4.65262,-14.1904 h 21.24698 q 0.31017,5.9708 4.41999,9.1501 4.10981,3.1793 11.0112,3.1793 6.43613,0 9.69296,-2.4039 3.33438,-2.4814 3.33438,-6.4361 z"
       style="fill:#b18949;fill-opacity:1;stroke-width:0.29776785"
       id="path868"
       inkscape:connector-curvature="0" /><path
       d="m 1011.1833,1794.9767 q -1.5509,-3.0242 -2.2488,-7.5218 -8.1421,9.0727 -21.16941,9.0727 -12.32945,0 -20.47153,-7.1341 -8.06455,-7.134 -8.06455,-17.9901 0,-13.3375 9.84805,-20.4715 9.92559,-7.1341 28.61363,-7.2116 h 10.31331 v -4.8077 q 0,-5.8158 -3.0242,-9.3053 -2.9467,-3.4894 -9.38279,-3.4894 -5.66069,0 -8.91753,2.714 -3.17929,2.714 -3.17929,7.4442 h -22.41013 q 0,-7.2891 4.49753,-13.4926 4.49754,-6.2035 12.71717,-9.693 8.21963,-3.567 18.4554,-3.567 15.50874,0 24.58134,7.8319 9.1502,7.7544 9.1502,21.8674 v 36.368 q 0.077,11.9417 3.3343,18.0676 v 1.3183 z m -18.53296,-15.5863 q 4.9628,0 9.15016,-2.1712 4.1874,-2.2488 6.2035,-5.9709 v -14.4231 h -8.37472 q -16.82698,0 -17.9126,11.6315 l -0.0775,1.3183 q 0,4.1873 2.94666,6.9014 2.94666,2.714 8.06454,2.714 z"
       style="fill:#b18949;fill-opacity:1;stroke-width:0.29776785"
       id="path870"
       inkscape:connector-curvature="0" /><path
       d="m 1078.0259,1767.6038 15.5863,-56.5294 h 23.4182 l -28.3034,83.9023 h -21.4021 l -28.3034,-83.9023 h 23.4182 z"
       style="fill:#b18949;fill-opacity:1;stroke-width:0.29776785"
       id="path872"
       inkscape:connector-curvature="0" /><path
       d="m 1191.3948,1755.1968 v 39.7799 h -23.2631 v -112.9036 h 44.0449 q 12.7171,0 22.3325,4.6526 9.693,4.6526 14.8884,13.26 5.1955,8.5298 5.1955,19.4634 0,16.5944 -11.399,26.2098 -11.3213,9.5379 -31.4052,9.5379 z m 0,-18.8432 h 20.7818 q 9.2277,0 14.0354,-4.3424 4.8852,-4.3424 4.8852,-12.407 0,-8.2972 -4.8852,-13.415 -4.8853,-5.1179 -13.4926,-5.273 h -21.3246 z"
       style="fill:#b18949;fill-opacity:1;stroke-width:0.29776785"
       id="path874"
       inkscape:connector-curvature="0" /><path
       d="m 1293.9933,1794.9767 h -22.4876 v -119.1071 h 22.4876 z"
       style="fill:#b18949;fill-opacity:1;stroke-width:0.29776785"
       id="path876"
       inkscape:connector-curvature="0" /><path
       d="m 1361.9456,1786.4469 q -8.2972,10.0807 -22.953,10.0807 -13.4926,0 -20.6266,-7.7544 -7.0565,-7.7544 -7.2116,-22.7203 v -54.9785 h 22.4102 v 54.203 q 0,13.1049 11.9417,13.1049 11.3989,0 15.6638,-7.9094 v -59.3985 h 22.4877 v 83.9023 h -21.0919 z"
       style="fill:#b18949;fill-opacity:1;stroke-width:0.29776785"
       id="path878"
       inkscape:connector-curvature="0" /><path
       d="m 1447.2855,1771.7911 q 0,-4.1098 -4.1098,-6.4361 -4.0323,-2.4039 -13.0274,-4.2649 -29.9318,-6.2811 -29.9318,-25.4343 0,-11.1663 9.2277,-18.6105 9.3052,-7.5218 24.2712,-7.5218 15.974,0 25.5118,7.5218 9.6155,7.5217 9.6155,19.541 h -22.4102 q 0,-4.8077 -3.1017,-7.9095 -3.1018,-3.1793 -9.693,-3.1793 -5.6607,0 -8.7624,2.559 -3.1018,2.5589 -3.1018,6.5136 0,3.7221 3.4895,6.0485 3.567,2.2487 11.9417,3.9547 8.3747,1.6284 14.113,3.7221 17.7575,6.5136 17.7575,22.5652 0,11.4765 -9.8481,18.6105 -9.848,7.0565 -25.4343,7.0565 -10.5459,0 -18.7656,-3.7221 -8.1421,-3.7997 -12.7947,-10.3134 -4.6526,-6.5912 -4.6526,-14.1904 h 21.247 q 0.3101,5.9708 4.42,9.1501 4.1098,3.1793 11.0112,3.1793 6.4361,0 9.6929,-2.4039 3.3344,-2.4814 3.3344,-6.4361 z"
       style="fill:#b18949;fill-opacity:1;stroke-width:0.29776785"
       id="path880"
       inkscape:connector-curvature="0" /><path
       d="m 1616.4858,1794.9767 h -23.2631 v -48.3873 h -45.363 v 48.3873 h -23.2632 v -112.9036 h 23.2632 v 45.7507 h 45.363 v -45.7507 h 23.2631 z"
       style="fill:#b18949;fill-opacity:1;stroke-width:0.29776785"
       id="path882"
       inkscape:connector-curvature="0" /><path
       d="m 1636.8798,1794.9767 v -112.9036 h 34.7396 q 14.8884,0 26.5975,6.7463 11.7866,6.6687 18.3778,19.0757 6.5913,12.3295 6.5913,28.0708 v 5.1955 q 0,15.7413 -6.5137,27.9932 -6.4361,12.2519 -18.2228,18.9982 -11.7866,6.7463 -26.5975,6.8239 z m 23.2631,-94.0605 v 75.3725 h 11.2439 q 13.6477,0 20.8592,-8.9176 7.2116,-8.9175 7.3667,-25.5118 v -5.9709 q 0,-17.2147 -7.1341,-26.0547 -7.134,-8.9175 -20.8592,-8.9175 z"
       style="fill:#b18949;fill-opacity:1;stroke-width:0.29776785"
       id="path884"
       inkscape:connector-curvature="0" /></g><g
     style="stroke-width:0.76896322"
     transform="matrix(9.206667,0,0,9.206667,259.12234,-183.54222)"
     id="g955-7-1"><path
       style="fill:url(#linearGradient982);fill-opacity:1;stroke:none;stroke-width:0.76896316px;stroke-linecap:butt;stroke-linejoin:miter;stroke-opacity:1"
       d="M 367.69336,417.18359 267.52344,586.5957 c 40.58733,-26.25535 98.25885,-47.97751 162.12304,-64.63281 16.05552,-4.18716 32.49962,-8.05778 49.16602,-11.5957 -19.95414,2.21606 -36.83081,4.47989 -51.76367,7.19922 z M 492.95508,517.94336 C 473.86713,522.28529 455.52724,528.46499 438,536.08984 349.83014,574.44626 282.28836,649.49186 244.32617,712.51953 H 542.32031 L 445.31836,548.46289 c 13.25291,-11.45266 28.1136,-19.85465 47.63672,-30.51953 z"
       transform="scale(0.26458333)"
       id="path951-3-7"
       inkscape:connector-curvature="0" /><path
       style="opacity:1;fill:url(#linearGradient984);fill-opacity:1;stroke:none;stroke-width:0.92813849;stroke-linecap:round;stroke-linejoin:round;stroke-miterlimit:4;stroke-dasharray:none;stroke-opacity:1"
       d="m 131.4188,134.67255 a 9.5439307,9.5439307 0 0 1 12.36872,5.40247 9.5439307,9.5439307 0 0 1 5.40248,-12.36872 9.5439307,9.5439307 0 0 1 -12.36873,-5.40248 9.5439307,9.5439307 0 0 1 -5.40247,12.36873 z"
       id="path953-3-4"
       inkscape:connector-curvature="0" /></g></g></svg>